# This file uses centimeters as units for non-parametric coordinates.

mtllib Bathtub.mtl
g default
v 0.188157 0.036989 -4.530888
v -0.267362 0.036989 -5.218324
v -0.976851 0.036989 -5.763877
v -1.774176 0.036989 -5.858717
v -2.861877 0.036989 -5.966266
v -3.949577 0.036989 -5.858717
v -4.746902 0.036989 -5.763877
v -5.456391 0.036989 -5.218324
v -5.911907 0.036989 -4.530887
v -6.068871 0.036989 -3.768857
v -5.911907 0.036989 -3.006828
v -5.456391 0.036989 -2.319391
v -4.746901 0.036989 -1.773838
v -3.949577 0.036989 -1.678999
v -2.861877 0.036989 -1.571450
v -1.774176 0.036989 -1.678999
v -0.976852 0.036989 -1.773838
v -0.267362 0.036989 -2.319391
v 0.188157 0.036989 -3.006828
v 0.345117 0.036989 -3.768857
v 0.569920 1.617384 -4.626267
v 0.057385 1.617384 -5.399749
v -0.740910 1.617384 -6.013588
v -1.638032 1.617384 -6.120298
v -2.861877 1.617384 -6.241308
v -4.085721 1.617384 -6.120298
v -4.982844 1.617384 -6.013587
v -5.781137 1.617384 -5.399749
v -6.293672 1.617384 -4.626267
v -6.470281 1.617384 -3.768857
v -6.293672 1.617384 -2.911447
v -5.781137 1.617384 -2.137966
v -4.982844 1.617384 -1.524128
v -4.085720 1.617384 -1.417417
v -2.861877 1.617384 -1.296407
v -1.638032 1.617384 -1.417417
v -0.740910 1.617384 -1.524128
v 0.057383 1.617384 -2.137966
v 0.569919 1.617384 -2.911447
v 0.746527 1.617384 -3.768857
v -2.861876 0.036989 -3.768857
v 0.358089 1.617384 -4.572788
v -0.118076 1.617384 -5.300478
v -0.863494 1.617384 -5.881740
v -1.706007 1.617384 -5.987065
v -2.861877 1.617384 -6.103458
v -4.017745 1.617384 -5.987065
v -4.860260 1.617384 -5.881739
v -5.605677 1.617384 -5.300478
v -6.081841 1.617384 -4.572788
v -6.245442 1.617384 -3.768857
v -6.081841 1.617384 -2.964926
v -5.605677 1.617384 -2.237236
v -4.860257 1.617384 -1.655976
v -4.017745 1.617384 -1.550650
v -2.861877 1.617384 -1.434258
v -1.706008 1.617384 -1.550650
v -0.863495 1.617384 -1.655976
v -0.118077 1.617384 -2.237236
v 0.358089 1.617384 -2.964926
v 0.521689 1.617384 -3.768857
v -0.181863 0.206108 -4.436682
v -0.566354 0.206108 -5.047324
v -1.177685 0.206108 -5.544599
v -1.880788 0.206108 -5.645508
v -2.861877 0.206108 -5.749660
v -3.842965 0.206108 -5.645508
v -4.546067 0.206108 -5.544599
v -5.157398 0.206108 -5.047324
v -5.541890 0.206108 -4.436682
v -5.672828 0.206108 -3.768858
v -5.541890 0.206108 -3.101033
v -5.157398 0.206108 -2.490390
v -4.546067 0.206108 -1.993116
v -3.842965 0.206108 -1.892207
v -2.861877 0.206108 -1.788055
v -1.880789 0.206108 -1.892207
v -1.177686 0.206108 -1.993116
v -0.566356 0.206108 -2.490390
v -0.181864 0.206108 -3.101033
v -0.050926 0.206108 -3.768857
v -0.181863 0.206108 -4.436682
v -0.566354 0.206108 -5.047324
v -2.861876 0.206108 -3.768857
v -1.177685 0.206108 -5.544599
v -1.880788 0.206108 -5.645508
v -2.861877 0.206108 -5.749660
v -3.842965 0.206108 -5.645508
v -4.546067 0.206108 -5.544599
v -5.157398 0.206108 -5.047324
v -5.541890 0.206108 -4.436682
v -5.672828 0.206108 -3.768858
v -5.541890 0.206108 -3.101033
v -5.157398 0.206108 -2.490390
v -4.546067 0.206108 -1.993116
v -3.842965 0.206108 -1.892207
v -2.861877 0.206108 -1.788055
v -1.880789 0.206108 -1.892207
v -1.177686 0.206108 -1.993116
v -0.566356 0.206108 -2.490390
v -0.181864 0.206108 -3.101033
v -0.050926 0.206108 -3.768857
vt 0.648603 0.107966
vt 0.626409 0.064408
vt 0.591842 0.029841
vt 0.548284 0.007647
vt 0.500000 -0.000000
vt 0.451716 0.007647
vt 0.408159 0.029841
vt 0.373591 0.064409
vt 0.351397 0.107966
vt 0.343750 0.156250
vt 0.351397 0.204534
vt 0.373591 0.248091
vt 0.408159 0.282659
vt 0.451716 0.304853
vt 0.500000 0.312500
vt 0.548284 0.304853
vt 0.591841 0.282659
vt 0.626409 0.248091
vt 0.648603 0.204534
vt 0.656250 0.156250
vt 0.375000 0.312500
vt 0.387500 0.312500
vt 0.400000 0.312500
vt 0.412500 0.312500
vt 0.425000 0.312500
vt 0.437500 0.312500
vt 0.450000 0.312500
vt 0.462500 0.312500
vt 0.475000 0.312500
vt 0.487500 0.312500
vt 0.500000 0.312500
vt 0.512500 0.312500
vt 0.525000 0.312500
vt 0.537500 0.312500
vt 0.550000 0.312500
vt 0.562500 0.312500
vt 0.575000 0.312500
vt 0.587500 0.312500
vt 0.600000 0.312500
vt 0.612500 0.312500
vt 0.625000 0.312500
vt 0.375000 0.688440
vt 0.387500 0.688440
vt 0.400000 0.688440
vt 0.412500 0.688440
vt 0.425000 0.688440
vt 0.437500 0.688440
vt 0.450000 0.688440
vt 0.462500 0.688440
vt 0.475000 0.688440
vt 0.487500 0.688440
vt 0.500000 0.688440
vt 0.512500 0.688440
vt 0.525000 0.688440
vt 0.537500 0.688440
vt 0.550000 0.688440
vt 0.562500 0.688440
vt 0.575000 0.688440
vt 0.587500 0.688440
vt 0.600000 0.688440
vt 0.612500 0.688440
vt 0.625000 0.688440
vt 0.648603 0.795466
vt 0.626409 0.751908
vt 0.591842 0.717341
vt 0.548284 0.695147
vt 0.500000 0.687500
vt 0.451716 0.695147
vt 0.408159 0.717341
vt 0.373591 0.751909
vt 0.351397 0.795466
vt 0.343750 0.843750
vt 0.351397 0.892034
vt 0.373591 0.935591
vt 0.408159 0.970159
vt 0.451716 0.992353
vt 0.500000 1.000000
vt 0.548284 0.992353
vt 0.591841 0.970159
vt 0.626409 0.935591
vt 0.648603 0.892034
vt 0.656250 0.843750
vt 0.500000 0.150000
vt 0.500000 0.837500
vt 0.648603 0.892034
vt 0.626409 0.935591
vt 0.591841 0.970159
vt 0.548284 0.992353
vt 0.500000 1.000000
vt 0.451716 0.992353
vt 0.408159 0.970159
vt 0.373591 0.935591
vt 0.351397 0.892034
vt 0.343750 0.843750
vt 0.351397 0.795466
vt 0.373591 0.751909
vt 0.408159 0.717341
vt 0.451716 0.695147
vt 0.500000 0.687500
vt 0.548284 0.695147
vt 0.591842 0.717341
vt 0.626409 0.751908
vt 0.648603 0.795466
vt 0.656250 0.843750
vt 0.648603 0.892034
vt 0.626409 0.935591
vt 0.591841 0.970159
vt 0.548284 0.992353
vt 0.500000 1.000000
vt 0.451716 0.992353
vt 0.408159 0.970159
vt 0.373591 0.935591
vt 0.351397 0.892034
vt 0.343750 0.843750
vt 0.351397 0.795466
vt 0.373591 0.751909
vt 0.408159 0.717341
vt 0.451716 0.695147
vt 0.500000 0.687500
vt 0.548284 0.695147
vt 0.591842 0.717341
vt 0.626409 0.751908
vt 0.648603 0.795466
vt 0.656250 0.843750
vt 0.648603 0.892034
vt 0.626409 0.935591
vt 0.591841 0.970159
vt 0.548284 0.992353
vt 0.500000 1.000000
vt 0.451716 0.992353
vt 0.408159 0.970159
vt 0.373591 0.935591
vt 0.351397 0.892034
vt 0.343750 0.843750
vt 0.351397 0.795466
vt 0.373591 0.751909
vt 0.408159 0.717341
vt 0.451716 0.695147
vt 0.500000 0.687500
vt 0.548284 0.695147
vt 0.591842 0.717341
vt 0.626409 0.751908
vt 0.648603 0.795466
vt 0.656250 0.843750
vn 0.894786 -0.238911 -0.377199
vn 0.709459 -0.222546 -0.668687
vn 0.707819 -0.222414 -0.670466
vn 0.894153 -0.238851 -0.378735
vn 0.383314 -0.199710 -0.901769
vn 0.383205 -0.199702 -0.901817
vn 0.105124 -0.171198 -0.979612
vn 0.105230 -0.171205 -0.979600
vn 0.000000 -0.171457 -0.985192
vn 0.000000 -0.171457 -0.985192
vn -0.105124 -0.171198 -0.979612
vn -0.105230 -0.171205 -0.979600
vn -0.383314 -0.199710 -0.901769
vn -0.383205 -0.199701 -0.901817
vn -0.709459 -0.222546 -0.668686
vn -0.707820 -0.222414 -0.670465
vn -0.894786 -0.238911 -0.377199
vn -0.894153 -0.238851 -0.378736
vn -0.969225 -0.246177 0.000000
vn -0.969225 -0.246177 0.000000
vn -0.894786 -0.238911 0.377199
vn -0.894153 -0.238851 0.378736
vn -0.709459 -0.222546 0.668686
vn -0.707819 -0.222414 0.670466
vn -0.383313 -0.199710 0.901769
vn -0.383204 -0.199701 0.901817
vn -0.105124 -0.171198 0.979612
vn -0.105230 -0.171205 0.979600
vn 0.000000 -0.171457 0.985192
vn 0.000000 -0.171457 0.985192
vn 0.105124 -0.171198 0.979612
vn 0.105230 -0.171205 0.979600
vn 0.383314 -0.199710 0.901769
vn 0.383204 -0.199701 0.901817
vn 0.709458 -0.222546 0.668687
vn 0.707819 -0.222413 0.670466
vn 0.894786 -0.238911 0.377199
vn 0.894153 -0.238850 0.378736
vn 0.969225 -0.246176 0.000000
vn 0.969225 -0.246177 0.000000
vn 0.000000 -1.000000 0.000000
vn 0.000000 -1.000000 0.000000
vn 0.000000 -1.000000 0.000000
vn 0.000000 -1.000000 0.000000
vn 0.000000 -1.000000 0.000000
vn 0.000000 -1.000000 0.000000
vn 0.000000 -1.000000 0.000000
vn 0.000000 -1.000000 0.000000
vn 0.000000 -1.000000 0.000000
vn 0.000000 -1.000000 0.000000
vn 0.000000 -1.000000 0.000000
vn 0.000000 -1.000000 0.000000
vn 0.000000 -1.000000 0.000000
vn 0.000000 -1.000000 0.000000
vn 0.000000 -1.000000 0.000000
vn 0.000000 -1.000000 0.000000
vn 0.000000 -1.000000 0.000000
vn 0.000000 -1.000000 0.000000
vn 0.000000 -1.000000 0.000000
vn 0.000000 -1.000000 0.000000
vn 0.000000 -1.000000 0.000000
vn 0.000000 1.000000 0.000000
vn 0.000000 1.000000 0.000000
vn 0.000000 1.000000 0.000000
vn 0.000000 1.000000 0.000000
vn 0.000000 1.000000 0.000000
vn 0.000000 1.000000 0.000000
vn 0.000000 1.000000 -0.000000
vn 0.000000 1.000000 0.000000
vn 0.000000 1.000000 -0.000000
vn 0.000000 1.000000 -0.000000
vn 0.000000 1.000000 0.000000
vn 0.000000 1.000000 0.000000
vn 0.000000 1.000000 -0.000000
vn 0.000000 1.000000 -0.000000
vn 0.000000 1.000000 0.000000
vn 0.000000 1.000000 0.000000
vn 0.000000 1.000000 0.000000
vn 0.000000 1.000000 -0.000000
vn 0.000000 1.000000 -0.000000
vn 0.000000 1.000000 0.000000
vn 0.000000 1.000000 0.000000
vn 0.000000 1.000000 -0.000000
vn 0.000000 1.000000 0.000000
vn 0.000000 1.000000 -0.000000
vn 0.000000 1.000000 -0.000000
vn 0.000000 1.000000 0.000000
vn 0.000000 1.000000 0.000000
vn 0.000000 1.000000 0.000000
vn 0.000000 1.000000 0.000000
vn 0.000000 1.000000 0.000000
vn 0.000000 1.000000 0.000000
vn 0.000000 1.000000 -0.000000
vn 0.000000 1.000000 -0.000000
vn 0.000000 1.000000 -0.000000
vn 0.000000 1.000000 -0.000000
vn 0.000000 1.000000 -0.000000
vn 0.000000 1.000000 -0.000000
vn 0.000000 1.000000 -0.000000
vn 0.000000 1.000000 -0.000000
vn 0.000000 1.000000 0.000000
vn 0.000000 1.000000 0.000000
vn 0.000000 1.000000 0.000000
vn 0.000000 1.000000 0.000000
vn 0.000000 1.000000 -0.000000
vn 0.000000 1.000000 0.000000
vn 0.000000 1.000000 -0.000000
vn 0.000000 1.000000 -0.000000
vn 0.000000 1.000000 -0.000000
vn 0.000000 1.000000 -0.000000
vn 0.000000 1.000000 -0.000000
vn 0.000000 1.000000 -0.000000
vn 0.000000 1.000000 0.000000
vn 0.000000 1.000000 0.000000
vn 0.000000 1.000000 0.000000
vn 0.000000 1.000000 0.000000
vn 0.000000 1.000000 0.000000
vn 0.000000 1.000000 0.000000
vn 0.000000 1.000000 0.000000
vn 0.000000 1.000000 0.000000
vn 0.000000 1.000000 -0.000000
vn 0.000000 1.000000 -0.000000
vn -0.861538 0.362374 0.355579
vn -0.693292 0.333830 0.638674
vn -0.695858 0.334240 0.635661
vn -0.862496 0.362548 0.353072
vn -0.386395 0.295658 0.873662
vn -0.387284 0.295774 0.873229
vn -0.111640 0.247653 0.962395
vn -0.111446 0.247592 0.962433
vn 0.000000 0.245042 0.969512
vn 0.000000 0.245042 0.969513
vn 0.111641 0.247653 0.962395
vn 0.111447 0.247592 0.962433
vn 0.386395 0.295658 0.873662
vn 0.387284 0.295774 0.873229
vn 0.693292 0.333830 0.638674
vn 0.695858 0.334240 0.635661
vn 0.861538 0.362374 0.355580
vn 0.862496 0.362547 0.353073
vn 0.927250 0.374442 -0.000000
vn 0.927250 0.374442 0.000000
vn 0.861538 0.362374 -0.355580
vn 0.862496 0.362547 -0.353073
vn 0.693292 0.333829 -0.638674
vn 0.695858 0.334239 -0.635662
vn 0.386395 0.295658 -0.873662
vn 0.387284 0.295773 -0.873229
vn 0.111641 0.247653 -0.962395
vn 0.111447 0.247592 -0.962433
vn 0.000000 0.245042 -0.969513
vn 0.000000 0.245042 -0.969513
vn -0.111641 0.247653 -0.962395
vn -0.111447 0.247592 -0.962433
vn -0.386395 0.295658 -0.873662
vn -0.387284 0.295773 -0.873229
vn -0.693292 0.333830 -0.638674
vn -0.695858 0.334240 -0.635662
vn -0.861538 0.362374 -0.355580
vn -0.862496 0.362548 -0.353073
vn -0.927250 0.374443 -0.000000
vn -0.927250 0.374443 -0.000000
vn 0.000000 0.000000 0.000000
vn 0.000000 0.000000 0.000000
vn 0.000000 0.000000 0.000000
vn 0.000000 0.000000 0.000000
vn 0.000000 0.000000 0.000000
vn 0.000000 0.000000 0.000000
vn 0.000000 0.000000 0.000000
vn 0.000000 0.000000 0.000000
vn 0.000000 0.000000 0.000000
vn 0.000000 0.000000 0.000000
vn 0.000000 0.000000 0.000000
vn 0.000000 0.000000 0.000000
vn 0.000000 0.000000 0.000000
vn 0.000000 0.000000 0.000000
vn 0.000000 0.000000 0.000000
vn 0.000000 0.000000 0.000000
vn 0.000000 0.000000 0.000000
vn 0.000000 0.000000 0.000000
vn 0.000000 0.000000 0.000000
vn 0.000000 0.000000 0.000000
vn 0.000000 0.000000 0.000000
vn 0.000000 0.000000 0.000000
vn 0.000000 0.000000 0.000000
vn 0.000000 0.000000 0.000000
vn 0.000000 0.000000 0.000000
vn 0.000000 0.000000 0.000000
vn 0.000000 0.000000 0.000000
vn 0.000000 0.000000 0.000000
vn 0.000000 0.000000 0.000000
vn 0.000000 0.000000 0.000000
vn 0.000000 0.000000 0.000000
vn 0.000000 0.000000 0.000000
vn 0.000000 0.000000 0.000000
vn 0.000000 0.000000 0.000000
vn 0.000000 0.000000 0.000000
vn 0.000000 0.000000 0.000000
vn 0.000000 0.000000 0.000000
vn 0.000000 0.000000 0.000000
vn 0.000000 0.000000 0.000000
vn 0.000000 0.000000 0.000000
vn 0.000000 0.000000 0.000000
vn 0.000000 0.000000 0.000000
vn 0.000000 0.000000 0.000000
vn 0.000000 0.000000 0.000000
vn 0.000000 0.000000 0.000000
vn 0.000000 0.000000 0.000000
vn 0.000000 0.000000 0.000000
vn 0.000000 0.000000 0.000000
vn 0.000000 0.000000 0.000000
vn 0.000000 0.000000 0.000000
vn 0.000000 0.000000 0.000000
vn 0.000000 0.000000 0.000000
vn 0.000000 0.000000 0.000000
vn 0.000000 0.000000 0.000000
vn 0.000000 0.000000 0.000000
vn 0.000000 0.000000 0.000000
vn 0.000000 0.000000 0.000000
vn 0.000000 0.000000 0.000000
vn 0.000000 0.000000 0.000000
vn 0.000000 0.000000 0.000000
vn 0.000000 0.000000 0.000000
vn 0.000000 0.000000 0.000000
vn 0.000000 0.000000 0.000000
vn 0.000000 0.000000 0.000000
vn 0.000000 0.000000 0.000000
vn 0.000000 0.000000 0.000000
vn 0.000000 0.000000 0.000000
vn 0.000000 0.000000 0.000000
vn 0.000000 0.000000 0.000000
vn 0.000000 0.000000 0.000000
vn 0.000000 0.000000 0.000000
vn 0.000000 0.000000 0.000000
vn 0.000000 0.000000 0.000000
vn 0.000000 0.000000 0.000000
vn 0.000000 0.000000 0.000000
vn 0.000000 0.000000 0.000000
vn 0.000000 0.000000 0.000000
vn 0.000000 0.000000 0.000000
vn 0.000000 0.000000 0.000000
vn 0.000000 0.000000 0.000000
s 1
g Bathtub
usemtl initialShadingGroup
f 1/21/1 2/22/2 22/43/3 21/42/4
f 2/22/2 3/23/5 23/44/6 22/43/3
f 3/23/5 4/24/7 24/45/8 23/44/6
f 4/24/7 5/25/9 25/46/10 24/45/8
f 5/25/9 6/26/11 26/47/12 25/46/10
f 6/26/11 7/27/13 27/48/14 26/47/12
f 7/27/13 8/28/15 28/49/16 27/48/14
f 8/28/15 9/29/17 29/50/18 28/49/16
f 9/29/17 10/30/19 30/51/20 29/50/18
f 10/30/19 11/31/21 31/52/22 30/51/20
f 11/31/21 12/32/23 32/53/24 31/52/22
f 12/32/23 13/33/25 33/54/26 32/53/24
f 13/33/25 14/34/27 34/55/28 33/54/26
f 14/34/27 15/35/29 35/56/30 34/55/28
f 15/35/29 16/36/31 36/57/32 35/56/30
f 16/36/31 17/37/33 37/58/34 36/57/32
f 17/37/33 18/38/35 38/59/36 37/58/34
f 18/38/35 19/39/37 39/60/38 38/59/36
f 19/39/37 20/40/39 40/61/40 39/60/38
f 20/40/39 1/41/1 21/62/4 40/61/40
s 2
f 2/2/41 1/1/42 41/83/43
f 3/3/44 2/2/41 41/83/43
f 4/4/45 3/3/44 41/83/43
f 5/5/46 4/4/45 41/83/43
f 6/6/47 5/5/46 41/83/43
f 7/7/48 6/6/47 41/83/43
f 8/8/49 7/7/48 41/83/43
f 9/9/50 8/8/49 41/83/43
f 10/10/51 9/9/50 41/83/43
f 11/11/52 10/10/51 41/83/43
f 12/12/53 11/11/52 41/83/43
f 13/13/54 12/12/53 41/83/43
f 14/14/55 13/13/54 41/83/43
f 15/15/56 14/14/55 41/83/43
f 16/16/57 15/15/56 41/83/43
f 17/17/58 16/16/57 41/83/43
f 18/18/59 17/17/58 41/83/43
f 19/19/60 18/18/59 41/83/43
f 20/20/61 19/19/60 41/83/43
f 1/1/42 20/20/61 41/83/43
s 3
f 82/125/62 83/126/63 84/84/64
f 83/126/63 85/127/65 84/84/64
f 85/127/65 86/128/66 84/84/64
f 86/128/66 87/129/67 84/84/64
f 87/129/67 88/130/68 84/84/64
f 88/130/68 89/131/69 84/84/64
f 89/131/69 90/132/70 84/84/64
f 90/132/70 91/133/71 84/84/64
f 91/133/71 92/134/72 84/84/64
f 92/134/72 93/135/73 84/84/64
f 93/135/73 94/136/74 84/84/64
f 94/136/74 95/137/75 84/84/64
f 95/137/75 96/138/76 84/84/64
f 96/138/76 97/139/77 84/84/64
f 97/139/77 98/140/78 84/84/64
f 98/140/78 99/141/79 84/84/64
f 99/141/79 100/142/80 84/84/64
f 100/142/80 101/143/81 84/84/64
f 101/143/81 102/144/82 84/84/64
f 102/144/82 82/125/62 84/84/64
s 4
f 21/81/83 22/80/84 43/86/85 42/85/86
f 22/80/84 23/79/87 44/87/88 43/86/85
f 23/79/87 24/78/89 45/88/90 44/87/88
f 24/78/89 25/77/91 46/89/92 45/88/90
f 25/77/91 26/76/93 47/90/94 46/89/92
f 26/76/93 27/75/95 48/91/96 47/90/94
f 27/75/95 28/74/97 49/92/98 48/91/96
f 28/74/97 29/73/99 50/93/100 49/92/98
f 29/73/99 30/72/101 51/94/102 50/93/100
f 30/72/101 31/71/103 52/95/104 51/94/102
f 31/71/103 32/70/105 53/96/106 52/95/104
f 32/70/105 33/69/107 54/97/108 53/96/106
f 33/69/107 34/68/109 55/98/110 54/97/108
f 34/68/109 35/67/111 56/99/112 55/98/110
f 35/67/111 36/66/113 57/100/114 56/99/112
f 36/66/113 37/65/115 58/101/116 57/100/114
f 37/65/115 38/64/117 59/102/118 58/101/116
f 38/64/117 39/63/119 60/103/120 59/102/118
f 39/63/119 40/82/121 61/104/122 60/103/120
f 40/82/121 21/81/83 42/85/86 61/104/122
s 5
f 42/85/123 43/86/124 63/106/125 62/105/126
f 43/86/124 44/87/127 64/107/128 63/106/125
f 44/87/127 45/88/129 65/108/130 64/107/128
f 45/88/129 46/89/131 66/109/132 65/108/130
f 46/89/131 47/90/133 67/110/134 66/109/132
f 47/90/133 48/91/135 68/111/136 67/110/134
f 48/91/135 49/92/137 69/112/138 68/111/136
f 49/92/137 50/93/139 70/113/140 69/112/138
f 50/93/139 51/94/141 71/114/142 70/113/140
f 51/94/141 52/95/143 72/115/144 71/114/142
f 52/95/143 53/96/145 73/116/146 72/115/144
f 53/96/145 54/97/147 74/117/148 73/116/146
f 54/97/147 55/98/149 75/118/150 74/117/148
f 55/98/149 56/99/151 76/119/152 75/118/150
f 56/99/151 57/100/153 77/120/154 76/119/152
f 57/100/153 58/101/155 78/121/156 77/120/154
f 58/101/155 59/102/157 79/122/158 78/121/156
f 59/102/157 60/103/159 80/123/160 79/122/158
f 60/103/159 61/104/161 81/124/162 80/123/160
f 61/104/161 42/85/123 62/105/126 81/124/162
s off
f 62/105/163 63/106/164 83/126/165 82/125/166
f 63/106/167 64/107/168 85/127/169 83/126/170
f 64/107/171 65/108/172 86/128/173 85/127/174
f 65/108/175 66/109/176 87/129/177 86/128/178
f 66/109/179 67/110/180 88/130/181 87/129/182
f 67/110/183 68/111/184 89/131/185 88/130/186
f 68/111/187 69/112/188 90/132/189 89/131/190
f 69/112/191 70/113/192 91/133/193 90/132/194
f 70/113/195 71/114/196 92/134/197 91/133/198
f 71/114/199 72/115/200 93/135/201 92/134/202
f 72/115/203 73/116/204 94/136/205 93/135/206
f 73/116/207 74/117/208 95/137/209 94/136/210
f 74/117/211 75/118/212 96/138/213 95/137/214
f 75/118/215 76/119/216 97/139/217 96/138/218
f 76/119/219 77/120/220 98/140/221 97/139/222
f 77/120/223 78/121/224 99/141/225 98/140/226
f 78/121/227 79/122/228 100/142/229 99/141/230
f 79/122/231 80/123/232 101/143/233 100/142/234
f 80/123/235 81/124/236 102/144/237 101/143/238
f 81/124/239 62/105/240 82/125/241 102/144/242
