# This file uses centimeters as units for non-parametric coordinates.

mtllib Hairbrush.mtl
g default
v 2.036784 -0.096513 -0.387518
v 1.894744 -0.096513 -0.522078
v 1.673512 -0.096513 -0.743310
v 1.394743 -0.096513 -0.885350
v 0.000000 -0.096513 -0.934293
v -0.309017 -0.096513 -0.885350
v -0.587785 -0.096513 -0.743310
v -0.809017 -0.096513 -0.522078
v -0.951057 -0.096513 -0.243310
v -1.000000 -0.096513 0.065707
v -0.951057 -0.096513 0.374724
v -0.809017 -0.096513 0.653493
v -0.587785 -0.096513 0.874724
v -0.309017 -0.096513 1.016764
v -0.000000 -0.096513 1.065707
v 1.394743 -0.096513 1.016764
v 1.673512 -0.096513 0.874724
v 1.894744 -0.096513 0.653493
v 2.036783 -0.096513 0.518932
v 2.085727 -0.096513 0.065707
v 2.036784 0.096513 -0.387518
v 1.894744 0.096513 -0.522078
v 1.673512 0.096513 -0.743310
v 1.394743 0.096513 -0.885350
v 0.000000 0.096513 -0.934293
v -0.309017 0.096513 -0.885350
v -0.587785 0.096513 -0.743310
v -0.809017 0.096513 -0.522078
v -0.951057 0.096513 -0.243310
v -1.000000 0.096513 0.065707
v -0.951057 0.096513 0.374724
v -0.809017 0.096513 0.653493
v -0.587785 0.096513 0.874724
v -0.309017 0.096513 1.016764
v -0.000000 0.096513 1.065707
v 1.394743 0.096513 1.016764
v 1.673512 0.096513 0.874724
v 1.894744 0.096513 0.653493
v 2.036783 0.096513 0.518932
v 2.085727 0.096513 0.065707
v 0.000000 -0.096513 0.065707
v 6.108377 -0.096513 0.577360
v 6.500663 -0.096513 0.065714
v 6.500663 0.096513 0.065714
v 6.108377 0.096513 0.577360
v 6.108379 -0.096513 -0.445931
v 6.108379 0.096513 -0.445931
v 3.155356 0.096513 -0.278663
v 3.155356 -0.096513 -0.278663
v 3.328632 -0.096513 0.065710
v 3.155355 -0.096513 0.410083
v 3.155355 0.096513 0.410083
v 3.328632 0.096513 0.065710
v 4.004819 0.096513 -0.316789
v 4.004819 -0.096513 -0.316789
v 4.228365 -0.096513 0.065711
v 4.004818 -0.096513 0.448211
v 4.004818 0.096513 0.448211
v 4.228365 0.096513 0.065711
v 2.062060 -0.096513 0.284862
v 3.244844 -0.096513 0.232230
v 4.120270 -0.096513 0.250667
v 6.413615 -0.096513 0.313118
v 6.413615 0.096513 0.313118
v 4.120270 0.096513 0.250667
v 3.244844 0.096513 0.232230
v 2.062060 0.096513 0.284862
v 2.059658 -0.096513 -0.175700
v 3.236337 -0.096513 -0.117718
v 4.109294 -0.096513 -0.138026
v 6.394356 -0.096513 -0.206811
v 6.394356 0.096513 -0.206811
v 4.109294 0.096513 -0.138026
v 3.236337 0.096513 -0.117718
v 2.059658 0.096513 -0.175700
v 1.718015 0.096513 -0.302421
v 1.594781 0.096513 -0.433684
v 1.414544 0.096513 -0.614962
v 1.156316 0.096513 -0.756082
v 0.073150 0.096513 -0.801983
v -0.263050 0.096513 -0.743879
v -0.500351 0.096513 -0.622967
v -0.688675 0.096513 -0.434644
v -0.809586 0.096513 -0.197343
v -0.851249 0.096513 0.065707
v -0.809586 0.096513 0.328758
v -0.688675 0.096513 0.566059
v -0.500351 0.096513 0.754382
v -0.263050 0.096513 0.875293
v 0.073150 0.096513 0.933397
v 1.156316 0.096513 0.887497
v 1.414544 0.096513 0.746376
v 1.594780 0.096513 0.565099
v 1.718014 0.096513 0.433835
v 1.752086 0.096513 0.253307
v 1.767864 0.096513 0.065707
v 1.750485 0.096513 -0.136727
vt 0.375000 0.312500
vt 0.387500 0.312500
vt 0.387500 0.688440
vt 0.375000 0.688440
vt 0.400000 0.312500
vt 0.400000 0.688440
vt 0.412500 0.312500
vt 0.412500 0.688440
vt 0.425000 0.312500
vt 0.425000 0.688440
vt 0.437500 0.312500
vt 0.437500 0.688440
vt 0.450000 0.312500
vt 0.450000 0.688440
vt 0.462500 0.312500
vt 0.462500 0.688440
vt 0.475000 0.312500
vt 0.475000 0.688440
vt 0.487500 0.312500
vt 0.487500 0.688440
vt 0.500000 0.312500
vt 0.500000 0.688440
vt 0.512500 0.312500
vt 0.512500 0.688440
vt 0.525000 0.312500
vt 0.525000 0.688440
vt 0.537500 0.312500
vt 0.537500 0.688440
vt 0.550000 0.312500
vt 0.550000 0.688440
vt 0.562500 0.312500
vt 0.562500 0.688440
vt 0.575000 0.312500
vt 0.575000 0.688440
vt 0.587500 0.312500
vt 0.587500 0.688440
vt 0.600000 0.312500
vt 0.600000 0.688440
vt 0.600000 0.312500
vt 0.606455 0.312500
vt 0.606455 0.688440
vt 0.600000 0.688440
vt 0.612500 0.312500
vt 0.619158 0.312500
vt 0.619158 0.688440
vt 0.612500 0.688440
vt 0.626409 0.064408
vt 0.648603 0.107966
vt 0.500000 0.150000
vt 0.591842 0.029841
vt 0.548284 0.007647
vt 0.500000 -0.000000
vt 0.451716 0.007647
vt 0.408159 0.029841
vt 0.373591 0.064409
vt 0.351397 0.107966
vt 0.343750 0.156250
vt 0.351397 0.204534
vt 0.373591 0.248091
vt 0.408159 0.282659
vt 0.451716 0.304853
vt 0.500000 0.312500
vt 0.548284 0.304853
vt 0.591841 0.282659
vt 0.626409 0.248091
vt 0.648603 0.204534
vt 0.656250 0.156250
vt 0.652552 0.179597
vt 0.652177 0.130532
vt 0.606455 0.312500
vt 0.606455 0.312500
vt 0.600000 0.312500
vt 0.606455 0.688440
vt 0.600000 0.688440
vt 0.606455 0.688440
vt 0.612500 0.312500
vt 0.619158 0.312500
vt 0.619158 0.312500
vt 0.612500 0.312500
vt 0.625000 0.312500
vt 0.625000 0.688440
vt 0.625000 0.688440
vt 0.625000 0.312500
vt 0.619158 0.688440
vt 0.612500 0.688440
vt 0.612500 0.688440
vt 0.619158 0.688440
vt 0.625000 0.688440
vt 0.625000 0.312500
vt 0.619158 0.312500
vt 0.612500 0.312500
vt 0.606455 0.312500
vt 0.600000 0.312500
vt 0.600000 0.688440
vt 0.606455 0.688440
vt 0.612500 0.688440
vt 0.619158 0.688440
vt 0.625000 0.688440
vt 0.625000 0.312500
vt 0.648603 0.892034
vt 0.626409 0.935591
vt 0.626409 0.935591
vt 0.648603 0.892034
vt 0.591841 0.970159
vt 0.591841 0.970159
vt 0.548284 0.992353
vt 0.548284 0.992353
vt 0.500000 1.000000
vt 0.500000 1.000000
vt 0.451716 0.992353
vt 0.451716 0.992353
vt 0.408159 0.970159
vt 0.408159 0.970159
vt 0.373591 0.935591
vt 0.373591 0.935591
vt 0.351397 0.892034
vt 0.351397 0.892034
vt 0.343750 0.843750
vt 0.343750 0.843750
vt 0.351397 0.795466
vt 0.351397 0.795466
vt 0.373591 0.751909
vt 0.373591 0.751909
vt 0.408159 0.717341
vt 0.408159 0.717341
vt 0.451716 0.695147
vt 0.451716 0.695147
vt 0.500000 0.687500
vt 0.500000 0.687500
vt 0.548284 0.695147
vt 0.548284 0.695147
vt 0.591842 0.717341
vt 0.591842 0.717341
vt 0.626409 0.751908
vt 0.626409 0.751908
vt 0.648603 0.795466
vt 0.648603 0.795466
vt 0.652552 0.820403
vt 0.652552 0.820403
vt 0.656250 0.843750
vt 0.656250 0.843750
vt 0.652177 0.869468
vt 0.652177 0.869468
vn 0.687735 0.000000 -0.725962
vn 0.699714 0.000000 -0.714423
vn 0.699714 0.000000 -0.714423
vn 0.687735 0.000000 -0.725962
vn 0.587785 0.000000 -0.809018
vn 0.587785 0.000000 -0.809018
vn 0.113385 0.000000 -0.993551
vn 0.113385 0.000000 -0.993551
vn -0.000000 0.000000 -1.000000
vn -0.000000 0.000000 -1.000000
vn -0.309017 0.000000 -0.951056
vn -0.309017 0.000000 -0.951056
vn -0.587785 0.000000 -0.809017
vn -0.587785 0.000000 -0.809017
vn -0.809017 0.000000 -0.587785
vn -0.809017 0.000000 -0.587785
vn -0.951057 0.000000 -0.309017
vn -0.951057 0.000000 -0.309017
vn -1.000000 0.000000 0.000000
vn -1.000000 0.000000 0.000000
vn -0.951057 0.000000 0.309017
vn -0.951057 0.000000 0.309017
vn -0.809017 0.000000 0.587785
vn -0.809017 0.000000 0.587785
vn -0.587785 0.000000 0.809017
vn -0.587785 0.000000 0.809017
vn -0.309017 0.000000 0.951057
vn -0.309017 0.000000 0.951057
vn 0.000000 0.000000 1.000000
vn 0.000000 0.000000 1.000000
vn 0.113385 0.000000 0.993551
vn 0.113385 0.000000 0.993551
vn 0.587785 0.000000 0.809017
vn 0.587785 0.000000 0.809017
vn 0.699714 0.000000 0.714423
vn 0.699714 0.000000 0.714423
vn 0.687735 0.000000 0.725962
vn 0.687735 0.000000 0.725962
vn 0.654509 0.000000 0.756055
vn 0.793588 0.000000 0.608456
vn 0.793588 0.000000 0.608456
vn 0.654509 0.000000 0.756055
vn 0.999315 0.000000 -0.037017
vn 0.793589 0.000000 -0.608454
vn 0.793589 0.000000 -0.608454
vn 0.999315 0.000000 -0.037017
vn 0.000000 -1.000000 0.000000
vn 0.000000 -1.000000 0.000000
vn 0.000000 -1.000000 0.000000
vn 0.000000 -1.000000 0.000000
vn 0.000000 -1.000000 0.000000
vn 0.000000 -1.000000 0.000000
vn 0.000000 -1.000000 0.000000
vn 0.000000 -1.000000 0.000000
vn 0.000000 -1.000000 0.000000
vn 0.000000 -1.000000 0.000000
vn 0.000000 -1.000000 0.000000
vn 0.000000 -1.000000 0.000000
vn 0.000000 -1.000000 0.000000
vn 0.000000 -1.000000 0.000000
vn 0.000000 -1.000000 0.000000
vn 0.000000 -1.000000 0.000000
vn 0.000000 -1.000000 0.000000
vn 0.000000 -1.000000 0.000000
vn 0.000000 -1.000000 0.000000
vn 0.000000 -1.000000 0.000000
vn 0.000000 -1.000000 0.000000
vn 0.000000 -1.000000 0.000000
vn 0.000000 -1.000000 0.000000
vn 0.000000 -1.000000 0.000000
vn 0.000000 -1.000000 0.000000
vn 0.000000 1.000000 0.000000
vn 0.000000 1.000000 0.000000
vn 0.000000 1.000000 0.000000
vn 0.000000 1.000000 0.000000
vn 0.096853 0.000000 0.995299
vn 0.096853 0.000000 0.995299
vn 0.035912 0.000000 0.999355
vn 0.035912 0.000000 0.999355
vn 0.000000 -1.000000 0.000000
vn 0.000000 -1.000000 0.000000
vn 0.096858 0.000000 -0.995298
vn 0.096858 0.000000 -0.995298
vn 0.035916 0.000000 -0.999355
vn 0.035916 0.000000 -0.999355
vn 0.000000 1.000000 0.000000
vn 0.000000 1.000000 0.000000
vn 0.000000 1.000000 0.000000
vn 0.000000 1.000000 0.000000
vn -0.056552 0.000000 -0.998400
vn -0.056552 0.000000 -0.998400
vn 0.000000 -1.000000 0.000000
vn 0.000000 -1.000000 0.000000
vn 0.000000 -1.000000 0.000000
vn 0.000000 -1.000000 0.000000
vn -0.056555 0.000000 0.998400
vn -0.056555 0.000000 0.998400
vn 0.000000 1.000000 0.000000
vn 0.000000 1.000000 0.000000
vn 0.000000 1.000000 0.000000
vn 0.000000 1.000000 0.000000
vn -0.061277 0.000000 -0.998121
vn -0.061277 0.000000 -0.998121
vn 0.000000 -1.000000 0.000000
vn 0.000000 -1.000000 0.000000
vn 0.000000 -1.000000 0.000000
vn 0.000000 -1.000000 0.000000
vn -0.061280 0.000000 0.998121
vn -0.061280 0.000000 0.998121
vn 0.000000 1.000000 0.000000
vn 0.000000 1.000000 0.000000
vn 0.000000 1.000000 0.000000
vn 0.000000 1.000000 0.000000
vn 0.000000 -1.000000 0.000000
vn 0.000000 -1.000000 0.000000
vn 0.000000 -1.000000 0.000000
vn 0.641460 0.000000 -0.767157
vn 0.641460 0.000000 -0.767157
vn 0.000000 1.000000 0.000000
vn 0.000000 1.000000 0.000000
vn 0.000000 1.000000 0.000000
vn 0.000000 1.000000 0.000000
vn 0.000000 1.000000 0.000000
vn 0.000000 1.000000 0.000000
vn 0.000000 1.000000 0.000000
vn 0.000000 1.000000 0.000000
vn 0.000000 1.000000 0.000000
vn 0.000000 1.000000 0.000000
vn 0.000000 1.000000 0.000000
vn 0.000000 1.000000 0.000000
vn 0.000000 1.000000 0.000000
vn 0.000000 1.000000 0.000000
vn 0.000000 1.000000 0.000000
vn 0.000000 1.000000 0.000000
vn 0.000000 1.000000 0.000000
vn 0.000000 1.000000 0.000000
vn 0.000000 1.000000 0.000000
vn 0.000000 1.000000 0.000000
vn 0.000000 1.000000 0.000000
vn 0.000000 1.000000 0.000000
vn 0.000000 1.000000 0.000000
vn 0.000000 1.000000 0.000000
vn 0.000000 1.000000 0.000000
vn 0.000000 1.000000 0.000000
vn 0.000000 1.000000 0.000000
vn 0.000000 1.000000 0.000000
vn 0.000000 1.000000 0.000000
vn 0.000000 1.000000 0.000000
vn 0.000000 1.000000 0.000000
vn 0.000000 1.000000 0.000000
vn 0.000000 1.000000 0.000000
vn 0.000000 1.000000 0.000000
vn 0.000000 1.000000 0.000000
vn 0.000000 1.000000 0.000000
vn 0.000000 1.000000 0.000000
vn 0.000000 1.000000 0.000000
vn 0.000000 1.000000 0.000000
vn 0.000000 1.000000 0.000000
vn 0.000000 1.000000 0.000000
vn 0.000000 1.000000 0.000000
vn 0.000000 1.000000 0.000000
s 1
g Hairbrush Hairbrush
usemtl initialShadingGroup
f 1/1/1 2/2/2 22/3/3 21/4/4
f 2/2/2 3/5/5 23/6/6 22/3/3
f 3/5/5 4/7/7 24/8/8 23/6/6
f 4/7/7 5/9/9 25/10/10 24/8/8
f 5/9/9 6/11/11 26/12/12 25/10/10
f 6/11/11 7/13/13 27/14/14 26/12/12
f 7/13/13 8/15/15 28/16/16 27/14/14
f 8/15/15 9/17/17 29/18/18 28/16/16
f 9/17/17 10/19/19 30/20/20 29/18/18
f 10/19/19 11/21/21 31/22/22 30/20/20
f 11/21/21 12/23/23 32/24/24 31/22/22
f 12/23/23 13/25/25 33/26/26 32/24/24
f 13/25/25 14/27/27 34/28/28 33/26/26
f 14/27/27 15/29/29 35/30/30 34/28/28
f 15/29/29 16/31/31 36/32/32 35/30/30
f 16/31/31 17/33/33 37/34/34 36/32/32
f 17/33/33 18/35/35 38/36/36 37/34/34
f 18/35/35 19/37/37 39/38/38 38/36/36
s 2
f 42/39/39 63/40/40 64/41/41 45/42/42
f 43/43/43 71/44/44 72/45/45 44/46/46
s 4
f 2/47/47 1/48/48 41/49/49
f 3/50/50 2/47/47 41/49/49
f 4/51/51 3/50/50 41/49/49
f 5/52/52 4/51/51 41/49/49
f 6/53/53 5/52/52 41/49/49
f 7/54/54 6/53/53 41/49/49
f 8/55/55 7/54/54 41/49/49
f 9/56/56 8/55/55 41/49/49
f 10/57/57 9/56/56 41/49/49
f 11/58/58 10/57/57 41/49/49
f 12/59/59 11/58/58 41/49/49
f 13/60/60 12/59/59 41/49/49
f 14/61/61 13/60/60 41/49/49
f 15/62/62 14/61/61 41/49/49
f 16/63/63 15/62/62 41/49/49
f 17/64/64 16/63/63 41/49/49
f 18/65/65 17/64/64 41/49/49
f 19/66/66 18/65/65 41/49/49
f 20/67/67 60/68/68 19/66/66 41/49/49
f 1/48/48 68/69/69 20/67/67 41/49/49
f 19/37/66 60/70/68 61/71/70 51/72/71
s 5
f 67/73/72 39/38/73 52/74/74 66/75/75
s 6
f 39/38/76 19/37/77 51/72/78 52/74/79
s 4
f 20/76/67 68/77/69 69/78/80 50/79/81
s 7
f 1/80/82 21/81/83 48/82/84 49/83/85
s 5
f 75/84/86 40/85/87 53/86/88 74/87/89
s 7
f 49/83/85 48/82/84 54/88/90 55/89/91
s 4
f 50/79/81 69/78/80 70/90/92 56/91/93
f 51/72/71 61/71/70 62/92/94 57/93/95
s 6
f 52/74/79 51/72/78 57/93/96 58/94/97
s 5
f 66/75/75 52/74/74 58/94/98 65/95/99
f 74/87/89 53/86/88 59/96/100 73/97/101
s 7
f 55/89/91 54/88/90 47/98/102 46/99/103
s 4
f 56/91/93 70/90/92 71/44/104 43/43/105
f 57/93/95 62/92/94 63/40/106 42/39/107
s 6
f 58/94/97 57/93/96 42/39/108 45/42/109
s 5
f 65/95/99 58/94/98 45/42/110 64/41/111
f 73/97/101 59/96/100 44/46/112 72/45/113
s 4
f 60/70/68 20/76/67 50/79/81 61/71/70
f 62/92/94 61/71/70 50/79/81 56/91/93
f 63/40/106 62/92/94 56/91/93 43/43/105
s 2
f 64/41/41 63/40/40 43/43/43 44/46/46
s 5
f 59/96/100 65/95/99 64/41/111 44/46/112
f 53/86/88 66/75/75 65/95/99 59/96/100
f 40/85/87 67/73/72 66/75/75 53/86/88
s 4
f 68/77/69 1/80/48 49/83/114 69/78/80
f 70/90/92 69/78/80 49/83/114 55/89/115
f 71/44/104 70/90/92 55/89/115 46/99/116
s 2
f 72/45/45 71/44/44 46/99/117 47/98/118
s 5
f 54/88/119 73/97/101 72/45/113 47/98/120
f 48/82/121 74/87/89 73/97/101 54/88/119
f 21/81/122 75/84/86 74/87/89 48/82/121
f 21/100/122 22/101/123 77/102/124 76/103/125
f 22/101/123 23/104/126 78/105/127 77/102/124
f 23/104/126 24/106/128 79/107/129 78/105/127
f 24/106/128 25/108/130 80/109/131 79/107/129
f 25/108/130 26/110/132 81/111/133 80/109/131
f 26/110/132 27/112/134 82/113/135 81/111/133
f 27/112/134 28/114/136 83/115/137 82/113/135
f 28/114/136 29/116/138 84/117/139 83/115/137
f 29/116/138 30/118/140 85/119/141 84/117/139
f 30/118/140 31/120/142 86/121/143 85/119/141
f 31/120/142 32/122/144 87/123/145 86/121/143
f 32/122/144 33/124/146 88/125/147 87/123/145
f 33/124/146 34/126/148 89/127/149 88/125/147
f 34/126/148 35/128/150 90/129/151 89/127/149
f 35/128/150 36/130/152 91/131/153 90/129/151
f 36/130/152 37/132/154 92/133/155 91/131/153
f 37/132/154 38/134/156 93/135/157 92/133/155
f 38/134/156 39/136/73 94/137/158 93/135/157
f 39/136/73 67/138/72 95/139/159 94/137/158
f 67/138/72 40/140/87 96/141/160 95/139/159
f 40/140/87 75/142/86 97/143/161 96/141/160
f 75/142/86 21/100/122 76/103/125 97/143/161
g default
v 1.852232 0.740950 -0.336479
v 1.720670 0.740950 -0.471733
v -0.000000 0.740950 0.065707
v 1.524306 0.740950 -0.668162
v 1.252917 0.740950 -0.812722
v 0.052376 0.740950 -0.859511
v -0.284292 0.740950 -0.802640
v -0.537566 0.740950 -0.674188
v -0.739895 0.740950 -0.471858
v -0.869799 0.740950 -0.216908
v -0.914561 0.740950 0.065707
v -0.869799 0.740950 0.348322
v -0.739895 0.740950 0.603273
v -0.537565 0.740950 0.805603
v -0.284292 0.740950 0.934055
v 0.052376 0.740950 0.990926
v 1.252917 0.740950 0.944136
v 1.524306 0.740950 0.799576
v 1.720669 0.740950 0.603148
v 1.852233 0.740950 0.467894
v 1.884910 0.740950 0.267803
v 1.903315 0.740950 0.065708
v 1.883037 0.740950 -0.153695
v 1.718015 0.096513 -0.302421
v 1.594781 0.096513 -0.433684
v 1.414544 0.096513 -0.614962
v 1.156316 0.096513 -0.756082
v 0.073150 0.096513 -0.801983
v -0.263050 0.096513 -0.743879
v -0.500351 0.096513 -0.622967
v -0.688675 0.096513 -0.434644
v -0.809586 0.096513 -0.197343
v -0.851249 0.096513 0.065707
v -0.809586 0.096513 0.328758
v -0.688675 0.096513 0.566059
v -0.500351 0.096513 0.754382
v -0.263050 0.096513 0.875293
v 0.073150 0.096513 0.933397
v 1.156316 0.096513 0.887497
v 1.414544 0.096513 0.746376
v 1.594780 0.096513 0.565099
v 1.718014 0.096513 0.433835
v 1.752086 0.096513 0.253307
v 1.767864 0.096513 0.065707
v 1.750485 0.096513 -0.136727
vt 0.648603 0.892034
vt 0.626409 0.935591
vt 0.500000 0.837500
vt 0.591841 0.970159
vt 0.548284 0.992353
vt 0.500000 1.000000
vt 0.451716 0.992353
vt 0.408159 0.970159
vt 0.373591 0.935591
vt 0.351397 0.892034
vt 0.343750 0.843750
vt 0.351397 0.795466
vt 0.373591 0.751909
vt 0.408159 0.717341
vt 0.451716 0.695147
vt 0.500000 0.687500
vt 0.548284 0.695147
vt 0.591842 0.717341
vt 0.626409 0.751908
vt 0.648603 0.795466
vt 0.652552 0.820403
vt 0.656250 0.843750
vt 0.652177 0.869468
vt 0.648603 0.892034
vt 0.626409 0.935591
vt 0.591841 0.970159
vt 0.548284 0.992353
vt 0.500000 1.000000
vt 0.451716 0.992353
vt 0.408159 0.970159
vt 0.373591 0.935591
vt 0.351397 0.892034
vt 0.343750 0.843750
vt 0.351397 0.795466
vt 0.373591 0.751909
vt 0.408159 0.717341
vt 0.451716 0.695147
vt 0.500000 0.687500
vt 0.548284 0.695147
vt 0.591842 0.717341
vt 0.626409 0.751908
vt 0.648603 0.795466
vt 0.652552 0.820403
vt 0.656250 0.843750
vt 0.652177 0.869468
vn 0.000000 1.000000 0.000000
vn 0.000000 1.000000 0.000000
vn 0.000000 1.000000 0.000000
vn 0.000000 1.000000 0.000000
vn -0.000000 1.000000 -0.000000
vn 0.000000 1.000000 0.000000
vn 0.000000 1.000000 0.000000
vn 0.000000 1.000000 0.000000
vn -0.000000 1.000000 0.000000
vn -0.000000 1.000000 0.000000
vn 0.000000 1.000000 0.000000
vn 0.000000 1.000000 0.000000
vn 0.000000 1.000000 0.000000
vn 0.000000 1.000000 -0.000000
vn -0.000000 1.000000 0.000000
vn 0.000000 1.000000 -0.000000
vn 0.000000 1.000000 0.000000
vn 0.000000 1.000000 0.000000
vn 0.000000 1.000000 0.000000
vn 0.000000 1.000000 0.000000
vn 0.000000 1.000000 0.000000
vn 0.000000 1.000000 0.000000
vn 0.000000 1.000000 0.000000
vn 0.710822 -0.181469 -0.679560
vn 0.702657 -0.178611 -0.688746
vn 0.702734 -0.178638 -0.688660
vn 0.710822 -0.181469 -0.679560
vn 0.582090 -0.163826 -0.796449
vn 0.583312 -0.163974 -0.795524
vn 0.131502 -0.104462 -0.985797
vn 0.133641 -0.104781 -0.985475
vn -0.007386 -0.091673 -0.995762
vn -0.007625 -0.091679 -0.995759
vn -0.297442 -0.096038 -0.949897
vn -0.297487 -0.096039 -0.949883
vn -0.584841 -0.097575 -0.805258
vn -0.584842 -0.097575 -0.805257
vn -0.805141 -0.097774 -0.584969
vn -0.805141 -0.097774 -0.584969
vn -0.946500 -0.097774 -0.307537
vn -0.946500 -0.097774 -0.307537
vn -0.995209 -0.097774 0.000000
vn -0.995209 -0.097774 0.000000
vn -0.946500 -0.097774 0.307537
vn -0.946500 -0.097774 0.307537
vn -0.805141 -0.097774 0.584969
vn -0.805141 -0.097774 0.584969
vn -0.584841 -0.097574 0.805258
vn -0.584842 -0.097574 0.805257
vn -0.297442 -0.096038 0.949897
vn -0.297487 -0.096039 0.949883
vn -0.007386 -0.091673 0.995762
vn -0.007625 -0.091679 0.995759
vn 0.131502 -0.104462 0.985797
vn 0.133641 -0.104781 0.985475
vn 0.582091 -0.163826 0.796449
vn 0.583313 -0.163974 0.795524
vn 0.702655 -0.178611 0.688748
vn 0.702733 -0.178638 0.688662
vn 0.710817 -0.181470 0.679564
vn 0.710817 -0.181470 0.679564
vn 0.963830 -0.206064 0.169026
vn 0.970427 -0.205186 0.127166
vn 0.970430 -0.205185 0.127142
vn 0.963830 -0.206064 0.169026
vn 0.978817 -0.204692 -0.004192
vn 0.978817 -0.204692 -0.004190
vn 0.970435 -0.205149 -0.127161
vn 0.970436 -0.205149 -0.127153
vn 0.962769 -0.206193 -0.174816
vn 0.962769 -0.206193 -0.174816
s 1
g Hairbrush polySurface4
usemtl initialShadingGroup
f 98/144/162 99/145/163 100/146/164
f 99/145/163 101/147/165 100/146/164
f 101/147/165 102/148/166 100/146/164
f 102/148/166 103/149/167 100/146/164
f 103/149/167 104/150/168 100/146/164
f 104/150/168 105/151/169 100/146/164
f 105/151/169 106/152/170 100/146/164
f 106/152/170 107/153/171 100/146/164
f 107/153/171 108/154/172 100/146/164
f 108/154/172 109/155/173 100/146/164
f 109/155/173 110/156/174 100/146/164
f 110/156/174 111/157/175 100/146/164
f 111/157/175 112/158/176 100/146/164
f 112/158/176 113/159/177 100/146/164
f 113/159/177 114/160/178 100/146/164
f 114/160/178 115/161/179 100/146/164
f 115/161/179 116/162/180 100/146/164
f 116/162/180 117/163/181 100/146/164
f 117/163/181 118/164/182 119/165/183 100/146/164
f 119/165/183 120/166/184 98/144/162 100/146/164
s 2
f 121/167/185 122/168/186 99/145/187 98/144/188
f 122/168/186 123/169/189 101/147/190 99/145/187
f 123/169/189 124/170/191 102/148/192 101/147/190
f 124/170/191 125/171/193 103/149/194 102/148/192
f 125/171/193 126/172/195 104/150/196 103/149/194
f 126/172/195 127/173/197 105/151/198 104/150/196
f 127/173/197 128/174/199 106/152/200 105/151/198
f 128/174/199 129/175/201 107/153/202 106/152/200
f 129/175/201 130/176/203 108/154/204 107/153/202
f 130/176/203 131/177/205 109/155/206 108/154/204
f 131/177/205 132/178/207 110/156/208 109/155/206
f 132/178/207 133/179/209 111/157/210 110/156/208
f 133/179/209 134/180/211 112/158/212 111/157/210
f 134/180/211 135/181/213 113/159/214 112/158/212
f 135/181/213 136/182/215 114/160/216 113/159/214
f 136/182/215 137/183/217 115/161/218 114/160/216
f 137/183/217 138/184/219 116/162/220 115/161/218
f 138/184/219 139/185/221 117/163/222 116/162/220
s 3
f 139/185/223 140/186/224 118/164/225 117/163/226
f 140/186/224 141/187/227 119/165/228 118/164/225
f 141/187/227 142/188/229 120/166/230 119/165/228
f 142/188/229 121/167/231 98/144/232 120/166/230
