# This file uses centimeters as units for non-parametric coordinates.

mtllib toilet_roll.mtl
g default
v -1.000000 -0.951057 -0.309017
v -1.000000 -0.809018 -0.587786
v -1.000000 -0.587786 -0.809017
v -1.000000 -0.309017 -0.951057
v -1.000000 -0.000000 -1.000000
v -1.000000 0.309017 -0.951057
v -1.000000 0.587785 -0.809017
v -1.000000 0.809017 -0.587785
v -1.000000 0.951057 -0.309017
v -1.000000 1.000000 0.000000
v -1.000000 0.951057 0.309017
v -1.000000 0.809017 0.587785
v -1.000000 0.587785 0.809017
v -1.000000 0.309017 0.951057
v -1.000000 0.000000 1.000000
v -1.000000 -0.309017 0.951057
v -1.000000 -0.587785 0.809017
v -1.000000 -0.809017 0.587785
v -1.000000 -0.951057 0.309017
v -1.000000 -1.000000 0.000000
v 1.000000 -0.951057 -0.309017
v 1.000000 -0.809018 -0.587786
v 1.000000 -0.587786 -0.809017
v 1.000000 -0.309017 -0.951057
v 1.000000 -0.000000 -1.000000
v 1.000000 0.309017 -0.951057
v 1.000000 0.587785 -0.809017
v 1.000000 0.809017 -0.587785
v 1.000000 0.951057 -0.309017
v 1.000000 1.000000 0.000000
v 1.000000 0.951057 0.309017
v 1.000000 0.809017 0.587785
v 1.000000 0.587785 0.809017
v 1.000000 0.309017 0.951057
v 1.000000 0.000000 1.000000
v 1.000000 -0.309017 0.951057
v 1.000000 -0.587785 0.809017
v 1.000000 -0.809017 0.587785
v 1.000000 -0.951057 0.309017
v 1.000000 -1.000000 0.000000
v -1.000000 -0.413467 -0.134343
v -1.000000 -0.351716 -0.255536
v -1.000000 -0.255536 -0.351716
v -1.000000 -0.134343 -0.413467
v -1.000000 0.000000 -0.434744
v -1.000000 0.134343 -0.413467
v -1.000000 0.255536 -0.351716
v -1.000000 0.351716 -0.255536
v -1.000000 0.413466 -0.134343
v -1.000000 0.434744 0.000000
v -1.000000 0.413467 0.134343
v -1.000000 0.351716 0.255536
v -1.000000 0.255536 0.351715
v -1.000000 0.134343 0.413466
v -1.000000 0.000000 0.434744
v -1.000000 -0.134343 0.413467
v -1.000000 -0.255536 0.351716
v -1.000000 -0.351715 0.255536
v -1.000000 -0.413466 0.134343
v -1.000000 -0.434744 -0.000000
v 1.000000 -0.413467 -0.134343
v 1.000000 -0.351716 -0.255536
v 1.000000 -0.255536 -0.351716
v 1.000000 -0.134343 -0.413467
v 1.000000 0.000000 -0.434744
v 1.000000 0.134343 -0.413467
v 1.000000 0.255536 -0.351716
v 1.000000 0.351716 -0.255536
v 1.000000 0.413466 -0.134343
v 1.000000 0.434744 0.000000
v 1.000000 0.413467 0.134343
v 1.000000 0.351716 0.255536
v 1.000000 0.255536 0.351715
v 1.000000 0.134343 0.413466
v 1.000000 0.000000 0.434744
v 1.000000 -0.134343 0.413467
v 1.000000 -0.255536 0.351716
v 1.000000 -0.351715 0.255536
v 1.000000 -0.413466 0.134343
v 1.000000 -0.434744 -0.000000
v -1.000000 -2.388204 -1.116561
v 1.000000 -2.388204 -1.116561
vt 0.648603 0.107966
vt 0.626409 0.064408
vt 0.591842 0.029841
vt 0.548284 0.007647
vt 0.500000 -0.000000
vt 0.451716 0.007647
vt 0.408159 0.029841
vt 0.373591 0.064409
vt 0.351397 0.107966
vt 0.343750 0.156250
vt 0.351397 0.204534
vt 0.373591 0.248091
vt 0.408159 0.282659
vt 0.451716 0.304853
vt 0.500000 0.312500
vt 0.548284 0.304853
vt 0.591841 0.282659
vt 0.626409 0.248091
vt 0.648603 0.204534
vt 0.656250 0.156250
vt 0.375000 0.312500
vt 0.387500 0.312500
vt 0.400000 0.312500
vt 0.412500 0.312500
vt 0.425000 0.312500
vt 0.437500 0.312500
vt 0.450000 0.312500
vt 0.462500 0.312500
vt 0.475000 0.312500
vt 0.487500 0.312500
vt 0.500000 0.312500
vt 0.512500 0.312500
vt 0.525000 0.312500
vt 0.537500 0.312500
vt 0.550000 0.312500
vt 0.562500 0.312500
vt 0.575000 0.312500
vt 0.587500 0.312500
vt 0.600000 0.312500
vt 0.612500 0.312500
vt 0.625000 0.312500
vt 0.375000 0.688440
vt 0.387500 0.688440
vt 0.400000 0.688440
vt 0.412500 0.688440
vt 0.425000 0.688440
vt 0.437500 0.688440
vt 0.450000 0.688440
vt 0.462500 0.688440
vt 0.475000 0.688440
vt 0.487500 0.688440
vt 0.500000 0.688440
vt 0.512500 0.688440
vt 0.525000 0.688440
vt 0.537500 0.688440
vt 0.550000 0.688440
vt 0.562500 0.688440
vt 0.575000 0.688440
vt 0.587500 0.688440
vt 0.600000 0.688440
vt 0.612500 0.688440
vt 0.625000 0.688440
vt 0.648603 0.795466
vt 0.626409 0.751908
vt 0.591842 0.717341
vt 0.548284 0.695147
vt 0.500000 0.687500
vt 0.451716 0.695147
vt 0.408159 0.717341
vt 0.373591 0.751909
vt 0.351397 0.795466
vt 0.343750 0.843750
vt 0.351397 0.892034
vt 0.373591 0.935591
vt 0.408159 0.970159
vt 0.451716 0.992353
vt 0.500000 1.000000
vt 0.548284 0.992353
vt 0.591841 0.970159
vt 0.626409 0.935591
vt 0.648603 0.892034
vt 0.656250 0.843750
vt 0.626409 0.064408
vt 0.648603 0.107966
vt 0.591842 0.029841
vt 0.548284 0.007647
vt 0.500000 -0.000000
vt 0.451716 0.007647
vt 0.408159 0.029841
vt 0.373591 0.064409
vt 0.351397 0.107966
vt 0.343750 0.156250
vt 0.351397 0.204534
vt 0.373591 0.248091
vt 0.408159 0.282659
vt 0.451716 0.304853
vt 0.500000 0.312500
vt 0.548284 0.304853
vt 0.591841 0.282659
vt 0.626409 0.248091
vt 0.648603 0.204534
vt 0.656250 0.156250
vt 0.648603 0.892034
vt 0.626409 0.935591
vt 0.591841 0.970159
vt 0.548284 0.992353
vt 0.500000 1.000000
vt 0.451716 0.992353
vt 0.408159 0.970159
vt 0.373591 0.935591
vt 0.351397 0.892034
vt 0.343750 0.843750
vt 0.351397 0.795466
vt 0.373591 0.751909
vt 0.408159 0.717341
vt 0.451716 0.695147
vt 0.500000 0.687500
vt 0.548284 0.695147
vt 0.591842 0.717341
vt 0.626409 0.751908
vt 0.648603 0.795466
vt 0.656250 0.843750
vt 0.000000 0.000000
vt 1.000000 0.000000
vt 1.000000 1.000000
vt 0.000000 1.000000
vn 0.000000 -0.951057 -0.309016
vn 0.000000 -0.809017 -0.587785
vn 0.000000 -0.809017 -0.587785
vn 0.000000 -0.951057 -0.309016
vn 0.000000 -0.587785 -0.809017
vn 0.000000 -0.587785 -0.809017
vn 0.000000 -0.309017 -0.951057
vn 0.000000 -0.309017 -0.951057
vn 0.000000 -0.156433 -0.987689
vn 0.000000 -0.156433 -0.987689
vn 0.000000 0.156434 -0.987688
vn 0.000000 0.309017 -0.951057
vn 0.000000 0.309017 -0.951057
vn 0.000000 0.156434 -0.987688
vn 0.000000 0.587785 -0.809017
vn 0.000000 0.587785 -0.809017
vn 0.000000 0.809017 -0.587785
vn 0.000000 0.809017 -0.587785
vn 0.000000 0.951057 -0.309017
vn 0.000000 0.951057 -0.309017
vn 0.000000 1.000000 0.000000
vn 0.000000 1.000000 0.000000
vn 0.000000 0.951057 0.309017
vn 0.000000 0.951057 0.309017
vn 0.000000 0.809017 0.587785
vn 0.000000 0.809017 0.587785
vn 0.000000 0.587785 0.809017
vn 0.000000 0.587785 0.809017
vn 0.000000 0.309017 0.951057
vn 0.000000 0.309017 0.951057
vn 0.000000 -0.000000 1.000000
vn 0.000000 -0.000000 1.000000
vn 0.000000 -0.309017 0.951057
vn 0.000000 -0.309017 0.951057
vn 0.000000 -0.587785 0.809017
vn 0.000000 -0.587785 0.809017
vn 0.000000 -0.809017 0.587785
vn 0.000000 -0.809017 0.587785
vn 0.000000 -0.951057 0.309017
vn 0.000000 -0.951057 0.309017
vn 0.000000 -1.000000 0.000001
vn 0.000000 -1.000000 0.000001
vn -1.000000 -0.000000 0.000000
vn -1.000000 -0.000000 0.000000
vn -1.000000 -0.000000 0.000000
vn -1.000000 -0.000000 0.000000
vn -1.000000 -0.000000 0.000000
vn -1.000000 -0.000000 0.000000
vn -1.000000 -0.000000 0.000000
vn -1.000000 -0.000000 0.000000
vn -1.000000 -0.000000 0.000000
vn -1.000000 -0.000000 0.000000
vn -1.000000 -0.000000 0.000000
vn -1.000000 -0.000000 0.000000
vn -1.000000 0.000000 -0.000000
vn -1.000000 0.000000 -0.000000
vn -1.000000 0.000000 -0.000000
vn -1.000000 0.000000 -0.000000
vn -1.000000 -0.000000 0.000000
vn -1.000000 -0.000000 0.000000
vn -1.000000 -0.000000 0.000000
vn -1.000000 -0.000000 0.000000
vn -1.000000 -0.000000 0.000000
vn -1.000000 -0.000000 0.000000
vn -1.000000 -0.000000 0.000000
vn -1.000000 -0.000000 0.000000
vn -1.000000 -0.000000 0.000000
vn -1.000000 -0.000000 0.000000
vn -1.000000 -0.000000 0.000000
vn -1.000000 -0.000000 0.000000
vn -1.000000 0.000000 -0.000000
vn -1.000000 0.000000 -0.000000
vn -1.000000 0.000000 -0.000000
vn -1.000000 0.000000 -0.000000
vn -1.000000 -0.000000 0.000000
vn -1.000000 -0.000000 0.000000
vn -1.000000 -0.000000 0.000000
vn -1.000000 -0.000000 0.000000
vn -1.000000 -0.000000 0.000000
vn -1.000000 -0.000000 0.000000
vn -1.000000 -0.000000 0.000000
vn -1.000000 -0.000000 0.000000
vn 1.000000 0.000000 -0.000000
vn 1.000000 0.000000 -0.000000
vn 1.000000 0.000000 -0.000000
vn 1.000000 0.000000 -0.000000
vn 1.000000 0.000000 0.000000
vn 1.000000 0.000000 0.000000
vn 1.000000 0.000000 0.000000
vn 1.000000 0.000000 0.000000
vn 1.000000 0.000000 0.000000
vn 1.000000 0.000000 0.000000
vn 1.000000 0.000000 0.000000
vn 1.000000 0.000000 0.000000
vn 1.000000 0.000000 0.000000
vn 1.000000 0.000000 0.000000
vn 1.000000 0.000000 0.000000
vn 1.000000 0.000000 0.000000
vn 1.000000 0.000000 0.000000
vn 1.000000 0.000000 0.000000
vn 1.000000 0.000000 0.000000
vn 1.000000 0.000000 0.000000
vn 1.000000 0.000000 0.000000
vn 1.000000 0.000000 0.000000
vn 1.000000 0.000000 0.000000
vn 1.000000 0.000000 0.000000
vn 1.000000 0.000000 0.000000
vn 1.000000 0.000000 0.000000
vn 1.000000 0.000000 -0.000000
vn 1.000000 0.000000 -0.000000
vn 1.000000 0.000000 -0.000000
vn 1.000000 0.000000 -0.000000
vn 1.000000 0.000000 0.000000
vn 1.000000 0.000000 0.000000
vn 1.000000 0.000000 0.000000
vn 1.000000 0.000000 0.000000
vn 1.000000 0.000000 -0.000000
vn 1.000000 0.000000 -0.000000
vn 1.000000 0.000000 -0.000000
vn 1.000000 0.000000 -0.000000
vn 1.000000 0.000000 0.000000
vn 1.000000 0.000000 0.000000
vn 0.000000 0.891007 0.453989
vn 0.000000 0.891007 0.453989
vn 0.000000 0.891007 0.453989
vn 0.000000 0.891007 0.453989
vn 0.000000 0.987688 0.156434
vn 0.000000 0.987688 0.156434
vn 0.000000 0.987688 0.156434
vn 0.000000 0.987688 0.156434
vn 0.000000 0.987688 -0.156436
vn 0.000000 0.987688 -0.156436
vn 0.000000 0.987688 -0.156436
vn 0.000000 0.987688 -0.156436
vn 0.000000 0.891006 -0.453991
vn 0.000000 0.891006 -0.453991
vn 0.000000 0.891006 -0.453991
vn 0.000000 0.891006 -0.453991
vn 0.000000 0.707107 -0.707106
vn 0.000000 0.707107 -0.707106
vn 0.000000 0.707107 -0.707106
vn 0.000000 0.707107 -0.707106
vn 0.000000 0.453991 -0.891006
vn 0.000000 0.453991 -0.891006
vn 0.000000 0.453991 -0.891006
vn 0.000000 0.453991 -0.891006
vn 0.000000 0.156434 -0.987688
vn 0.000000 0.156434 -0.987688
vn 0.000000 0.156434 -0.987688
vn 0.000000 0.156434 -0.987688
vn 0.000000 -0.156435 -0.987688
vn 0.000000 -0.156435 -0.987688
vn 0.000000 -0.156435 -0.987688
vn 0.000000 -0.156435 -0.987688
vn 0.000000 -0.453991 -0.891007
vn 0.000000 -0.453991 -0.891007
vn 0.000000 -0.453991 -0.891007
vn 0.000000 -0.453991 -0.891007
vn 0.000000 -0.707107 -0.707107
vn 0.000000 -0.707107 -0.707107
vn 0.000000 -0.707107 -0.707107
vn 0.000000 -0.707107 -0.707107
vn 0.000000 -0.891006 -0.453991
vn 0.000000 -0.891006 -0.453991
vn 0.000000 -0.891006 -0.453991
vn 0.000000 -0.891006 -0.453991
vn 0.000000 -0.987688 -0.156434
vn 0.000000 -0.987688 -0.156434
vn 0.000000 -0.987688 -0.156434
vn 0.000000 -0.987688 -0.156434
vn 0.000000 -0.987688 0.156434
vn 0.000000 -0.987688 0.156434
vn 0.000000 -0.987688 0.156434
vn 0.000000 -0.987688 0.156434
vn 0.000000 -0.891007 0.453990
vn 0.000000 -0.891007 0.453990
vn 0.000000 -0.891007 0.453990
vn 0.000000 -0.891007 0.453990
vn 0.000000 -0.707107 0.707107
vn 0.000000 -0.707107 0.707107
vn 0.000000 -0.707107 0.707107
vn 0.000000 -0.707107 0.707107
vn 0.000000 -0.453991 0.891006
vn 0.000000 -0.453991 0.891006
vn 0.000000 -0.453991 0.891006
vn 0.000000 -0.453991 0.891006
vn 0.000000 -0.156434 0.987688
vn 0.000000 -0.156434 0.987688
vn 0.000000 -0.156434 0.987688
vn 0.000000 -0.156434 0.987688
vn 0.000000 0.156434 0.987688
vn 0.000000 0.156434 0.987688
vn 0.000000 0.156434 0.987688
vn 0.000000 0.156434 0.987688
vn 0.000000 0.453990 0.891007
vn 0.000000 0.453990 0.891007
vn 0.000000 0.453990 0.891007
vn 0.000000 0.453990 0.891007
vn 0.000000 0.707106 0.707107
vn 0.000000 0.707106 0.707107
vn 0.000000 0.707106 0.707107
vn 0.000000 0.707106 0.707107
vn 0.000000 0.048749 -0.998811
vn 0.000000 0.048749 -0.998811
vn 0.000000 0.048749 -0.998811
vn 0.000000 0.048749 -0.998811
s 1
g toilet_roll
usemtl initialShadingGroup
f 1/21/1 2/22/2 22/43/3 21/42/4
f 2/22/2 3/23/5 23/44/6 22/43/3
f 3/23/5 4/24/7 24/45/8 23/44/6
f 4/24/7 5/25/9 25/46/10 24/45/8
f 5/25/11 6/26/12 26/47/13 25/46/14
f 6/26/12 7/27/15 27/48/16 26/47/13
f 7/27/15 8/28/17 28/49/18 27/48/16
f 8/28/17 9/29/19 29/50/20 28/49/18
f 9/29/19 10/30/21 30/51/22 29/50/20
f 10/30/21 11/31/23 31/52/24 30/51/22
f 11/31/23 12/32/25 32/53/26 31/52/24
f 12/32/25 13/33/27 33/54/28 32/53/26
f 13/33/27 14/34/29 34/55/30 33/54/28
f 14/34/29 15/35/31 35/56/32 34/55/30
f 15/35/31 16/36/33 36/57/34 35/56/32
f 16/36/33 17/37/35 37/58/36 36/57/34
f 17/37/35 18/38/37 38/59/38 37/58/36
f 18/38/37 19/39/39 39/60/40 38/59/38
f 19/39/39 20/40/41 40/61/42 39/60/40
f 20/40/41 1/41/1 21/62/4 40/61/42
s 3
f 2/2/43 1/1/44 41/84/45 42/83/46
f 3/3/47 2/2/43 42/83/46 43/85/48
f 4/4/49 3/3/47 43/85/48 44/86/50
f 5/5/51 4/4/49 44/86/50 45/87/52
f 6/6/53 5/5/51 45/87/52 46/88/54
f 7/7/55 6/6/53 46/88/54 47/89/56
f 8/8/57 7/7/55 47/89/56 48/90/58
f 9/9/59 8/8/57 48/90/58 49/91/60
f 10/10/61 9/9/59 49/91/60 50/92/62
f 11/11/63 10/10/61 50/92/62 51/93/64
f 12/12/65 11/11/63 51/93/64 52/94/66
f 13/13/67 12/12/65 52/94/66 53/95/68
f 14/14/69 13/13/67 53/95/68 54/96/70
f 15/15/71 14/14/69 54/96/70 55/97/72
f 16/16/73 15/15/71 55/97/72 56/98/74
f 17/17/75 16/16/73 56/98/74 57/99/76
f 18/18/77 17/17/75 57/99/76 58/100/78
f 19/19/79 18/18/77 58/100/78 59/101/80
f 20/20/81 19/19/79 59/101/80 60/102/82
f 1/1/44 20/20/81 60/102/82 41/84/45
s 4
f 21/81/83 22/80/84 62/104/85 61/103/86
f 22/80/84 23/79/87 63/105/88 62/104/85
f 23/79/87 24/78/89 64/106/90 63/105/88
f 24/78/89 25/77/91 65/107/92 64/106/90
f 25/77/91 26/76/93 66/108/94 65/107/92
f 26/76/93 27/75/95 67/109/96 66/108/94
f 27/75/95 28/74/97 68/110/98 67/109/96
f 28/74/97 29/73/99 69/111/100 68/110/98
f 29/73/99 30/72/101 70/112/102 69/111/100
f 30/72/101 31/71/103 71/113/104 70/112/102
f 31/71/103 32/70/105 72/114/106 71/113/104
f 32/70/105 33/69/107 73/115/108 72/114/106
f 33/69/107 34/68/109 74/116/110 73/115/108
f 34/68/109 35/67/111 75/117/112 74/116/110
f 35/67/111 36/66/113 76/118/114 75/117/112
f 36/66/113 37/65/115 77/119/116 76/118/114
f 37/65/115 38/64/117 78/120/118 77/119/116
f 38/64/117 39/63/119 79/121/120 78/120/118
f 39/63/119 40/82/121 80/122/122 79/121/120
f 40/82/121 21/81/83 61/103/86 80/122/122
s off
f 42/83/123 41/84/124 61/103/125 62/104/126
f 41/84/127 60/102/128 80/122/129 61/103/130
f 60/102/131 59/101/132 79/121/133 80/122/134
f 59/101/135 58/100/136 78/120/137 79/121/138
f 58/100/139 57/99/140 77/119/141 78/120/142
f 57/99/143 56/98/144 76/118/145 77/119/146
f 56/98/147 55/97/148 75/117/149 76/118/150
f 55/97/151 54/96/152 74/116/153 75/117/154
f 54/96/155 53/95/156 73/115/157 74/116/158
f 53/95/159 52/94/160 72/114/161 73/115/162
f 52/94/163 51/93/164 71/113/165 72/114/166
f 51/93/167 50/92/168 70/112/169 71/113/170
f 50/92/171 49/91/172 69/111/173 70/112/174
f 49/91/175 48/90/176 68/110/177 69/111/178
f 48/90/179 47/89/180 67/109/181 68/110/182
f 47/89/183 46/88/184 66/108/185 67/109/186
f 46/88/187 45/87/188 65/107/189 66/108/190
f 45/87/191 44/86/192 64/106/193 65/107/194
f 44/86/195 43/85/196 63/105/197 64/106/198
f 43/85/199 42/83/200 62/104/201 63/105/202
f 5/123/203 25/124/204 82/125/205 81/126/206
