# This file uses centimeters as units for non-parametric coordinates.

mtllib toothbrush.mtl
g default
v -1.140516 -0.338043 -0.012128
v -1.204574 -0.338043 -0.095869
v -1.304347 -0.338043 -0.162325
v -1.430069 -0.338043 -0.204993
v -1.569432 -0.338043 -0.219696
v -1.907442 -0.338043 -0.204993
v -2.033163 -0.338043 -0.162325
v -2.132936 -0.338043 -0.095869
v -2.196994 -0.338043 -0.012128
v -2.219067 -0.338043 0.080699
v -2.196994 -0.338043 0.173525
v -2.132936 -0.338043 0.257266
v -2.033163 -0.338043 0.323723
v -1.907442 -0.338043 0.366390
v -1.569432 -0.338043 0.381093
v -1.430069 -0.338043 0.366390
v -1.304347 -0.338043 0.323723
v -1.204574 -0.338043 0.257266
v -1.140516 -0.338043 0.173525
v -1.118443 -0.338043 0.080699
v -1.140516 -0.202205 -0.012128
v -1.204574 -0.202205 -0.095869
v -1.304347 -0.202205 -0.162325
v -1.430069 -0.202205 -0.204993
v -1.569432 -0.202205 -0.219696
v -1.907442 -0.202205 -0.204993
v -2.033163 -0.202205 -0.162325
v -2.132936 -0.202205 -0.095869
v -2.196994 -0.202205 -0.012128
v -2.219067 -0.202205 0.080699
v -2.196994 -0.202205 0.173525
v -2.132936 -0.202205 0.257266
v -2.033163 -0.202205 0.323723
v -1.907442 -0.202205 0.366390
v -1.569432 -0.202205 0.381093
v -1.430069 -0.202205 0.366390
v -1.304347 -0.202205 0.323723
v -1.204574 -0.202205 0.257266
v -1.140516 -0.202205 0.173525
v -1.118443 -0.202205 0.080699
v -1.569432 -0.338043 0.080699
v 2.651840 -0.322405 0.203892
v 2.732260 -0.322405 0.080703
v 2.732260 -0.217843 0.080703
v 2.651840 -0.217843 0.203892
v 2.651840 -0.322405 -0.042487
v 2.651840 -0.217843 -0.042487
v -1.199833 -0.202205 0.000832
v -1.253859 -0.202205 -0.071749
v -1.338961 -0.202205 -0.130149
v -1.447671 -0.202205 -0.168305
v -1.581428 -0.202205 -0.184387
v -1.858392 -0.202205 -0.170173
v -1.970555 -0.202205 -0.128651
v -2.054635 -0.202205 -0.070826
v -2.108226 -0.202205 0.001237
v -2.126610 -0.202205 0.080699
v -2.108226 -0.202205 0.160160
v -2.054635 -0.202205 0.232223
v -1.970555 -0.202205 0.290048
v -1.858392 -0.202205 0.331570
v -1.581428 -0.202205 0.345784
v -1.447671 -0.202205 0.329703
v -1.338961 -0.202205 0.291546
v -1.253859 -0.202205 0.233146
v -1.199833 -0.202205 0.160566
v -1.181336 -0.202205 0.080699
vt 0.375000 0.312500
vt 0.387500 0.312500
vt 0.387500 0.688440
vt 0.375000 0.688440
vt 0.400000 0.312500
vt 0.400000 0.688440
vt 0.412500 0.312500
vt 0.412500 0.688440
vt 0.425000 0.312500
vt 0.425000 0.688440
vt 0.437500 0.312500
vt 0.437500 0.688440
vt 0.450000 0.312500
vt 0.450000 0.688440
vt 0.462500 0.312500
vt 0.462500 0.688440
vt 0.475000 0.312500
vt 0.475000 0.688440
vt 0.487500 0.312500
vt 0.487500 0.688440
vt 0.500000 0.312500
vt 0.500000 0.688440
vt 0.512500 0.312500
vt 0.512500 0.688440
vt 0.525000 0.312500
vt 0.525000 0.688440
vt 0.537500 0.312500
vt 0.537500 0.688440
vt 0.550000 0.312500
vt 0.550000 0.688440
vt 0.562500 0.312500
vt 0.562500 0.688440
vt 0.575000 0.312500
vt 0.575000 0.688440
vt 0.587500 0.312500
vt 0.587500 0.688440
vt 0.600000 0.312500
vt 0.600000 0.688440
vt 0.600000 0.312500
vt 0.612500 0.312500
vt 0.612500 0.688440
vt 0.600000 0.688440
vt 0.625000 0.312500
vt 0.625000 0.688440
vt 0.626409 0.064408
vt 0.648603 0.107966
vt 0.500000 0.150000
vt 0.591842 0.029841
vt 0.548284 0.007647
vt 0.500000 -0.000000
vt 0.451716 0.007647
vt 0.408159 0.029841
vt 0.373591 0.064409
vt 0.351397 0.107966
vt 0.343750 0.156250
vt 0.351397 0.204534
vt 0.373591 0.248091
vt 0.408159 0.282659
vt 0.451716 0.304853
vt 0.500000 0.312500
vt 0.548284 0.304853
vt 0.591841 0.282659
vt 0.626409 0.248091
vt 0.648603 0.204534
vt 0.656250 0.156250
vt 0.612500 0.312500
vt 0.612500 0.688440
vt 0.625000 0.312500
vt 0.625000 0.688440
vt 0.648603 0.892034
vt 0.626409 0.935591
vt 0.626409 0.935591
vt 0.648603 0.892034
vt 0.591841 0.970159
vt 0.591841 0.970159
vt 0.548284 0.992353
vt 0.548284 0.992353
vt 0.500000 1.000000
vt 0.500000 1.000000
vt 0.451716 0.992353
vt 0.451716 0.992353
vt 0.408159 0.970159
vt 0.408159 0.970159
vt 0.373591 0.935591
vt 0.373591 0.935591
vt 0.351397 0.892034
vt 0.351397 0.892034
vt 0.343750 0.843750
vt 0.343750 0.843750
vt 0.351397 0.795466
vt 0.351397 0.795466
vt 0.373591 0.751909
vt 0.373591 0.751909
vt 0.408159 0.717341
vt 0.408159 0.717341
vt 0.451716 0.695147
vt 0.451716 0.695147
vt 0.500000 0.687500
vt 0.500000 0.687500
vt 0.548284 0.695147
vt 0.548284 0.695147
vt 0.591842 0.717341
vt 0.591842 0.717341
vt 0.626409 0.751908
vt 0.626409 0.751908
vt 0.648603 0.795466
vt 0.648603 0.795466
vt 0.656250 0.843750
vt 0.656250 0.843750
vn 0.794260 0.000000 -0.607578
vn 0.675770 0.000000 -0.737112
vn 0.675770 0.000000 -0.737112
vn 0.794260 0.000000 -0.607578
vn 0.435608 0.000000 -0.900137
vn 0.435608 0.000000 -0.900137
vn 0.211525 0.000000 -0.977373
vn 0.211525 0.000000 -0.977373
vn 0.000000 0.000000 -1.000000
vn 0.000000 0.000000 -1.000000
vn -0.122778 0.000000 -0.992434
vn -0.122778 0.000000 -0.992434
vn -0.435608 0.000000 -0.900137
vn -0.435608 0.000000 -0.900137
vn -0.675771 0.000000 -0.737112
vn -0.675771 0.000000 -0.737112
vn -0.898767 0.000000 -0.438427
vn -0.898767 0.000000 -0.438427
vn -1.000000 0.000000 0.000000
vn -1.000000 0.000000 0.000000
vn -0.898767 0.000000 0.438427
vn -0.898767 0.000000 0.438427
vn -0.675770 0.000000 0.737112
vn -0.675770 0.000000 0.737112
vn -0.435607 0.000000 0.900137
vn -0.435607 0.000000 0.900137
vn -0.122778 0.000000 0.992434
vn -0.122778 0.000000 0.992434
vn 0.000000 0.000000 1.000000
vn 0.000000 0.000000 1.000000
vn 0.211525 0.000000 0.977373
vn 0.211525 0.000000 0.977373
vn 0.435607 0.000000 0.900137
vn 0.435607 0.000000 0.900137
vn 0.675770 0.000000 0.737113
vn 0.675770 0.000000 0.737113
vn 0.794260 0.000000 0.607578
vn 0.794260 0.000000 0.607578
vn 0.837365 0.000000 0.546645
vn 1.000000 0.000000 0.000003
vn 1.000000 0.000000 0.000003
vn 0.837365 0.000000 0.546645
vn 0.837367 0.000000 -0.546641
vn 0.837367 0.000000 -0.546641
vn 0.000000 -1.000000 0.000000
vn 0.003712 -0.999991 -0.001761
vn 0.000000 -1.000000 -0.000000
vn 0.000000 -1.000000 0.000000
vn 0.000000 -1.000000 0.000000
vn 0.000000 -1.000000 0.000000
vn 0.000000 -1.000000 0.000000
vn 0.000000 -1.000000 0.000000
vn 0.000000 -1.000000 0.000000
vn 0.000000 -1.000000 0.000000
vn 0.000000 -1.000000 0.000000
vn 0.000000 -1.000000 0.000000
vn 0.000000 -1.000000 0.000000
vn 0.000000 -1.000000 0.000000
vn 0.000000 -1.000000 -0.000000
vn 0.000000 -1.000000 -0.000000
vn 0.000000 -1.000000 0.000000
vn 0.000000 -1.000000 -0.000000
vn 0.000000 -1.000000 -0.000000
vn 0.003712 -0.999991 0.001761
vn 0.003922 -0.999992 -0.000000
vn 0.004084 -0.999992 -0.000000
vn 0.004084 -0.999990 0.001938
vn 0.004041 0.999992 -0.000000
vn 0.003982 0.999990 0.001889
vn 0.004084 0.999990 0.001938
vn 0.004084 0.999992 -0.000000
vn -0.008007 0.000000 0.999968
vn -0.008007 0.000000 0.999968
vn -0.008007 0.000000 0.999968
vn -0.008007 0.000000 0.999968
vn 0.004084 -0.999990 -0.001938
vn -0.008005 0.000000 -0.999968
vn -0.008005 0.000000 -0.999968
vn -0.008005 0.000000 -0.999968
vn -0.008005 0.000000 -0.999968
vn 0.003982 0.999990 -0.001889
vn 0.004084 0.999990 -0.001938
vn 0.000000 1.000000 0.000000
vn 0.000000 1.000000 0.000000
vn 0.000000 1.000000 -0.000000
vn 0.000000 1.000000 0.000000
vn 0.000000 1.000000 0.000000
vn 0.000000 1.000000 0.000000
vn 0.000000 1.000000 0.000000
vn 0.000000 1.000000 0.000000
vn 0.000000 1.000000 0.000000
vn 0.000000 1.000000 0.000000
vn 0.000000 1.000000 0.000000
vn 0.000000 1.000000 -0.000000
vn 0.000000 1.000000 -0.000000
vn 0.000000 1.000000 0.000000
vn 0.000000 1.000000 -0.000000
vn 0.000000 1.000000 0.000000
vn 0.000000 1.000000 0.000000
vn 0.000000 1.000000 0.000000
vn 0.000000 1.000000 0.000000
vn 0.000000 1.000000 -0.000000
vn 0.000000 1.000000 -0.000000
vn 0.000000 1.000000 0.000000
vn 0.000000 1.000000 0.000000
vn 0.000000 1.000000 0.000000
vn 0.000000 1.000000 0.000000
vn 0.000000 1.000000 -0.000000
vn 0.000000 1.000000 -0.000000
vn 0.000000 1.000000 -0.000000
vn 0.000000 1.000000 -0.000000
vn 0.000000 1.000000 -0.000000
vn 0.000000 1.000000 0.000000
vn 0.000000 1.000000 -0.000000
vn 0.000000 1.000000 -0.000000
vn 0.000000 1.000000 -0.000000
vn 0.000000 1.000000 -0.000000
vn 0.000000 1.000000 0.000000
vn 0.000000 1.000000 -0.000000
s 1
g Toothbrush Toothbrush
usemtl initialShadingGroup
f 1/1/1 2/2/2 22/3/3 21/4/4
f 2/2/2 3/5/5 23/6/6 22/3/3
f 3/5/5 4/7/7 24/8/8 23/6/6
f 4/7/7 5/9/9 25/10/10 24/8/8
f 5/9/9 6/11/11 26/12/12 25/10/10
f 6/11/11 7/13/13 27/14/14 26/12/12
f 7/13/13 8/15/15 28/16/16 27/14/14
f 8/15/15 9/17/17 29/18/18 28/16/16
f 9/17/17 10/19/19 30/20/20 29/18/18
f 10/19/19 11/21/21 31/22/22 30/20/20
f 11/21/21 12/23/23 32/24/24 31/22/22
f 12/23/23 13/25/25 33/26/26 32/24/24
f 13/25/25 14/27/27 34/28/28 33/26/26
f 14/27/27 15/29/29 35/30/30 34/28/28
f 15/29/29 16/31/31 36/32/32 35/30/30
f 16/31/31 17/33/33 37/34/34 36/32/32
f 17/33/33 18/35/35 38/36/36 37/34/34
f 18/35/35 19/37/37 39/38/38 38/36/36
s 2
f 42/39/39 43/40/40 44/41/41 45/42/42
f 43/40/40 46/43/43 47/44/44 44/41/41
s 3
f 2/45/45 1/46/46 41/47/47
f 3/48/48 2/45/45 41/47/47
f 4/49/49 3/48/48 41/47/47
f 5/50/50 4/49/49 41/47/47
f 6/51/51 5/50/50 41/47/47
f 7/52/52 6/51/51 41/47/47
f 8/53/53 7/52/52 41/47/47
f 9/54/54 8/53/53 41/47/47
f 10/55/55 9/54/54 41/47/47
f 11/56/56 10/55/55 41/47/47
f 12/57/57 11/56/56 41/47/47
f 13/58/58 12/57/57 41/47/47
f 14/59/59 13/58/58 41/47/47
f 15/60/60 14/59/59 41/47/47
f 16/61/61 15/60/60 41/47/47
f 17/62/62 16/61/61 41/47/47
f 18/63/63 17/62/62 41/47/47
f 19/64/64 18/63/63 41/47/47
f 20/65/65 19/64/64 41/47/47
f 1/46/46 20/65/65 41/47/47
f 19/37/64 20/66/65 43/40/66 42/39/67
s 4
f 40/67/68 39/38/69 45/42/70 44/41/71
s off
f 39/38/72 19/37/73 42/39/74 45/42/75
s 3
f 20/66/65 1/68/46 46/43/76 43/40/66
s off
f 1/68/77 21/69/78 47/44/79 46/43/80
s 4
f 21/69/81 40/67/68 44/41/71 47/44/82
f 21/70/81 22/71/83 49/72/84 48/73/85
f 22/71/83 23/74/86 50/75/87 49/72/84
f 23/74/86 24/76/88 51/77/89 50/75/87
f 24/76/88 25/78/90 52/79/91 51/77/89
f 25/78/90 26/80/92 53/81/93 52/79/91
f 26/80/92 27/82/94 54/83/95 53/81/93
f 27/82/94 28/84/96 55/85/97 54/83/95
f 28/84/96 29/86/98 56/87/99 55/85/97
f 29/86/98 30/88/100 57/89/101 56/87/99
f 30/88/100 31/90/102 58/91/103 57/89/101
f 31/90/102 32/92/104 59/93/105 58/91/103
f 32/92/104 33/94/106 60/95/107 59/93/105
f 33/94/106 34/96/108 61/97/109 60/95/107
f 34/96/108 35/98/110 62/99/111 61/97/109
f 35/98/110 36/100/112 63/101/113 62/99/111
f 36/100/112 37/102/114 64/103/115 63/101/113
f 37/102/114 38/104/116 65/105/117 64/103/115
f 38/104/116 39/106/69 66/107/118 65/105/117
f 39/106/69 40/108/68 67/109/119 66/107/118
f 40/108/68 21/70/81 48/73/85 67/109/119
g default
v -1.182704 0.125540 -0.000344
v -1.231303 0.125540 -0.066699
v -1.569432 0.125540 0.080699
v -1.338928 0.125540 -0.126081
v -1.438473 0.125540 -0.161860
v -1.591724 0.125540 -0.194784
v -1.837388 0.125540 -0.180871
v -1.935602 0.125540 -0.110130
v -2.044792 0.125540 -0.057002
v -2.092763 0.125540 0.008591
v -2.075595 0.125540 0.080699
v -2.132266 0.125540 0.152806
v -2.084294 0.125540 0.218399
v -1.935602 0.125540 0.271527
v -1.831830 0.125540 0.311701
v -1.560509 0.114158 0.355208
v -1.432268 0.114158 0.338958
v -1.358380 0.125540 0.273584
v -1.281322 0.125540 0.219760
v -1.232724 0.125540 0.153404
v -1.216146 0.125540 0.080699
v -1.199833 -0.202205 0.000832
v -1.253859 -0.202205 -0.071749
v -1.338961 -0.202205 -0.130149
v -1.447671 -0.202205 -0.168305
v -1.581428 -0.202205 -0.184387
v -1.858392 -0.202205 -0.170173
v -1.970555 -0.202205 -0.128651
v -2.054635 -0.202205 -0.070826
v -2.108226 -0.202205 0.001237
v -2.126610 -0.202205 0.080699
v -2.108226 -0.202205 0.160160
v -2.054635 -0.202205 0.232223
v -1.970555 -0.202205 0.290048
v -1.858392 -0.202205 0.331570
v -1.581428 -0.202205 0.345784
v -1.447671 -0.202205 0.329703
v -1.338961 -0.202205 0.291546
v -1.253859 -0.202205 0.233146
v -1.199833 -0.202205 0.160566
v -1.181336 -0.202205 0.080699
vt 0.648603 0.892034
vt 0.626409 0.935591
vt 0.500000 0.837500
vt 0.591841 0.970159
vt 0.548284 0.992353
vt 0.500000 1.000000
vt 0.451716 0.992353
vt 0.408159 0.970159
vt 0.373591 0.935591
vt 0.351397 0.892034
vt 0.343750 0.843750
vt 0.351397 0.795466
vt 0.373591 0.751909
vt 0.408159 0.717341
vt 0.451716 0.695147
vt 0.500000 0.687500
vt 0.548284 0.695147
vt 0.591842 0.717341
vt 0.626409 0.751908
vt 0.648603 0.795466
vt 0.656250 0.843750
vt 0.648603 0.892034
vt 0.626409 0.935591
vt 0.591841 0.970159
vt 0.548284 0.992353
vt 0.500000 1.000000
vt 0.451716 0.992353
vt 0.408159 0.970159
vt 0.373591 0.935591
vt 0.351397 0.892034
vt 0.343750 0.843750
vt 0.351397 0.795466
vt 0.373591 0.751909
vt 0.408159 0.717341
vt 0.451716 0.695147
vt 0.500000 0.687500
vt 0.548284 0.695147
vt 0.591842 0.717341
vt 0.626409 0.751908
vt 0.648603 0.795466
vt 0.656250 0.843750
vn 0.000000 1.000000 0.000000
vn 0.000000 1.000000 0.000000
vn 0.004255 0.999911 0.012630
vn 0.000000 1.000000 0.000000
vn 0.000000 1.000000 0.000000
vn 0.000000 1.000000 -0.000000
vn 0.000000 1.000000 0.000000
vn 0.000000 1.000000 -0.000000
vn 0.000000 1.000000 0.000000
vn 0.000000 1.000000 0.000000
vn 0.000000 1.000000 0.000000
vn 0.000000 1.000000 0.000000
vn 0.000000 1.000000 0.000000
vn 0.000000 1.000000 0.000000
vn 0.021223 0.999484 0.024108
vn 0.025034 0.998862 0.040600
vn -0.024236 0.998088 0.056858
vn -0.045556 0.997717 0.049846
vn 0.000000 1.000000 0.000000
vn 0.000000 1.000000 0.000000
vn 0.000000 1.000000 -0.000000
vn 0.959639 -0.011041 -0.281017
vn 0.655038 -0.023350 -0.755235
vn 0.656662 -0.023571 -0.753817
vn 0.959743 -0.011004 -0.280665
vn 0.431250 0.002080 -0.902230
vn 0.431445 0.002063 -0.902137
vn 0.240638 0.001248 -0.970614
vn 0.241213 0.001303 -0.970471
vn 0.026102 -0.022192 -0.999413
vn 0.025419 -0.022270 -0.999429
vn -0.189421 -0.005462 -0.981881
vn -0.186790 -0.005969 -0.982382
vn -0.483005 0.063249 -0.873330
vn -0.482935 0.063179 -0.873374
vn -0.642693 0.066574 -0.763225
vn -0.643638 0.066497 -0.762436
vn -0.939231 0.077847 -0.334344
vn -0.939665 0.077958 -0.333095
vn -0.989241 0.069162 -0.128910
vn -0.989272 0.069236 -0.128636
vn -0.976346 -0.007624 0.216080
vn -0.977150 -0.007258 0.212427
vn -0.594782 0.010987 0.803812
vn -0.598577 0.010067 0.801002
vn -0.393757 0.066745 0.916788
vn -0.393445 0.066905 0.916910
vn -0.180320 0.043356 0.982652
vn -0.189411 0.045692 0.980834
vn -0.032543 0.004774 0.999459
vn -0.038879 0.006456 0.999223
vn 0.292979 -0.013779 0.956020
vn 0.322227 -0.009748 0.946612
vn 0.529895 0.046691 0.846777
vn 0.537988 0.053742 0.841237
vn 0.685579 0.086780 0.722808
vn 0.685626 0.086783 0.722762
vn 0.899726 0.099232 0.425024
vn 0.899746 0.099234 0.424981
vn 0.985454 0.064470 0.157240
vn 0.985426 0.064551 0.157378
s 1
g Toothbrush polySurface2
usemtl initialShadingGroup
f 68/110/120 69/111/121 70/112/122
f 69/111/121 71/113/123 70/112/122
f 71/113/123 72/114/124 70/112/122
f 72/114/124 73/115/125 70/112/122
f 73/115/125 74/116/126 70/112/122
f 74/116/126 75/117/127 70/112/122
f 75/117/127 76/118/128 70/112/122
f 76/118/128 77/119/129 70/112/122
f 77/119/129 78/120/130 70/112/122
f 78/120/130 79/121/131 70/112/122
f 79/121/131 80/122/132 70/112/122
f 80/122/132 81/123/133 70/112/122
f 81/123/133 82/124/134 70/112/122
f 82/124/134 83/125/135 70/112/122
f 83/125/135 84/126/136 70/112/122
f 84/126/136 85/127/137 70/112/122
f 85/127/137 86/128/138 70/112/122
f 86/128/138 87/129/139 70/112/122
f 87/129/139 88/130/140 70/112/122
f 88/130/140 68/110/120 70/112/122
s 2
f 89/131/141 90/132/142 69/111/143 68/110/144
f 90/132/142 91/133/145 71/113/146 69/111/143
f 91/133/145 92/134/147 72/114/148 71/113/146
f 92/134/147 93/135/149 73/115/150 72/114/148
f 93/135/149 94/136/151 74/116/152 73/115/150
f 94/136/151 95/137/153 75/117/154 74/116/152
f 95/137/153 96/138/155 76/118/156 75/117/154
f 96/138/155 97/139/157 77/119/158 76/118/156
f 97/139/157 98/140/159 78/120/160 77/119/158
f 98/140/159 99/141/161 79/121/162 78/120/160
f 99/141/161 100/142/163 80/122/164 79/121/162
f 100/142/163 101/143/165 81/123/166 80/122/164
f 101/143/165 102/144/167 82/124/168 81/123/166
f 102/144/167 103/145/169 83/125/170 82/124/168
f 103/145/169 104/146/171 84/126/172 83/125/170
f 104/146/171 105/147/173 85/127/174 84/126/172
f 105/147/173 106/148/175 86/128/176 85/127/174
f 106/148/175 107/149/177 87/129/178 86/128/176
f 107/149/177 108/150/179 88/130/180 87/129/178
f 108/150/179 89/131/141 68/110/144 88/130/180
