# This file uses centimeters as units for non-parametric coordinates.

mtllib Towel_Rack.mtl
g default
v 0.868657 -1.585399 -0.039806
v 0.868657 -1.347009 -0.099500
v 1.022390 -1.347009 -0.039806
v -1.022390 -1.347009 -0.039806
v -0.868657 -1.347009 -0.099500
v -0.868657 -1.585399 -0.039806
v 1.022390 1.347009 -0.039806
v 0.868657 1.585399 -0.039806
v -0.868657 1.585399 -0.039806
v -1.022390 1.347009 -0.039806
v 1.022390 1.347009 0.039806
v 0.868657 1.585399 0.039806
v 0.868657 1.347009 0.099500
v -0.868657 1.347009 0.099500
v -0.868657 1.585399 0.039806
v -1.022390 1.347009 0.039806
v 1.022390 -1.347009 0.039806
v 0.868657 -1.347009 0.099500
v 0.868657 -1.585399 0.039806
v -0.868657 -1.585399 0.039806
v -0.868657 -1.347009 0.099500
v -1.022390 -1.347009 0.039806
v -0.868657 -0.549590 -0.099500
v -1.022390 -0.549590 -0.039806
v -1.022390 -0.549590 0.039806
v -0.868657 -0.549590 0.099500
v 0.868657 -0.549590 0.099500
v 1.022390 -0.549590 0.039806
v 1.022390 -0.549590 -0.039806
v 0.868657 -0.549590 -0.099500
v 1.063499 -0.676612 -0.122359
v 0.889212 -0.676612 -0.185868
v 0.889212 1.231574 -0.202517
v 1.062979 1.231964 -0.136743
v -0.889212 -0.676612 -0.185868
v -1.063499 -0.676612 -0.122359
v -1.062979 1.231964 -0.136743
v -0.889212 1.231574 -0.202517
v 0.888692 1.483209 -0.154634
v -0.888692 1.483209 -0.154634
vt 0.393796 0.925007
vt 0.375000 0.925007
vt 0.375000 0.824993
vt 0.393796 0.000000
vt 0.393796 0.018796
vt 0.625000 0.925007
vt 0.606204 0.925007
vt 0.625000 0.824993
vt 0.699992 0.018796
vt 0.375000 0.324993
vt 0.375000 0.425007
vt 0.393796 0.231204
vt 0.606204 0.231204
vt 0.625000 0.324993
vt 0.375000 0.518796
vt 0.375000 0.731204
vt 0.393796 0.425007
vt 0.606204 0.425007
vt 0.625000 0.518796
vt 0.625000 0.731204
vt 0.393796 0.731204
vt 0.606204 0.731204
vt 0.606204 0.824993
vt 0.606204 0.018796
vt 0.393796 0.324993
vt 0.606204 0.324993
vt 0.393796 0.518796
vt 0.606204 0.518796
vt 0.393796 0.824993
vt 0.800007 0.018796
vt 0.800008 0.231204
vt 0.199992 0.018796
vt 0.300007 0.018796
vt 0.300008 0.231204
vt 0.199993 0.231204
vt 0.606204 0.000000
vt 0.699993 0.231204
vt 0.625000 0.425007
vt 0.606204 0.081668
vt 0.699993 0.081668
vt 0.625000 0.668332
vt 0.800007 0.081668
vt 0.606204 0.668332
vt 0.393796 0.668332
vt 0.375000 0.668332
vt 0.199992 0.081668
vt 0.300007 0.081668
vt 0.393796 0.081668
vt 0.300007 0.081668
vt 0.393796 0.081668
vt 0.300008 0.231204
vt 0.606204 0.081668
vt 0.699993 0.081668
vt 0.699993 0.231204
vt 0.606204 0.324993
vt 0.393796 0.324993
vn 0.840405 -0.541959 0.000000
vn 0.840405 -0.541959 0.000000
vn 0.840405 -0.541959 0.000000
vn 0.840405 -0.541959 0.000000
vn 0.000000 -0.242905 -0.970050
vn 0.000000 -0.242905 -0.970050
vn 0.000000 -0.242905 -0.970050
vn 0.000000 -0.242905 -0.970050
vn 0.348197 -0.007574 -0.937391
vn 0.348197 -0.007574 -0.937391
vn 0.348197 -0.007574 -0.937391
vn 0.348197 -0.007574 -0.937391
vn -0.840405 -0.541959 -0.000000
vn -0.840405 -0.541959 -0.000000
vn -0.840405 -0.541959 -0.000000
vn -0.840405 -0.541959 -0.000000
vn -0.348197 -0.007574 -0.937391
vn -0.348197 -0.007574 -0.937391
vn -0.348197 -0.007574 -0.937391
vn -0.348197 -0.007574 -0.937391
vn 0.822597 0.535854 -0.190250
vn 0.823671 0.536371 -0.184043
vn 0.840405 0.541959 0.000000
vn 0.840405 0.541959 0.000000
vn 0.000000 0.186934 -0.982372
vn 0.000000 0.186934 -0.982372
vn 0.000000 0.186934 -0.982372
vn 0.000000 0.186934 -0.982372
vn -0.823671 0.536371 -0.184044
vn -0.822597 0.535854 -0.190251
vn -0.840405 0.541959 -0.000000
vn -0.840405 0.541959 -0.000000
vn 0.361967 0.000000 0.932191
vn 0.361967 0.000000 0.932191
vn 0.361967 0.000000 0.932191
vn 0.361967 0.000000 0.932191
vn -0.000000 0.242905 0.970050
vn -0.000000 0.242905 0.970050
vn -0.000000 0.242905 0.970050
vn -0.000000 0.242905 0.970050
vn -0.361967 0.000000 0.932191
vn -0.361967 0.000000 0.932191
vn -0.361967 0.000000 0.932191
vn -0.361967 0.000000 0.932191
vn -0.000000 -0.242905 0.970050
vn -0.000000 -0.242905 0.970050
vn -0.000000 -0.242905 0.970050
vn -0.000000 -0.242905 0.970050
vn 0.000000 -0.008725 -0.999962
vn 0.000000 -0.008725 -0.999962
vn 0.000000 -0.008725 -0.999962
vn 0.000000 -0.008725 -0.999962
vn 0.000000 1.000000 -0.000000
vn 0.000000 1.000000 -0.000000
vn 0.000000 1.000000 -0.000000
vn 0.000000 1.000000 -0.000000
vn -0.000000 0.000000 1.000000
vn -0.000000 0.000000 1.000000
vn -0.000000 0.000000 1.000000
vn -0.000000 0.000000 1.000000
vn 0.000000 -1.000000 0.000000
vn 0.000000 -1.000000 0.000000
vn 0.000000 -1.000000 0.000000
vn 0.000000 -1.000000 0.000000
vn -0.979069 0.000831 0.203525
vn -1.000000 0.000000 -0.000000
vn -1.000000 0.000000 -0.000000
vn -0.973406 0.000935 0.229084
vn 1.000000 0.000000 0.000000
vn 0.979069 0.000831 0.203526
vn 0.973406 0.000935 0.229085
vn 1.000000 0.000000 0.000000
vn 0.352492 -0.227314 -0.907787
vn 0.352492 -0.227314 -0.907787
vn 0.352492 -0.227314 -0.907787
vn -0.352492 -0.227314 -0.907787
vn -0.352492 -0.227314 -0.907787
vn -0.352492 -0.227314 -0.907787
vn 0.348141 0.175935 -0.920785
vn 0.348141 0.175935 -0.920785
vn 0.348141 0.175935 -0.920785
vn -0.348141 0.175934 -0.920785
vn -0.348141 0.175934 -0.920785
vn -0.348141 0.175934 -0.920785
vn 0.352492 0.227314 0.907787
vn 0.352492 0.227314 0.907787
vn 0.352492 0.227314 0.907787
vn -0.352492 0.227314 0.907787
vn -0.352492 0.227314 0.907787
vn -0.352492 0.227314 0.907787
vn 0.352492 -0.227314 0.907787
vn 0.352492 -0.227314 0.907787
vn 0.352492 -0.227314 0.907787
vn -0.352492 -0.227314 0.907787
vn -0.352492 -0.227314 0.907787
vn -0.352492 -0.227314 0.907787
vn -0.361967 0.000000 -0.932191
vn -0.361967 0.000000 -0.932191
vn -0.361967 0.000000 -0.932191
vn -0.361967 0.000000 -0.932191
vn -1.000000 0.000000 -0.000000
vn -1.000000 0.000000 -0.000000
vn -0.361967 0.000000 0.932191
vn -0.361967 0.000000 0.932191
vn -0.000000 0.000000 1.000000
vn -0.000000 0.000000 1.000000
vn 0.361967 0.000000 0.932191
vn 0.361967 0.000000 0.932191
vn 1.000000 0.000000 0.000000
vn 1.000000 0.000000 0.000000
vn 0.361967 0.000000 -0.932191
vn 0.361967 0.000000 -0.932191
vn 0.361967 0.000000 -0.932191
vn 0.361967 0.000000 -0.932191
vn 0.000000 0.000000 -1.000000
vn 0.000000 0.000000 -1.000000
vn 0.000000 0.000000 -1.000000
vn 0.000000 0.000000 -1.000000
vn -0.286993 -0.577737 0.764104
vn -0.044245 -0.567847 0.821944
vn -0.005483 -0.563030 0.826418
vn -0.286993 -0.577737 0.764104
vn 0.911004 0.001683 0.412393
vn 0.911004 0.001683 0.412393
vn 0.044245 -0.567847 0.821944
vn 0.286993 -0.577737 0.764104
vn 0.286993 -0.577737 0.764104
vn 0.005483 -0.563030 0.826418
vn -0.911005 0.001683 0.412391
vn -0.911005 0.001683 0.412391
vn 0.000000 0.747019 -0.664802
vn 0.000000 0.747019 -0.664802
vn 0.000000 0.747019 -0.664802
vn 0.000000 0.747019 -0.664802
vn 0.795699 0.521824 -0.307509
vn 0.795699 0.521824 -0.307509
vn -0.795699 0.521824 -0.307510
vn -0.795699 0.521824 -0.307510
s off
g Towel
usemtl initialShadingGroup
f 1/1/1 3/2/2 17/3/3 19/29/4
f 2/5/5 1/4/6 6/36/7 5/24/8
f 31/49/9 32/50/10 33/12/11 34/51/12
f 4/6/13 6/7/14 20/23/15 22/8/16
f 35/52/17 36/53/18 37/54/19 38/13/20
s 1
f 7/10/21 8/25/22 12/17/23 11/11/24
s off
f 39/56/25 33/12/26 38/13/27 40/55/28
s 2
f 9/26/29 10/14/30 16/38/31 15/18/32
s 3
f 11/15/33 13/27/34 27/44/35 28/45/36
s off
f 13/27/37 12/17/38 15/18/39 14/28/40
s 4
f 14/28/41 16/19/42 25/41/43 26/43/44
s off
f 19/29/45 18/21/46 21/22/47 20/23/48
f 32/50/49 35/52/50 38/13/51 33/12/52
f 8/25/53 9/26/54 15/18/55 12/17/56
s 5
f 13/27/57 14/28/58 26/43/59 27/44/60
s off
f 19/29/61 20/23/62 6/7/63 1/1/64
s 6
f 24/40/65 25/42/66 16/31/67 10/37/68
s 7
f 28/46/69 29/47/70 7/34/71 11/35/72
s off
f 1/4/73 2/5/74 3/33/75
f 4/9/76 5/24/77 6/36/78
f 34/51/79 33/12/80 39/56/81
f 40/55/82 38/13/83 37/54/84
f 11/11/85 12/17/86 13/27/87
f 14/28/88 15/18/89 16/38/90
f 17/16/91 18/21/92 19/29/93
f 20/23/94 21/22/95 22/20/96
f 5/24/97 4/9/98 24/40/99 23/39/100
s 6
f 4/9/101 22/30/102 25/42/66 24/40/65
s 4
f 26/43/44 25/41/43 22/20/103 21/22/104
s 5
f 27/44/60 26/43/59 21/22/105 18/21/106
s 3
f 28/45/36 27/44/35 18/21/107 17/16/108
s 7
f 17/32/109 3/33/110 29/47/70 28/46/69
s off
f 3/33/111 2/5/112 30/48/113 29/47/114
f 2/5/115 5/24/116 23/39/117 30/48/118
s 8
f 29/47/119 30/48/120 32/50/121 31/49/122
s 7
f 7/34/71 29/47/70 31/49/123 34/51/124
s 8
f 23/39/125 24/40/126 36/53/127 35/52/128
s 6
f 24/40/65 10/37/68 37/54/129 36/53/130
s off
f 9/26/131 8/25/132 39/56/133 40/55/134
s 8
f 30/48/120 23/39/125 35/52/128 32/50/121
s 1
f 8/25/22 7/34/21 34/51/135 39/56/136
s 2
f 10/37/30 9/26/29 40/55/137 37/54/138
g default
v -1.176049 -0.082625 0.255555
v 1.176049 -0.082625 0.255555
v -1.176049 0.082625 0.255555
v 1.176049 0.082625 0.255555
v -1.176049 0.082625 -0.255556
v 1.176049 0.082625 -0.255556
v -1.176049 -0.082625 -0.255556
v 1.176049 -0.082625 -0.255556
v -1.111097 0.082625 0.163092
v 1.111098 0.082625 0.163092
v 1.111098 0.082625 -0.163092
v -1.111097 0.082625 -0.163092
v -1.111097 -0.082625 -0.163092
v 1.111098 -0.082625 -0.163092
v 1.111098 -0.082625 0.163092
v -1.111097 -0.082625 0.163092
vt 0.375000 0.000000
vt 0.625000 0.000000
vt 0.375000 0.250000
vt 0.625000 0.250000
vt 0.375000 0.500000
vt 0.625000 0.500000
vt 0.375000 0.750000
vt 0.625000 0.750000
vt 0.375000 1.000000
vt 0.625000 1.000000
vt 0.875000 0.000000
vt 0.875000 0.250000
vt 0.125000 0.000000
vt 0.125000 0.250000
vt 0.375000 0.250000
vt 0.625000 0.250000
vt 0.625000 0.500000
vt 0.375000 0.500000
vt 0.375000 0.750000
vt 0.625000 0.750000
vt 0.625000 1.000000
vt 0.375000 1.000000
vn 0.000000 0.000000 1.000000
vn 0.000000 0.000000 1.000000
vn 0.000000 0.000000 1.000000
vn 0.000000 0.000000 1.000000
vn 0.000000 0.000000 -1.000000
vn 0.000000 0.000000 -1.000000
vn 0.000000 0.000000 -1.000000
vn 0.000000 0.000000 -1.000000
vn 1.000000 0.000000 0.000000
vn 1.000000 0.000000 0.000000
vn 1.000000 0.000000 0.000000
vn 1.000000 0.000000 0.000000
vn -1.000000 0.000000 0.000000
vn -1.000000 0.000000 0.000000
vn -1.000000 0.000000 0.000000
vn -1.000000 0.000000 0.000000
vn 0.000000 1.000000 0.000000
vn 0.000000 1.000000 0.000000
vn 0.000000 1.000000 0.000000
vn 0.000000 1.000000 0.000000
vn 0.000000 1.000000 -0.000000
vn 0.000000 1.000000 -0.000000
vn 0.000000 1.000000 -0.000000
vn 0.000000 1.000000 -0.000000
vn 0.000000 -1.000000 0.000000
vn 0.000000 -1.000000 0.000000
vn 0.000000 -1.000000 0.000000
vn 0.000000 -1.000000 0.000000
vn 0.000000 -1.000000 0.000000
vn 0.000000 -1.000000 0.000000
vn 0.000000 -1.000000 0.000000
vn 0.000000 -1.000000 0.000000
vn 1.000000 0.000000 0.000000
vn 1.000000 0.000000 0.000000
vn 1.000000 0.000000 0.000000
vn 1.000000 0.000000 0.000000
vn 0.000000 0.000000 1.000000
vn 0.000000 0.000000 1.000000
vn 0.000000 0.000000 1.000000
vn 0.000000 0.000000 1.000000
vn 0.000000 0.000000 -1.000000
vn 0.000000 0.000000 -1.000000
vn 0.000000 0.000000 -1.000000
vn 0.000000 0.000000 -1.000000
vn -1.000000 0.000000 0.000000
vn -1.000000 0.000000 0.000000
vn -1.000000 0.000000 0.000000
vn -1.000000 0.000000 0.000000
s off
g Towel_rail
usemtl initialShadingGroup
f 41/57/139 42/58/140 44/60/141 43/59/142
f 45/61/143 46/62/144 48/64/145 47/63/146
f 42/58/147 48/67/148 46/68/149 44/60/150
f 47/69/151 41/57/152 43/59/153 45/70/154
s 1
f 43/59/155 44/60/156 50/72/157 49/71/158
f 44/60/156 46/62/159 51/73/160 50/72/157
f 46/62/159 45/61/161 52/74/162 51/73/160
f 45/61/161 43/59/155 49/71/158 52/74/162
s 2
f 47/63/163 48/64/164 54/76/165 53/75/166
f 48/64/164 42/66/167 55/77/168 54/76/165
f 42/66/167 41/65/169 56/78/170 55/77/168
f 41/65/169 47/63/163 53/75/166 56/78/170
s off
f 52/74/171 49/71/172 56/78/173 53/75/174
f 51/73/175 52/74/176 53/75/177 54/76/178
f 49/71/179 50/72/180 55/77/181 56/78/182
f 50/72/183 51/73/184 54/76/185 55/77/186
