# This file uses centimeters as units for non-parametric coordinates.

mtllib Bedside_Photo_Frame.mtl
g default
v 0.609437 0.008394 3.008644
v 1.372694 0.212360 3.008644
v -1.372695 7.425694 3.008644
v -0.609438 7.629660 3.008644
v -1.372695 7.425694 -3.008644
v -0.609438 7.629660 -3.008644
v 0.609437 0.008394 -3.008644
v 1.372694 0.212360 -3.008644
v 1.321060 0.405580 -2.808644
v 1.321060 0.405580 2.808644
v -0.557803 7.436440 -2.808644
v -0.557803 7.436440 2.808644
v 1.104577 0.347729 -2.808644
v 1.104577 0.347729 2.808644
v -0.774286 7.378589 -2.808644
v -0.774286 7.378589 2.808644
v 0.557802 0.201614 -2.808644
v 0.557802 0.201614 2.808644
v -1.321061 7.232474 2.808644
v -1.321061 7.232474 -2.808644
v 0.652399 0.226893 -2.808644
v 0.652399 0.226893 2.808644
v -1.226465 7.257753 2.808644
v -1.226465 7.257753 -2.808644
vt 0.375000 0.000000
vt 0.625000 0.000000
vt 0.375000 0.250000
vt 0.625000 0.250000
vt 0.375000 0.500000
vt 0.625000 0.500000
vt 0.375000 0.750000
vt 0.625000 0.750000
vt 0.375000 1.000000
vt 0.625000 1.000000
vt 0.875000 0.000000
vt 0.875000 0.250000
vt 0.125000 0.000000
vt 0.125000 0.250000
vt 0.625000 0.000000
vt 0.875000 0.000000
vt 0.875000 0.250000
vt 0.625000 0.250000
vt 0.625000 0.000000
vt 0.875000 0.000000
vt 0.875000 0.250000
vt 0.625000 0.250000
vt 0.125000 0.000000
vt 0.375000 0.000000
vt 0.375000 0.250000
vt 0.125000 0.250000
vt 0.125000 0.000000
vt 0.375000 0.000000
vt 0.375000 0.250000
vt 0.125000 0.250000
vn 0.000000 0.000000 1.000000
vn 0.000000 0.000000 1.000000
vn 0.000000 0.000000 1.000000
vn 0.000000 0.000000 1.000000
vn -0.258172 0.966099 0.000000
vn -0.258172 0.966099 0.000000
vn -0.258172 0.966099 0.000000
vn -0.258172 0.966099 0.000000
vn 0.000000 0.000000 -1.000000
vn 0.000000 0.000000 -1.000000
vn 0.000000 0.000000 -1.000000
vn 0.000000 0.000000 -1.000000
vn 0.258172 -0.966099 0.000000
vn 0.258172 -0.966099 0.000000
vn 0.258172 -0.966099 0.000000
vn 0.258172 -0.966099 0.000000
vn 0.966099 0.258172 0.000000
vn 0.966099 0.258172 0.000000
vn 0.966099 0.258172 0.000000
vn 0.966099 0.258172 0.000000
vn -0.966099 -0.258172 0.000000
vn -0.966099 -0.258172 0.000000
vn -0.966099 -0.258172 0.000000
vn -0.966099 -0.258172 0.000000
vn 0.966099 0.258172 0.000000
vn 0.966099 0.258172 0.000000
vn 0.966099 0.258172 0.000000
vn 0.966099 0.258172 0.000000
vn 0.966099 0.258172 0.000000
vn 0.966099 0.258172 0.000000
vn 0.966099 0.258172 0.000000
vn 0.966099 0.258172 0.000000
vn -0.258172 0.966099 0.000000
vn -0.258172 0.966099 0.000000
vn -0.258172 0.966099 0.000000
vn -0.258172 0.966099 0.000000
vn 0.000000 0.000000 1.000000
vn 0.000000 0.000000 1.000000
vn 0.000000 0.000000 1.000000
vn 0.000000 0.000000 1.000000
vn 0.258172 -0.966099 0.000000
vn 0.258172 -0.966099 0.000000
vn 0.258172 -0.966099 0.000000
vn 0.258172 -0.966099 0.000000
vn 0.000000 0.000000 -1.000000
vn 0.000000 0.000000 -1.000000
vn 0.000000 0.000000 -1.000000
vn 0.000000 0.000000 -1.000000
vn -0.966099 -0.258172 0.000000
vn -0.966099 -0.258172 0.000000
vn -0.966099 -0.258172 0.000000
vn -0.966099 -0.258172 0.000000
vn -0.966099 -0.258172 0.000000
vn -0.966099 -0.258172 0.000000
vn -0.966099 -0.258172 0.000000
vn -0.966099 -0.258172 0.000000
vn -0.258172 0.966099 0.000000
vn -0.258172 0.966099 0.000000
vn -0.258172 0.966099 0.000000
vn -0.258172 0.966099 0.000000
vn 0.000000 0.000000 -1.000000
vn 0.000000 0.000000 -1.000000
vn 0.000000 0.000000 -1.000000
vn 0.000000 0.000000 -1.000000
vn 0.258172 -0.966099 0.000000
vn 0.258172 -0.966099 0.000000
vn 0.258172 -0.966099 0.000000
vn 0.258172 -0.966099 0.000000
vn 0.000000 0.000000 1.000000
vn 0.000000 0.000000 1.000000
vn 0.000000 0.000000 1.000000
vn 0.000000 0.000000 1.000000
s off
g pCube1 group1
usemtl initialShadingGroup
f 1/1/1 2/2/2 4/4/3 3/3/4
f 3/3/5 4/4/6 6/6/7 5/5/8
f 5/5/9 6/6/10 8/8/11 7/7/12
f 7/7/13 8/8/14 2/10/15 1/9/16
f 14/19/17 13/20/18 15/21/19 16/22/20
f 21/27/21 22/28/22 23/29/23 24/30/24
s 1
f 2/2/25 8/11/26 9/16/27 10/15/28
f 8/11/26 6/12/29 11/17/30 9/16/27
f 6/12/29 4/4/31 12/18/32 11/17/30
f 4/4/31 2/2/25 10/15/28 12/18/32
s off
f 10/15/33 9/16/34 13/20/35 14/19/36
f 9/16/37 11/17/38 15/21/39 13/20/40
f 11/17/41 12/18/42 16/22/43 15/21/44
f 12/18/45 10/15/46 14/19/47 16/22/48
s 2
f 7/13/49 1/1/50 18/24/51 17/23/52
f 1/1/50 3/3/53 19/25/54 18/24/51
f 3/3/53 5/14/55 20/26/56 19/25/54
f 5/14/55 7/13/49 17/23/52 20/26/56
s off
f 17/23/57 18/24/58 22/28/59 21/27/60
f 18/24/61 19/25/62 23/29/63 22/28/64
f 19/25/65 20/26/66 24/30/67 23/29/68
f 20/26/69 17/23/70 21/27/71 24/30/72
g default
v -1.552021 -0.082527 2.314860
v -1.475960 -0.090952 2.314860
v -1.332011 1.903554 2.314860
v -1.255950 1.895128 2.314860
v -1.332011 1.903554 0.316631
v -1.255950 1.895128 0.316631
v -1.552021 -0.082527 0.316631
v -1.475960 -0.090952 0.316631
v -0.863206 6.135549 -0.894169
v -0.787145 6.127123 -0.894169
v -0.787145 6.127123 -1.647796
v -0.863206 6.135549 -1.647796
v -0.848885 5.569781 -1.647796
v -0.924947 5.578207 -1.647796
vt 0.375000 0.000000
vt 0.625000 0.000000
vt 0.375000 0.250000
vt 0.625000 0.250000
vt 0.375000 0.500000
vt 0.625000 0.500000
vt 0.375000 0.750000
vt 0.625000 0.750000
vt 0.375000 1.000000
vt 0.625000 1.000000
vt 0.875000 0.000000
vt 0.875000 0.250000
vt 0.125000 0.000000
vt 0.125000 0.250000
vt 0.375000 0.250000
vt 0.625000 0.250000
vt 0.625000 0.500000
vt 0.375000 0.500000
vt 0.625000 0.750000
vt 0.375000 0.750000
vn 0.000000 0.000000 1.000000
vn 0.000000 0.000000 1.000000
vn 0.000000 0.000000 1.000000
vn 0.000000 0.000000 1.000000
vn 0.110103 0.993920 0.000000
vn 0.110103 0.993920 0.000000
vn 0.110103 0.993920 0.000000
vn 0.110103 0.993920 0.000000
vn 0.000000 0.000000 -1.000000
vn 0.000000 0.000000 -1.000000
vn 0.000000 0.000000 -1.000000
vn 0.000000 0.000000 -1.000000
vn -0.110103 -0.993920 0.000000
vn -0.110103 -0.993920 0.000000
vn -0.110103 -0.993920 0.000000
vn -0.110103 -0.993920 0.000000
vn 0.993920 -0.110103 0.000000
vn 0.993920 -0.110103 0.000000
vn 0.993920 -0.110103 0.000000
vn 0.993920 -0.110103 0.000000
vn -0.993920 0.110103 0.000000
vn -0.993920 0.110103 0.000000
vn -0.993920 0.110103 0.000000
vn -0.993920 0.110103 0.000000
vn 0.066268 0.598214 0.798592
vn 0.066268 0.598214 0.798592
vn 0.066268 0.598214 0.798592
vn 0.066268 0.598214 0.798592
vn 0.993920 -0.110103 0.000000
vn 0.993920 -0.110103 0.000000
vn 0.993920 -0.110103 0.000000
vn 0.993920 -0.110103 0.000000
vn -0.993920 0.110103 0.000000
vn -0.993920 0.110103 0.000000
vn -0.993920 0.110103 0.000000
vn -0.993920 0.110103 0.000000
vn 0.993920 -0.110103 0.000000
vn 0.993920 -0.110103 0.000000
vn 0.993920 -0.110103 0.000000
vn 0.993920 -0.110103 0.000000
vn -0.035901 -0.324084 -0.945347
vn -0.035901 -0.324084 -0.945347
vn -0.035901 -0.324084 -0.945347
vn -0.035901 -0.324084 -0.945347
vn -0.993920 0.110103 0.000000
vn -0.993920 0.110103 0.000000
vn -0.993920 0.110103 0.000000
vn -0.993920 0.110103 0.000000
s off
g group1 pCube2
usemtl initialShadingGroup
f 25/31/73 26/32/74 28/34/75 27/33/76
f 33/45/77 34/46/78 35/47/79 36/48/80
f 36/48/81 35/47/82 37/49/83 38/50/84
f 31/37/85 32/38/86 26/40/87 25/39/88
f 26/32/89 32/41/90 30/42/91 28/34/92
f 31/43/93 25/31/94 27/33/95 29/44/96
f 27/33/97 28/34/98 34/46/99 33/45/100
f 28/34/101 30/36/102 35/47/103 34/46/104
f 29/35/105 27/33/106 33/45/107 36/48/108
f 30/36/109 32/38/110 37/49/111 35/47/112
f 32/38/113 31/37/114 38/50/115 37/49/116
f 31/37/117 29/35/118 36/48/119 38/50/120
