# This file uses centimeters as units for non-parametric coordinates.

mtllib Low_Poly_SugarBag.mtl
g default
v -0.741954 2.708013 0.537424
v 0.741954 2.708013 0.537424
v -0.968132 3.120612 -0.759144
v 0.968132 3.120612 -0.759144
v -0.886848 0.469431 0.858094
v 0.886848 0.469431 0.858094
v 0.932995 0.414461 -0.884425
v -1.016151 0.414461 -0.884425
v -0.850214 1.077714 0.853286
v 0.850214 1.077714 0.853286
v 0.926555 1.392226 -0.968963
v -1.009710 1.392226 -0.968963
v -0.803661 1.488605 0.819675
v 0.803661 1.488605 0.819675
v 0.968132 1.827336 -0.899839
v -0.968132 1.827336 -0.899839
v -0.741954 2.278783 0.668673
v 0.741954 2.278783 0.668673
v 0.986819 2.693318 -0.777176
v -0.991504 2.698002 -0.777176
v -0.741954 2.494522 0.599796
v 0.741954 2.494522 0.599796
v 0.931775 2.897318 -0.759144
v -0.921111 2.897228 -0.759144
v -0.896011 0.188363 0.647110
v -0.947320 0.316629 0.792267
v 0.947320 0.316629 0.792267
v 0.896011 0.188363 0.647110
v -0.896011 0.188363 -0.647110
v -0.947320 0.316629 -0.742824
v 0.896011 0.188363 -0.647110
v 0.947320 0.316629 -0.742824
v -1.043726 2.863814 0.379572
v 1.089722 2.863814 0.379572
v 1.089722 2.661455 0.379572
v 1.089722 2.451808 0.379572
v 1.089722 1.568887 0.379572
v 1.089722 1.137245 0.379572
v 1.096163 0.412644 0.382097
v 1.068909 0.316629 0.371412
v 1.017600 0.188363 0.323555
v -0.971604 0.188363 0.323555
v -1.022913 0.316629 0.371412
v -1.091744 0.412644 0.382097
v -1.085303 1.137245 0.379572
v -1.043726 1.568887 0.379572
v -1.043726 2.451808 0.379572
v -1.043726 2.661455 0.379572
v -1.093876 2.949413 0.000000
v 1.139872 2.949413 0.000000
v 1.139872 2.747054 0.000000
v 1.139872 2.537408 0.000000
v 1.139872 1.654487 0.000000
v 1.139872 1.222845 0.000000
v 1.146616 0.412644 0.000000
v 1.118081 0.316629 0.000000
v 1.064360 0.188363 0.000000
v -1.018364 0.188363 0.000000
v -1.072085 0.316629 0.000000
v -1.142197 0.412644 0.000000
v -1.135453 1.222845 0.000000
v -1.093876 1.654487 0.000000
v -1.093876 2.537408 0.000000
v -1.093876 2.747054 0.000000
v -1.043726 3.035012 -0.379572
v 1.089722 3.035012 -0.379572
v 1.071465 2.846349 -0.379572
v 1.126079 2.643942 -0.379572
v 1.089722 1.740086 -0.379572
v 1.089722 1.308445 -0.379572
v 1.096162 0.412644 -0.382097
v 1.068909 0.316629 -0.371412
v 1.017600 0.188363 -0.323555
v -0.971604 0.188363 -0.323555
v -1.022913 0.316629 -0.371412
v -1.050166 0.412644 -0.382097
v -1.043726 1.308445 -0.379572
v -1.043726 1.740086 -0.379572
v -1.090747 2.644033 -0.379572
v -1.020903 2.841702 -0.379572
v -0.001137 2.790015 0.564795
v 0.001137 2.575174 0.684161
v 0.000000 2.369821 0.745597
v 0.000000 1.492193 0.879823
v 0.000000 1.051646 0.916774
v 0.000000 0.412644 0.921824
v 0.000000 0.316629 0.792267
v 0.000000 0.188363 0.647110
v 0.022998 0.188363 0.323555
v 0.022998 0.188363 0.000000
v 0.022998 0.188363 -0.323555
v 0.000000 0.188363 -0.647110
v 0.000000 0.316629 -0.742824
v -0.041578 0.414461 -0.884425
v -0.041578 1.392226 -0.968963
v -0.000000 1.827336 -0.899839
v -0.000000 2.706957 -0.777176
v 0.000000 2.918253 -0.759144
v 0.000000 3.120612 -0.759144
v 0.022998 3.035012 -0.379572
v 0.022998 2.949413 0.000000
v 0.022998 2.863814 0.379572
v 0.000000 2.895222 -0.884252
v 0.000000 3.106609 -0.951365
v 0.968132 3.106609 -0.951365
v 0.968132 2.895222 -0.884252
v -0.968132 3.106609 -0.951365
v -0.968132 2.895222 -0.884252
v 0.000000 2.817851 -0.889238
v 0.000000 2.906113 -1.071333
v 0.968132 2.906113 -1.071333
v 0.968132 2.817851 -0.889238
v -0.968132 2.906113 -1.071333
v -0.968132 2.817851 -0.889238
v 0.000818 2.799501 -0.781272
v -0.000818 2.741848 -0.928752
v 0.966944 2.755153 -0.951991
v 0.968580 2.812806 -0.804511
v -0.968580 2.728544 -0.905513
v -0.966944 2.786197 -0.758033
v -0.032485 2.918253 -0.759144
v -0.036717 2.832653 -0.379572
v 0.082713 2.832653 -0.379572
v 0.075907 2.918253 -0.759144
v 0.022998 2.918253 -0.759144
v 0.022998 2.832653 -0.379572
v 0.022999 2.832653 -0.379572
v 0.022999 2.918253 -0.759144
v 0.022998 2.903147 -0.692158
v 0.022998 2.847760 -0.446558
v 0.022999 2.847760 -0.446558
v 0.022998 2.903147 -0.692158
vt 0.375000 0.250000
vt 0.625000 0.250000
vt 0.375000 0.500000
vt 0.625000 0.500000
vt 0.875000 0.250000
vt 0.125000 0.250000
vt 0.875000 0.041667
vt 0.375000 0.708333
vt 0.375000 0.083333
vt 0.625000 0.083333
vt 0.625000 0.666667
vt 0.875000 0.083333
vt 0.125000 0.083333
vt 0.375000 0.666667
vt 0.375000 0.125000
vt 0.625000 0.125000
vt 0.625000 0.625000
vt 0.875000 0.125000
vt 0.125000 0.125000
vt 0.375000 0.625000
vt 0.375000 0.166667
vt 0.625000 0.166667
vt 0.625000 0.583333
vt 0.875000 0.166667
vt 0.125000 0.166667
vt 0.375000 0.583333
vt 0.375000 0.208333
vt 0.625000 0.208333
vt 0.625000 0.541667
vt 0.875000 0.208333
vt 0.125000 0.208333
vt 0.375000 0.541667
vt 0.375000 1.000000
vt 0.402863 0.964467
vt 0.625000 1.000000
vt 0.597137 0.964467
vt 0.625000 0.729169
vt 0.597137 0.785533
vt 0.402863 0.785533
vt 0.625000 0.020831
vt 0.375000 0.041667
vt 0.875000 0.020831
vt 0.625000 0.041667
vt 0.625000 0.708333
vt 0.375000 0.729169
vt 0.125000 0.020831
vt 0.375000 0.020831
vt 0.125000 0.041667
vt 0.312500 0.250000
vt 0.375000 0.312500
vt 0.625000 0.312500
vt 0.687500 0.250000
vt 0.687500 0.208333
vt 0.687500 0.166667
vt 0.687500 0.125000
vt 0.687500 0.083333
vt 0.687500 0.041667
vt 0.625000 0.932292
vt 0.687500 0.020831
vt 0.597137 0.919733
vt 0.402863 0.919733
vt 0.375000 0.932292
vt 0.312500 0.020831
vt 0.312500 0.041667
vt 0.312500 0.083333
vt 0.312500 0.125000
vt 0.312500 0.166667
vt 0.312500 0.208333
vt 0.250000 0.250000
vt 0.375000 0.375000
vt 0.625000 0.375000
vt 0.750000 0.250000
vt 0.750000 0.208333
vt 0.750000 0.166667
vt 0.750000 0.125000
vt 0.750000 0.083333
vt 0.750000 0.041667
vt 0.625000 0.864584
vt 0.750000 0.020831
vt 0.597137 0.875000
vt 0.402863 0.875000
vt 0.375000 0.864584
vt 0.250000 0.020831
vt 0.250000 0.041667
vt 0.250000 0.083333
vt 0.250000 0.125000
vt 0.250000 0.166667
vt 0.250000 0.208333
vt 0.187500 0.250000
vt 0.375000 0.437500
vt 0.625000 0.437500
vt 0.812500 0.250000
vt 0.812500 0.208333
vt 0.812500 0.166667
vt 0.812500 0.125000
vt 0.812500 0.083333
vt 0.812500 0.041667
vt 0.625000 0.796877
vt 0.812500 0.020831
vt 0.597137 0.830267
vt 0.402863 0.830267
vt 0.375000 0.796877
vt 0.187500 0.020831
vt 0.187500 0.041667
vt 0.187500 0.083333
vt 0.187500 0.125000
vt 0.187500 0.166667
vt 0.187500 0.208333
vt 0.500000 0.250000
vt 0.500000 0.208333
vt 0.500000 0.166667
vt 0.500000 0.125000
vt 0.500000 0.083333
vt 0.500000 0.041667
vt 0.500000 1.000000
vt 0.500000 0.020831
vt 0.500000 0.964467
vt 0.500000 0.919733
vt 0.500000 0.875000
vt 0.500000 0.830267
vt 0.500000 0.785533
vt 0.500000 0.729169
vt 0.500000 0.708333
vt 0.500000 0.666667
vt 0.500000 0.625000
vt 0.500000 0.583333
vt 0.500000 0.541667
vt 0.500000 0.500000
vt 0.500000 0.437500
vt 0.500000 0.375000
vt 0.500000 0.312500
vt 0.500000 0.500000
vt 0.625000 0.500000
vt 0.625000 0.541667
vt 0.500000 0.541667
vt 0.375000 0.500000
vt 0.375000 0.541667
vt 0.500000 0.500000
vt 0.625000 0.500000
vt 0.625000 0.541667
vt 0.500000 0.541667
vt 0.375000 0.500000
vt 0.375000 0.541667
vt 0.500000 0.500000
vt 0.625000 0.500000
vt 0.625000 0.541667
vt 0.500000 0.541667
vt 0.375000 0.500000
vt 0.375000 0.541667
vt 0.000000 0.000000
vt 1.000000 0.000000
vt 1.000000 1.000000
vt 0.000000 1.000000
vt 0.000000 0.000000
vt 1.000000 0.000000
vt 1.000000 1.000000
vt 0.000000 1.000000
vt 0.000000 0.000000
vt 1.000000 0.000000
vt 1.000000 1.000000
vt 0.000000 1.000000
vt 0.000000 0.000000
vt 1.000000 0.000000
vt 1.000000 1.000000
vt 0.000000 1.000000
vt 0.000000 0.000000
vt 1.000000 0.000000
vt 1.000000 1.000000
vt 0.000000 1.000000
vt 0.000000 0.000000
vt 1.000000 0.000000
vt 1.000000 1.000000
vt 0.000000 1.000000
vn -0.000740 0.390584 0.920567
vn 0.000658 0.344315 0.938854
vn 0.124029 0.342126 0.931432
vn 0.111470 0.388655 0.914616
vn 0.000000 0.975502 0.219991
vn 0.000000 0.975502 0.219991
vn 0.000000 0.975502 0.219991
vn 0.000000 0.975502 0.219990
vn 0.021538 -0.931229 0.363798
vn 0.021538 -0.931229 0.363798
vn 0.021538 -0.931229 0.363798
vn 0.021538 -0.931229 0.363798
vn 0.959764 -0.089889 -0.266031
vn 0.970746 0.062597 -0.231804
vn 0.931283 -0.123463 -0.342737
vn 0.931283 -0.123463 -0.342737
vn -0.954836 -0.160043 -0.250348
vn -0.981276 0.079580 -0.175396
vn -0.969602 -0.114289 -0.216356
vn -0.954836 -0.160043 -0.250348
vn 0.000000 0.039571 0.999217
vn 0.000000 -0.124393 0.992233
vn 0.068707 -0.155434 0.985454
vn 0.072812 0.038192 0.996614
vn 0.974989 -0.005683 -0.222183
vn 0.973169 -0.026525 -0.228556
vn 0.957773 -0.011953 -0.287276
vn 0.961177 -0.012572 -0.275646
vn 0.000000 -0.204615 -0.978842
vn 0.000000 -0.011083 -0.999939
vn 0.000000 -0.007396 -0.999973
vn 0.000000 -0.210078 -0.977685
vn -0.997919 -0.011134 -0.063511
vn -0.990306 -0.043731 -0.131836
vn -0.991888 0.020689 -0.125416
vn -0.997241 0.021046 -0.071188
vn 0.000000 0.141774 0.989899
vn 0.088234 0.139005 0.986353
vn 0.980730 -0.015901 -0.194718
vn 0.963986 -0.017336 -0.265388
vn 0.000111 0.144907 -0.989445
vn 0.000670 0.144656 -0.989482
vn -0.991408 0.001443 -0.130798
vn -0.988738 0.007538 -0.149464
vn -0.000118 0.198087 0.980184
vn 0.104882 0.194037 0.975371
vn 0.980206 0.022955 -0.196646
vn 0.959597 0.031831 -0.279573
vn 0.000154 0.129272 -0.991609
vn 0.001062 0.131127 -0.991365
vn -0.989848 0.023087 -0.140240
vn -0.980861 0.030483 -0.192307
vn 0.918798 0.261051 -0.296078
vn 0.000105 0.087232 -0.996188
vn 0.001563 0.086722 -0.996231
vn -0.923105 0.334761 -0.189242
vn -0.896039 -0.418048 -0.149500
vn -0.885006 -0.434432 -0.167428
vn -0.870530 -0.454217 -0.189379
vn -0.870530 -0.454217 -0.189379
vn 0.000000 -0.749358 0.662166
vn 0.000000 -0.749358 0.662166
vn 0.000000 -0.749358 0.662165
vn 0.000000 -0.749358 0.662166
vn 0.856370 -0.460370 -0.233857
vn 0.879611 -0.435623 -0.191095
vn 0.822696 -0.490205 -0.287873
vn 0.822696 -0.490205 -0.287873
vn 0.000000 -0.598055 -0.801455
vn 0.000000 -0.598055 -0.801455
vn 0.000000 -0.598055 -0.801455
vn 0.000000 -0.598055 -0.801455
vn 0.000000 -1.000000 -0.000000
vn 0.000000 -1.000000 -0.000000
vn 0.000000 -1.000000 0.000000
vn 0.000000 -1.000000 0.000000
vn -0.000000 -0.610596 0.791942
vn 0.046372 -0.609940 0.791090
vn 0.932693 -0.289765 -0.214754
vn 0.908661 -0.293728 -0.296748
vn 0.000000 -0.822735 -0.568426
vn 0.000000 -0.822735 -0.568426
vn -0.854262 -0.508453 -0.108223
vn -0.865791 -0.481557 -0.136047
vn 0.000901 0.941010 0.338377
vn -0.002917 0.810758 0.585374
vn 0.045463 0.806726 0.589174
vn 0.006229 0.962063 0.272756
vn 0.506892 0.134585 0.851438
vn 0.815209 0.077903 0.573903
vn 0.843542 0.067420 0.532815
vn 0.424425 0.134303 0.895447
vn 0.719197 0.092633 0.688604
vn 0.893509 0.052449 0.445973
vn 0.794392 0.079452 0.602186
vn 0.905657 0.047651 0.421326
vn 0.889043 0.044577 0.455649
vn 0.948581 0.028431 0.315255
vn 0.906514 0.030628 0.421063
vn 0.956954 0.006323 0.290172
vn 0.938399 0.019189 0.345019
vn 0.960312 -0.112849 0.255081
vn 0.810100 -0.523167 0.264638
vn 0.810100 -0.523167 0.264638
vn 0.872898 -0.451582 0.184723
vn 0.846094 -0.484914 0.221321
vn 0.000000 -1.000000 0.000000
vn 0.000000 -1.000000 0.000000
vn 0.000000 -1.000000 0.000000
vn 0.000000 -1.000000 0.000000
vn -0.861664 -0.476351 0.175000
vn -0.861664 -0.476351 0.175000
vn -0.878499 -0.450514 0.158986
vn -0.892090 -0.427926 0.145101
vn -0.958910 -0.027034 0.282420
vn -0.911567 -0.346399 0.221478
vn -0.944642 -0.125016 0.303352
vn -0.910974 0.019839 0.411987
vn -0.950767 0.051615 0.305578
vn -0.896475 0.059689 0.439055
vn -0.919784 0.069299 0.386258
vn -0.828745 0.096376 0.551265
vn -0.914491 0.047705 0.401785
vn -0.770399 0.088611 0.631375
vn -0.846715 0.070221 0.527392
vn -0.562691 0.129208 0.816507
vn -0.873177 0.059550 0.483752
vn -0.475274 0.130503 0.870105
vn 0.000000 0.975502 0.219991
vn 0.000000 0.975502 0.219991
vn 0.999592 0.026618 0.010324
vn 0.999310 -0.024871 -0.027599
vn 0.999869 0.001997 0.016060
vn 0.999843 -0.006315 0.016546
vn 0.999959 0.005434 -0.007305
vn 0.999718 -0.023106 -0.005439
vn 0.958385 -0.285478 -0.000000
vn 0.916939 -0.399028 -0.000000
vn 0.916939 -0.399028 -0.000000
vn 0.000000 -1.000000 0.000000
vn 0.000000 -1.000000 0.000000
vn -0.916939 -0.399028 -0.000000
vn -0.916939 -0.399028 -0.000000
vn -0.996760 -0.054199 -0.059423
vn -0.848076 -0.529357 -0.023398
vn -0.998236 0.030966 -0.050661
vn -0.999762 0.014970 0.015873
vn -0.999728 0.002421 0.023192
vn -0.999335 0.034086 0.012977
vn -0.998980 -0.030885 -0.032934
vn -0.123913 0.341923 0.931523
vn -0.111393 0.387656 0.915049
vn -0.104862 0.194187 0.975344
vn -0.088234 0.139005 0.986353
vn -0.072812 0.038192 0.996614
vn -0.068707 -0.155434 0.985454
vn -0.046372 -0.609940 0.791090
vn 0.000000 -0.749358 0.662165
vn 0.000000 -0.749358 0.662165
vn 0.000000 -1.000000 0.000000
vn 0.000000 -1.000000 0.000000
vn 0.000000 -1.000000 0.000000
vn 0.000000 -1.000000 -0.000000
vn 0.000000 -1.000000 -0.000000
vn 0.000000 -0.598055 -0.801455
vn 0.000000 -0.598055 -0.801455
vn 0.000000 -0.181868 -0.983323
vn 0.000000 -0.822734 -0.568426
vn 0.000000 -0.015542 -0.999879
vn -0.000417 0.144991 -0.989433
vn -0.000740 0.131557 -0.991308
vn -0.001375 0.087749 -0.996142
vn 0.021538 -0.931229 0.363798
vn 0.021538 -0.931229 0.363798
vn 0.000000 0.975502 0.219991
vn 0.000000 0.975502 0.219991
vn 0.000000 0.975502 0.219991
vn -0.006839 0.961054 0.276275
vn -0.045666 0.812722 0.580860
vn 0.000000 0.997357 -0.072652
vn 0.000000 0.997357 -0.072652
vn 0.000000 0.997357 -0.072652
vn 0.000000 0.997357 -0.072652
vn 0.991031 -0.064853 0.116836
vn 0.991031 -0.064853 0.116836
vn 0.991031 -0.064853 0.116836
vn 0.991031 -0.064853 0.116836
vn -0.010965 -0.995093 0.098336
vn -0.010965 -0.995093 0.098336
vn -0.010965 -0.995093 0.098336
vn -0.010965 -0.995093 0.098336
vn 0.000000 0.997357 -0.072652
vn 0.000000 0.997357 -0.072652
vn 0.000000 0.997357 -0.072652
vn 0.000000 0.997357 -0.072652
vn 0.011075 -0.995174 0.097498
vn 0.011075 -0.995174 0.097498
vn 0.011075 -0.995174 0.097498
vn 0.011075 -0.995174 0.097498
vn -0.985138 -0.083361 0.150181
vn -0.985138 -0.083361 0.150181
vn -0.985138 -0.083361 0.150181
vn -0.985138 -0.083361 0.150181
vn 0.000000 0.513459 -0.858114
vn 0.000000 0.513459 -0.858114
vn 0.000000 0.513459 -0.858114
vn 0.000000 0.513459 -0.858114
vn 1.000000 0.000000 0.000000
vn 1.000000 0.000000 0.000000
vn 1.000000 0.000000 0.000000
vn 1.000000 0.000000 0.000000
vn 0.000000 -0.064315 0.997930
vn 0.000000 -0.064315 0.997930
vn 0.000000 -0.064315 0.997930
vn 0.000000 -0.064315 0.997930
vn 0.000000 0.513459 -0.858114
vn 0.000000 0.513459 -0.858114
vn 0.000000 0.513459 -0.858114
vn 0.000000 0.513459 -0.858114
vn 0.000000 -0.064315 0.997930
vn 0.000000 -0.064315 0.997930
vn 0.000000 -0.064315 0.997930
vn 0.000000 -0.064315 0.997930
vn -1.000000 0.000000 0.000000
vn -1.000000 0.000000 0.000000
vn -1.000000 0.000000 0.000000
vn -1.000000 0.000000 0.000000
vn -0.004841 -0.639059 -0.769143
vn -0.004841 -0.639059 -0.769143
vn -0.004841 -0.639059 -0.769143
vn -0.004841 -0.639059 -0.769143
vn 0.999899 -0.012798 -0.006154
vn 0.999899 -0.012798 -0.006154
vn 0.999899 -0.012798 -0.006154
vn 0.999899 -0.012798 -0.006154
vn -0.005375 0.992692 0.120553
vn -0.005375 0.992692 0.120553
vn -0.005375 0.992692 0.120553
vn -0.005375 0.992692 0.120553
vn -0.004310 -0.669851 -0.742483
vn -0.004310 -0.669851 -0.742483
vn -0.004310 -0.669851 -0.742483
vn -0.004310 -0.669851 -0.742483
vn -0.004270 0.978820 0.204677
vn -0.004270 0.978820 0.204677
vn -0.004270 0.978820 0.204677
vn -0.004270 0.978820 0.204677
vn -0.999978 0.004042 0.005341
vn -0.999978 0.004042 0.005341
vn -0.999978 0.004042 0.005341
vn -0.999978 0.004042 0.005341
vn -0.006288 0.983291 0.181933
vn -0.006288 0.983291 0.181933
vn -0.006288 0.983291 0.181933
vn -0.006288 0.983291 0.181933
vn 0.003863 0.984323 0.176332
vn 0.003863 0.984323 0.176332
vn 0.003863 0.984323 0.176332
vn 0.003863 0.984323 0.176332
vn 0.000000 0.975502 0.219991
vn 0.000000 0.975502 0.219991
vn 0.000000 0.975502 0.219991
vn 0.000000 0.975502 0.219991
vn 0.000000 0.975502 0.219991
vn 0.000000 0.975502 0.219991
vn 0.000000 0.975502 0.219991
vn 0.000000 0.975502 0.219991
vn -0.000000 0.000000 0.000000
vn -0.000000 0.000000 0.000000
vn -0.041732 0.974999 0.218254
vn -0.041732 0.974999 0.218254
vn 0.000000 0.000000 0.000000
vn 0.000000 0.000000 0.000000
vn 0.043201 0.974330 0.220939
vn 0.043201 0.974330 0.220939
s 1
g pCube1
usemtl initialShadingGroup
f 81/109/1 82/110/2 22/28/3 2/2/4
s 2
f 99/128/5 100/129/6 66/91/7 4/4/8
s 3
f 115/147/9 116/144/10 117/145/11 118/146/12
s 4
f 66/92/13 67/93/14 23/30/15 4/5/16
s 5
f 24/31/17 80/108/18 65/89/19 3/6/20
s 1
f 85/113/21 86/114/22 6/43/23 10/10/24
s 4
f 70/96/25 71/97/26 7/7/27 11/12/28
s 8
f 94/123/29 95/124/30 11/11/31 7/44/32
s 5
f 8/48/33 76/104/34 77/105/35 12/13/36
s 1
f 84/112/37 85/113/21 10/10/24 14/16/38
s 4
f 69/95/39 70/96/25 11/12/28 15/18/40
s 8
f 95/124/30 96/125/41 15/17/42 11/11/31
s 5
f 12/13/36 77/105/35 78/106/43 16/19/44
s 1
f 83/111/45 84/112/37 14/16/38 18/22/46
s 4
f 68/94/47 69/95/39 15/18/40 19/24/48
s 8
f 96/125/41 97/126/49 19/23/50 15/17/42
s 5
f 16/19/44 78/106/43 79/107/51 20/25/52
s 1
f 82/110/2 83/111/45 18/22/46 22/28/3
s 4
f 67/93/14 68/94/47 19/24/48 23/30/53
s 8
f 97/126/49 98/127/54 23/29/55 19/23/50
s 5
f 20/25/52 79/107/51 80/108/18 24/31/56
s 10
f 74/101/57 75/102/58 30/45/59 29/39/60
s 11
f 87/115/61 88/117/62 28/36/63 27/35/64
s 12
f 72/98/65 73/100/66 31/38/67 32/37/68
s 13
f 92/121/69 93/122/70 32/37/71 31/38/72
s 14
f 91/120/73 92/121/74 31/38/75 73/100/76
s 1
f 86/114/22 87/116/77 27/40/78 6/43/23
s 4
f 71/97/26 72/99/79 32/42/80 7/7/27
s 8
f 93/122/81 94/123/29 7/44/32 32/37/82
s 5
f 30/46/83 75/103/84 76/104/34 8/48/33
s 2
f 102/131/85 81/109/86 2/2/87 34/51/88
s 4
f 22/28/89 35/53/90 34/52/91 2/2/92
f 18/22/93 36/54/94 35/53/90 22/28/89
f 14/16/95 37/55/96 36/54/94 18/22/93
f 10/10/97 38/56/98 37/55/96 14/16/95
f 6/43/99 39/57/100 38/56/98 10/10/97
f 27/40/101 40/59/102 39/57/100 6/43/99
s 12
f 27/35/103 28/36/104 41/60/105 40/58/106
s 14
f 88/117/107 89/118/108 41/60/109 28/36/110
s 10
f 25/34/111 26/33/112 43/62/113 42/61/114
s 5
f 44/64/115 43/63/116 26/47/117 5/41/118
f 45/65/119 44/64/115 5/41/118 9/9/120
f 46/66/121 45/65/119 9/9/120 13/15/122
f 47/67/123 46/66/121 13/15/122 17/21/124
f 48/68/125 47/67/123 17/21/124 21/27/126
f 33/49/127 48/68/125 21/27/126 1/1/128
s 2
f 101/130/129 102/131/85 34/51/88 50/71/130
s 4
f 34/52/91 35/53/90 51/73/131 50/72/132
f 35/53/90 36/54/94 52/74/133 51/73/131
f 36/54/94 37/55/96 53/75/134 52/74/133
f 37/55/96 38/56/98 54/76/135 53/75/134
f 38/56/98 39/57/100 55/77/136 54/76/135
f 39/57/100 40/59/102 56/79/137 55/77/136
s 12
f 40/58/106 41/60/105 57/80/138 56/78/139
s 14
f 89/118/108 90/119/140 57/80/141 41/60/109
s 10
f 42/61/114 43/62/113 59/82/142 58/81/143
s 5
f 60/84/144 59/83/145 43/63/116 44/64/115
f 61/85/146 60/84/144 44/64/115 45/65/119
f 62/86/147 61/85/146 45/65/119 46/66/121
f 63/87/148 62/86/147 46/66/121 47/67/123
f 64/88/149 63/87/148 47/67/123 48/68/125
f 49/69/150 64/88/149 48/68/125 33/49/127
s 2
f 100/129/6 101/130/129 50/71/130 66/91/7
s 4
f 50/72/132 51/73/131 67/93/14 66/92/13
f 51/73/131 52/74/133 68/94/47 67/93/14
f 52/74/133 53/75/134 69/95/39 68/94/47
f 53/75/134 54/76/135 70/96/25 69/95/39
f 54/76/135 55/77/136 71/97/26 70/96/25
f 55/77/136 56/79/137 72/99/79 71/97/26
s 12
f 56/78/139 57/80/138 73/100/66 72/98/65
s 14
f 90/119/140 91/120/73 73/100/76 57/80/141
s 10
f 58/81/143 59/82/142 75/102/58 74/101/57
s 5
f 76/104/34 75/103/84 59/83/145 60/84/144
f 77/105/35 76/104/34 60/84/144 61/85/146
f 78/106/43 77/105/35 61/85/146 62/86/147
f 79/107/51 78/106/43 62/86/147 63/87/148
f 80/108/18 79/107/51 63/87/148 64/88/149
f 65/89/19 80/108/18 64/88/149 49/69/150
s 1
f 21/27/151 82/110/2 81/109/1 1/1/152
f 17/21/153 83/111/45 82/110/2 21/27/151
f 13/15/154 84/112/37 83/111/45 17/21/153
f 9/9/155 85/113/21 84/112/37 13/15/154
f 5/41/156 86/114/22 85/113/21 9/9/155
f 26/47/157 87/116/77 86/114/22 5/41/156
s 11
f 26/33/158 25/34/159 88/117/62 87/115/61
s 14
f 42/61/160 89/118/108 88/117/107 25/34/161
f 58/81/162 90/119/140 89/118/108 42/61/160
f 74/101/163 91/120/73 90/119/140 58/81/162
f 29/39/164 92/121/74 91/120/73 74/101/163
s 13
f 29/39/165 30/45/166 93/122/70 92/121/69
s 8
f 8/8/167 94/123/29 93/122/81 30/45/168
f 12/14/169 95/124/30 94/123/29 8/8/167
f 16/20/170 96/125/41 95/124/30 12/14/169
f 20/26/171 97/126/49 96/125/41 16/20/170
f 24/32/172 98/127/54 97/126/49 20/26/171
s 3
f 119/148/173 116/144/10 115/147/9 120/149/174
s 2
f 65/90/175 100/129/6 99/128/5 3/3/176
f 49/70/177 101/130/129 100/129/6 65/90/175
f 33/50/178 102/131/85 101/130/129 49/70/177
f 1/1/179 81/109/86 102/131/85 33/50/178
s off
f 99/128/180 4/4/181 105/133/182 104/132/183
f 4/4/184 23/29/185 106/134/186 105/133/187
f 23/29/188 98/127/189 103/135/190 106/134/191
f 3/3/192 99/128/193 104/132/194 107/136/195
f 98/127/196 24/32/197 108/137/198 103/135/199
f 24/32/200 3/3/201 107/136/202 108/137/203
f 104/132/204 105/133/205 111/139/206 110/138/207
f 105/133/208 106/134/209 112/140/210 111/139/211
f 106/134/212 103/135/213 109/141/214 112/140/215
f 107/136/216 104/132/217 110/138/218 113/142/219
f 103/135/220 108/137/221 114/143/222 109/141/223
f 108/137/224 107/136/225 113/142/226 114/143/227
f 110/138/228 111/139/229 117/145/230 116/144/231
f 111/139/232 112/140/233 118/146/234 117/145/235
f 112/140/236 109/141/237 115/147/238 118/146/239
f 113/142/240 110/138/241 116/144/242 119/148/243
f 109/141/244 114/143/245 120/149/246 115/147/247
f 114/143/248 113/142/249 119/148/250 120/149/251
f 24/150/252 80/151/253 122/152/254 121/153/255
f 67/154/256 23/155/257 124/156/258 123/157/259
f 121/158/260 122/159/261 126/160/262 125/161/263
f 123/162/264 124/163/265 128/164/266 127/165/267
f 125/166/268 126/167/269 130/168/270 129/169/271
f 127/170/272 128/171/273 132/172/274 131/173/275
