# This file uses centimeters as units for non-parametric coordinates.

v 0.143225 -0.782117 -0.143225
v 0.000000 -0.782117 -0.202550
v -0.143225 -0.782117 -0.143225
v -0.202550 -0.782117 0.000000
v -0.143225 -0.782117 0.143225
v 0.000000 -0.782117 0.202550
v 0.143225 -0.782117 0.143225
v 0.202550 -0.782117 0.000000
v 0.231742 -0.609818 -0.231742
v 0.000000 -0.609818 -0.327733
v -0.231742 -0.609818 -0.231742
v -0.327733 -0.609818 0.000000
v -0.231742 -0.609818 0.231742
v 0.000000 -0.609818 0.327733
v 0.231742 -0.609818 0.231742
v 0.327733 -0.609818 0.000000
v 0.231742 -0.396844 -0.231742
v 0.000000 -0.396844 -0.327733
v -0.231742 -0.396844 -0.231742
v -0.327733 -0.396844 0.000000
v -0.231742 -0.396844 0.231742
v 0.000000 -0.396844 0.327733
v 0.231742 -0.396844 0.231742
v 0.327733 -0.396844 0.000000
v 0.143225 -0.224544 -0.143225
v 0.000000 -0.224544 -0.202550
v -0.143225 -0.224544 -0.143225
v -0.202550 -0.224544 0.000000
v -0.143225 -0.224544 0.143225
v 0.000000 -0.224544 0.202550
v 0.143225 -0.224544 0.143225
v 0.202550 -0.224544 0.000000
v 0.000000 -0.782117 0.000000
v 0.000000 -0.256756 0.000000
vt 0.000000 0.200000
vt 0.125000 0.200000
vt 0.125000 0.400000
vt 0.000000 0.400000
vt 0.250000 0.200000
vt 0.250000 0.400000
vt 0.375000 0.200000
vt 0.375000 0.400000
vt 0.500000 0.200000
vt 0.500000 0.400000
vt 0.625000 0.200000
vt 0.625000 0.400000
vt 0.750000 0.200000
vt 0.750000 0.400000
vt 0.875000 0.200000
vt 0.875000 0.400000
vt 1.000000 0.200000
vt 1.000000 0.400000
vt 0.125000 0.600000
vt 0.000000 0.600000
vt 0.250000 0.600000
vt 0.375000 0.600000
vt 0.500000 0.600000
vt 0.625000 0.600000
vt 0.750000 0.600000
vt 0.875000 0.600000
vt 1.000000 0.600000
vt 0.125000 0.800000
vt 0.000000 0.800000
vt 0.250000 0.800000
vt 0.375000 0.800000
vt 0.500000 0.800000
vt 0.625000 0.800000
vt 0.750000 0.800000
vt 0.875000 0.800000
vt 1.000000 0.800000
vt 0.062500 0.000000
vt 0.187500 0.000000
vt 0.312500 0.000000
vt 0.437500 0.000000
vt 0.562500 0.000000
vt 0.687500 0.000000
vt 0.812500 0.000000
vt 0.937500 0.000000
vt 0.062500 1.000000
vt 0.187500 1.000000
vt 0.312500 1.000000
vt 0.437500 1.000000
vt 0.562500 1.000000
vt 0.687500 1.000000
vt 0.812500 1.000000
vt 0.937500 1.000000
vn 0.317739 -0.557323 -0.767094
vn 0.317739 -0.557323 -0.767094
vn 0.317739 -0.557323 -0.767094
vn 0.317739 -0.557323 -0.767094
vn -0.317739 -0.557323 -0.767094
vn -0.317739 -0.557323 -0.767094
vn -0.317739 -0.557323 -0.767094
vn -0.317739 -0.557323 -0.767094
vn -0.767093 -0.557324 -0.317741
vn -0.767093 -0.557324 -0.317741
vn -0.767092 -0.557324 -0.317741
vn -0.767093 -0.557324 -0.317741
vn -0.767093 -0.557324 0.317739
vn -0.767093 -0.557324 0.317739
vn -0.767093 -0.557324 0.317739
vn -0.767093 -0.557324 0.317739
vn -0.317739 -0.557323 0.767094
vn -0.317739 -0.557323 0.767094
vn -0.317739 -0.557323 0.767094
vn -0.317739 -0.557323 0.767094
vn 0.317739 -0.557323 0.767094
vn 0.317739 -0.557323 0.767094
vn 0.317739 -0.557323 0.767094
vn 0.317739 -0.557323 0.767094
vn 0.767093 -0.557324 0.317741
vn 0.767093 -0.557324 0.317741
vn 0.767092 -0.557324 0.317741
vn 0.767093 -0.557324 0.317741
vn 0.767093 -0.557324 -0.317739
vn 0.767093 -0.557324 -0.317739
vn 0.767093 -0.557324 -0.317739
vn 0.767093 -0.557324 -0.317739
vn 0.382685 0.000000 -0.923879
vn 0.382685 0.000000 -0.923879
vn 0.382685 0.000000 -0.923879
vn 0.382685 0.000000 -0.923879
vn -0.382685 0.000000 -0.923879
vn -0.382685 0.000000 -0.923879
vn -0.382685 0.000000 -0.923879
vn -0.382685 0.000000 -0.923879
vn -0.923879 0.000000 -0.382685
vn -0.923879 0.000000 -0.382685
vn -0.923879 0.000000 -0.382685
vn -0.923879 0.000000 -0.382685
vn -0.923879 0.000000 0.382685
vn -0.923879 0.000000 0.382685
vn -0.923879 0.000000 0.382685
vn -0.923879 0.000000 0.382685
vn -0.382685 0.000000 0.923879
vn -0.382685 0.000000 0.923879
vn -0.382685 0.000000 0.923879
vn -0.382685 0.000000 0.923879
vn 0.382685 0.000000 0.923879
vn 0.382685 0.000000 0.923879
vn 0.382685 0.000000 0.923879
vn 0.382685 0.000000 0.923879
vn 0.923879 0.000000 0.382685
vn 0.923879 0.000000 0.382685
vn 0.923879 0.000000 0.382685
vn 0.923879 0.000000 0.382685
vn 0.923879 0.000000 -0.382685
vn 0.923879 0.000000 -0.382685
vn 0.923879 0.000000 -0.382685
vn 0.923879 0.000000 -0.382685
vn 0.317741 0.557323 -0.767093
vn 0.317741 0.557323 -0.767093
vn 0.317741 0.557323 -0.767093
vn 0.317741 0.557323 -0.767093
vn -0.317741 0.557322 -0.767094
vn -0.317741 0.557322 -0.767094
vn -0.317741 0.557322 -0.767094
vn -0.317741 0.557322 -0.767094
vn -0.767095 0.557322 -0.317738
vn -0.767095 0.557322 -0.317738
vn -0.767095 0.557322 -0.317738
vn -0.767095 0.557323 -0.317738
vn -0.767095 0.557323 0.317738
vn -0.767095 0.557323 0.317738
vn -0.767095 0.557323 0.317738
vn -0.767095 0.557323 0.317738
vn -0.317741 0.557323 0.767093
vn -0.317741 0.557323 0.767093
vn -0.317741 0.557323 0.767093
vn -0.317741 0.557323 0.767093
vn 0.317741 0.557322 0.767094
vn 0.317741 0.557322 0.767094
vn 0.317741 0.557322 0.767094
vn 0.317741 0.557322 0.767094
vn 0.767095 0.557322 0.317738
vn 0.767095 0.557322 0.317738
vn 0.767095 0.557322 0.317738
vn 0.767095 0.557323 0.317738
vn 0.767095 0.557323 -0.317738
vn 0.767095 0.557323 -0.317738
vn 0.767095 0.557323 -0.317738
vn 0.767095 0.557323 -0.317738
vn 0.000000 -1.000000 0.000000
vn 0.000000 -1.000000 0.000000
vn 0.000000 -1.000000 0.000000
vn 0.000000 -1.000000 0.000000
vn 0.000000 -1.000000 0.000000
vn 0.000000 -1.000000 0.000000
vn 0.000000 -1.000000 0.000008
vn 0.000000 -1.000000 0.000008
vn 0.000000 -1.000000 0.000008
vn 0.000000 -1.000000 -0.000008
vn 0.000000 -1.000000 -0.000008
vn 0.000000 -1.000000 -0.000008
vn 0.000000 -1.000000 0.000000
vn 0.000000 -1.000000 0.000000
vn 0.000000 -1.000000 0.000000
vn 0.000000 -1.000000 0.000000
vn 0.000000 -1.000000 0.000000
vn 0.000000 -1.000000 0.000000
vn 0.000000 -1.000000 -0.000008
vn 0.000000 -1.000000 -0.000008
vn 0.000000 -1.000000 -0.000008
vn 0.000000 -1.000000 0.000008
vn 0.000000 -1.000000 0.000008
vn 0.000000 -1.000000 0.000008
vn -0.064919 0.985507 0.156722
vn -0.064919 0.985507 0.156722
vn -0.064919 0.985507 0.156722
vn 0.064919 0.985507 0.156722
vn 0.064919 0.985507 0.156722
vn 0.064919 0.985507 0.156722
vn 0.156729 0.985506 0.064916
vn 0.156729 0.985506 0.064916
vn 0.156729 0.985506 0.064916
vn 0.156729 0.985506 -0.064916
vn 0.156729 0.985506 -0.064916
vn 0.156729 0.985506 -0.064916
vn 0.064919 0.985507 -0.156722
vn 0.064919 0.985507 -0.156722
vn 0.064919 0.985507 -0.156722
vn -0.064919 0.985507 -0.156722
vn -0.064919 0.985507 -0.156722
vn -0.064919 0.985507 -0.156722
vn -0.156729 0.985506 -0.064916
vn -0.156729 0.985506 -0.064916
vn -0.156729 0.985506 -0.064916
vn -0.156729 0.985506 0.064916
vn -0.156729 0.985506 0.064916
vn -0.156729 0.985506 0.064916
g Apple_body Low_Poly_Apple1
f 1/1/1 2/2/2 10/3/3 9/4/4
f 2/2/5 3/5/6 11/6/7 10/3/8
f 3/5/9 4/7/10 12/8/11 11/6/12
f 4/7/13 5/9/14 13/10/15 12/8/16
f 5/9/17 6/11/18 14/12/19 13/10/20
f 6/11/21 7/13/22 15/14/23 14/12/24
f 7/13/25 8/15/26 16/16/27 15/14/28
f 8/15/29 1/17/30 9/18/31 16/16/32
f 9/4/33 10/3/34 18/19/35 17/20/36
f 10/3/37 11/6/38 19/21/39 18/19/40
f 11/6/41 12/8/42 20/22/43 19/21/44
f 12/8/45 13/10/46 21/23/47 20/22/48
f 13/10/49 14/12/50 22/24/51 21/23/52
f 14/12/53 15/14/54 23/25/55 22/24/56
f 15/14/57 16/16/58 24/26/59 23/25/60
f 16/16/61 9/18/62 17/27/63 24/26/64
f 17/20/65 18/19/66 26/28/67 25/29/68
f 18/19/69 19/21/70 27/30/71 26/28/72
f 19/21/73 20/22/74 28/31/75 27/30/76
f 20/22/77 21/23/78 29/32/79 28/31/80
f 21/23/81 22/24/82 30/33/83 29/32/84
f 22/24/85 23/25/86 31/34/87 30/33/88
f 23/25/89 24/26/90 32/35/91 31/34/92
f 24/26/93 17/27/94 25/36/95 32/35/96
f 2/2/97 1/1/98 33/37/99
f 3/5/100 2/2/101 33/38/102
f 4/7/103 3/5/104 33/39/105
f 5/9/106 4/7/107 33/40/108
f 6/11/109 5/9/110 33/41/111
f 7/13/112 6/11/113 33/42/114
f 8/15/115 7/13/116 33/43/117
f 1/17/118 8/15/119 33/44/120
f 25/29/121 26/28/122 34/45/123
f 26/28/124 27/30/125 34/46/126
f 27/30/127 28/31/128 34/47/129
f 28/31/130 29/32/131 34/48/132
f 29/32/133 30/33/134 34/49/135
f 30/33/136 31/34/137 34/50/138
f 31/34/139 32/35/140 34/51/141
f 32/35/142 25/36/143 34/52/144
v -0.017909 -0.258990 0.017909
v 0.017909 -0.258990 0.017909
v -0.017909 -0.132820 0.017909
v 0.017909 -0.132820 0.017909
v -0.017909 -0.132820 -0.017909
v 0.017909 -0.132820 -0.017909
v -0.017909 -0.258990 -0.017909
v 0.017909 -0.258990 -0.017909
vt 0.375000 0.000000
vt 0.625000 0.000000
vt 0.625000 0.250000
vt 0.375000 0.250000
vt 0.625000 0.500000
vt 0.375000 0.500000
vt 0.625000 0.750000
vt 0.375000 0.750000
vt 0.625000 1.000000
vt 0.375000 1.000000
vt 0.875000 0.000000
vt 0.875000 0.250000
vt 0.125000 0.000000
vt 0.125000 0.250000
vn 0.000000 0.000000 1.000000
vn 0.000000 0.000000 1.000000
vn 0.000000 0.000000 1.000000
vn 0.000000 0.000000 1.000000
vn 0.000000 1.000000 0.000000
vn 0.000000 1.000000 0.000000
vn 0.000000 1.000000 0.000000
vn 0.000000 1.000000 0.000000
vn 0.000000 0.000000 -1.000000
vn 0.000000 0.000000 -1.000000
vn 0.000000 0.000000 -1.000000
vn 0.000000 0.000000 -1.000000
vn 0.000000 -1.000000 0.000000
vn 0.000000 -1.000000 0.000000
vn 0.000000 -1.000000 0.000000
vn 0.000000 -1.000000 0.000000
vn 1.000000 0.000000 0.000000
vn 1.000000 0.000000 0.000000
vn 1.000000 0.000000 0.000000
vn 1.000000 0.000000 0.000000
vn -1.000000 0.000000 0.000000
vn -1.000000 0.000000 0.000000
vn -1.000000 0.000000 0.000000
vn -1.000000 0.000000 0.000000
g Low_Poly_Apple1 Apple_stem
f 35/53/145 36/54/146 38/55/147 37/56/148
f 37/56/149 38/55/150 40/57/151 39/58/152
f 39/58/153 40/57/154 42/59/155 41/60/156
f 41/60/157 42/59/158 36/61/159 35/62/160
f 36/54/161 42/63/162 40/64/163 38/55/164
f 41/65/165 35/53/166 37/56/167 39/66/168
