# This file uses centimeters as units for non-parametric coordinates.

mtllib Low_Poly_Pizza_Box.mtl
g default
v -3.737891 -0.304451 3.737891
v 3.737891 -0.304451 3.737891
v -3.737891 0.304451 3.737891
v 3.737891 0.304451 3.737891
v -3.737891 0.304451 -3.737891
v 3.737891 0.304451 -3.737891
v -3.737891 -0.304451 -3.737891
v 3.737891 -0.304451 -3.737891
v -3.675593 0.304451 3.675593
v 3.675593 0.304451 3.675593
v 3.675593 0.304451 -3.675593
v -3.675593 0.304451 -3.675593
v -3.675593 -0.252059 3.675593
v 3.675593 -0.252059 3.675593
v 3.675593 -0.252059 -3.675593
v -3.675593 -0.252059 -3.675593
vt 0.375000 0.000000
vt 0.625000 0.000000
vt 0.375000 0.250000
vt 0.625000 0.250000
vt 0.375000 0.500000
vt 0.625000 0.500000
vt 0.375000 0.750000
vt 0.625000 0.750000
vt 0.375000 1.000000
vt 0.625000 1.000000
vt 0.875000 0.000000
vt 0.875000 0.250000
vt 0.125000 0.000000
vt 0.125000 0.250000
vt 0.375000 0.250000
vt 0.625000 0.250000
vt 0.625000 0.500000
vt 0.375000 0.500000
vt 0.375000 0.250000
vt 0.625000 0.250000
vt 0.625000 0.500000
vt 0.375000 0.500000
vn 0.000000 0.000000 1.000000
vn 0.000000 0.000000 1.000000
vn 0.000000 0.000000 1.000000
vn 0.000000 0.000000 1.000000
vn 0.000000 1.000000 0.000000
vn 0.000000 1.000000 0.000000
vn 0.000000 1.000000 0.000000
vn 0.000000 1.000000 0.000000
vn 0.000000 0.000000 -1.000000
vn 0.000000 0.000000 -1.000000
vn 0.000000 0.000000 -1.000000
vn 0.000000 0.000000 -1.000000
vn 0.000000 -1.000000 0.000000
vn 0.000000 -1.000000 0.000000
vn 0.000000 -1.000000 0.000000
vn 0.000000 -1.000000 0.000000
vn 1.000000 0.000000 0.000000
vn 1.000000 0.000000 0.000000
vn 1.000000 0.000000 0.000000
vn 1.000000 0.000000 0.000000
vn -1.000000 0.000000 0.000000
vn -1.000000 0.000000 0.000000
vn -1.000000 0.000000 0.000000
vn -1.000000 0.000000 0.000000
vn 0.000000 1.000000 -0.000000
vn 0.000000 1.000000 -0.000000
vn 0.000000 1.000000 -0.000000
vn 0.000000 1.000000 -0.000000
vn 0.000000 1.000000 0.000000
vn 0.000000 1.000000 0.000000
vn 0.000000 1.000000 0.000000
vn 0.000000 1.000000 0.000000
vn 0.000000 0.000000 -1.000000
vn 0.000000 0.000000 -1.000000
vn 0.000000 0.000000 -1.000000
vn 0.000000 0.000000 -1.000000
vn -1.000000 0.000000 0.000000
vn -1.000000 0.000000 0.000000
vn -1.000000 0.000000 0.000000
vn -1.000000 0.000000 0.000000
vn 0.000000 0.000000 1.000000
vn 0.000000 0.000000 1.000000
vn 0.000000 0.000000 1.000000
vn 0.000000 0.000000 1.000000
vn 1.000000 0.000000 0.000000
vn 1.000000 0.000000 0.000000
vn 1.000000 0.000000 0.000000
vn 1.000000 0.000000 0.000000
s off
g Pizza_Box_Base
usemtl initialShadingGroup
f 1/1/1 2/2/2 4/4/3 3/3/4
f 13/19/5 14/20/6 15/21/7 16/22/8
f 5/5/9 6/6/10 8/8/11 7/7/12
f 7/7/13 8/8/14 2/10/15 1/9/16
f 2/2/17 8/11/18 6/12/19 4/4/20
f 7/13/21 1/1/22 3/3/23 5/14/24
s 1
f 3/3/25 4/4/26 10/16/27 9/15/28
f 4/4/26 6/6/29 11/17/30 10/16/27
f 6/6/29 5/5/31 12/18/32 11/17/30
f 5/5/31 3/3/25 9/15/28 12/18/32
s off
f 9/15/33 10/16/34 14/20/35 13/19/36
f 10/16/37 11/17/38 15/21/39 14/20/40
f 11/17/41 12/18/42 16/22/43 15/21/44
f 12/18/45 9/15/46 13/19/47 16/22/48
g default
v -3.733598 2.269160 3.887905
v 3.733598 2.269160 3.887905
v -3.733598 2.352652 3.887905
v 3.733598 2.352652 3.887905
v -3.733598 0.381728 -3.900319
v 3.733598 0.381728 -3.900319
v -3.733598 0.298237 -3.900319
v 3.733598 0.298237 -3.900319
v -2.993875 0.381728 -3.900319
v -2.993875 0.298237 -3.900319
v -2.993875 2.269160 3.887905
v -2.993875 2.352652 3.887905
v -1.998469 0.381728 -3.900319
v -1.998469 0.298237 -3.900319
v -1.998469 2.269160 3.887905
v -1.998469 2.352652 3.887905
v 2.993875 0.381728 -3.900319
v 2.993875 0.298237 -3.900319
v 2.993875 2.269160 3.887905
v 2.993875 2.352652 3.887905
v 2.013783 0.381728 -3.900319
v 2.013783 0.298237 -3.900319
v 2.013783 2.269160 3.887905
v 2.013783 2.352652 3.887905
v -3.733598 0.298237 -3.683787
v -3.733598 0.381728 -3.683787
v -2.993875 0.381728 -3.683787
v -1.998469 0.381728 -3.683787
v 2.013783 0.381728 -3.683787
v 2.993875 0.381728 -3.683787
v 3.733598 0.381728 -3.683787
v 3.733598 0.298237 -3.683787
v 2.993875 0.298237 -3.683787
v 2.013783 0.298237 -3.683787
v -1.998469 0.298237 -3.683787
v -2.993875 0.298237 -3.683787
v -2.993875 0.298237 -3.836493
v -2.993875 0.298237 -3.747613
v -1.998469 0.298237 -3.836493
v -1.998469 0.298237 -3.747613
v 2.013783 0.298237 -3.836493
v 2.013783 0.298237 -3.747613
v 2.993875 0.298237 -3.836493
v 2.993875 0.298237 -3.747613
v -2.993875 0.026908 -3.836493
v -2.993875 0.026908 -3.747613
v -1.998469 0.026908 -3.836493
v -1.998469 0.026908 -3.747613
v 2.013783 0.026908 -3.836493
v 2.013783 0.026908 -3.747613
v 2.993875 0.026908 -3.836493
v 2.993875 0.026908 -3.747613
vt 0.375000 0.000000
vt 0.625000 0.000000
vt 0.375000 0.250000
vt 0.625000 0.250000
vt 0.375000 0.500000
vt 0.625000 0.500000
vt 0.375000 0.750000
vt 0.625000 0.750000
vt 0.375000 1.000000
vt 0.625000 1.000000
vt 0.875000 0.000000
vt 0.875000 0.250000
vt 0.125000 0.000000
vt 0.125000 0.250000
vt 0.399766 0.500000
vt 0.399766 0.750000
vt 0.399766 0.000000
vt 0.399766 1.000000
vt 0.399766 0.250000
vt 0.433092 0.500000
vt 0.433092 0.750000
vt 0.433092 0.000000
vt 0.433092 1.000000
vt 0.433092 0.250000
vt 0.600234 0.500000
vt 0.600234 0.750000
vt 0.600234 0.000000
vt 0.600234 1.000000
vt 0.600234 0.250000
vt 0.567421 0.500000
vt 0.567421 0.750000
vt 0.567421 0.000000
vt 0.567421 1.000000
vt 0.567421 0.250000
vt 0.131951 0.000000
vt 0.375000 0.756951
vt 0.131951 0.250000
vt 0.375000 0.493049
vt 0.399766 0.493049
vt 0.433092 0.493049
vt 0.567421 0.493049
vt 0.600234 0.493049
vt 0.625000 0.493049
vt 0.868049 0.250000
vt 0.625000 0.756951
vt 0.868049 0.000000
vt 0.600234 0.756951
vt 0.567421 0.756951
vt 0.433092 0.756951
vt 0.399766 0.756951
vt 0.399766 0.756951
vt 0.399766 0.750000
vt 0.433092 0.750000
vt 0.433092 0.756951
vt 0.567421 0.756951
vt 0.567421 0.750000
vt 0.600234 0.750000
vt 0.600234 0.756951
vt 0.399766 0.756951
vt 0.399766 0.750000
vt 0.433092 0.750000
vt 0.433092 0.756951
vt 0.567421 0.756951
vt 0.567421 0.750000
vt 0.600234 0.750000
vt 0.600234 0.756951
vn 0.000000 0.000000 1.000000
vn 0.000000 0.000000 1.000000
vn 0.000000 0.000000 1.000000
vn 0.000000 0.000000 1.000000
vn 0.000000 0.969439 -0.245331
vn 0.000000 0.969439 -0.245331
vn 0.000000 1.000000 0.000000
vn 0.000000 1.000000 0.000000
vn 0.000000 0.000000 -1.000000
vn 0.000000 0.000000 -1.000000
vn 0.000000 0.000000 -1.000000
vn 0.000000 0.000000 -1.000000
vn 0.000000 -1.000000 0.000000
vn 0.000000 -1.000000 0.000000
vn 0.000000 -0.968772 0.247951
vn 0.000000 -0.969439 0.245331
vn 1.000000 0.000000 0.000000
vn 1.000000 0.000000 0.000000
vn 1.000000 0.000000 0.000000
vn 1.000000 0.000000 0.000000
vn -1.000000 0.000000 0.000000
vn -1.000000 0.000000 0.000000
vn -1.000000 0.000000 0.000000
vn -1.000000 0.000000 0.000000
vn 0.000000 0.000000 -1.000000
vn 0.000000 0.000000 -1.000000
vn 0.000000 -1.000000 0.000000
vn 0.000000 -1.000000 0.000000
vn 0.000000 -1.000000 0.000000
vn 0.000000 -1.000000 0.000000
vn 0.000000 0.000000 1.000000
vn 0.000000 0.000000 1.000000
vn 0.000000 0.969439 -0.245331
vn 0.000000 1.000000 0.000000
vn 0.000000 0.000000 -1.000000
vn 0.000000 0.000000 -1.000000
vn 0.000000 -0.969211 0.246233
vn 0.000000 -1.000000 0.000000
vn 0.000000 -1.000000 0.000000
vn 0.000000 -0.969214 0.246221
vn 0.000000 0.000000 1.000000
vn 0.000000 0.000000 1.000000
vn 0.000000 0.969439 -0.245331
vn 0.000000 1.000000 0.000000
vn 0.000000 0.000000 -1.000000
vn 0.000000 0.000000 -1.000000
vn 0.000000 0.000000 -1.000000
vn 0.000000 0.000000 -1.000000
vn 0.000000 -0.968777 0.247934
vn 0.000000 -1.000000 0.000000
vn 0.000000 -1.000000 0.000000
vn 0.000000 -0.969439 0.245331
vn 0.000000 0.000000 1.000000
vn 0.000000 0.000000 1.000000
vn 0.000000 0.000000 1.000000
vn 0.000000 0.000000 1.000000
vn 0.000000 1.000000 0.000000
vn 0.000000 0.969439 -0.245331
vn 0.000000 0.969439 -0.245331
vn 0.000000 1.000000 0.000000
vn 0.000000 -1.000000 0.000000
vn 0.000000 -1.000000 0.000000
vn 0.000000 -1.000000 0.000000
vn 0.000000 -1.000000 0.000000
vn -1.000000 0.000000 0.000000
vn -1.000000 0.000000 0.000000
vn 0.000000 0.967751 -0.251907
vn 0.000000 0.967751 -0.251907
vn 0.000000 0.967751 -0.251907
vn 0.000000 0.967751 -0.251907
vn 0.000000 0.967751 -0.251907
vn 0.000000 0.967751 -0.251907
vn 1.000000 0.000000 0.000000
vn 1.000000 0.000000 0.000000
vn 0.000000 -0.967751 0.251907
vn 0.000000 -0.967751 0.251907
vn 0.000000 -0.967751 0.251907
vn 0.000000 -0.967751 0.251907
vn 0.000000 -0.967751 0.251907
vn 0.000000 -0.967751 0.251907
vn 0.000000 -1.000000 0.000000
vn 0.000000 -1.000000 0.000000
vn 0.000000 -1.000000 0.000000
vn 0.000000 -1.000000 0.000000
vn 0.000000 0.000000 0.000000
vn 0.000000 0.000000 0.000000
vn 0.000000 0.000000 0.000000
vn 0.000000 0.000000 0.000000
vn 0.000000 -1.000000 0.000000
vn 0.000000 -1.000000 0.000000
vn 0.000000 -1.000000 0.000000
vn 0.000000 -1.000000 0.000000
vn 0.000000 -1.000000 0.000000
vn -1.000000 0.000000 -0.000003
vn -1.000000 0.000000 -0.000003
vn -1.000000 0.000000 -0.000003
vn -1.000000 0.000000 -0.000003
vn 0.000000 0.000000 -1.000000
vn 0.000000 0.000000 -1.000000
vn 0.000000 0.000000 -1.000000
vn 0.000000 0.000000 -1.000000
vn 1.000000 0.000000 0.000000
vn 1.000000 0.000000 0.000000
vn 1.000000 0.000000 0.000000
vn 1.000000 0.000000 0.000000
vn 0.000000 0.000000 1.000000
vn 0.000000 0.000000 1.000000
vn 0.000000 0.000000 1.000000
vn 0.000000 0.000000 1.000000
vn -1.000000 0.000000 0.000000
vn -1.000000 0.000000 0.000000
vn -1.000000 0.000000 0.000000
vn -1.000000 0.000000 0.000000
vn 0.000000 0.000000 -1.000000
vn 0.000000 0.000000 -1.000000
vn 0.000000 0.000000 -1.000000
vn 0.000000 0.000000 -1.000000
vn 1.000000 0.000000 -0.000003
vn 1.000000 0.000000 -0.000003
vn 1.000000 0.000000 -0.000003
vn 1.000000 0.000000 -0.000003
vn 0.000000 0.000000 1.000000
vn 0.000000 0.000000 1.000000
vn 0.000000 0.000000 1.000000
vn 0.000000 0.000000 1.000000
s 1
g Pizza_Box_Lid
usemtl initialShadingGroup
f 17/23/49 27/39/50 28/41/51 19/25/52
s 2
f 42/60/53 43/61/54 25/37/55 21/27/56
s 3
f 21/27/57 25/37/58 26/38/59 23/29/60
s 4
f 23/29/61 26/38/62 52/72/63 41/58/64
s 5
f 48/68/65 24/33/66 22/34/67 47/66/68
s 6
f 23/35/69 41/57/70 42/59/71 21/36/72
s 3
f 25/37/58 29/42/73 30/43/74 26/38/59
s off
f 62/81/75 61/82/76 63/83/77 64/84/78
s 1
f 28/41/51 27/39/50 31/44/79 32/46/80
s 2
f 25/37/55 43/61/54 44/62/81 29/42/82
s 3
f 29/42/73 37/52/83 38/53/84 30/43/74
s 4
f 51/71/85 30/43/86 38/53/87 50/70/88
s 1
f 32/46/80 31/44/79 39/54/89 40/56/90
s 2
f 29/42/82 44/62/81 45/63/91 37/52/92
s 3
f 33/47/93 22/28/94 24/30/95 34/48/96
s 4
f 49/69/97 34/48/98 24/30/99 48/67/100
s 1
f 36/51/101 35/49/102 18/24/103 20/26/104
s 2
f 33/47/105 46/64/106 47/65/107 22/28/108
s 3
f 37/52/83 33/47/93 34/48/96 38/53/84
s off
f 66/85/109 65/86/110 67/87/111 68/88/112
s 1
f 40/56/90 39/54/89 35/49/102 36/51/101
s 2
f 37/52/92 45/63/91 46/64/106 33/47/105
s 6
f 41/57/70 17/23/113 19/25/114 42/59/71
s 2
f 19/25/115 28/41/116 43/61/54 42/60/53
f 44/62/81 43/61/54 28/41/116 32/46/117
f 45/63/91 44/62/81 32/46/117 40/56/118
f 46/64/106 45/63/91 40/56/118 36/51/119
f 47/65/107 46/64/106 36/51/119 20/26/120
s 5
f 18/24/121 48/68/65 47/66/68 20/26/122
s 4
f 35/50/123 49/69/97 48/67/100 18/32/124
f 39/55/125 50/70/88 49/69/97 35/50/123
f 31/45/126 51/71/85 50/70/88 39/55/125
f 27/40/127 52/72/63 51/71/85 31/45/126
f 41/58/64 52/72/63 27/40/127 17/31/128
f 52/72/63 26/38/62 53/74/129 54/73/130
f 26/38/62 30/43/86 55/75/131 53/74/129
f 30/43/86 51/71/85 56/76/132 55/75/131
f 51/71/85 52/72/63 54/73/130 56/76/132
s off
f 50/70/133 38/53/134 57/78/135 58/77/136
s 4
f 38/53/137 34/48/98 59/79/138 57/78/139
f 34/48/98 49/69/97 60/80/140 59/79/138
f 49/69/97 50/70/88 58/77/141 60/80/140
s off
f 54/73/142 53/74/143 61/82/144 62/81/145
f 53/74/146 55/75/147 63/83/148 61/82/149
f 55/75/150 56/76/151 64/84/152 63/83/153
f 56/76/154 54/73/155 62/81/156 64/84/157
f 58/77/158 57/78/159 65/86/160 66/85/161
f 57/78/162 59/79/163 67/87/164 65/86/165
f 59/79/166 60/80/167 68/88/168 67/87/169
f 60/80/170 58/77/171 66/85/172 68/88/173
g default
v 2.806970 -0.236118 -0.912040
v 2.387752 -0.236118 -1.734803
v 1.734803 -0.236118 -2.387751
v 0.912040 -0.236118 -2.806970
v 0.000000 -0.236118 -2.951423
v -0.912040 -0.236118 -2.806970
v -1.734803 -0.236118 -2.387751
v -2.387751 -0.236118 -1.734802
v -2.806969 -0.236118 -0.912040
v -2.951422 -0.236118 0.000000
v -2.806969 -0.236118 0.912040
v -2.387751 -0.236118 1.734802
v -1.734802 -0.236118 2.387750
v -0.912040 -0.236118 2.806969
v -0.000000 -0.236118 2.951421
v 0.912039 -0.236118 2.806969
v 1.734802 -0.236118 2.387750
v 2.387750 -0.236118 1.734802
v 2.806968 -0.236118 0.912039
v 2.951421 -0.236118 0.000000
v 2.806970 0.051721 -0.912040
v 2.387752 0.051721 -1.734803
v 1.734803 0.051721 -2.387751
v 0.912040 0.051721 -2.806970
v 0.000000 0.051721 -2.951423
v -0.912040 0.051721 -2.806970
v -1.734803 0.051721 -2.387751
v -2.387751 0.051721 -1.734802
v -2.806969 0.051721 -0.912040
v -2.951422 0.051721 0.000000
v -2.806969 0.051721 0.912040
v -2.387751 0.051721 1.734802
v -1.734802 0.051721 2.387750
v -0.912040 0.051721 2.806969
v -0.000000 0.051721 2.951421
v 0.912039 0.051721 2.806969
v 1.734802 0.051721 2.387750
v 2.387750 0.051721 1.734802
v 2.806968 0.051721 0.912039
v 2.951421 0.051721 0.000000
v 0.000000 -0.236118 0.000000
v 0.000000 0.051721 0.000000
vt 0.648603 0.107966
vt 0.626409 0.064408
vt 0.591842 0.029841
vt 0.548284 0.007647
vt 0.500000 -0.000000
vt 0.451716 0.007647
vt 0.408159 0.029841
vt 0.373591 0.064409
vt 0.351397 0.107966
vt 0.343750 0.156250
vt 0.351397 0.204534
vt 0.373591 0.248091
vt 0.408159 0.282659
vt 0.451716 0.304853
vt 0.500000 0.312500
vt 0.555392 0.308676
vt 0.583421 0.297579
vt 0.626409 0.248091
vt 0.648603 0.204534
vt 0.656250 0.156250
vt 0.375000 0.312500
vt 0.387500 0.312500
vt 0.400000 0.312500
vt 0.412500 0.312500
vt 0.425000 0.312500
vt 0.437500 0.312500
vt 0.450000 0.312500
vt 0.462500 0.312500
vt 0.475000 0.312500
vt 0.487500 0.312500
vt 0.500000 0.312500
vt 0.512500 0.312500
vt 0.525000 0.312500
vt 0.537500 0.312500
vt 0.550000 0.312500
vt 0.587500 0.312500
vt 0.600000 0.312500
vt 0.612500 0.312500
vt 0.625000 0.312500
vt 0.375000 0.688440
vt 0.387500 0.688440
vt 0.400000 0.688440
vt 0.412500 0.688440
vt 0.425000 0.688440
vt 0.437500 0.688440
vt 0.450000 0.688440
vt 0.462500 0.688440
vt 0.475000 0.688440
vt 0.487500 0.688440
vt 0.500000 0.688440
vt 0.512500 0.688440
vt 0.525000 0.688440
vt 0.537500 0.688440
vt 0.550000 0.688440
vt 0.555392 0.691794
vt 0.583421 0.702890
vt 0.587500 0.688440
vt 0.600000 0.688440
vt 0.612500 0.688440
vt 0.625000 0.688440
vt 0.648603 0.795466
vt 0.626409 0.751908
vt 0.500000 0.687500
vt 0.451716 0.695147
vt 0.408159 0.717341
vt 0.373591 0.751909
vt 0.351397 0.795466
vt 0.343750 0.843750
vt 0.351397 0.892034
vt 0.373591 0.935591
vt 0.408159 0.970159
vt 0.451716 0.992353
vt 0.500000 1.000000
vt 0.548284 0.992353
vt 0.591841 0.970159
vt 0.626409 0.935591
vt 0.648603 0.892034
vt 0.656250 0.843750
vt 0.500000 0.150000
vt 0.500000 0.837500
vn 0.951057 0.000000 -0.309016
vn 0.809017 0.000000 -0.587785
vn 0.809017 0.000000 -0.587785
vn 0.951057 0.000000 -0.309016
vn 0.587785 0.000000 -0.809017
vn 0.587785 0.000000 -0.809017
vn 0.309017 0.000000 -0.951057
vn 0.309017 0.000000 -0.951057
vn 0.000000 0.000000 -1.000000
vn 0.000000 0.000000 -1.000000
vn -0.309017 0.000000 -0.951056
vn -0.309017 0.000000 -0.951056
vn -0.587785 0.000000 -0.809017
vn -0.587785 0.000000 -0.809017
vn -0.809017 0.000000 -0.587785
vn -0.809017 0.000000 -0.587785
vn -0.951056 0.000000 -0.309017
vn -0.951056 0.000000 -0.309017
vn -1.000000 0.000000 0.000000
vn -1.000000 0.000000 0.000000
vn -0.951056 0.000000 0.309017
vn -0.951056 0.000000 0.309017
vn -0.809017 0.000000 0.587785
vn -0.809017 0.000000 0.587785
vn -0.587785 0.000000 0.809017
vn -0.587785 0.000000 0.809017
vn -0.309017 0.000000 0.951057
vn -0.309017 0.000000 0.951057
vn 0.000000 0.000000 1.000000
vn 0.000000 0.000000 1.000000
vn 0.156434 0.000000 0.987688
vn 0.156434 0.000000 0.987688
vn 0.707107 0.000000 0.707107
vn 0.809017 0.000000 0.587785
vn 0.809017 0.000000 0.587785
vn 0.707107 0.000000 0.707107
vn 0.951057 0.000000 0.309017
vn 0.951057 0.000000 0.309017
vn 1.000000 0.000000 0.000001
vn 1.000000 0.000000 0.000001
vn 0.000000 -1.000000 0.000000
vn 0.000000 -1.000000 0.000000
vn 0.000000 -1.000000 0.000000
vn 0.000000 -1.000000 0.000000
vn 0.000000 -1.000000 0.000000
vn 0.000000 -1.000000 0.000000
vn 0.000000 -1.000000 0.000000
vn 0.000000 -1.000000 0.000000
vn 0.000000 -1.000000 0.000000
vn 0.000000 -1.000000 0.000000
vn 0.000000 -1.000000 0.000000
vn 0.000000 -1.000000 0.000000
vn 0.000000 -1.000000 0.000000
vn 0.000000 -1.000000 0.000000
vn 0.000000 -1.000000 0.000000
vn 0.000000 -1.000000 0.000000
vn 0.000000 -1.000000 0.000000
vn 0.000000 -1.000000 0.000000
vn 0.000000 -1.000000 0.000000
vn 0.000000 -1.000000 0.000000
vn 0.000000 -1.000000 0.000000
vn 0.000000 1.000000 0.000000
vn 0.000000 1.000000 -0.000000
vn 0.000000 1.000000 0.000000
vn 0.000000 1.000000 -0.000000
vn 0.000000 1.000000 0.000000
vn 0.000000 1.000000 0.000000
vn 0.000000 1.000000 0.000000
vn 0.000000 1.000000 -0.000000
vn 0.000000 1.000000 -0.000000
vn 0.000000 1.000000 0.000000
vn 0.000000 1.000000 0.000000
vn 0.000000 1.000000 0.000000
vn 0.000000 1.000000 0.000000
vn 0.000000 1.000000 0.000000
vn 0.000000 1.000000 0.000000
vn 0.000000 1.000000 -0.000000
vn 0.000000 1.000000 -0.000000
vn 0.000000 1.000000 0.000000
vn 0.000000 1.000000 0.000000
vn 0.000000 1.000000 0.000000
vn 0.000000 1.000000 0.000000
vn -0.809017 0.000000 0.587785
vn -0.809017 0.000000 0.587785
vn -0.809017 0.000000 0.587785
vn -0.809017 0.000000 0.587785
vn 0.951057 0.000000 -0.309017
vn 0.951057 0.000000 -0.309017
vn 0.951057 0.000000 -0.309017
vn 0.951057 0.000000 -0.309017
s 1
g Pizza
usemtl initialShadingGroup
f 69/109/174 70/110/175 90/129/176 89/128/177
f 70/110/175 71/111/178 91/130/179 90/129/176
f 71/111/178 72/112/180 92/131/181 91/130/179
f 72/112/180 73/113/182 93/132/183 92/131/181
f 73/113/182 74/114/184 94/133/185 93/132/183
f 74/114/184 75/115/186 95/134/187 94/133/185
f 75/115/186 76/116/188 96/135/189 95/134/187
f 76/116/188 77/117/190 97/136/191 96/135/189
f 77/117/190 78/118/192 98/137/193 97/136/191
f 78/118/192 79/119/194 99/138/195 98/137/193
f 79/119/194 80/120/196 100/139/197 99/138/195
f 80/120/196 81/121/198 101/140/199 100/139/197
f 81/121/198 82/122/200 102/141/201 101/140/199
f 82/122/200 83/123/202 103/142/203 102/141/201
f 83/123/202 84/104/204 104/143/205 103/142/203
f 85/105/206 86/124/207 106/145/208 105/144/209
f 86/124/207 87/125/210 107/146/211 106/145/208
f 87/125/210 88/126/212 108/147/213 107/146/211
f 88/126/212 69/127/174 89/148/177 108/147/213
s 3
f 70/90/214 69/89/215 109/167/216
f 71/91/217 70/90/214 109/167/216
f 72/92/218 71/91/217 109/167/216
f 73/93/219 72/92/218 109/167/216
f 74/94/220 73/93/219 109/167/216
f 75/95/221 74/94/220 109/167/216
f 76/96/222 75/95/221 109/167/216
f 77/97/223 76/96/222 109/167/216
f 78/98/224 77/97/223 109/167/216
f 79/99/225 78/98/224 109/167/216
f 80/100/226 79/99/225 109/167/216
f 81/101/227 80/100/226 109/167/216
f 82/102/228 81/101/227 109/167/216
f 83/103/229 82/102/228 109/167/216
f 84/104/230 83/103/229 109/167/216
f 86/106/231 85/105/232 109/167/216
f 87/107/233 86/106/231 109/167/216
f 88/108/234 87/107/233 109/167/216
f 69/89/215 88/108/234 109/167/216
s 5
f 89/165/235 90/164/236 110/168/237
f 90/164/236 91/163/238 110/168/237
f 91/163/238 92/162/239 110/168/237
f 92/162/239 93/161/240 110/168/237
f 93/161/240 94/160/241 110/168/237
f 94/160/241 95/159/242 110/168/237
f 95/159/242 96/158/243 110/168/237
f 96/158/243 97/157/244 110/168/237
f 97/157/244 98/156/245 110/168/237
f 98/156/245 99/155/246 110/168/237
f 99/155/246 100/154/247 110/168/237
f 100/154/247 101/153/248 110/168/237
f 101/153/248 102/152/249 110/168/237
f 102/152/249 103/151/250 110/168/237
f 103/151/250 104/143/251 110/168/237
f 105/144/252 106/150/253 110/168/237
f 106/150/253 107/149/254 110/168/237
f 107/149/254 108/166/255 110/168/237
f 108/166/255 89/165/235 110/168/237
s off
f 109/167/256 85/105/257 105/144/258 110/168/259
f 84/104/260 109/167/261 110/168/262 104/143/263
