# This file uses centimeters as units for non-parametric coordinates.

mtllib Low_Poly_Toaster.mtl
g default
v -5.262091 -1.312469 10.052965
v 5.262091 -1.312469 10.052965
v -4.853994 8.144392 8.972473
v 4.853994 8.144392 8.972473
v -4.853994 8.144392 -8.972473
v 4.853994 8.144392 -8.972473
v -5.262091 -1.312469 -10.052965
v 5.262091 -1.312469 -10.052965
v -4.411387 -1.312469 10.052965
v -4.411387 -1.312469 -10.052965
v -4.069265 9.211714 -9.107887
v -4.069265 9.211714 9.024896
v 4.411386 -1.312469 10.052965
v 4.411386 -1.312469 -10.052965
v 4.069264 9.211714 -9.107887
v 4.069264 9.211714 9.024896
v -5.262091 -0.548040 9.965626
v -4.411387 -0.461768 10.052965
v 4.411386 -0.461768 10.052965
v 5.262091 -0.548040 9.965626
v 5.262091 -0.548043 -9.965626
v 4.411386 -0.461764 -10.052965
v -4.411387 -0.461764 -10.052965
v -5.262091 -0.548043 -9.965626
v -4.853994 7.379962 9.059813
v -4.069265 8.361008 10.052965
v 4.069264 8.361008 10.052965
v 4.853994 7.379962 9.059813
v 4.853994 7.379961 -9.059813
v 4.069264 8.361008 -10.052965
v -4.069265 8.361008 -10.052965
v -4.853994 7.379961 -9.059813
v -2.871813 -1.312469 10.052965
v -2.871813 -1.312469 -10.052965
v -2.871813 -0.461764 -10.052965
v -2.871813 8.361008 -10.052965
v -2.871813 9.211714 -9.107887
v -2.871813 9.211714 9.024896
v -2.871813 8.361008 10.052965
v -2.871813 -0.461768 10.052965
v -0.957271 -1.312469 10.052965
v -0.957271 -1.312469 -10.052965
v -0.957271 -0.461764 -10.052965
v -0.957271 8.361008 -10.052965
v -0.957271 9.211714 -9.107887
v -0.957271 9.211714 9.024896
v -0.957271 8.361008 10.052965
v -0.957271 -0.461768 10.052965
v 0.957273 -1.312469 10.052965
v 0.957273 -1.312469 -10.052965
v 0.957273 -0.461764 -10.052965
v 0.957273 8.361008 -10.052965
v 0.957273 9.211714 -9.107887
v 0.957273 9.211714 9.024896
v 0.957273 8.361008 10.052965
v 0.957273 -0.461768 10.052965
v 2.871812 -1.312469 10.052965
v 2.871812 -1.312469 -10.052965
v 2.871812 -0.461764 -10.052965
v 2.871812 8.361008 -10.052965
v 2.871812 9.211714 -9.107887
v 2.871812 9.211714 9.024896
v 2.871812 8.361008 10.052965
v 2.871812 -0.461768 10.052965
v -4.853994 8.144392 6.549905
v -4.069265 9.211714 6.576970
v -2.871813 9.211714 6.576970
v -0.957271 9.211714 6.576970
v 0.957273 9.211714 6.576970
v 2.871812 9.211714 6.576970
v 4.069264 9.211714 6.576970
v 4.853994 8.144392 6.549905
v 4.853994 7.379962 6.613662
v 5.262091 -0.548040 7.274907
v 5.262091 -1.312469 7.338666
v 4.411386 -1.312469 7.338666
v 2.871812 -1.312469 7.338666
v 0.957273 -1.312469 7.338666
v -0.957271 -1.312469 7.338666
v -2.871813 -1.312469 7.338666
v -4.411387 -1.312469 7.338666
v -5.262091 -1.312469 7.338666
v -5.262091 -0.548040 7.274907
v -4.853994 7.379962 6.613664
v -4.853994 8.144392 -6.549911
v -4.069265 9.211714 -6.659967
v -2.871813 9.211714 -6.659967
v -0.957271 9.211714 -6.659967
v 0.957273 9.211714 -6.659967
v 2.871812 9.211714 -6.659967
v 4.069264 9.211714 -6.659967
v 4.853994 8.144392 -6.549911
v 4.853994 7.379961 -6.613669
v 5.262091 -0.548042 -7.274914
v 5.262091 -1.312469 -7.338672
v 4.411386 -1.312469 -7.338672
v 2.871812 -1.312469 -7.338672
v 0.957273 -1.312469 -7.338672
v -0.957271 -1.312469 -7.338672
v -2.871813 -1.312469 -7.338672
v -4.411387 -1.312469 -7.338672
v -5.262091 -1.312469 -7.338672
v -5.262091 -0.548042 -7.274914
v -4.853994 7.379961 -6.613669
v -2.871812 1.529720 -6.659967
v -0.957270 1.529720 -6.659967
v -2.871812 1.529720 6.576970
v -0.957270 1.529720 6.576970
v 0.957273 1.529720 -6.659967
v 2.871812 1.529720 -6.659967
v 0.957273 1.529720 6.576970
v 2.871812 1.529720 6.576970
v 0.076583 -0.461764 -10.052965
v 0.076583 8.361008 -10.052965
v -0.076581 -0.461764 -10.052965
v -0.076581 8.361008 -10.052965
v 0.076583 -0.461764 -6.962820
v 0.076583 8.361008 -6.962820
v -0.076581 -0.461764 -6.962820
v -0.076581 8.361008 -6.962820
vt 0.375000 0.000000
vt 0.625000 0.000000
vt 0.375000 0.250000
vt 0.625000 0.250000
vt 0.375000 0.500000
vt 0.625000 0.500000
vt 0.375000 0.750000
vt 0.625000 0.750000
vt 0.375000 1.000000
vt 0.625000 1.000000
vt 0.875000 0.000000
vt 0.875000 0.250000
vt 0.125000 0.000000
vt 0.125000 0.250000
vt 0.395208 0.000000
vt 0.395208 1.000000
vt 0.395208 0.750000
vt 0.395208 0.500000
vt 0.395208 0.250000
vt 0.604792 0.000000
vt 0.604792 1.000000
vt 0.604792 0.750000
vt 0.604792 0.500000
vt 0.604792 0.250000
vt 0.375000 0.020208
vt 0.395208 0.020208
vt 0.604792 0.020208
vt 0.625000 0.020208
vt 0.625000 0.729792
vt 0.875000 0.020208
vt 0.604792 0.729792
vt 0.395208 0.729792
vt 0.125000 0.020208
vt 0.375000 0.729792
vt 0.375000 0.229792
vt 0.395208 0.229792
vt 0.604792 0.229792
vt 0.625000 0.229792
vt 0.625000 0.520208
vt 0.875000 0.229792
vt 0.604792 0.520208
vt 0.395208 0.520208
vt 0.125000 0.229792
vt 0.375000 0.520208
vt 0.431781 0.000000
vt 0.431781 1.000000
vt 0.431781 0.750000
vt 0.431781 0.729792
vt 0.431781 0.520208
vt 0.431781 0.500000
vt 0.431781 0.250000
vt 0.431781 0.229792
vt 0.431781 0.020208
vt 0.477260 0.000000
vt 0.477260 1.000000
vt 0.477260 0.750000
vt 0.477260 0.729792
vt 0.477260 0.520208
vt 0.477260 0.500000
vt 0.477260 0.250000
vt 0.477260 0.229792
vt 0.477260 0.020208
vt 0.522740 0.000000
vt 0.522740 1.000000
vt 0.522740 0.750000
vt 0.522740 0.729792
vt 0.522740 0.520208
vt 0.522740 0.500000
vt 0.522740 0.250000
vt 0.522740 0.229792
vt 0.522740 0.020208
vt 0.568219 0.000000
vt 0.568219 1.000000
vt 0.568219 0.750000
vt 0.568219 0.729792
vt 0.568219 0.520208
vt 0.568219 0.500000
vt 0.568219 0.250000
vt 0.568219 0.229792
vt 0.568219 0.020208
vt 0.341250 0.250000
vt 0.375000 0.283750
vt 0.395208 0.283750
vt 0.431781 0.283750
vt 0.477260 0.283750
vt 0.522740 0.283750
vt 0.568219 0.283750
vt 0.604792 0.283750
vt 0.625000 0.283750
vt 0.658750 0.250000
vt 0.658750 0.229792
vt 0.658750 0.020208
vt 0.625000 0.966250
vt 0.658750 0.000000
vt 0.604792 0.966250
vt 0.568219 0.966250
vt 0.522740 0.966250
vt 0.477260 0.966250
vt 0.431781 0.966250
vt 0.395208 0.966250
vt 0.341250 0.000000
vt 0.375000 0.966250
vt 0.341250 0.020208
vt 0.341250 0.229792
vt 0.158750 0.250000
vt 0.375000 0.466250
vt 0.395208 0.466250
vt 0.431781 0.466250
vt 0.477260 0.466250
vt 0.522740 0.466250
vt 0.568219 0.466250
vt 0.604792 0.466250
vt 0.625000 0.466250
vt 0.841250 0.250000
vt 0.841250 0.229792
vt 0.841250 0.020208
vt 0.625000 0.783750
vt 0.841250 0.000000
vt 0.604792 0.783750
vt 0.568219 0.783750
vt 0.522740 0.783750
vt 0.477260 0.783750
vt 0.431781 0.783750
vt 0.395208 0.783750
vt 0.158750 0.000000
vt 0.375000 0.783750
vt 0.158750 0.020208
vt 0.158750 0.229792
vt 0.477260 0.466250
vt 0.431781 0.466250
vt 0.431781 0.283750
vt 0.477260 0.283750
vt 0.568219 0.466250
vt 0.522740 0.466250
vt 0.522740 0.283750
vt 0.568219 0.283750
vt 0.501819 0.729792
vt 0.501819 0.520208
vt 0.498181 0.729792
vt 0.498181 0.520208
vt 0.501819 0.520208
vt 0.501819 0.729792
vt 0.498181 0.729792
vt 0.498181 0.520208
vn 0.160009 0.760508 0.629304
vn 0.168457 0.109107 0.979652
vn 0.804688 0.264929 0.531309
vn 0.465224 0.885193 0.000000
vn 0.468665 0.883376 0.000000
vn 0.805675 0.592358 0.000000
vn 0.805675 0.592358 0.000000
vn 0.807059 0.245843 -0.536858
vn 0.168526 0.101967 -0.980409
vn 0.165360 0.733009 -0.659813
vn 0.000000 -1.000000 0.000000
vn 0.000000 -1.000000 0.000000
vn 0.000000 -1.000000 0.000000
vn 0.000000 -1.000000 0.000000
vn 1.000000 0.000001 0.000000
vn 0.998883 0.047261 -0.000000
vn 0.998876 0.047403 -0.000000
vn 1.000000 0.000000 0.000000
vn -0.998876 0.047403 -0.000000
vn -0.998883 0.047261 -0.000000
vn -1.000000 0.000001 0.000000
vn -1.000000 -0.000000 0.000000
vn 0.000000 -1.000000 0.000000
vn 0.000000 -1.000000 0.000000
vn 0.000000 -1.000000 0.000000
vn 0.000000 -1.000000 0.000000
vn -0.807060 0.245844 -0.536857
vn -0.165360 0.733009 -0.659813
vn -0.168526 0.101967 -0.980409
vn -0.805675 0.592358 0.000000
vn -0.468666 0.883376 0.000000
vn -0.465224 0.885193 0.000000
vn -0.805675 0.592358 0.000000
vn -0.804688 0.264929 0.531309
vn -0.168457 0.109107 0.979652
vn -0.160009 0.760508 0.629305
vn 0.000000 -1.000000 0.000000
vn 0.000000 -1.000000 0.000000
vn 0.000000 0.092634 -0.995700
vn 0.000000 0.743241 -0.669024
vn 0.000000 1.000000 0.000000
vn 0.000000 1.000000 0.000000
vn 0.000000 0.770435 0.637519
vn 0.000000 0.100689 0.994918
vn -0.053920 0.053918 0.997088
vn -0.018600 0.018599 0.999654
vn -0.241677 0.030468 0.969878
vn -0.540877 0.069333 0.838239
vn 0.241677 0.030468 0.969878
vn 0.000000 0.000000 1.000000
vn 0.000000 0.000000 1.000000
vn 0.018600 0.018599 0.999654
vn 0.540877 0.069333 0.838239
vn 0.053920 0.053918 0.997088
vn 0.998918 0.046517 -0.000000
vn 1.000000 0.000000 0.000000
vn 1.000000 0.000000 0.000000
vn 0.998925 0.046347 -0.000000
vn 0.018599 0.018599 -0.999654
vn 0.241677 0.030468 -0.969878
vn 0.540876 0.069333 -0.838240
vn 0.053918 0.053918 -0.997089
vn 0.000000 0.000000 -1.000000
vn 0.000000 0.000000 -1.000000
vn -0.540876 0.069333 -0.838239
vn -0.241677 0.030468 -0.969878
vn -0.018599 0.018599 -0.999654
vn -0.053919 0.053918 -0.997089
vn -1.000000 0.000000 0.000000
vn -1.000000 0.000000 0.000000
vn -0.998918 0.046517 -0.000000
vn -0.998925 0.046347 -0.000000
vn -0.586709 0.069869 0.806778
vn 0.586708 0.069869 0.806778
vn 0.586708 0.069869 -0.806779
vn -0.586708 0.069869 -0.806778
vn 0.000000 -1.000000 0.000000
vn 0.000000 -1.000000 0.000000
vn 0.000000 0.000000 -1.000000
vn 0.000000 0.000000 -1.000000
vn 0.000000 0.092634 -0.995700
vn 0.000000 0.743241 -0.669024
vn 0.000000 1.000000 0.000000
vn 0.000000 1.000000 0.000000
vn 0.000000 0.100689 0.994918
vn 0.000000 0.770435 0.637519
vn 0.000000 0.000000 1.000000
vn 0.000000 0.000000 1.000000
vn 0.000000 -1.000000 0.000000
vn 0.000000 -1.000000 0.000000
vn 0.000000 0.000000 -1.000000
vn 0.000000 0.000000 -1.000000
vn 0.000000 0.128541 -0.991704
vn 0.000000 0.743241 -0.669024
vn 0.000000 1.000000 0.000000
vn 0.000000 1.000000 0.000000
vn 0.000000 0.105682 0.994400
vn 0.000000 0.770435 0.637519
vn 0.000000 0.000000 1.000000
vn 0.000000 0.000000 1.000000
vn 0.000000 -1.000000 0.000000
vn 0.000000 -1.000000 0.000000
vn 0.000000 0.000000 -1.000000
vn 0.000000 0.000000 -1.000000
vn 0.000000 0.000000 -1.000000
vn 0.000000 0.000000 -1.000000
vn 0.000000 0.128541 -0.991704
vn 0.000000 0.311768 -0.950158
vn 0.000000 0.743241 -0.669024
vn 0.000000 0.311799 -0.950148
vn 0.000000 1.000000 0.000000
vn 0.000000 1.000000 0.000000
vn 0.000000 0.105682 0.994400
vn 0.000000 0.770435 0.637518
vn 0.000000 0.000000 1.000000
vn 0.000000 0.000000 1.000000
vn -0.805675 0.592358 0.000000
vn -0.469990 0.882671 0.000000
vn -0.471900 0.881652 0.000000
vn -0.805675 0.592358 0.000000
vn 0.000000 1.000000 0.000000
vn 0.000000 1.000000 0.000000
vn 0.000000 1.000000 0.000000
vn 0.000000 1.000000 0.000000
vn 0.000000 1.000000 0.000000
vn 0.000000 1.000000 0.000000
vn 0.000000 1.000000 0.000000
vn 0.000000 1.000000 0.000000
vn 0.471900 0.881652 0.000000
vn 0.469990 0.882672 0.000000
vn 0.805675 0.592358 0.000000
vn 0.805675 0.592358 0.000000
vn 0.998876 0.047403 -0.000000
vn 0.998883 0.047261 -0.000000
vn 1.000000 0.000001 0.000000
vn 1.000000 -0.000000 0.000000
vn 0.998925 0.046347 -0.000000
vn 0.998918 0.046517 -0.000000
vn 1.000000 0.000000 0.000000
vn 1.000000 0.000000 0.000000
vn 0.000000 -1.000000 0.000000
vn 0.000000 -1.000000 0.000000
vn 0.000000 -1.000000 0.000000
vn 0.000000 -1.000000 0.000000
vn 0.000000 -1.000000 0.000000
vn 0.000000 -1.000000 0.000000
vn 0.000000 -1.000000 0.000000
vn 0.000000 -1.000000 0.000000
vn 0.000000 -1.000000 0.000000
vn 0.000000 -1.000000 0.000000
vn 0.000000 -1.000000 0.000000
vn 0.000000 -1.000000 0.000000
vn 0.000000 -1.000000 0.000000
vn 0.000000 -1.000000 0.000000
vn 0.000000 -1.000000 0.000000
vn 0.000000 -1.000000 0.000000
vn -0.998918 0.046517 -0.000000
vn -1.000000 0.000000 0.000000
vn -1.000000 0.000000 0.000000
vn -0.998925 0.046347 0.000000
vn -0.998883 0.047261 -0.000000
vn -0.998876 0.047403 0.000000
vn -1.000000 0.000001 0.000000
vn -1.000000 0.000000 0.000000
vn 0.000000 1.000000 0.000000
vn 0.000000 1.000000 0.000000
vn 0.000000 1.000000 0.000000
vn 0.000000 1.000000 0.000000
vn 0.000000 1.000000 0.000000
vn 0.000000 1.000000 0.000000
vn 0.000000 1.000000 0.000000
vn 0.000000 1.000000 0.000000
vn 0.000000 0.000000 1.000000
vn 0.000000 0.000000 1.000000
vn 0.000000 0.000000 1.000000
vn 0.000000 0.000000 1.000000
vn 1.000000 0.000000 0.000000
vn 1.000000 0.000000 0.000000
vn 1.000000 0.000000 0.000000
vn 1.000000 0.000000 0.000000
vn 0.000000 0.000000 -1.000000
vn 0.000000 0.000000 -1.000000
vn 0.000000 0.000000 -1.000000
vn 0.000000 0.000000 -1.000000
vn -1.000000 -0.000000 0.000000
vn -1.000000 -0.000000 0.000000
vn -1.000000 -0.000000 0.000000
vn -1.000000 -0.000000 0.000000
vn 0.000000 0.000000 1.000000
vn 0.000000 0.000000 1.000000
vn 0.000000 0.000000 1.000000
vn 0.000000 0.000000 1.000000
vn 1.000000 0.000000 0.000000
vn 1.000000 0.000000 0.000000
vn 1.000000 0.000000 0.000000
vn 1.000000 0.000000 0.000000
vn 0.000000 0.000000 -1.000000
vn 0.000000 0.000000 -1.000000
vn 0.000000 0.000000 -1.000000
vn 0.000000 0.000000 -1.000000
vn -1.000000 -0.000000 0.000000
vn -1.000000 -0.000000 0.000000
vn -1.000000 -0.000000 0.000000
vn -1.000000 -0.000000 0.000000
vn 0.000000 0.000000 -1.000000
vn 0.000000 0.000000 -1.000000
vn 0.000000 0.000000 -1.000000
vn 0.000000 0.000000 -1.000000
vn -1.000000 0.000000 0.000000
vn -1.000000 0.000000 0.000000
vn -1.000000 0.000000 0.000000
vn -1.000000 0.000000 0.000000
vn 0.000000 1.000000 0.000000
vn 0.000000 1.000000 0.000000
vn 0.000000 1.000000 0.000000
vn 0.000000 1.000000 0.000000
vn 1.000000 0.000000 0.000000
vn 1.000000 0.000000 0.000000
vn 1.000000 0.000000 0.000000
vn 1.000000 0.000000 0.000000
vn 0.000000 -1.000000 0.000000
vn 0.000000 -1.000000 0.000000
vn 0.000000 -1.000000 0.000000
vn 0.000000 -1.000000 0.000000
s 1
g pCube1
usemtl initialShadingGroup
f 16/24/1 27/37/2 4/4/3
s 2
f 15/23/4 91/112/5 92/113/6 6/6/7
s 3
f 6/6/8 30/41/9 15/23/10
s 4
f 95/117/11 96/119/12 14/22/13 8/8/14
s 5
f 92/114/15 93/115/16 29/40/17 6/12/18
s 6
f 32/43/19 104/128/20 85/105/21 5/14/22
s 4
f 7/7/23 10/17/24 101/124/25 102/126/26
s 3
f 5/5/27 11/18/28 31/42/29
s 2
f 85/106/30 86/107/31 11/18/32 5/5/33
s 1
f 3/3/34 26/36/35 12/19/36
s 4
f 96/119/12 97/120/37 58/74/38 14/22/13
s 3
f 30/41/9 60/76/39 61/77/40 15/23/10
s 2
f 61/77/41 90/111/42 91/112/5 15/23/4
s 1
f 62/78/43 63/79/44 27/37/2 16/24/1
f 1/1/45 9/15/46 18/26/47 17/25/48
f 19/27/49 64/80/50 57/72/51 13/20/52
f 20/28/53 19/27/49 13/20/52 2/2/54
s 5
f 94/116/55 95/118/56 8/11/57 21/30/58
s 3
f 14/22/59 22/31/60 21/29/61 8/8/62
f 58/74/63 59/75/64 22/31/60 14/22/59
f 24/34/65 23/32/66 10/17/67 7/7/68
s 6
f 7/13/69 102/125/70 103/127/71 24/33/72
s 1
f 17/25/48 18/26/47 26/36/35 25/35/73
f 27/37/2 63/79/44 64/80/50 19/27/49
f 28/38/74 27/37/2 19/27/49 20/28/53
s 5
f 93/115/16 94/116/55 21/30/58 29/40/17
s 3
f 21/29/61 22/31/60 30/41/9 29/39/75
f 22/31/60 59/75/64 60/76/39 30/41/9
f 32/44/76 31/42/29 23/32/66 24/34/65
s 6
f 24/33/72 103/127/71 104/128/20 32/43/19
s 3
f 5/5/27 31/42/29 32/44/76
s 1
f 25/35/73 26/36/35 3/3/34
f 4/4/3 27/37/2 28/38/74
s 3
f 29/39/75 30/41/9 6/6/8
s 4
f 100/123/77 101/124/25 10/17/24 34/47/78
s 3
f 10/17/67 23/32/66 35/48/79 34/47/80
f 36/49/81 35/48/79 23/32/66 31/42/29
f 37/50/82 36/49/81 31/42/29 11/18/28
s 2
f 11/18/32 86/107/31 87/108/83 37/50/84
s 1
f 12/19/36 26/36/35 39/52/85 38/51/86
f 40/53/87 39/52/85 26/36/35 18/26/47
f 33/45/88 40/53/87 18/26/47 9/15/46
s 4
f 99/122/89 100/123/77 34/47/78 42/56/90
s 3
f 34/47/80 35/48/79 43/57/91 42/56/92
f 44/58/93 43/57/91 35/48/79 36/49/81
f 45/59/94 44/58/93 36/49/81 37/50/82
s 2
f 37/50/84 87/108/83 88/109/95 45/59/96
s 1
f 38/51/86 39/52/85 47/61/97 46/60/98
f 48/62/99 47/61/97 39/52/85 40/53/87
f 41/54/100 48/62/99 40/53/87 33/45/88
s 4
f 98/121/101 99/122/89 42/56/90 50/65/102
s 3
f 42/56/92 43/57/91 115/139/103 113/137/104 51/66/105 50/65/106
f 52/67/107 51/66/105 113/137/104 114/138/108
f 53/68/109 52/67/107 114/138/108 116/140/110 44/58/93 45/59/94
s 2
f 45/59/96 88/109/95 89/110/111 53/68/112
s 1
f 46/60/98 47/61/97 55/70/113 54/69/114
f 56/71/115 55/70/113 47/61/97 48/62/99
f 49/63/116 56/71/115 48/62/99 41/54/100
s 4
f 97/120/37 98/121/101 50/65/102 58/74/38
s 3
f 50/65/106 51/66/105 59/75/64 58/74/63
f 60/76/39 59/75/64 51/66/105 52/67/107
f 61/77/40 60/76/39 52/67/107 53/68/109
s 2
f 53/68/112 89/110/111 90/111/42 61/77/41
s 1
f 54/69/114 55/70/113 63/79/44 62/78/43
f 64/80/50 63/79/44 55/70/113 56/71/115
f 57/72/51 64/80/50 56/71/115 49/63/116
s 2
f 3/3/117 12/19/118 66/83/119 65/82/120
f 67/84/121 66/83/119 12/19/118 38/51/122
f 68/85/123 67/84/121 38/51/122 46/60/124
f 69/86/125 68/85/123 46/60/124 54/69/126
f 70/87/127 69/86/125 54/69/126 62/78/128
f 71/88/129 70/87/127 62/78/128 16/24/130
f 72/89/131 71/88/129 16/24/130 4/4/132
s 5
f 28/38/133 73/91/134 72/90/135 4/4/136
f 20/28/137 74/92/138 73/91/134 28/38/133
f 2/2/139 75/94/140 74/92/138 20/28/137
s 4
f 13/21/141 76/95/142 75/93/143 2/10/144
f 57/73/145 77/96/146 76/95/142 13/21/141
f 49/64/147 78/97/148 77/96/146 57/73/145
f 41/55/149 79/98/150 78/97/148 49/64/147
f 33/46/151 80/99/152 79/98/150 41/55/149
f 9/16/153 81/100/154 80/99/152 33/46/151
f 82/102/155 81/100/154 9/16/153 1/9/156
s 6
f 83/103/157 82/101/158 1/1/159 17/25/160
f 84/104/161 83/103/157 17/25/160 25/35/162
f 65/81/163 84/104/161 25/35/162 3/3/164
s 2
f 65/82/120 66/83/119 86/107/31 85/106/30
f 87/108/83 86/107/31 66/83/119 67/84/121
s off
f 106/129/165 105/130/166 107/131/167 108/132/168
s 2
f 89/110/111 88/109/95 68/85/123 69/86/125
s off
f 110/133/169 109/134/170 111/135/171 112/136/172
s 2
f 91/112/5 90/111/42 70/87/127 71/88/129
f 92/113/6 91/112/5 71/88/129 72/89/131
s 5
f 72/90/135 73/91/134 93/115/16 92/114/15
f 73/91/134 74/92/138 94/116/55 93/115/16
f 74/92/138 75/94/140 95/118/56 94/116/55
s 4
f 75/93/143 76/95/142 96/119/12 95/117/11
f 76/95/142 77/96/146 97/120/37 96/119/12
f 77/96/146 78/97/148 98/121/101 97/120/37
f 78/97/148 79/98/150 99/122/89 98/121/101
f 79/98/150 80/99/152 100/123/77 99/122/89
f 80/99/152 81/100/154 101/124/25 100/123/77
f 102/126/26 101/124/25 81/100/154 82/102/155
s 6
f 103/127/71 102/125/70 82/101/158 83/103/157
f 104/128/20 103/127/71 83/103/157 84/104/161
f 85/105/21 104/128/20 84/104/161 65/81/163
s off
f 88/109/173 87/108/174 105/130/175 106/129/176
f 87/108/177 67/84/178 107/131/179 105/130/180
f 67/84/181 68/85/182 108/132/183 107/131/184
f 68/85/185 88/109/186 106/129/187 108/132/188
f 90/111/189 89/110/190 109/134/191 110/133/192
f 89/110/193 69/86/194 111/135/195 109/134/196
f 69/86/197 70/87/198 112/136/199 111/135/200
f 70/87/201 90/111/202 110/133/203 112/136/204
f 118/141/205 117/142/206 119/143/207 120/144/208
s 3
f 116/140/110 115/139/103 43/57/91 44/58/93
s off
f 114/138/209 113/137/210 117/142/211 118/141/212
f 113/137/213 115/139/214 119/143/215 117/142/216
f 115/139/217 116/140/218 120/144/219 119/143/220
f 116/140/221 114/138/222 118/141/223 120/144/224
g default
v -1.016137 6.927968 -9.972664
v -1.016137 7.011339 -9.889293
v -1.099508 7.011339 -9.972664
v 1.099508 7.011339 -9.972664
v 1.016137 7.011339 -9.889293
v 1.016137 6.927968 -9.972664
v -1.099508 7.178114 -9.972664
v -1.016137 7.178114 -9.889293
v -1.016137 7.261486 -9.972664
v 1.016137 7.261486 -9.972664
v 1.016137 7.178114 -9.889293
v 1.099508 7.178114 -9.972664
v -1.099508 7.178114 -10.805922
v -1.016137 7.261486 -10.805922
v -1.016137 7.178114 -10.889293
v 1.016137 7.178114 -10.889293
v 1.016137 7.261486 -10.805922
v 1.099508 7.178114 -10.805922
v -1.099508 7.011339 -10.805922
v -1.016137 7.011339 -10.889293
v -1.016137 6.927968 -10.805922
v 1.016137 6.927968 -10.805922
v 1.016137 7.011339 -10.889293
v 1.099508 7.011339 -10.805922
vt 0.384478 0.979157
vt 0.375000 0.979157
vt 0.375000 0.770843
vt 0.384478 0.000000
vt 0.384478 0.062494
vt 0.625000 0.979157
vt 0.615522 0.979157
vt 0.625000 0.770843
vt 0.645843 0.062494
vt 0.375000 0.270843
vt 0.375000 0.479157
vt 0.384478 0.187506
vt 0.615522 0.187506
vt 0.625000 0.270843
vt 0.375000 0.562494
vt 0.375000 0.687506
vt 0.384478 0.479157
vt 0.615522 0.479157
vt 0.625000 0.562494
vt 0.625000 0.687506
vt 0.384478 0.687506
vt 0.615522 0.687506
vt 0.615522 0.770843
vt 0.615522 0.062494
vt 0.384478 0.270843
vt 0.615522 0.270843
vt 0.384478 0.562494
vt 0.615522 0.562494
vt 0.384478 0.770843
vt 0.854157 0.062494
vt 0.854157 0.187506
vt 0.145843 0.062494
vt 0.354157 0.062494
vt 0.354157 0.187506
vt 0.145843 0.187506
vt 0.615522 0.000000
vt 0.645843 0.187506
vt 0.625000 0.479157
vn -0.707105 -0.707109 0.000000
vn -0.707105 -0.707109 0.000000
vn -0.707105 -0.707109 0.000000
vn -0.707105 -0.707109 0.000000
vn 0.000000 -0.707108 0.707106
vn 0.000000 -0.707108 0.707106
vn 0.000000 -0.707108 0.707106
vn 0.000000 -0.707108 0.707106
vn -0.707106 0.000000 0.707108
vn -0.707106 0.000000 0.707108
vn -0.707106 0.000000 0.707108
vn -0.707106 0.000000 0.707108
vn 0.707105 -0.707109 0.000000
vn 0.707105 -0.707109 0.000000
vn 0.707105 -0.707109 0.000000
vn 0.707105 -0.707109 0.000000
vn 0.707106 0.000000 0.707108
vn 0.707106 0.000000 0.707108
vn 0.707106 0.000000 0.707108
vn 0.707106 0.000000 0.707108
vn -0.707110 0.707104 0.000000
vn -0.707110 0.707104 0.000000
vn -0.707110 0.707104 0.000000
vn -0.707110 0.707104 0.000000
vn 0.000000 0.707102 0.707111
vn 0.000000 0.707102 0.707111
vn 0.000000 0.707102 0.707111
vn 0.000000 0.707102 0.707111
vn 0.707110 0.707104 0.000000
vn 0.707110 0.707104 0.000000
vn 0.707110 0.707104 0.000000
vn 0.707110 0.707104 0.000000
vn -0.707106 0.000000 -0.707108
vn -0.707106 0.000000 -0.707108
vn -0.707106 0.000000 -0.707108
vn -0.707106 0.000000 -0.707108
vn 0.000000 0.707102 -0.707111
vn 0.000000 0.707102 -0.707111
vn 0.000000 0.707102 -0.707111
vn 0.000000 0.707102 -0.707111
vn 0.707106 0.000000 -0.707108
vn 0.707106 0.000000 -0.707108
vn 0.707106 0.000000 -0.707108
vn 0.707106 0.000000 -0.707108
vn 0.000000 -0.707108 -0.707106
vn 0.000000 -0.707108 -0.707106
vn 0.000000 -0.707108 -0.707106
vn 0.000000 -0.707108 -0.707106
vn 0.000000 0.000000 1.000000
vn 0.000000 0.000000 1.000000
vn 0.000000 0.000000 1.000000
vn 0.000000 0.000000 1.000000
vn 0.000000 1.000000 0.000000
vn 0.000000 1.000000 0.000000
vn 0.000000 1.000000 0.000000
vn 0.000000 1.000000 0.000000
vn 0.000000 0.000000 -1.000000
vn 0.000000 0.000000 -1.000000
vn 0.000000 0.000000 -1.000000
vn 0.000000 0.000000 -1.000000
vn 0.000000 -1.000000 0.000000
vn 0.000000 -1.000000 0.000000
vn 0.000000 -1.000000 0.000000
vn 0.000000 -1.000000 0.000000
vn 1.000000 0.000000 0.000000
vn 1.000000 0.000000 0.000000
vn 1.000000 0.000000 0.000000
vn 1.000000 0.000000 0.000000
vn -1.000000 0.000000 0.000000
vn -1.000000 0.000000 0.000000
vn -1.000000 0.000000 0.000000
vn -1.000000 0.000000 0.000000
vn -0.577348 -0.577352 0.577350
vn -0.577348 -0.577352 0.577350
vn -0.577348 -0.577352 0.577350
vn 0.577348 -0.577352 0.577350
vn 0.577348 -0.577352 0.577350
vn 0.577348 -0.577352 0.577350
vn -0.577351 0.577346 0.577353
vn -0.577351 0.577346 0.577353
vn -0.577351 0.577346 0.577353
vn 0.577351 0.577346 0.577353
vn 0.577351 0.577346 0.577353
vn 0.577351 0.577346 0.577353
vn -0.577351 0.577346 -0.577353
vn -0.577351 0.577346 -0.577353
vn -0.577351 0.577346 -0.577353
vn 0.577351 0.577346 -0.577353
vn 0.577351 0.577346 -0.577353
vn 0.577351 0.577346 -0.577353
vn -0.577348 -0.577352 -0.577350
vn -0.577348 -0.577352 -0.577350
vn -0.577348 -0.577352 -0.577350
vn 0.577348 -0.577352 -0.577350
vn 0.577348 -0.577352 -0.577350
vn 0.577348 -0.577352 -0.577350
s off
g pCube2
usemtl initialShadingGroup
f 121/145/225 123/146/226 139/147/227 141/173/228
f 122/149/229 121/148/230 126/180/231 125/168/232
f 123/177/233 122/149/234 128/156/235 127/178/236
f 124/150/237 126/151/238 142/167/239 144/152/240
f 125/168/241 124/153/242 132/181/243 131/157/244
f 127/154/245 129/169/246 134/161/247 133/155/248
f 129/169/249 128/156/250 131/157/251 130/170/252
f 130/170/253 132/158/254 138/182/255 137/162/256
f 133/159/257 135/171/258 140/165/259 139/160/260
f 135/171/261 134/161/262 137/162/263 136/172/264
f 136/172/265 138/163/266 144/164/267 143/166/268
f 141/173/269 140/165/270 143/166/271 142/167/272
f 122/149/273 125/168/274 131/157/275 128/156/276
f 129/169/277 130/170/278 137/162/279 134/161/280
f 135/171/281 136/172/282 143/166/283 140/165/284
f 141/173/285 142/167/286 126/151/287 121/145/288
f 124/153/289 144/174/290 138/175/291 132/181/292
f 139/176/293 123/177/294 127/178/295 133/179/296
f 121/148/297 122/149/298 123/177/299
f 124/153/300 125/168/301 126/180/302
f 127/178/303 128/156/304 129/169/305
f 130/170/306 131/157/307 132/181/308
f 133/155/309 134/161/310 135/171/311
f 136/172/312 137/162/313 138/182/314
f 139/160/315 140/165/316 141/173/317
f 142/167/318 143/166/319 144/164/320
