# This file uses centimeters as units for non-parametric coordinates.

mtllib Low_POly_Bread.mtl
g default
v -0.704997 -0.783321 2.243706
v -0.704997 -0.704997 2.322030
v -0.783321 -0.704997 2.243706
v 0.783321 -0.704997 2.243706
v 0.704997 -0.704997 2.322030
v 0.704997 -0.783321 2.243706
v -0.783321 -0.704997 -2.243706
v -0.704997 -0.704997 -2.322030
v -0.704997 -0.783321 -2.243706
v 0.704997 -0.783321 -2.243706
v 0.704997 -0.704997 -2.322030
v 0.783321 -0.704997 -2.243706
v 0.704997 0.514358 2.322030
v 0.783321 0.514358 2.243706
v 0.783321 0.514358 -2.243706
v 0.704997 0.514358 -2.322030
v -0.704997 0.514358 -2.322030
v -0.783321 0.514358 -2.243706
v -0.783321 0.514358 2.243706
v -0.704997 0.514358 2.322030
v -0.895416 0.514358 2.243706
v -0.805883 0.514358 2.322030
v -0.805883 0.704997 2.322030
v -0.895416 0.704997 2.243706
v 0.805883 0.514358 2.322030
v 0.895416 0.514358 2.243706
v 0.895416 0.704997 2.243706
v 0.805883 0.704997 2.322030
v -0.725798 0.884842 2.286846
v -0.725798 0.884842 -2.286846
v -0.895416 0.704997 -2.243706
v 0.725798 0.884842 2.286846
v 0.895416 0.704997 -2.243706
v 0.725798 0.884842 -2.286846
v -0.805883 0.704997 -2.322030
v -0.805883 0.514358 -2.322030
v -0.895416 0.514358 -2.243706
v 0.805883 0.704997 -2.322030
v 0.895416 0.514358 -2.243706
v 0.805883 0.514358 -2.322030
vt 0.387499 0.995784
vt 0.375000 0.995784
vt 0.375000 0.754216
vt 0.387499 0.000000
vt 0.387499 0.012499
vt 0.625000 0.995784
vt 0.612501 0.995784
vt 0.625000 0.754216
vt 0.629216 0.012499
vt 0.375000 0.254216
vt 0.375000 0.495784
vt 0.387499 0.237501
vt 0.612501 0.237501
vt 0.625000 0.254216
vt 0.375000 0.512499
vt 0.375000 0.737501
vt 0.387499 0.495784
vt 0.612501 0.495784
vt 0.625000 0.512499
vt 0.625000 0.737501
vt 0.387499 0.737501
vt 0.612501 0.737501
vt 0.612501 0.754216
vt 0.612501 0.012499
vt 0.387499 0.254216
vt 0.612501 0.254216
vt 0.387499 0.512499
vt 0.612501 0.512499
vt 0.387499 0.754216
vt 0.870784 0.012499
vt 0.870784 0.237501
vt 0.129216 0.012499
vt 0.370784 0.012499
vt 0.370784 0.237501
vt 0.129216 0.237501
vt 0.612501 0.000000
vt 0.629216 0.237501
vt 0.625000 0.495784
vt 0.612501 0.207080
vt 0.629216 0.207080
vt 0.625000 0.542920
vt 0.870784 0.207080
vt 0.612501 0.542920
vt 0.387499 0.542920
vt 0.375000 0.542920
vt 0.129216 0.207080
vt 0.370784 0.207080
vt 0.387499 0.207080
vt 0.370784 0.207080
vt 0.387499 0.207080
vt 0.612501 0.207080
vt 0.629216 0.207080
vt 0.387499 0.542920
vt 0.375000 0.542920
vt 0.625000 0.542920
vt 0.612501 0.542920
vt 0.870784 0.207080
vt 0.129216 0.207080
vn -0.707107 -0.707107 0.000000
vn -0.707107 -0.707107 0.000000
vn -0.707107 -0.707107 0.000000
vn -0.707107 -0.707107 0.000000
vn 0.000000 -0.707107 0.707107
vn 0.000000 -0.707107 0.707107
vn 0.000000 -0.707107 0.707107
vn 0.000000 -0.707107 0.707107
vn -0.658424 0.000000 0.752647
vn -0.658424 0.000000 0.752647
vn -0.658424 0.000000 0.752647
vn -0.658424 0.000000 0.752647
vn 0.707107 -0.707107 0.000000
vn 0.707107 -0.707107 0.000000
vn 0.707107 -0.707107 0.000000
vn 0.707107 -0.707107 0.000000
vn 0.658424 0.000000 0.752647
vn 0.658424 0.000000 0.752647
vn 0.658424 0.000000 0.752647
vn 0.658424 0.000000 0.752647
vn -0.727489 0.686119 0.000000
vn -0.727489 0.686119 0.000000
vn -0.727489 0.686119 0.000000
vn -0.727489 0.686119 0.000000
vn 0.000000 0.191996 0.981396
vn 0.000000 0.191996 0.981396
vn 0.000000 0.191996 0.981396
vn 0.000000 0.191996 0.981396
vn 0.727489 0.686119 0.000000
vn 0.727489 0.686119 0.000000
vn 0.727489 0.686119 0.000000
vn 0.727489 0.686119 0.000000
vn -0.658424 0.000000 -0.752647
vn -0.658424 0.000000 -0.752647
vn -0.658424 0.000000 -0.752647
vn -0.658424 0.000000 -0.752647
vn 0.000000 0.191995 -0.981396
vn 0.000000 0.191995 -0.981396
vn 0.000000 0.191995 -0.981396
vn 0.000000 0.191995 -0.981396
vn 0.658424 0.000000 -0.752647
vn 0.658424 0.000000 -0.752647
vn 0.658424 0.000000 -0.752647
vn 0.658424 0.000000 -0.752647
vn 0.000000 -0.707107 -0.707107
vn 0.000000 -0.707107 -0.707107
vn 0.000000 -0.707107 -0.707107
vn 0.000000 -0.707107 -0.707107
vn 0.000000 0.000000 1.000000
vn 0.000000 0.000000 1.000000
vn 0.000000 0.000000 1.000000
vn 0.000000 0.000000 1.000000
vn 0.000000 1.000000 0.000000
vn 0.000000 1.000000 0.000000
vn 0.000000 1.000000 0.000000
vn 0.000000 1.000000 0.000000
vn 0.000000 0.000000 -1.000000
vn 0.000000 0.000000 -1.000000
vn 0.000000 0.000000 -1.000000
vn 0.000000 0.000000 -1.000000
vn 0.000000 -1.000000 0.000000
vn 0.000000 -1.000000 0.000000
vn 0.000000 -1.000000 0.000000
vn 0.000000 -1.000000 0.000000
vn 1.000000 0.000000 0.000000
vn 1.000000 0.000000 0.000000
vn 1.000000 0.000000 0.000000
vn 1.000000 0.000000 0.000000
vn -1.000000 0.000000 0.000000
vn -1.000000 0.000000 0.000000
vn -1.000000 0.000000 0.000000
vn -1.000000 0.000000 0.000000
vn -0.577351 -0.577350 0.577350
vn -0.577351 -0.577350 0.577350
vn -0.577351 -0.577350 0.577350
vn 0.577351 -0.577350 0.577350
vn 0.577351 -0.577350 0.577350
vn 0.577351 -0.577350 0.577350
vn -0.602568 0.403077 0.688797
vn -0.602568 0.403077 0.688797
vn -0.602568 0.403077 0.688797
vn 0.602568 0.403077 0.688797
vn 0.602568 0.403077 0.688797
vn 0.602568 0.403077 0.688797
vn -0.602569 0.403076 -0.688797
vn -0.602569 0.403076 -0.688797
vn -0.602569 0.403076 -0.688796
vn 0.602569 0.403076 -0.688797
vn 0.602569 0.403076 -0.688797
vn 0.602569 0.403076 -0.688797
vn -0.577351 -0.577350 -0.577350
vn -0.577351 -0.577350 -0.577350
vn -0.577351 -0.577350 -0.577350
vn 0.577351 -0.577350 -0.577350
vn 0.577351 -0.577350 -0.577350
vn 0.577351 -0.577350 -0.577350
vn 0.707106 0.000000 0.707107
vn 0.707106 0.000000 0.707107
vn 0.707106 0.000000 0.707107
vn 0.707106 0.000000 0.707107
vn 1.000000 0.000000 0.000000
vn 1.000000 0.000000 0.000000
vn 1.000000 0.000000 0.000000
vn 1.000000 0.000000 0.000000
vn 0.707106 0.000000 -0.707107
vn 0.707106 0.000000 -0.707107
vn 0.707106 0.000000 -0.707107
vn 0.707106 0.000000 -0.707107
vn 0.000000 0.000000 -1.000000
vn 0.000000 0.000000 -1.000000
vn 0.000000 0.000000 -1.000000
vn 0.000000 0.000000 -1.000000
vn -0.707106 0.000000 -0.707107
vn -0.707106 0.000000 -0.707107
vn -0.707106 0.000000 -0.707107
vn -0.707106 0.000000 -0.707107
vn -1.000000 0.000000 0.000000
vn -1.000000 0.000000 0.000000
vn -1.000000 0.000000 0.000000
vn -1.000000 0.000000 0.000000
vn -0.707106 0.000000 0.707107
vn -0.707106 0.000000 0.707107
vn -0.707106 0.000000 0.707107
vn -0.707106 0.000000 0.707107
vn 0.000000 0.000000 1.000000
vn 0.000000 0.000000 1.000000
vn 0.000000 0.000000 1.000000
vn 0.000000 0.000000 1.000000
vn 0.000000 -1.000000 0.000000
vn 0.000000 -1.000000 0.000000
vn 0.000000 -1.000000 0.000000
vn 0.000000 -1.000000 0.000000
vn 0.000000 -1.000000 0.000001
vn 0.000000 -1.000000 0.000001
vn 0.000000 -1.000000 0.000001
vn 0.000000 -1.000000 0.000001
vn 0.000000 -1.000000 -0.000001
vn 0.000000 -1.000000 -0.000001
vn 0.000000 -1.000000 -0.000001
vn 0.000000 -1.000000 -0.000001
vn 0.000000 -1.000000 0.000000
vn 0.000000 -1.000000 0.000000
vn 0.000000 -1.000000 0.000000
vn 0.000000 -1.000000 0.000000
vn 0.000000 0.000000 0.000000
vn 0.000000 0.000000 0.000000
vn 0.000000 0.000000 0.000000
vn 0.000000 0.000000 0.000000
vn 0.000000 0.000000 -0.000000
vn 0.000000 0.000000 -0.000000
vn 0.000000 0.000000 -0.000000
vn 0.000000 0.000000 -0.000000
vn 0.000000 -1.000000 0.000000
vn 0.000000 -1.000000 0.000000
vn 0.000000 -1.000000 0.000000
vn 0.000000 -1.000000 0.000000
vn 0.000000 -1.000000 0.000000
vn 0.000000 -1.000000 0.000000
vn 0.000000 -1.000000 0.000000
vn 0.000000 -1.000000 0.000000
s off
g Bread_Loaf
usemtl initialShadingGroup
f 1/1/1 3/2/2 7/3/3 9/29/4
f 2/5/5 1/4/6 6/36/7 5/24/8
f 21/49/9 22/50/10 23/12/11 24/34/12
f 4/6/13 6/7/14 10/23/15 12/8/16
f 25/51/17 26/52/18 27/37/19 28/13/20
f 24/10/21 29/25/22 30/17/23 31/11/24
f 29/25/25 23/12/26 28/13/27 32/26/28
f 32/26/29 27/14/30 33/38/31 34/18/32
f 31/15/33 35/27/34 36/53/35 37/54/36
f 35/27/37 30/17/38 34/18/39 38/28/40
f 38/28/41 33/19/42 39/55/43 40/56/44
f 9/29/45 8/21/46 11/22/47 10/23/48
f 22/50/49 25/51/50 28/13/51 23/12/52
f 29/25/53 32/26/54 34/18/55 30/17/56
f 35/27/57 38/28/58 40/56/59 36/53/60
f 9/29/61 10/23/62 6/7/63 1/1/64
f 26/52/65 39/57/66 33/31/67 27/37/68
f 37/58/69 21/49/70 24/34/71 31/35/72
f 1/4/73 2/5/74 3/33/75
f 4/9/76 5/24/77 6/36/78
f 24/34/79 23/12/80 29/25/81
f 32/26/82 28/13/83 27/37/84
f 31/11/85 30/17/86 35/27/87
f 38/28/88 34/18/89 33/38/90
f 7/16/91 8/21/92 9/29/93
f 10/23/94 11/22/95 12/20/96
f 5/24/97 4/9/98 14/40/99 13/39/100
f 4/9/101 12/30/102 15/42/103 14/40/104
f 16/43/105 15/41/106 12/20/107 11/22/108
f 17/44/109 16/43/110 11/22/111 8/21/112
f 18/45/113 17/44/114 8/21/115 7/16/116
f 7/32/117 3/33/118 19/47/119 18/46/120
f 3/33/121 2/5/122 20/48/123 19/47/124
f 2/5/125 5/24/126 13/39/127 20/48/128
f 19/47/129 20/48/130 22/50/131 21/49/132
f 13/39/133 14/40/134 26/52/135 25/51/136
f 17/44/137 18/45/138 37/54/139 36/53/140
f 15/41/141 16/43/142 40/56/143 39/55/144
f 20/48/145 13/39/146 25/51/147 22/50/148
f 16/43/149 17/44/150 36/53/151 40/56/152
f 14/40/153 15/42/154 39/57/155 26/52/156
f 18/46/157 19/47/158 21/49/159 37/58/160
g default
v -1.895242 -0.748107 -3.810783
v -1.935623 -0.750992 -3.743671
v -2.002735 -0.748107 -3.784053
v -0.660363 -0.748107 -2.976339
v -0.727474 -0.750992 -3.016720
v -0.687093 -0.748107 -3.083832
v -2.002735 -0.582831 -3.784053
v -1.935623 -0.579946 -3.743671
v -1.895242 -0.582831 -3.810783
v -0.687093 -0.582831 -3.083832
v -0.727474 -0.579946 -3.016720
v -0.660363 -0.582831 -2.976339
v -1.356138 -0.750992 -1.971919
v -1.289026 -0.748107 -1.931538
v -1.289026 -0.582831 -1.931538
v -1.356138 -0.579946 -1.971919
v -2.564287 -0.579946 -2.698870
v -2.631399 -0.582831 -2.739252
v -2.631399 -0.748107 -2.739252
v -2.564287 -0.750992 -2.698870
v -2.727447 -0.748107 -2.797045
v -2.650731 -0.750992 -2.750884
v -2.749018 -0.750992 -2.587536
v -2.825734 -0.748107 -2.633697
v -1.269693 -0.750992 -1.919905
v -1.192978 -0.748107 -1.873745
v -1.291265 -0.748107 -1.710397
v -1.367981 -0.750992 -1.756557
v -2.773120 -0.749696 -2.392147
v -2.773120 -0.581242 -2.392147
v -2.825734 -0.582831 -2.633697
v -1.529324 -0.749696 -1.643747
v -1.291265 -0.582831 -1.710397
v -1.529324 -0.581242 -1.643747
v -2.749018 -0.579946 -2.587536
v -2.650731 -0.579946 -2.750884
v -2.727447 -0.582831 -2.797045
v -1.367981 -0.579946 -1.756557
v -1.192978 -0.582831 -1.873745
v -1.269693 -0.579946 -1.919905
vt 0.387499 0.995784
vt 0.375000 0.995784
vt 0.375000 0.754216
vt 0.387499 0.000000
vt 0.387499 0.012499
vt 0.625000 0.995784
vt 0.612501 0.995784
vt 0.625000 0.754216
vt 0.629216 0.012499
vt 0.375000 0.254216
vt 0.375000 0.495784
vt 0.387499 0.237501
vt 0.612501 0.237501
vt 0.625000 0.254216
vt 0.375000 0.512499
vt 0.375000 0.737501
vt 0.387499 0.495784
vt 0.612501 0.495784
vt 0.625000 0.512499
vt 0.625000 0.737501
vt 0.387499 0.737501
vt 0.612501 0.737501
vt 0.612501 0.754216
vt 0.612501 0.012499
vt 0.387499 0.254216
vt 0.612501 0.254216
vt 0.387499 0.512499
vt 0.612501 0.512499
vt 0.387499 0.754216
vt 0.870784 0.012499
vt 0.870784 0.237501
vt 0.129216 0.012499
vt 0.370784 0.012499
vt 0.370784 0.237501
vt 0.129216 0.237501
vt 0.612501 0.000000
vt 0.629216 0.237501
vt 0.625000 0.495784
vt 0.612501 0.207080
vt 0.629216 0.207080
vt 0.625000 0.542920
vt 0.870784 0.207080
vt 0.612501 0.542920
vt 0.387499 0.542920
vt 0.375000 0.542920
vt 0.129216 0.207080
vt 0.370784 0.207080
vt 0.387499 0.207080
vt 0.370784 0.207080
vt 0.387499 0.207080
vt 0.612501 0.207080
vt 0.629216 0.207080
vt 0.387499 0.542920
vt 0.375000 0.542920
vt 0.625000 0.542920
vt 0.612501 0.542920
vt 0.870784 0.207080
vt 0.129216 0.207080
vn -0.241319 0.000000 -0.970446
vn -0.241319 0.000000 -0.970446
vn -0.241319 0.000000 -0.970446
vn -0.241319 0.000000 -0.970446
vn 0.018976 -0.999322 -0.031537
vn 0.018976 -0.999322 -0.031537
vn 0.018976 -0.999322 -0.031537
vn 0.018976 -0.999322 -0.031537
vn -0.027594 -0.999481 -0.016603
vn -0.027594 -0.999481 -0.016603
vn -0.027594 -0.999481 -0.016603
vn -0.027594 -0.999481 -0.016603
vn 0.970446 -0.000000 -0.241319
vn 0.970446 -0.000000 -0.241319
vn 0.970446 -0.000000 -0.241319
vn 0.970446 -0.000000 -0.241319
vn 0.027594 -0.999481 0.016603
vn 0.027594 -0.999481 0.016603
vn 0.027594 -0.999481 0.016603
vn 0.027594 -0.999481 0.016603
vn -0.977090 0.000000 0.212827
vn -0.977090 0.000000 0.212828
vn -0.977090 0.000000 0.212827
vn -0.977090 0.000000 0.212827
vn -0.003715 -0.999974 0.006174
vn -0.003715 -0.999974 0.006174
vn -0.003715 -0.999974 0.006174
vn -0.003715 -0.999974 0.006174
vn 0.269604 0.000000 0.962971
vn 0.269605 0.000000 0.962971
vn 0.269604 0.000000 0.962971
vn 0.269605 0.000000 0.962971
vn -0.027594 0.999481 -0.016603
vn -0.027594 0.999481 -0.016603
vn -0.027594 0.999481 -0.016603
vn -0.027594 0.999481 -0.016603
vn -0.003715 0.999974 0.006174
vn -0.003715 0.999974 0.006174
vn -0.003715 0.999974 0.006174
vn -0.003715 0.999974 0.006174
vn 0.027594 0.999481 0.016603
vn 0.027594 0.999481 0.016603
vn 0.027594 0.999481 0.016603
vn 0.027594 0.999481 0.016603
vn 0.018976 0.999322 -0.031537
vn 0.018976 0.999322 -0.031537
vn 0.018976 0.999322 -0.031537
vn 0.018976 0.999322 -0.031537
vn 0.000000 -1.000000 0.000000
vn 0.000000 -1.000000 0.000000
vn 0.000000 -1.000000 0.000000
vn 0.000000 -1.000000 0.000000
vn -0.515570 0.000000 0.856847
vn -0.515570 0.000000 0.856847
vn -0.515570 0.000000 0.856847
vn -0.515570 0.000000 0.856847
vn 0.000000 1.000000 0.000000
vn 0.000000 1.000000 0.000000
vn 0.000000 1.000000 0.000000
vn 0.000000 1.000000 0.000000
vn 0.515570 -0.000000 -0.856847
vn 0.515570 -0.000000 -0.856847
vn 0.515570 -0.000000 -0.856847
vn 0.515570 -0.000000 -0.856847
vn 0.856847 0.000000 0.515570
vn 0.856847 0.000000 0.515570
vn 0.856847 0.000000 0.515570
vn 0.856847 0.000000 0.515570
vn -0.856847 0.000000 -0.515570
vn -0.856847 0.000000 -0.515570
vn -0.856847 0.000000 -0.515570
vn -0.856847 0.000000 -0.515570
vn -0.012553 -0.998646 -0.050479
vn -0.012553 -0.998646 -0.050479
vn -0.012553 -0.998646 -0.050479
vn 0.050479 -0.998646 -0.012553
vn 0.050479 -0.998646 -0.012553
vn 0.050479 -0.998646 -0.012553
vn -0.038691 -0.999249 0.001855
vn -0.038691 -0.999249 0.001855
vn -0.038691 -0.999249 0.001855
vn 0.016483 -0.999249 0.035053
vn 0.016483 -0.999249 0.035053
vn 0.016483 -0.999249 0.035053
vn -0.038691 0.999249 0.001855
vn -0.038691 0.999249 0.001855
vn -0.038691 0.999249 0.001855
vn 0.016483 0.999249 0.035053
vn 0.016483 0.999249 0.035053
vn 0.016483 0.999249 0.035053
vn -0.012553 0.998646 -0.050479
vn -0.012553 0.998646 -0.050479
vn -0.012553 0.998646 -0.050479
vn 0.050479 0.998646 -0.012553
vn 0.050479 0.998646 -0.012553
vn 0.050479 0.998646 -0.012553
vn 0.031537 -0.999322 0.018976
vn 0.031537 -0.999322 0.018976
vn 0.031537 -0.999322 0.018976
vn 0.031537 -0.999322 0.018976
vn 0.856847 0.000000 0.515570
vn 0.856847 0.000000 0.515570
vn 0.856847 0.000000 0.515570
vn 0.856847 0.000000 0.515570
vn 0.031537 0.999322 0.018976
vn 0.031537 0.999322 0.018976
vn 0.031537 0.999322 0.018976
vn 0.031537 0.999322 0.018976
vn 0.000000 1.000000 0.000000
vn 0.000000 1.000000 0.000000
vn 0.000000 1.000000 0.000000
vn 0.000000 1.000000 0.000000
vn -0.031537 0.999322 -0.018976
vn -0.031537 0.999322 -0.018976
vn -0.031537 0.999322 -0.018976
vn -0.031537 0.999322 -0.018976
vn -0.856847 0.000000 -0.515570
vn -0.856847 0.000000 -0.515570
vn -0.856847 0.000000 -0.515570
vn -0.856847 0.000000 -0.515570
vn -0.031537 -0.999322 -0.018976
vn -0.031537 -0.999322 -0.018976
vn -0.031537 -0.999322 -0.018976
vn -0.031537 -0.999322 -0.018976
vn 0.000000 -1.000000 0.000000
vn 0.000000 -1.000000 0.000000
vn 0.000000 -1.000000 0.000000
vn 0.000000 -1.000000 0.000000
vn 0.515570 -0.000000 -0.856847
vn 0.515570 -0.000000 -0.856847
vn 0.515570 -0.000000 -0.856847
vn 0.515570 -0.000000 -0.856847
vn 0.515570 -0.000015 -0.856847
vn 0.515570 -0.000015 -0.856847
vn 0.515570 -0.000015 -0.856847
vn 0.515570 -0.000015 -0.856847
vn 0.515570 0.000015 -0.856847
vn 0.515570 0.000015 -0.856847
vn 0.515570 0.000015 -0.856847
vn 0.515570 0.000015 -0.856847
vn 0.515570 -0.000000 -0.856847
vn 0.515570 -0.000000 -0.856847
vn 0.515570 -0.000000 -0.856847
vn 0.515570 -0.000000 -0.856847
vn 0.000000 -0.000000 0.000000
vn 0.000000 -0.000000 0.000000
vn 0.000000 -0.000000 0.000000
vn 0.000000 -0.000000 0.000000
vn 0.000000 0.000000 0.000000
vn 0.000000 0.000000 0.000000
vn 0.000000 0.000000 0.000000
vn 0.000000 0.000000 0.000000
vn 0.515570 -0.000000 -0.856847
vn 0.515570 -0.000000 -0.856847
vn 0.515570 -0.000000 -0.856847
vn 0.515570 -0.000000 -0.856847
vn 0.515570 -0.000000 -0.856847
vn 0.515570 -0.000000 -0.856847
vn 0.515570 -0.000000 -0.856847
vn 0.515570 -0.000000 -0.856847
s off
g Bread_Slice
usemtl initialShadingGroup
f 41/59/161 43/60/162 47/61/163 49/87/164
f 42/63/165 41/62/166 46/94/167 45/82/168
f 61/107/169 62/108/170 63/70/171 64/92/172
f 44/64/173 46/65/174 50/81/175 52/66/176
f 65/109/177 66/110/178 67/95/179 68/71/180
f 64/68/181 69/83/182 70/75/183 71/69/184
f 69/83/185 63/70/186 68/71/187 72/84/188
f 72/84/189 67/72/190 73/96/191 74/76/192
f 71/73/193 75/85/194 76/111/195 77/112/196
f 75/85/197 70/75/198 74/76/199 78/86/200
f 78/86/201 73/77/202 79/113/203 80/114/204
f 49/87/205 48/79/206 51/80/207 50/81/208
f 62/108/209 65/109/210 68/71/211 63/70/212
f 69/83/213 72/84/214 74/76/215 70/75/216
f 75/85/217 78/86/218 80/114/219 76/111/220
f 49/87/221 50/81/222 46/65/223 41/59/224
f 66/110/225 79/115/226 73/89/227 67/95/228
f 77/116/229 61/107/230 64/92/231 71/93/232
f 41/62/233 42/63/234 43/91/235
f 44/67/236 45/82/237 46/94/238
f 64/92/239 63/70/240 69/83/241
f 72/84/242 68/71/243 67/95/244
f 71/69/245 70/75/246 75/85/247
f 78/86/248 74/76/249 73/96/250
f 47/74/251 48/79/252 49/87/253
f 50/81/254 51/80/255 52/78/256
f 45/82/257 44/67/258 54/98/259 53/97/260
f 44/67/261 52/88/262 55/100/263 54/98/264
f 56/101/265 55/99/266 52/78/267 51/80/268
f 57/102/269 56/101/270 51/80/271 48/79/272
f 58/103/273 57/102/274 48/79/275 47/74/276
f 47/90/277 43/91/278 59/105/279 58/104/280
f 43/91/281 42/63/282 60/106/283 59/105/284
f 42/63/285 45/82/286 53/97/287 60/106/288
f 59/105/289 60/106/290 62/108/291 61/107/292
f 53/97/293 54/98/294 66/110/295 65/109/296
f 57/102/297 58/103/298 77/112/299 76/111/300
f 55/99/301 56/101/302 80/114/303 79/113/304
f 60/106/305 53/97/306 65/109/307 62/108/308
f 56/101/309 57/102/310 76/111/311 80/114/312
f 54/98/313 55/100/314 79/115/315 66/110/316
f 58/104/317 59/105/318 61/107/319 77/116/320
