# This file uses centimeters as units for non-parametric coordinates.

v -0.049540 -0.003351 0.443225
v 0.049540 -0.003351 0.443225
v -0.049540 0.013097 0.443225
v 0.049540 0.013097 0.443225
v -0.050590 0.055816 -1.057366
v 0.050590 0.055816 -1.057366
v -0.050590 0.044071 -1.057366
v 0.050590 0.044071 -1.057366
v -0.118852 0.055535 -0.607188
v 0.118852 0.055535 -0.607188
v 0.118852 0.043782 -0.607188
v -0.118852 0.043782 -0.607188
v -0.050272 0.045903 -0.525551
v 0.050272 0.045903 -0.525551
v 0.050272 0.034216 -0.525551
v -0.050272 0.034216 -0.525551
v -0.214831 0.042597 -0.814305
v 0.207077 0.042011 -0.814305
v 0.214831 0.054373 -0.814305
v -0.214831 0.054373 -0.814305
v -0.167828 0.044209 -1.006131
v 0.167828 0.044209 -1.006131
v 0.167828 0.055938 -1.006131
v -0.167828 0.055938 -1.006131
v 0.000000 -0.026258 0.443225
v 0.000000 0.004749 -0.525551
v 0.000000 -0.012773 -0.607188
v -0.003877 -0.041514 -0.814305
v 0.000000 -0.006015 -1.006131
v 0.000000 0.043642 -1.066741
v 0.000000 0.055817 -1.066741
v 0.000000 0.028703 -1.006131
v 0.000000 -0.009149 -0.814305
v 0.000000 0.021416 -0.607188
v -0.000000 0.039317 -0.525551
v 0.000000 0.026258 0.443225
v -0.024770 -0.026258 0.443225
v -0.027282 0.020594 -0.525551
v -0.087539 0.015761 -0.607188
v -0.171190 0.014426 -0.814305
v -0.129621 0.018368 -1.006131
v -0.026300 0.044071 -1.063948
v -0.025295 0.055817 -1.063948
v -0.126197 0.039808 -1.006131
v -0.167922 0.034590 -0.814305
v -0.081037 0.037400 -0.607188
v -0.020223 0.041713 -0.525551
v -0.024770 0.026258 0.443225
v 0.084529 0.014950 -0.607188
v 0.028397 0.023690 -0.525551
v 0.019816 -0.026258 0.443225
v 0.019816 0.026258 0.443225
v 0.026232 0.042634 -0.525551
v 0.078711 0.038031 -0.607188
v 0.148975 0.029731 -0.814305
v 0.115191 0.039370 -1.006131
v 0.022789 0.055817 -1.063948
v 0.031016 0.042655 -1.063948
v 0.119830 0.015498 -1.006131
v 0.142969 0.003100 -0.814305
v -0.183268 0.055070 -0.690035
v -0.134955 0.035693 -0.690035
v 0.000000 0.010428 -0.690035
v 0.124495 0.033985 -0.690035
v 0.183268 0.055070 -0.690035
v 0.179653 0.043103 -0.690035
v 0.125764 0.009679 -0.690035
v -0.001808 -0.023233 -0.690035
v -0.141026 0.014812 -0.690035
v -0.183268 0.043308 -0.690035
v 0.205933 0.055156 -0.910218
v 0.201759 0.043147 -0.910218
v 0.141428 0.008233 -0.910218
v -0.002087 -0.027245 -0.910218
v -0.161885 0.015968 -0.910218
v -0.205933 0.043403 -0.910218
v -0.205933 0.055156 -0.910218
v -0.158284 0.036553 -0.910218
v 0.000000 0.006414 -0.910218
v 0.142164 0.033134 -0.910218
v -0.112767 0.044144 -1.035006
v -0.081096 0.028965 -1.035006
v -0.000000 0.018538 -1.035006
v 0.078118 0.028933 -1.035006
v 0.112767 0.044158 -1.035006
v 0.112767 0.055881 -1.035006
v 0.071794 0.044166 -1.035006
v -0.000000 0.038455 -1.035006
v -0.078808 0.043838 -1.035006
v -0.112767 0.055881 -1.035006
v -0.038389 0.048628 -0.479465
v -0.020473 0.048289 -0.479329
v -0.000000 0.046817 -0.478737
v 0.025879 0.048642 -0.479471
v 0.038389 0.048628 -0.479465
v 0.038389 0.037554 -0.475007
v 0.027926 0.028559 -0.471387
v 0.000000 0.012958 -0.465106
v -0.027144 0.025920 -0.470324
v -0.038389 0.037554 -0.475007
vt 0.375000 0.000000
vt 0.625000 0.000000
vt 0.375000 0.250000
vt 0.625000 0.250000
vt 0.375000 0.500000
vt 0.625000 0.500000
vt 0.375000 0.750000
vt 0.625000 0.750000
vt 0.375000 1.000000
vt 0.625000 1.000000
vt 0.875000 0.000000
vt 0.875000 0.250000
vt 0.125000 0.000000
vt 0.125000 0.250000
vt 0.200000 0.250000
vt 0.375000 0.425000
vt 0.625000 0.425000
vt 0.800000 0.250000
vt 0.625000 0.825000
vt 0.800000 0.000000
vt 0.200000 0.000000
vt 0.375000 0.825000
vt 0.213601 0.250000
vt 0.375000 0.411399
vt 0.625000 0.411399
vt 0.786399 0.250000
vt 0.625000 0.838601
vt 0.786399 0.000000
vt 0.213601 0.000000
vt 0.375000 0.838601
vt 0.161147 0.000000
vt 0.375000 0.786147
vt 0.625000 0.786147
vt 0.838853 0.000000
vt 0.625000 0.463853
vt 0.838853 0.250000
vt 0.161147 0.250000
vt 0.375000 0.463853
vt 0.133536 0.000000
vt 0.375000 0.758536
vt 0.625000 0.758536
vt 0.866464 0.000000
vt 0.625000 0.491464
vt 0.866464 0.250000
vt 0.133536 0.250000
vt 0.375000 0.491464
vt 0.500000 0.000000
vt 0.500000 1.000000
vt 0.500000 0.838601
vt 0.500000 0.825000
vt 0.500000 0.786147
vt 0.500000 0.758536
vt 0.500000 0.750000
vt 0.500000 0.500000
vt 0.500000 0.491464
vt 0.500000 0.463853
vt 0.500000 0.425000
vt 0.500000 0.411399
vt 0.500000 0.250000
vt 0.437500 0.000000
vt 0.437500 1.000000
vt 0.437500 0.838601
vt 0.437500 0.825000
vt 0.437500 0.786147
vt 0.437500 0.758536
vt 0.437500 0.750000
vt 0.437500 0.500000
vt 0.437500 0.491464
vt 0.437500 0.463853
vt 0.437500 0.425000
vt 0.437500 0.411399
vt 0.437500 0.250000
vt 0.550000 0.825000
vt 0.550000 0.838601
vt 0.550000 0.000000
vt 0.550000 1.000000
vt 0.550000 0.250000
vt 0.550000 0.411399
vt 0.550000 0.425000
vt 0.550000 0.463853
vt 0.550000 0.491464
vt 0.550000 0.500000
vt 0.550000 0.750000
vt 0.550000 0.758536
vt 0.550000 0.786147
vt 0.184459 0.250000
vt 0.375000 0.440541
vt 0.437500 0.440541
vt 0.500000 0.440541
vt 0.550000 0.440541
vt 0.625000 0.440541
vt 0.815541 0.250000
vt 0.625000 0.809459
vt 0.815541 0.000000
vt 0.550000 0.809459
vt 0.500000 0.809459
vt 0.437500 0.809459
vt 0.184459 0.000000
vt 0.375000 0.809459
vt 0.625000 0.477658
vt 0.852658 0.250000
vt 0.625000 0.772341
vt 0.852658 0.000000
vt 0.550000 0.772342
vt 0.500000 0.772341
vt 0.437500 0.772341
vt 0.147342 0.000000
vt 0.375000 0.772341
vt 0.147342 0.250000
vt 0.375000 0.477658
vt 0.437500 0.477658
vt 0.500000 0.477658
vt 0.550000 0.477658
vt 0.129527 0.000000
vt 0.375000 0.754527
vt 0.437500 0.754527
vt 0.500000 0.754527
vt 0.550000 0.754527
vt 0.625000 0.754527
vt 0.870473 0.000000
vt 0.625000 0.495473
vt 0.870473 0.250000
vt 0.550000 0.495473
vt 0.500000 0.495473
vt 0.437500 0.495473
vt 0.129527 0.250000
vt 0.375000 0.495473
vt 0.222474 0.250000
vt 0.375000 0.402526
vt 0.437500 0.402526
vt 0.500000 0.402526
vt 0.550000 0.402526
vt 0.625000 0.402526
vt 0.777526 0.250000
vt 0.625000 0.847474
vt 0.777526 0.000000
vt 0.550000 0.847474
vt 0.500000 0.847474
vt 0.437500 0.847474
vt 0.222474 0.000000
vt 0.375000 0.847474
vn 0.000000 0.000000 1.000000
vn 0.000000 0.000000 1.000000
vn 0.000000 0.000000 1.000000
vn 0.000000 0.000000 1.000000
vn -0.221121 0.968485 -0.114641
vn -0.221121 0.968485 -0.114641
vn -0.221121 0.968485 -0.114640
vn -0.221121 0.968485 -0.114640
vn 0.103824 0.033713 -0.994024
vn 0.103824 0.033713 -0.994024
vn 0.103824 0.033713 -0.994024
vn 0.103824 0.033713 -0.994024
vn 0.270155 -0.956269 0.112101
vn 0.270155 -0.956269 0.112102
vn 0.270155 -0.956269 0.112101
vn 0.270155 -0.956269 0.112102
vn 0.885151 -0.413660 0.213056
vn 0.885151 -0.413660 0.213056
vn 0.885151 -0.413660 0.213056
vn 0.885151 -0.413660 0.213056
vn -0.969226 0.000000 0.246174
vn -0.969226 0.000000 0.246174
vn -0.969226 0.000000 0.246174
vn -0.969226 0.000000 0.246174
vn -0.183133 0.964206 -0.191754
vn -0.183133 0.964206 -0.191754
vn -0.183133 0.964206 -0.191754
vn -0.183133 0.964206 -0.191754
vn 0.765680 0.000013 0.643221
vn 0.765680 0.000013 0.643221
vn 0.765680 0.000013 0.643221
vn 0.765680 0.000013 0.643221
vn 0.367762 -0.889986 0.269583
vn 0.367762 -0.889986 0.269583
vn 0.367762 -0.889986 0.269583
vn 0.367762 -0.889986 0.269583
vn -0.765680 0.000013 0.643221
vn -0.765680 0.000013 0.643221
vn -0.765680 0.000013 0.643221
vn -0.765680 0.000013 0.643221
vn -0.099186 0.984659 -0.143560
vn -0.099186 0.984659 -0.143560
vn -0.099186 0.984659 -0.143560
vn -0.099186 0.984659 -0.143560
vn 0.970692 0.046196 0.235845
vn 0.970692 0.046196 0.235845
vn 0.970692 0.046196 0.235844
vn 0.970692 0.046196 0.235845
vn 0.528202 -0.843396 0.098419
vn 0.528202 -0.843396 0.098419
vn 0.528202 -0.843396 0.098419
vn 0.528202 -0.843396 0.098419
vn -0.970692 0.046196 0.235845
vn -0.970692 0.046196 0.235845
vn -0.970692 0.046196 0.235845
vn -0.970692 0.046196 0.235845
vn 0.208636 -0.964070 -0.164437
vn 0.208636 -0.964070 -0.164437
vn 0.208636 -0.964070 -0.164437
vn 0.208636 -0.964070 -0.164437
vn 0.923239 -0.162308 -0.348261
vn 0.923239 -0.162308 -0.348261
vn 0.923239 -0.162308 -0.348262
vn 0.923239 -0.162308 -0.348261
vn -0.141792 0.976035 0.165075
vn -0.141792 0.976035 0.165075
vn -0.141792 0.976035 0.165075
vn -0.141792 0.976035 0.165075
vn -0.929345 0.000000 -0.369211
vn -0.929345 0.000000 -0.369211
vn -0.929345 0.000000 -0.369211
vn -0.929345 0.000000 -0.369211
vn 0.126433 -0.784362 -0.607281
vn 0.126433 -0.784362 -0.607281
vn 0.126433 -0.784362 -0.607281
vn 0.126433 -0.784362 -0.607281
vn 0.464420 0.000000 -0.885615
vn 0.464420 0.000000 -0.885615
vn 0.464420 0.000000 -0.885615
vn 0.464420 0.000000 -0.885615
vn -0.083188 0.949744 0.301773
vn -0.083188 0.949744 0.301773
vn -0.083188 0.949744 0.301773
vn -0.083188 0.949744 0.301773
vn -0.464419 0.000000 -0.885616
vn -0.464419 0.000000 -0.885616
vn -0.464419 0.000000 -0.885616
vn -0.464419 0.000000 -0.885616
vn -0.473003 -0.875025 0.102953
vn -0.473003 -0.875025 0.102953
vn -0.473003 -0.875025 0.102953
vn -0.473003 -0.875025 0.102953
vn -0.348852 -0.902571 0.252325
vn -0.348852 -0.902571 0.252325
vn -0.348852 -0.902571 0.252325
vn -0.348852 -0.902571 0.252325
vn -0.291387 -0.950355 0.109172
vn -0.291387 -0.950355 0.109172
vn -0.291387 -0.950355 0.109172
vn -0.291387 -0.950355 0.109172
vn -0.224555 -0.961459 -0.158653
vn -0.224555 -0.961459 -0.158653
vn -0.224555 -0.961459 -0.158653
vn -0.224555 -0.961459 -0.158653
vn -0.131175 -0.794043 -0.593539
vn -0.131175 -0.794043 -0.593539
vn -0.131175 -0.794043 -0.593539
vn -0.131175 -0.794043 -0.593539
vn -0.107609 0.004521 -0.994183
vn -0.107609 0.004521 -0.994183
vn -0.107609 0.004521 -0.994183
vn -0.107609 0.004521 -0.994183
vn 0.076705 0.953777 0.290561
vn 0.076705 0.953777 0.290561
vn 0.076705 0.953777 0.290561
vn 0.076705 0.953777 0.290561
vn 0.141767 0.977859 0.153926
vn 0.141767 0.977859 0.153926
vn 0.141767 0.977859 0.153926
vn 0.141767 0.977859 0.153926
vn 0.220793 0.969106 -0.109926
vn 0.220793 0.969106 -0.109926
vn 0.220793 0.969106 -0.109926
vn 0.220793 0.969106 -0.109926
vn 0.175117 0.964743 -0.196483
vn 0.175117 0.964743 -0.196483
vn 0.175117 0.964743 -0.196483
vn 0.175117 0.964743 -0.196483
vn 0.095726 0.984246 -0.148647
vn 0.095726 0.984246 -0.148647
vn 0.095726 0.984246 -0.148647
vn 0.095726 0.984246 -0.148647
vn 0.000000 0.000000 1.000000
vn 0.000000 0.000000 1.000000
vn 0.000000 0.000000 1.000000
vn 0.000000 0.000000 1.000000
vn -0.600099 -0.788822 0.132820
vn -0.600099 -0.788822 0.132820
vn -0.600099 -0.788822 0.132820
vn -0.600099 -0.788822 0.132820
vn -0.553430 -0.721692 0.415782
vn -0.553431 -0.721692 0.415782
vn -0.553431 -0.721692 0.415782
vn -0.553430 -0.721692 0.415782
vn -0.545375 -0.826570 0.139099
vn -0.545375 -0.826570 0.139099
vn -0.545375 -0.826570 0.139099
vn -0.545375 -0.826570 0.139099
vn -0.531654 -0.820833 -0.208750
vn -0.531654 -0.820833 -0.208750
vn -0.531654 -0.820833 -0.208750
vn -0.531654 -0.820833 -0.208750
vn -0.346467 -0.590210 -0.729118
vn -0.346467 -0.590210 -0.729118
vn -0.346467 -0.590210 -0.729118
vn -0.346467 -0.590210 -0.729118
vn -0.256607 0.010978 -0.966453
vn -0.256607 0.010978 -0.966453
vn -0.256607 0.010978 -0.966453
vn -0.256607 0.010978 -0.966453
vn 0.288261 0.773392 0.564598
vn 0.288261 0.773392 0.564598
vn 0.288261 0.773392 0.564598
vn 0.288261 0.773392 0.564598
vn 0.358434 0.921336 0.150546
vn 0.358434 0.921336 0.150546
vn 0.358434 0.921336 0.150546
vn 0.358434 0.921336 0.150546
vn 0.378243 0.919747 -0.104872
vn 0.378243 0.919747 -0.104872
vn 0.378243 0.919747 -0.104872
vn 0.378243 0.919747 -0.104872
vn 0.305405 0.928372 -0.211788
vn 0.305405 0.928372 -0.211788
vn 0.305405 0.928372 -0.211788
vn 0.305405 0.928372 -0.211788
vn 0.093721 0.989336 -0.111488
vn 0.093721 0.989337 -0.111488
vn 0.093721 0.989336 -0.111488
vn 0.093721 0.989336 -0.111488
vn 0.000000 0.000000 1.000000
vn 0.000000 0.000000 1.000000
vn 0.000000 0.000000 1.000000
vn 0.000000 0.000000 1.000000
vn 0.526229 -0.751378 0.398138
vn 0.526229 -0.751378 0.398138
vn 0.526229 -0.751378 0.398138
vn 0.526229 -0.751378 0.398138
vn 0.523011 -0.842694 0.127771
vn 0.523011 -0.842694 0.127771
vn 0.523011 -0.842694 0.127771
vn 0.523011 -0.842694 0.127771
vn 0.000000 0.000000 1.000000
vn 0.000000 0.000000 1.000000
vn 0.000000 0.000000 1.000000
vn 0.000000 0.000000 1.000000
vn -0.088186 0.990495 -0.105561
vn -0.088186 0.990495 -0.105561
vn -0.088186 0.990495 -0.105561
vn -0.088186 0.990495 -0.105561
vn -0.302020 0.933106 -0.195185
vn -0.302020 0.933106 -0.195185
vn -0.302020 0.933106 -0.195185
vn -0.302020 0.933106 -0.195185
vn -0.342866 0.934474 -0.095928
vn -0.342866 0.934474 -0.095928
vn -0.342866 0.934474 -0.095928
vn -0.342866 0.934473 -0.095928
vn -0.311565 0.939842 0.140086
vn -0.311565 0.939842 0.140086
vn -0.311565 0.939842 0.140086
vn -0.311565 0.939842 0.140086
vn -0.251090 0.831054 0.496290
vn -0.251090 0.831054 0.496290
vn -0.251090 0.831054 0.496290
vn -0.251090 0.831054 0.496290
vn 0.264315 0.087301 -0.960477
vn 0.264315 0.087301 -0.960477
vn 0.264315 0.087301 -0.960477
vn 0.264315 0.087301 -0.960477
vn 0.333376 -0.627110 -0.703984
vn 0.333376 -0.627110 -0.703984
vn 0.333376 -0.627110 -0.703984
vn 0.333376 -0.627110 -0.703984
vn 0.498076 -0.848033 -0.180998
vn 0.498076 -0.848033 -0.180998
vn 0.498076 -0.848033 -0.180998
vn 0.498076 -0.848033 -0.180998
vn 0.518910 -0.846463 0.119301
vn 0.518910 -0.846463 0.119301
vn 0.518910 -0.846463 0.119301
vn 0.518910 -0.846463 0.119301
vn 0.382767 0.878825 -0.284879
vn 0.382767 0.878825 -0.284879
vn 0.382767 0.878825 -0.284879
vn 0.382767 0.878825 -0.284879
vn 0.185868 0.973250 -0.135047
vn 0.185868 0.973250 -0.135047
vn 0.185868 0.973250 -0.135047
vn 0.185868 0.973250 -0.135047
vn -0.191994 0.971189 -0.141173
vn -0.191994 0.971189 -0.141173
vn -0.191994 0.971189 -0.141173
vn -0.191994 0.971189 -0.141173
vn -0.351148 0.900059 -0.258049
vn -0.351148 0.900059 -0.258049
vn -0.351148 0.900059 -0.258049
vn -0.351148 0.900059 -0.258049
vn 0.791579 -0.120640 0.599040
vn 0.791579 -0.120640 0.599040
vn 0.791579 -0.120640 0.599040
vn 0.791579 -0.120640 0.599040
vn 0.538217 -0.762605 0.358825
vn 0.538217 -0.762605 0.358825
vn 0.538217 -0.762605 0.358825
vn 0.538217 -0.762605 0.358825
vn 0.271552 -0.949893 0.154799
vn 0.271552 -0.949893 0.154799
vn 0.271552 -0.949893 0.154799
vn 0.271552 -0.949893 0.154799
vn -0.278181 -0.947434 0.158066
vn -0.278181 -0.947434 0.158066
vn -0.278181 -0.947434 0.158066
vn -0.278181 -0.947434 0.158066
vn -0.557604 -0.725715 0.403007
vn -0.557604 -0.725715 0.403007
vn -0.557604 -0.725715 0.403007
vn -0.557604 -0.725715 0.403007
vn -0.789446 0.000000 0.613821
vn -0.789446 0.000000 0.613821
vn -0.789446 0.000000 0.613821
vn -0.789446 0.000000 0.613821
vn 0.895936 -0.438506 -0.070782
vn 0.895936 -0.438506 -0.070782
vn 0.895936 -0.438506 -0.070782
vn 0.895937 -0.438506 -0.070782
vn 0.509688 -0.859113 -0.046295
vn 0.509688 -0.859113 -0.046295
vn 0.509688 -0.859113 -0.046295
vn 0.509688 -0.859113 -0.046295
vn 0.264660 -0.959482 -0.096696
vn 0.264660 -0.959482 -0.096696
vn 0.264660 -0.959482 -0.096696
vn 0.264660 -0.959482 -0.096696
vn -0.288766 -0.952653 -0.095221
vn -0.288766 -0.952653 -0.095221
vn -0.288766 -0.952653 -0.095221
vn -0.288766 -0.952653 -0.095221
vn -0.534535 -0.842939 -0.061041
vn -0.534535 -0.842939 -0.061041
vn -0.534535 -0.842939 -0.061041
vn -0.534535 -0.842939 -0.061041
vn -0.995724 -0.000001 -0.092382
vn -0.995724 -0.000001 -0.092382
vn -0.995724 -0.000001 -0.092382
vn -0.995724 -0.000001 -0.092382
vn 0.375675 0.925426 0.049549
vn 0.375675 0.925426 0.049549
vn 0.375675 0.925426 0.049549
vn 0.375675 0.925426 0.049549
vn 0.219782 0.970440 0.099710
vn 0.219782 0.970440 0.099710
vn 0.219782 0.970440 0.099710
vn 0.219782 0.970440 0.099710
vn -0.218628 0.970282 0.103699
vn -0.218629 0.970282 0.103699
vn -0.218629 0.970283 0.103699
vn -0.218629 0.970282 0.103699
vn -0.338313 0.939798 0.048213
vn -0.338313 0.939798 0.048213
vn -0.338313 0.939798 0.048213
vn -0.338313 0.939798 0.048213
vn -0.253028 -0.605688 -0.754400
vn -0.253028 -0.605688 -0.754400
vn -0.253028 -0.605688 -0.754400
vn -0.253028 -0.605688 -0.754400
vn -0.095467 -0.787915 -0.608339
vn -0.095467 -0.787915 -0.608339
vn -0.095467 -0.787915 -0.608339
vn -0.095467 -0.787915 -0.608339
vn 0.084583 -0.808200 -0.582803
vn 0.084583 -0.808199 -0.582803
vn 0.084583 -0.808200 -0.582803
vn 0.084583 -0.808200 -0.582803
vn 0.275988 -0.603300 -0.748237
vn 0.275988 -0.603300 -0.748237
vn 0.275988 -0.603300 -0.748237
vn 0.275988 -0.603300 -0.748237
vn 0.338397 0.000000 -0.941004
vn 0.338397 0.000000 -0.941004
vn 0.338397 0.000000 -0.941004
vn 0.338397 0.000000 -0.941004
vn -0.190149 0.785144 0.589400
vn -0.190149 0.785144 0.589400
vn -0.190149 0.785144 0.589400
vn -0.190149 0.785144 0.589400
vn -0.067013 0.878010 0.473927
vn -0.067013 0.878010 0.473927
vn -0.067013 0.878010 0.473927
vn -0.067013 0.878010 0.473927
vn 0.058143 0.877691 0.475686
vn 0.058143 0.877691 0.475686
vn 0.058143 0.877691 0.475686
vn 0.058143 0.877691 0.475686
vn 0.219277 0.717519 0.661124
vn 0.219277 0.717519 0.661124
vn 0.219277 0.717519 0.661124
vn 0.219277 0.717519 0.661124
vn -0.338398 0.000000 -0.941003
vn -0.338398 0.000000 -0.941003
vn -0.338398 0.000000 -0.941003
vn -0.338398 0.000000 -0.941003
vn -0.287655 0.957340 0.027455
vn -0.287655 0.957340 0.027455
vn -0.287655 0.957341 0.027455
vn -0.287655 0.957340 0.027455
vn 0.032204 0.999213 0.023147
vn 0.032204 0.999213 0.023147
vn 0.032204 0.999213 0.023147
vn 0.032204 0.999213 0.023147
vn -0.039529 0.998951 0.023125
vn -0.039529 0.998951 0.023125
vn -0.039529 0.998951 0.023125
vn -0.039529 0.998951 0.023125
vn 0.297682 0.954221 0.029126
vn 0.297682 0.954221 0.029126
vn 0.297682 0.954221 0.029126
vn 0.297682 0.954221 0.029126
vn 0.999924 -0.001976 -0.012196
vn 0.999924 -0.001976 -0.012196
vn 0.999924 -0.001976 -0.012196
vn 0.999924 -0.001976 -0.012196
vn 0.618871 -0.784369 -0.041992
vn 0.618871 -0.784369 -0.041992
vn 0.618871 -0.784369 -0.041992
vn 0.618871 -0.784369 -0.041992
vn 0.304580 -0.951291 -0.047716
vn 0.304580 -0.951291 -0.047716
vn 0.304580 -0.951291 -0.047716
vn 0.304580 -0.951291 -0.047716
vn -0.237375 -0.970214 -0.048361
vn -0.237375 -0.970214 -0.048361
vn -0.237375 -0.970214 -0.048361
vn -0.237375 -0.970214 -0.048361
vn -0.688906 -0.723742 -0.040079
vn -0.688906 -0.723742 -0.040079
vn -0.688906 -0.723742 -0.040079
vn -0.688906 -0.723742 -0.040079
vn -0.999924 -0.001976 -0.012196
vn -0.999924 -0.001976 -0.012196
vn -0.999924 -0.001976 -0.012196
vn -0.999924 -0.001976 -0.012196
g Spoon
f 36/59/1 25/47/2 51/75/3 52/77/4
f 33/56/5 63/89/6 64/90/7 55/80/8
f 30/53/9 31/54/10 57/82/11 58/83/12
f 67/95/13 68/96/14 28/51/15 60/85/16
f 65/92/17 66/94/18 18/34/19 19/36/20
f 20/37/21 17/31/22 70/98/23 61/86/24
f 34/57/25 35/58/26 53/78/27 54/79/28
f 14/26/29 15/28/30 11/20/31 10/18/32
f 26/49/33 27/50/34 49/73/35 50/74/36
f 9/15/37 12/21/38 16/29/39 13/23/40
f 35/58/41 93/131/42 94/132/43 53/78/44
f 95/134/45 96/136/46 15/28/47 14/26/48
f 97/137/49 98/138/50 26/49/51 50/74/52
f 13/23/53 16/29/54 100/140/55 91/128/56
f 73/104/57 74/105/58 29/52/59 59/84/60
f 71/101/61 72/103/62 22/42/63 23/44/64
f 32/55/65 79/112/66 80/113/67 56/81/68
f 24/45/69 21/39/70 76/107/71 77/109/72
f 29/52/73 83/117/74 84/118/75 59/84/76
f 23/44/77 22/42/78 85/120/79 86/122/80
f 87/123/81 88/124/82 32/55/83 56/81/84
f 90/126/85 81/114/86 21/39/87 24/45/88
f 98/138/89 99/139/90 38/62/91 26/49/92
f 38/62/93 39/63/94 27/50/95 26/49/96
f 68/96/97 69/97/98 40/64/99 28/51/100
f 74/105/101 75/106/102 41/65/103 29/52/104
f 41/65/105 82/116/106 83/117/107 29/52/108
f 42/66/109 43/67/110 31/54/111 30/53/112
f 88/124/113 89/125/114 44/68/115 32/55/116
f 44/68/117 78/111/118 79/112/119 32/55/120
f 45/69/121 62/88/122 63/89/123 33/56/124
f 46/70/125 47/71/126 35/58/127 34/57/128
f 47/71/129 92/130/130 93/131/131 35/58/132
f 48/72/133 37/60/134 25/47/135 36/59/136
f 16/30/137 38/62/138 99/139/139 100/141/140
f 12/22/141 39/63/142 38/62/143 16/30/144
f 17/32/145 40/64/146 69/97/147 70/99/148
f 21/40/149 41/65/150 75/106/151 76/108/152
f 81/115/153 82/116/154 41/65/155 21/40/156
f 5/5/157 43/67/158 42/66/159 7/7/160
f 24/46/161 44/68/162 89/125/163 90/127/164
f 77/110/165 78/111/166 44/68/167 24/46/168
f 61/87/169 62/88/170 45/69/171 20/38/172
f 13/24/173 47/71/174 46/70/175 9/16/176
f 91/129/177 92/130/178 47/71/179 13/24/180
f 1/1/181 37/60/182 48/72/183 3/3/184
f 50/74/185 49/73/186 11/19/187 15/27/188
f 96/135/189 97/137/190 50/74/191 15/27/192
f 52/77/193 51/75/194 2/2/195 4/4/196
f 53/78/197 94/132/198 95/133/199 14/25/200
f 54/79/201 53/78/202 14/25/203 10/17/204
f 55/80/205 64/90/206 65/91/207 19/35/208
f 56/81/209 80/113/210 71/100/211 23/43/212
f 86/121/213 87/123/214 56/81/215 23/43/216
f 58/83/217 57/82/218 6/6/219 8/8/220
f 59/84/221 84/118/222 85/119/223 22/41/224
f 72/102/225 73/104/226 59/84/227 22/41/228
f 66/93/229 67/95/230 60/85/231 18/33/232
f 9/16/233 46/70/234 62/88/235 61/87/236
f 63/89/237 62/88/238 46/70/239 34/57/240
f 64/90/241 63/89/242 34/57/243 54/79/244
f 65/91/245 64/90/246 54/79/247 10/17/248
f 10/18/249 11/20/250 66/94/251 65/92/252
f 49/73/253 67/95/254 66/93/255 11/19/256
f 27/50/257 68/96/258 67/95/259 49/73/260
f 39/63/261 69/97/262 68/96/263 27/50/264
f 70/99/265 69/97/266 39/63/267 12/22/268
f 61/86/269 70/98/270 12/21/271 9/15/272
f 19/36/273 18/34/274 72/103/275 71/101/276
f 60/85/277 73/104/278 72/102/279 18/33/280
f 28/51/281 74/105/282 73/104/283 60/85/284
f 40/64/285 75/106/286 74/105/287 28/51/288
f 76/108/289 75/106/290 40/64/291 17/32/292
f 77/109/293 76/107/294 17/31/295 20/37/296
f 20/38/297 45/69/298 78/111/299 77/110/300
f 79/112/301 78/111/302 45/69/303 33/56/304
f 80/113/305 79/112/306 33/56/307 55/80/308
f 71/100/309 80/113/310 55/80/311 19/35/312
f 7/7/313 42/66/314 82/116/315 81/115/316
f 83/117/317 82/116/318 42/66/319 30/53/320
f 84/118/321 83/117/322 30/53/323 58/83/324
f 85/119/325 84/118/326 58/83/327 8/8/328
f 86/122/329 85/120/330 8/11/331 6/12/332
f 57/82/333 87/123/334 86/121/335 6/6/336
f 31/54/337 88/124/338 87/123/339 57/82/340
f 43/67/341 89/125/342 88/124/343 31/54/344
f 90/127/345 89/125/346 43/67/347 5/5/348
f 7/13/349 81/114/350 90/126/351 5/14/352
f 3/3/353 48/72/354 92/130/355 91/129/356
f 93/131/357 92/130/358 48/72/359 36/59/360
f 94/132/361 93/131/362 36/59/363 52/77/364
f 95/133/365 94/132/366 52/77/367 4/4/368
f 2/2/369 96/136/370 95/134/371 4/4/372
f 51/76/373 97/137/374 96/135/375 2/10/376
f 25/48/377 98/138/378 97/137/379 51/76/380
f 37/61/381 99/139/382 98/138/383 25/48/384
f 100/141/385 99/139/386 37/61/387 1/9/388
f 91/128/389 100/140/390 1/1/391 3/3/392
