# This file uses centimeters as units for non-parametric coordinates.

mtllib Noodle_Bag.mtl
g default
v -0.740139 -0.275641 1.061360
v -0.740139 -0.087893 1.326667
v -0.925150 -0.087893 1.061360
v 0.925150 -0.087893 1.061360
v 0.740138 -0.087893 1.326667
v 0.740138 -0.275641 1.061360
v -0.925150 0.087893 1.061360
v -0.740139 0.087893 1.326667
v -0.740139 0.275641 1.061360
v 0.740138 0.275641 1.061360
v 0.740138 0.087893 1.326667
v 0.925150 0.087893 1.061360
v -0.925150 0.087893 -1.061360
v -0.740139 0.275641 -1.061360
v -0.740139 0.087893 -1.326667
v 0.740138 0.087893 -1.326667
v 0.740138 0.275641 -1.061360
v 0.925150 0.087893 -1.061360
v -0.925150 -0.087893 -1.061360
v -0.740139 -0.087893 -1.326667
v -0.740139 -0.275641 -1.061360
v 0.740138 -0.275641 -1.061360
v 0.740138 -0.087893 -1.326667
v 0.925150 -0.087893 -1.061360
v -0.975223 -0.087893 1.125035
v -0.825806 -0.087893 1.417971
v -0.825806 0.087893 1.417971
v -0.975223 0.087893 1.125035
v 0.825805 -0.087893 1.417971
v 0.976962 -0.087893 1.125035
v 0.976962 0.087893 1.125035
v 0.825805 0.087893 1.417971
v -0.965875 0.087893 -1.125035
v -0.825806 0.087893 -1.417971
v -0.825806 -0.087893 -1.417971
v -0.965875 -0.087893 -1.125035
v 0.825805 0.087893 -1.417971
v 0.950239 0.087893 -1.125035
v 0.950239 -0.087893 -1.125035
v 0.825805 -0.087893 -1.417971
v -1.227751 -0.087893 1.435919
v -0.800245 -0.087893 1.486755
v -0.800245 0.087893 1.486755
v -1.227751 0.087893 1.435919
v 0.798821 -0.087893 1.467556
v 1.229173 -0.087893 1.479488
v 1.229173 0.087893 1.479488
v 0.798821 0.087893 1.467556
v -1.228943 0.087893 -1.471824
v -0.799053 0.087893 -1.448586
v -0.799053 -0.087893 -1.448586
v -1.228943 -0.087893 -1.471824
v 0.801698 0.087893 -1.476583
v 1.226295 0.087893 -1.547736
v 1.226295 -0.087893 -1.547736
v 0.801698 -0.087893 -1.476583
vt 0.399997 0.975003
vt 0.375000 0.975003
vt 0.375000 0.774997
vt 0.399997 0.000000
vt 0.399997 0.024998
vt 0.625000 0.975003
vt 0.600003 0.975003
vt 0.625000 0.774997
vt 0.649997 0.024998
vt 0.375000 0.274998
vt 0.375000 0.475002
vt 0.399997 0.225002
vt 0.600003 0.225002
vt 0.625000 0.274998
vt 0.375000 0.524997
vt 0.375000 0.725002
vt 0.399997 0.475002
vt 0.600003 0.475002
vt 0.625000 0.524997
vt 0.625000 0.725002
vt 0.399997 0.725002
vt 0.600003 0.725002
vt 0.600003 0.774997
vt 0.600003 0.024998
vt 0.399997 0.274998
vt 0.600003 0.274998
vt 0.399997 0.524997
vt 0.600003 0.524997
vt 0.399997 0.774997
vt 0.850003 0.024998
vt 0.850002 0.225002
vt 0.149998 0.024998
vt 0.350002 0.024998
vt 0.350002 0.225002
vt 0.149998 0.225002
vt 0.600003 0.000000
vt 0.649997 0.225002
vt 0.625000 0.475002
vt 0.350002 0.024998
vt 0.399997 0.024998
vt 0.399997 0.225002
vt 0.350002 0.225002
vt 0.600003 0.024998
vt 0.649997 0.024998
vt 0.649997 0.225002
vt 0.600003 0.225002
vt 0.375000 0.524997
vt 0.399997 0.524997
vt 0.399997 0.725002
vt 0.375000 0.725002
vt 0.600003 0.524997
vt 0.625000 0.524997
vt 0.625000 0.725002
vt 0.600003 0.725002
vt 0.350002 0.024998
vt 0.399997 0.024998
vt 0.399997 0.225002
vt 0.350002 0.225002
vt 0.600003 0.024998
vt 0.649997 0.024998
vt 0.649997 0.225002
vt 0.600003 0.225002
vt 0.375000 0.524997
vt 0.399997 0.524997
vt 0.399997 0.725002
vt 0.375000 0.725002
vt 0.600003 0.524997
vt 0.625000 0.524997
vt 0.625000 0.725002
vt 0.600003 0.725002
vn -0.712278 -0.701897 0.000000
vn -0.712278 -0.701897 0.000000
vn -0.712278 -0.701897 0.000000
vn -0.712278 -0.701897 0.000000
vn 0.000000 -0.816283 0.577652
vn 0.000000 -0.816283 0.577652
vn 0.000000 -0.816283 0.577652
vn 0.000000 -0.816283 0.577652
vn -0.118082 0.000000 0.993004
vn -0.118082 0.000000 0.993004
vn -0.118082 0.000000 0.993004
vn -0.118082 0.000000 0.993004
vn 0.712277 -0.701899 0.000000
vn 0.712277 -0.701899 0.000000
vn 0.712277 -0.701899 0.000000
vn 0.712277 -0.701899 0.000000
vn -0.027717 0.000000 0.999616
vn -0.027717 0.000000 0.999616
vn -0.027717 0.000000 0.999616
vn -0.027717 0.000000 0.999616
vn -0.712278 0.701897 0.000000
vn -0.712278 0.701897 0.000000
vn -0.712278 0.701897 0.000000
vn -0.712278 0.701897 0.000000
vn 0.000000 0.816283 0.577653
vn 0.000000 0.816283 0.577653
vn 0.000000 0.816283 0.577653
vn 0.000000 0.816283 0.577653
vn 0.712277 0.701899 0.000000
vn 0.712277 0.701899 0.000000
vn 0.712277 0.701899 0.000000
vn 0.712277 0.701899 0.000000
vn 0.053977 0.000000 -0.998542
vn 0.053977 0.000000 -0.998542
vn 0.053977 0.000000 -0.998542
vn 0.053977 0.000000 -0.998542
vn 0.000000 0.816283 -0.577653
vn 0.000000 0.816283 -0.577653
vn 0.000000 0.816283 -0.577653
vn 0.000000 0.816283 -0.577653
vn -0.165273 0.000000 -0.986248
vn -0.165273 0.000000 -0.986248
vn -0.165273 0.000000 -0.986248
vn -0.165273 0.000000 -0.986248
vn 0.000000 -0.816283 -0.577652
vn 0.000000 -0.816283 -0.577652
vn 0.000000 -0.816283 -0.577652
vn 0.000000 -0.816283 -0.577652
vn 0.012006 0.000000 0.999928
vn 0.012006 0.000000 0.999928
vn 0.012006 0.000000 0.999928
vn 0.012006 0.000000 0.999928
vn 0.000000 1.000000 0.000000
vn 0.000000 1.000000 0.000000
vn 0.000000 1.000000 0.000000
vn 0.000000 1.000000 0.000000
vn -0.017488 0.000000 -0.999847
vn -0.017488 0.000000 -0.999847
vn -0.017488 0.000000 -0.999847
vn -0.017488 0.000000 -0.999847
vn 0.000000 -1.000000 0.000000
vn 0.000000 -1.000000 0.000000
vn 0.000000 -1.000000 0.000000
vn 0.000000 -1.000000 0.000000
vn 1.000000 0.000000 0.000000
vn 1.000000 0.000000 0.000000
vn 1.000000 0.000000 0.000000
vn 1.000000 0.000000 0.000000
vn -1.000000 0.000000 0.000000
vn -1.000000 0.000000 0.000000
vn -1.000000 0.000000 0.000000
vn -1.000000 0.000000 0.000000
vn -0.637919 -0.628622 0.444852
vn -0.637919 -0.628622 0.444852
vn -0.637919 -0.628622 0.444852
vn 0.637917 -0.628623 0.444853
vn 0.637917 -0.628623 0.444853
vn 0.637917 -0.628623 0.444853
vn -0.637919 0.628622 0.444852
vn -0.637919 0.628622 0.444852
vn -0.637919 0.628622 0.444852
vn 0.637918 0.628623 0.444853
vn 0.637918 0.628623 0.444853
vn 0.637918 0.628623 0.444853
vn -0.637919 0.628622 -0.444852
vn -0.637919 0.628622 -0.444852
vn -0.637919 0.628622 -0.444852
vn 0.637918 0.628623 -0.444853
vn 0.637918 0.628623 -0.444853
vn 0.637918 0.628623 -0.444853
vn -0.637919 -0.628622 -0.444852
vn -0.637919 -0.628622 -0.444852
vn -0.637919 -0.628622 -0.444852
vn 0.637917 -0.628623 -0.444853
vn 0.637917 -0.628623 -0.444853
vn 0.637917 -0.628623 -0.444853
vn 0.000000 -1.000000 0.000000
vn 0.000000 -1.000000 0.000000
vn 0.000000 -1.000000 0.000000
vn 0.000000 -1.000000 -0.000000
vn 0.000000 1.000000 -0.000000
vn 0.000000 1.000000 -0.000000
vn 0.000000 1.000000 -0.000000
vn 0.000000 1.000000 -0.000000
vn -0.786062 0.000000 -0.618148
vn -0.786062 0.000000 -0.618148
vn -0.777867 0.000000 -0.628429
vn -0.777867 0.000000 -0.628429
vn 0.000000 -1.000000 0.000000
vn 0.000000 -1.000000 0.000000
vn 0.000000 -1.000000 -0.000000
vn 0.000000 -1.000000 0.000000
vn 0.775663 0.000000 -0.631147
vn 0.775663 0.000000 -0.631147
vn 0.808801 0.000000 -0.588083
vn 0.808801 0.000000 -0.588083
vn 0.000000 1.000000 -0.000000
vn 0.000000 1.000000 -0.000000
vn 0.000000 1.000000 -0.000000
vn 0.000000 1.000000 -0.000000
vn 0.000000 1.000000 0.000000
vn 0.000000 1.000000 -0.000000
vn 0.000000 1.000000 0.000000
vn 0.000000 1.000000 0.000000
vn 0.000000 -1.000000 -0.000000
vn 0.000000 -1.000000 -0.000000
vn 0.000000 -1.000000 -0.000000
vn 0.000000 -1.000000 -0.000000
vn -0.842437 0.000000 0.538796
vn -0.842437 0.000000 0.538796
vn -0.803795 0.000000 0.594906
vn -0.803795 0.000000 0.594906
vn 0.000000 1.000000 -0.000000
vn 0.000000 1.000000 -0.000000
vn 0.000000 1.000000 -0.000000
vn 0.000000 1.000000 0.000000
vn 0.930381 0.000000 0.366593
vn 0.930381 0.000000 0.366593
vn 0.850222 0.000000 0.526424
vn 0.850222 0.000000 0.526424
vn 0.000000 -1.000000 0.000000
vn 0.000000 -1.000000 -0.000000
vn 0.000000 -1.000000 0.000000
vn 0.000000 -1.000000 0.000000
vn 0.000000 -1.000000 0.000000
vn 0.000000 -1.000000 -0.000000
vn 0.000000 1.000000 -0.000000
vn 0.000000 1.000000 0.000000
vn -0.776194 0.000000 -0.630495
vn -0.776194 0.000000 -0.630495
vn 0.000000 -1.000000 -0.000000
vn 0.000000 -1.000000 0.000000
vn 0.814786 0.000000 -0.579761
vn 0.814786 0.000000 -0.579761
vn 0.000000 1.000000 0.000000
vn 0.000000 1.000000 -0.000000
vn 0.000000 1.000000 0.000000
vn 0.000000 1.000000 0.000000
vn 0.000000 -1.000000 -0.000000
vn 0.000000 -1.000000 0.000000
vn -0.796705 0.000000 0.604368
vn -0.796705 0.000000 0.604368
vn 0.000000 1.000000 -0.000000
vn 0.000000 1.000000 0.000000
vn 0.837265 0.000000 0.546797
vn 0.837265 0.000000 0.546797
vn 0.000000 -1.000000 0.000000
vn 0.000000 -1.000000 0.000000
s off
g Bag
usemtl initialShadingGroup
f 1/1/1 3/2/2 19/3/3 21/29/4
f 2/5/5 1/4/6 6/36/7 5/24/8
f 41/55/9 42/56/10 43/57/11 44/58/12
f 4/6/13 6/7/14 22/23/15 24/8/16
f 45/59/17 46/60/18 47/61/19 48/62/20
f 7/10/21 9/25/22 14/17/23 13/11/24
f 9/25/25 8/12/26 11/13/27 10/26/28
f 10/26/29 12/14/30 18/38/31 17/18/32
f 49/63/33 50/64/34 51/65/35 52/66/36
f 15/27/37 14/17/38 17/18/39 16/28/40
f 53/67/41 54/68/42 55/69/43 56/70/44
f 21/29/45 20/21/46 23/22/47 22/23/48
f 42/56/49 45/59/50 48/62/51 43/57/52
f 9/25/53 10/26/54 17/18/55 14/17/56
f 50/64/57 53/67/58 56/70/59 51/65/60
f 21/29/61 22/23/62 6/7/63 1/1/64
f 4/9/65 24/30/66 18/31/67 12/37/68
f 19/32/69 3/33/70 7/34/71 13/35/72
f 1/4/73 2/5/74 3/33/75
f 4/9/76 5/24/77 6/36/78
f 7/34/79 8/12/80 9/25/81
f 10/26/82 11/13/83 12/37/84
f 13/11/85 14/17/86 15/27/87
f 16/28/88 17/18/89 18/38/90
f 19/16/91 20/21/92 21/29/93
f 22/23/94 23/22/95 24/20/96
s 1
f 3/33/97 2/5/98 26/40/99 25/39/100
s 2
f 8/12/101 7/34/102 28/42/103 27/41/104
s 3
f 7/34/105 3/33/106 25/39/107 28/42/108
s 1
f 5/24/109 4/9/110 30/44/111 29/43/112
s 5
f 4/9/113 12/37/114 31/45/115 30/44/116
s 2
f 12/37/117 11/13/118 32/46/119 31/45/120
s 1
f 2/15/98 5/27/109 29/48/112 26/47/99
s 2
f 11/21/118 8/16/101 27/50/104 32/49/119
s 6
f 13/16/121 15/15/122 34/47/123 33/50/124
s 7
f 20/28/125 19/19/126 36/52/127 35/51/128
s 8
f 19/19/129 13/20/130 33/53/131 36/52/132
s 6
f 16/20/133 18/22/134 38/54/135 37/53/136
s 10
f 18/5/137 24/24/138 39/43/139 38/40/140
s 7
f 24/13/141 23/12/142 40/41/143 39/46/144
s 6
f 15/27/122 16/28/133 37/51/136 34/48/123
s 7
f 23/22/142 20/21/125 35/49/128 40/54/143
s 1
f 25/39/100 26/40/99 42/56/145 41/55/146
s 2
f 27/41/104 28/42/103 44/58/147 43/57/148
s 3
f 28/42/108 25/39/107 41/55/149 44/58/150
s 1
f 29/43/112 30/44/111 46/60/151 45/59/152
s 5
f 30/44/116 31/45/115 47/61/153 46/60/154
s 2
f 31/45/120 32/46/119 48/62/155 47/61/156
s 1
f 26/47/99 29/48/112 45/64/152 42/63/145
s 2
f 32/49/119 27/50/104 43/66/148 48/65/155
s 6
f 33/50/124 34/47/123 50/63/157 49/66/158
s 7
f 35/51/128 36/52/127 52/68/159 51/67/160
s 8
f 36/52/132 33/53/131 49/69/161 52/68/162
s 6
f 37/53/136 38/54/135 54/70/163 53/69/164
s 10
f 38/40/140 39/43/139 55/59/165 54/56/166
s 7
f 39/46/144 40/41/143 56/57/167 55/62/168
s 6
f 34/48/123 37/51/136 53/67/164 50/64/157
s 7
f 40/54/143 35/49/128 51/65/160 56/70/167
