# This file uses centimeters as units for non-parametric coordinates.

v -8.408594 -0.085055 0.743478
v 8.370147 -0.085055 0.743478
v -8.408594 0.085055 0.743478
v 8.370147 0.085055 0.743478
v -8.408594 0.085055 -2.194016
v 8.370147 0.085055 -2.194016
v -8.408594 -0.085055 -2.194016
v 8.370147 -0.085055 -2.194016
v 7.531209 -0.085055 0.743478
v 7.531209 0.085055 0.743478
v 7.531209 0.085055 -2.194016
v 7.531209 -0.085055 -2.194016
v -7.569657 -0.085055 0.743478
v -7.569657 0.085055 0.743478
v -7.569657 0.085055 -2.194016
v -7.569657 -0.085055 -2.194016
v 7.181043 -0.085055 0.743478
v 7.181043 -0.085055 -2.194016
v 7.181043 0.085055 -2.194016
v 7.181043 0.085055 0.743478
v -7.219492 -0.085055 0.743478
v -7.219492 -0.085055 -2.194016
v -7.219492 0.085055 -2.194016
v -7.219492 0.085055 0.743478
v 0.136385 -0.085055 0.743478
v 0.136385 -0.085055 -2.194016
v 0.136385 0.085055 -2.194016
v 0.136385 0.085055 0.743478
v -0.174836 -0.085055 0.743478
v -0.174836 -0.085055 -2.194016
v -0.174836 0.085055 -2.194016
v -0.174836 0.085055 0.743478
v 7.181043 -0.195743 0.743478
v 7.181043 -0.989880 -2.194016
v 7.531209 -0.989880 -2.194016
v 7.531209 -0.195743 0.743478
v -0.174836 -0.195743 0.743478
v -0.174836 -0.989880 -2.194016
v 0.136385 -0.989880 -2.194016
v 0.136385 -0.195743 0.743478
v -7.569657 -0.989880 -2.194016
v -7.569657 -0.195743 0.743478
v -7.219492 -0.989880 -2.194016
v -7.219492 -0.195743 0.743478
v 7.531209 -0.085055 -1.312767
v 7.531209 -0.195743 -1.312767
v 7.181043 -0.195743 -1.312767
v 7.181043 -0.085055 -1.312767
v 0.136385 -0.085055 -1.312767
v 0.136385 -0.195743 -1.312767
v -0.174836 -0.195743 -1.312767
v -0.174836 -0.085055 -1.312767
v -7.219492 -0.085055 -1.312767
v -7.219492 -0.195743 -1.312767
v -7.569657 -0.195743 -1.312767
v -7.569657 -0.085055 -1.312767
v -7.569657 -0.085055 -1.841516
v -7.569657 -0.989880 -1.841516
v -7.219492 -0.989880 -1.841516
v -7.219492 -0.085055 -1.841516
v -0.174836 -0.085055 -1.841516
v -0.174836 -0.989880 -1.841516
v 0.136385 -0.989880 -1.841516
v 0.136385 -0.085055 -1.841516
v 7.181043 -0.085055 -1.841516
v 7.181043 -0.989880 -1.841516
v 7.531209 -0.989880 -1.841516
v 7.531209 -0.085055 -1.841516
vt 0.162437 0.554190
vt 0.162437 0.631225
vt 0.141127 0.631225
vt 0.141127 0.001504
vt 0.245309 0.631225
vt 0.245309 0.554190
vt 0.126920 0.631225
vt 0.126920 0.001504
vt 0.355835 0.001504
vt 0.355835 0.631225
vt 0.334525 0.631225
vt 0.334525 0.554190
vt 0.370042 0.631225
vt 0.370042 0.001504
vt 0.251653 0.631225
vt 0.251653 0.554190
vt 0.411903 0.554190
vt 0.411903 0.631225
vt 0.390593 0.631225
vt 0.390593 0.001504
vt 0.494775 0.631225
vt 0.494775 0.554190
vt 0.376386 0.631225
vt 0.376386 0.001504
vt 0.605301 0.001504
vt 0.605301 0.631225
vt 0.583991 0.631225
vt 0.583991 0.554190
vt 0.619508 0.631225
vt 0.619508 0.001504
vt 0.501119 0.631225
vt 0.501119 0.554190
vt 0.661368 0.554190
vt 0.661368 0.631225
vt 0.640058 0.631225
vt 0.640058 0.001504
vt 0.744241 0.631225
vt 0.744241 0.554190
vt 0.625852 0.631225
vt 0.625852 0.001504
vt 0.854767 0.001504
vt 0.854767 0.631225
vt 0.833457 0.631225
vt 0.833457 0.554190
vt 0.868973 0.631225
vt 0.868973 0.001504
vt 0.750585 0.631225
vt 0.750585 0.554190
vt 0.494778 0.635216
vt 0.613167 0.635216
vt 0.613167 0.753605
vt 0.494778 0.753605
vt 0.370254 0.753605
vt 0.370254 0.635216
vt 0.488643 0.635216
vt 0.488643 0.753605
vt 0.867564 0.635216
vt 0.873484 0.649423
vt 0.873484 0.670733
vt 0.873484 0.635216
vt 0.873484 0.753605
vt 0.867564 0.753605
vt 0.861429 0.635216
vt 0.855510 0.670733
vt 0.855510 0.649423
vt 0.855510 0.753605
vt 0.861429 0.753605
vt 0.855510 0.635216
vt 0.849374 0.670733
vt 0.799668 0.670733
vt 0.799668 0.649423
vt 0.849374 0.649423
vt 0.799668 0.753605
vt 0.849374 0.753605
vt 0.799668 0.635216
vt 0.849374 0.635216
vt 0.793533 0.670733
vt 0.743827 0.670733
vt 0.743827 0.649423
vt 0.793533 0.649423
vt 0.743827 0.753605
vt 0.793533 0.753605
vt 0.743827 0.635216
vt 0.793533 0.635216
vt 0.619303 0.635216
vt 0.625222 0.635216
vt 0.625222 0.753605
vt 0.619303 0.753605
vt 0.627693 0.753605
vt 0.627693 0.635216
vt 0.677399 0.753605
vt 0.677399 0.635216
vt 0.679595 0.635216
vt 0.679595 0.753605
vt 0.729301 0.753605
vt 0.729301 0.635216
vt 0.731772 0.753605
vt 0.731772 0.635216
vt 0.737691 0.753605
vt 0.737691 0.635216
vt 0.361648 0.718088
vt 0.361648 0.635216
vt 0.364119 0.635216
vt 0.364119 0.718088
vt 0.355513 0.635216
vt 0.355513 0.718088
vt 0.353317 0.718088
vt 0.353317 0.635216
vt 0.344711 0.718088
vt 0.344711 0.635216
vt 0.347182 0.635216
vt 0.347182 0.718088
vt 0.338576 0.649423
vt 0.336105 0.649423
vt 0.336105 0.635216
vt 0.338576 0.635216
vt 0.327774 0.635216
vt 0.329970 0.635216
vt 0.329970 0.649423
vt 0.327774 0.649423
vt 0.321638 0.649423
vt 0.319168 0.649423
vt 0.319168 0.635216
vt 0.321638 0.635216
vt 0.989618 0.753605
vt 0.989618 0.635216
vt 0.992089 0.635216
vt 0.992089 0.753605
vt 0.939912 0.753605
vt 0.939912 0.635216
vt 0.989618 0.558182
vt 0.992089 0.558182
vt 0.998008 0.635216
vt 0.998008 0.753605
vt 0.937716 0.753605
vt 0.937716 0.635216
vt 0.888009 0.753605
vt 0.888009 0.635216
vt 0.937716 0.558182
vt 0.939912 0.558182
vt 0.885539 0.753605
vt 0.885539 0.635216
vt 0.879619 0.635216
vt 0.879619 0.753605
vt 0.885539 0.558182
vt 0.888009 0.558182
vt 0.111991 0.119893
vt 0.111991 0.001504
vt 0.114461 0.001504
vt 0.114461 0.119893
vt 0.062284 0.119893
vt 0.062284 0.001504
vt 0.120381 0.001504
vt 0.120381 0.119893
vt 0.114461 0.749613
vt 0.111991 0.749613
vt 0.060088 0.119893
vt 0.060088 0.001504
vt 0.060088 0.749613
vt 0.062284 0.749613
vt 0.010382 0.119893
vt 0.010382 0.001504
vt 0.007911 0.119893
vt 0.007911 0.001504
vt 0.001992 0.001504
vt 0.001992 0.119893
vt 0.010382 0.749613
vt 0.007911 0.749613
vt 0.877788 0.554190
vt 0.875318 0.554190
vt 0.875318 0.001504
vt 0.877788 0.001504
vt 0.887533 0.554190
vt 0.885062 0.554190
vt 0.885062 0.001504
vt 0.887533 0.001504
vt 0.894807 0.001504
vt 0.897003 0.001504
vt 0.897003 0.554190
vt 0.894807 0.554190
vn 0.000000 0.000000 1.000000
vn 0.000000 0.000000 1.000000
vn 0.000000 0.000000 1.000000
vn 0.000000 0.000000 1.000000
vn 0.000000 0.000000 -1.000000
vn 0.000000 0.000000 -1.000000
vn 0.000000 0.000000 -1.000000
vn 0.000000 0.000000 -1.000000
vn 0.000000 -0.554210 0.832377
vn 0.000000 -0.554210 0.832377
vn 0.000000 -0.554210 0.832377
vn 0.000000 -0.554210 0.832377
vn 0.000000 -1.000000 0.000000
vn 0.000000 -1.000000 0.000000
vn 0.000000 -1.000000 0.000000
vn 0.000000 0.000000 -1.000000
vn 0.000000 0.000000 -1.000000
vn 0.000000 0.000000 -1.000000
vn 0.000000 0.000000 -1.000000
vn 0.000000 0.000000 1.000000
vn 0.000000 0.000000 1.000000
vn 0.000000 0.000000 1.000000
vn 0.000000 0.000000 1.000000
vn 0.000000 0.000000 1.000000
vn 0.000000 0.000000 1.000000
vn 0.000000 0.000000 -1.000000
vn 0.000000 0.000000 -1.000000
vn 0.000000 -1.000000 0.000000
vn 0.000000 -1.000000 0.000000
vn 0.000000 -1.000000 0.000000
vn 0.000000 -1.000000 0.000000
vn 0.000000 -1.000000 0.000000
vn 0.000000 -1.000000 0.000000
vn 0.000000 -1.000000 0.000000
vn 0.000000 0.000000 -1.000000
vn 0.000000 0.000000 -1.000000
vn 0.000000 0.000000 1.000000
vn 0.000000 0.000000 1.000000
vn 0.000000 -0.554210 0.832377
vn 0.000000 -0.554210 0.832377
vn 0.000000 -0.554210 0.832377
vn 0.000000 -0.554210 0.832377
vn 0.000000 0.000000 -1.000000
vn 0.000000 0.000000 -1.000000
vn 0.000000 0.000000 1.000000
vn 0.000000 0.000000 1.000000
vn 0.000000 -0.554210 0.832377
vn 0.000000 -0.554210 0.832377
vn 0.000000 -0.554210 0.832377
vn 0.000000 -0.554210 0.832377
vn 0.000000 0.000000 -1.000000
vn 0.000000 0.000000 -1.000000
vn 0.000000 0.000000 1.000000
vn 0.000000 0.000000 1.000000
vn 0.000000 -1.000000 0.000000
vn 0.000000 -1.000000 0.000000
vn 0.000000 -1.000000 0.000000
vn 0.000000 -1.000000 0.000000
vn -1.000000 0.000000 0.000000
vn -1.000000 0.000000 0.000000
vn -1.000000 0.000000 -0.000001
vn -1.000000 0.000000 -0.000001
vn 0.000000 0.000000 -1.000000
vn 0.000000 0.000000 -1.000000
vn 0.000000 0.000000 -1.000000
vn 0.000000 0.000000 -1.000000
vn 1.000000 0.000000 0.000000
vn 1.000000 0.000000 0.000000
vn 1.000000 0.000000 0.000000
vn 1.000000 0.000000 0.000000
vn 0.000000 0.000000 1.000000
vn 0.000000 0.000000 1.000000
vn 0.000000 0.000000 1.000000
vn 0.000000 0.000000 1.000000
vn -1.000000 0.000000 0.000000
vn -1.000000 0.000000 0.000000
vn -1.000000 0.000000 0.000000
vn -1.000000 0.000000 0.000000
vn 0.000000 0.000000 -1.000000
vn 0.000000 0.000000 -1.000000
vn 0.000000 0.000000 -1.000000
vn 0.000000 0.000000 -1.000000
vn 1.000000 0.000000 0.000000
vn 1.000000 0.000000 0.000000
vn 1.000000 0.000000 0.000000
vn 1.000000 0.000000 0.000000
vn 0.000000 0.000000 1.000000
vn 0.000000 0.000000 1.000000
vn 0.000000 0.000000 1.000000
vn 0.000000 0.000000 1.000000
vn -1.000000 0.000000 0.000000
vn -1.000000 0.000000 0.000000
vn -1.000000 0.000000 0.000000
vn -1.000000 0.000000 0.000000
vn 0.000000 0.000000 -1.000000
vn 0.000000 0.000000 -1.000000
vn 0.000000 0.000000 -1.000000
vn 0.000000 0.000000 -1.000000
vn 1.000000 0.000000 0.000001
vn 1.000000 0.000000 0.000001
vn 1.000000 0.000000 -0.000000
vn 1.000000 0.000000 -0.000000
vn 0.000000 0.000000 1.000000
vn 0.000000 0.000000 1.000000
vn 0.000000 0.000000 1.000000
vn 0.000000 0.000000 1.000000
vn 0.000000 1.000000 0.000000
vn 0.000000 1.000000 0.000000
vn 0.000000 1.000000 0.000000
vn 0.000000 1.000000 0.000000
vn 0.000000 1.000000 0.000000
vn 0.000000 1.000000 0.000000
vn 0.000000 1.000000 0.000000
vn 0.000000 1.000000 0.000000
vn 0.000000 1.000000 0.000000
vn 0.000000 1.000000 0.000000
vn 0.000000 1.000000 0.000000
vn 0.000000 1.000000 0.000000
vn 0.000000 1.000000 0.000000
vn 0.000000 1.000000 0.000000
vn 0.000000 1.000000 0.000000
vn 0.000000 1.000000 0.000000
vn 1.000000 0.000000 0.000000
vn 1.000000 0.000000 0.000000
vn 1.000000 0.000000 0.000000
vn 1.000000 0.000000 0.000000
vn 0.000000 -1.000000 0.000000
vn 0.000000 -1.000000 0.000000
vn 1.000000 0.000000 0.000000
vn 1.000000 0.000000 0.000000
vn 0.000000 -1.000000 0.000000
vn 0.000000 -1.000000 0.000000
vn 0.000000 -1.000000 0.000000
vn 0.000000 -1.000000 0.000000
vn -1.000000 0.000000 0.000000
vn -1.000000 0.000000 0.000000
vn 0.000000 -1.000000 0.000000
vn 0.000000 -1.000000 0.000000
vn 1.000000 0.000000 0.000000
vn 1.000000 0.000000 0.000000
vn 0.000000 -1.000000 0.000000
vn 0.000000 -1.000000 0.000000
vn 0.000000 -1.000000 0.000000
vn 0.000000 -1.000000 0.000000
vn -1.000000 0.000000 0.000000
vn -1.000000 0.000000 0.000000
vn 0.000000 -1.000000 0.000000
vn 0.000000 -1.000000 0.000000
vn 1.000000 0.000000 -0.000000
vn 1.000000 0.000000 -0.000000
vn 0.000000 -1.000000 -0.000000
vn 0.000000 -1.000000 -0.000000
vn 0.000000 -1.000000 -0.000000
vn 0.000000 -1.000000 -0.000000
vn -1.000000 0.000000 0.000000
vn -1.000000 0.000000 0.000000
vn 0.000000 -1.000000 0.000000
vn 0.000000 -1.000000 0.000000
vn -1.000000 0.000000 0.000000
vn -1.000000 0.000000 0.000000
vn -1.000000 0.000000 0.000000
vn -1.000000 0.000000 0.000000
vn 0.000000 -1.000000 0.000000
vn -1.000000 0.000000 0.000000
vn -1.000000 0.000000 0.000000
vn 0.000000 -1.000000 -0.000000
vn 0.000000 -1.000000 -0.000000
vn 0.000000 -1.000000 -0.000000
vn 0.000000 -1.000000 -0.000000
vn 1.000000 0.000000 0.000001
vn 1.000000 0.000000 0.000001
vn 0.000000 -1.000000 0.000000
vn 0.000000 -1.000000 0.000000
vn -1.000000 0.000000 0.000000
vn -1.000000 0.000000 0.000000
vn 0.000000 -1.000000 0.000000
vn 0.000000 -1.000000 0.000000
vn 0.000000 -1.000000 0.000000
vn 0.000000 -1.000000 0.000000
vn 1.000000 0.000000 0.000000
vn 1.000000 0.000000 0.000000
vn 0.000000 -1.000000 0.000000
vn 0.000000 -1.000000 0.000000
vn -1.000000 0.000000 -0.000001
vn -1.000000 0.000000 -0.000001
vn 0.000000 -1.000000 0.000000
vn 0.000000 -1.000000 0.000000
vn 0.000000 -1.000000 0.000000
vn 0.000000 -1.000000 0.000000
vn 1.000000 0.000000 0.000000
vn 1.000000 0.000000 0.000000
vn 0.000000 -1.000000 0.000000
g Low_Poly_Shelf
f 20/125/1 17/126/2 9/127/3 10/128/4
f 18/147/5 19/148/6 11/149/7 12/150/8
f 46/169/9 47/170/10 66/171/11 67/172/12
f 7/57/13 57/58/14 56/59/15
f 5/165/16 15/164/17 16/163/18 7/166/19
f 1/143/20 13/142/21 14/141/22 3/144/23
f 10/128/4 9/127/3 2/133/24 4/134/25
f 12/150/8 11/149/7 6/153/26 8/154/27
f 8/63/28 45/64/29 68/65/30
f 48/69/31 49/70/32 64/71/33 65/72/34
f 26/151/35 27/152/36 19/148/6 18/147/5
f 28/129/37 25/130/38 17/126/2 20/125/1
f 54/173/39 55/174/40 58/175/41 59/176/42
f 16/163/18 15/164/17 23/162/43 22/161/44
f 14/141/22 13/142/21 21/138/45 24/137/46
f 62/177/47 63/178/48 50/179/49 51/180/50
f 27/152/36 26/151/35 30/157/51 31/158/52
f 25/130/38 28/129/37 32/135/53 29/136/54
f 52/77/55 53/78/56 60/79/57 61/80/58
f 22/161/44 23/162/43 31/158/52 30/157/51
f 24/137/46 21/138/45 29/136/54 32/135/53
f 47/1/59 48/2/60 65/3/61 66/4/62
f 18/147/63 12/150/64 35/155/65 34/156/66
f 67/9/67 68/10/68 45/11/69 46/12/70
f 9/127/71 17/126/72 33/131/73 36/132/74
f 51/17/75 52/18/76 61/19/77 62/20/78
f 38/159/79 30/157/80 26/151/81 39/160/82
f 63/25/83 64/26/84 49/27/85 50/28/86
f 37/139/87 40/140/88 25/130/89 29/136/90
f 55/33/91 56/34/92 57/35/93 58/36/94
f 16/163/95 22/161/96 43/167/97 41/168/98
f 59/41/99 60/42/100 53/43/101 54/44/102
f 21/138/103 13/142/104 42/145/105 44/146/106
f 3/85/107 14/86/108 15/87/109 5/88/110
f 23/89/111 15/87/109 14/86/108 24/90/112
f 31/91/113 23/89/111 24/90/112 32/92/114
f 32/92/114 28/93/115 27/94/116 31/91/113
f 19/95/117 27/94/116 28/93/115 20/96/118
f 11/97/119 19/95/117 20/96/118 10/98/120
f 6/99/121 11/97/119 10/98/120 4/100/122
f 2/49/123 8/50/124 6/51/125 4/52/126
f 9/66/127 45/64/29 8/63/28 2/67/128
f 46/12/70 45/11/69 9/15/129 36/16/130
f 33/101/131 47/102/132 46/103/133 36/104/134
f 17/5/135 48/2/60 47/1/59 33/6/136
f 25/73/137 49/70/32 48/69/31 17/74/138
f 50/28/86 49/27/85 25/31/139 40/32/140
f 50/105/141 40/106/142 37/107/143 51/108/144
f 29/21/145 52/18/76 51/17/75 37/22/146
f 21/81/147 53/78/56 52/77/55 29/82/148
f 54/44/102 53/43/101 21/47/149 44/48/150
f 42/109/151 55/110/152 54/111/153 44/112/154
f 13/37/155 56/34/92 55/33/91 42/38/156
f 7/57/13 56/59/15 13/61/157 1/62/158
f 5/53/159 7/54/160 1/55/161 3/56/162
f 7/57/13 16/60/163 57/58/14
f 58/36/94 57/35/93 16/39/164 41/40/165
f 59/113/166 58/114/167 41/115/168 43/116/169
f 22/45/170 60/42/100 59/41/99 43/46/171
f 61/80/58 60/79/57 22/83/172 30/84/173
f 62/20/78 61/19/77 30/23/174 38/24/175
f 38/117/176 39/118/177 63/119/178 62/120/179
f 26/29/180 64/26/84 63/25/83 39/30/181
f 65/72/34 64/71/33 26/75/182 18/76/183
f 66/4/62 65/3/61 18/7/184 34/8/185
f 67/121/186 66/122/187 34/123/188 35/124/189
f 12/13/190 68/10/68 67/9/67 35/14/191
f 8/63/28 68/65/30 12/68/192
