# This file uses centimeters as units for non-parametric coordinates.

v 0.574375 -0.205450 1.022116
v 0.574375 -0.035680 1.022116
v 0.709284 -0.120565 0.963669
v 0.110070 -0.139469 -0.193360
v 0.110070 -0.101660 -0.193360
v 0.140115 -0.120565 -0.206377
v 0.619344 -0.120565 1.002634
v 0.098564 -0.120565 -0.247375
v 0.241372 -0.179675 0.197308
v 0.241372 -0.061455 0.197308
v 0.335316 -0.120565 0.156609
v 0.515370 -0.151900 0.769259
v 0.515370 -0.089229 0.769259
v 0.565173 -0.120565 0.747683
v 0.417298 -0.151900 0.542883
v 0.467100 -0.120565 0.521307
v 0.417298 -0.089229 0.542883
v 0.353407 -0.179675 0.455912
v 0.447351 -0.120565 0.415213
v 0.353407 -0.061455 0.455912
v 0.491658 -0.205450 0.831184
v 0.491658 -0.035680 0.831184
v 0.626567 -0.120565 0.772738
v 0.214861 -0.139469 0.048525
v 0.244906 -0.120565 0.035508
v 0.214861 -0.101660 0.048525
vt 0.066432 0.001738
vt 0.211838 0.001738
vt 0.211838 0.107550
vt 0.066432 0.107550
vt 0.276278 0.152671
vt 0.001992 0.152671
vt 0.276278 0.273546
vt 0.001992 0.273546
vt 0.182996 0.336620
vt 0.095274 0.336620
vt 0.182996 0.449681
vt 0.095274 0.449681
vt 0.139135 0.472901
vt 0.214257 0.870781
vt 0.214257 0.476892
vt 0.303501 0.476892
vt 0.303501 0.870781
vt 0.656890 0.870781
vt 0.656890 0.476892
vt 0.770596 0.673837
vt 0.998008 0.673837
vt 0.309637 0.870781
vt 0.309637 0.476892
vt 0.417233 0.601134
vt 0.417233 0.746540
vt 0.650755 0.673837
vt 0.543158 0.673837
vt 0.338643 0.001738
vt 0.464568 0.001738
vt 0.464568 0.107550
vt 0.338643 0.107550
vt 0.520375 0.152671
vt 0.282836 0.152671
vt 0.520375 0.273546
vt 0.282836 0.273546
vt 0.439590 0.336620
vt 0.363621 0.336620
vt 0.439590 0.449681
vt 0.363621 0.449681
vt 0.388944 0.472901
vt 0.118877 0.818010
vt 0.118877 0.476892
vt 0.208121 0.476892
vt 0.208121 0.818010
vt 0.112742 0.476892
vt 0.112742 0.818010
vt 0.023497 0.818010
vt 0.023497 0.476892
vt 0.528404 0.001738
vt 0.601107 0.001738
vt 0.601107 0.107550
vt 0.528404 0.107550
vt 0.665547 0.152671
vt 0.528404 0.152671
vt 0.665547 0.273546
vt 0.528404 0.273546
vt 0.572265 0.336620
vt 0.528404 0.336620
vt 0.572265 0.449681
vt 0.528404 0.449681
vt 0.528404 0.472901
vn -0.931494 -0.000000 0.363757
vn -0.931494 -0.000000 0.363757
vn -0.966111 -0.000000 0.258126
vn -0.966111 -0.000000 0.258126
vn 0.453521 0.865950 -0.210829
vn 0.451556 0.865885 -0.215270
vn 0.427966 0.863628 -0.266443
vn 0.426780 0.863447 -0.268919
vn 0.451556 -0.865885 -0.215270
vn 0.453521 -0.865950 -0.210829
vn 0.426780 -0.863447 -0.268919
vn 0.427966 -0.863628 -0.266443
vn 0.397526 0.000000 0.917591
vn 0.397526 0.000001 0.917591
vn 0.397526 0.000001 0.917591
vn 0.397526 0.000001 0.917591
vn -0.574165 -0.803192 -0.158797
vn -0.574165 0.803192 -0.158797
vn -0.397528 -0.000000 -0.917590
vn 0.702360 -0.000000 -0.711822
vn -0.997180 -0.000000 0.075052
vn -0.997180 -0.000000 0.075052
vn -0.869390 -0.000000 0.494126
vn -0.869390 -0.000000 0.494126
vn 0.376771 0.850886 -0.366109
vn 0.380668 0.852182 -0.358996
vn 0.479676 0.864751 -0.148714
vn 0.480761 0.864610 -0.146006
vn 0.380668 -0.852182 -0.358996
vn 0.376772 -0.850886 -0.366109
vn 0.480761 -0.864610 -0.146006
vn 0.479677 -0.864751 -0.148714
vn -0.941602 -0.000000 0.336727
vn -0.941602 -0.000000 0.336727
vn 0.452119 0.865906 -0.214000
vn 0.448530 0.865745 -0.222050
vn 0.448530 -0.865745 -0.222050
vn 0.452119 -0.865906 -0.214000
vn 0.463119 -0.865973 -0.188708
vn 0.464714 -0.865928 -0.184960
vn 0.464714 0.865928 -0.184960
vn 0.463119 0.865973 -0.188708
vn -0.905146 -0.000000 0.425101
vn -0.905146 -0.000000 0.425101
vn -0.917591 -0.000000 0.397526
vn -0.917591 -0.000000 0.397526
vn 0.458795 0.866025 -0.198763
vn 0.458795 0.866025 -0.198763
vn 0.458796 -0.866025 -0.198763
vn 0.458796 -0.866025 -0.198763
vn 0.458796 -0.866025 -0.198763
vn 0.458796 -0.866025 -0.198763
vn 0.458796 0.866025 -0.198763
vn 0.458796 0.866025 -0.198763
vn -0.917591 -0.000000 0.397525
vn -0.917591 -0.000000 0.397525
g Low_Poly_Dart1 Prop_Dart_Group
f 9/8/1 10/7/2 26/9/3 24/10/4
f 10/35/5 11/34/6 25/36/7 26/37/8
f 11/56/9 9/55/10 24/57/11 25/58/12
f 2/18/13 1/19/14 7/20/15
f 3/21/16 2/18/13 7/20/15
f 1/19/14 3/21/16 7/20/15
f 4/12/17 5/11/18 8/13/19
f 5/39/18 6/38/20 8/40/19
f 6/60/20 4/59/17 8/61/19
f 12/1/21 13/2/22 17/3/23 15/4/24
f 13/28/25 14/29/26 16/30/27 17/31/28
f 14/49/29 12/50/30 15/51/31 16/52/32
f 21/22/33 22/23/34 13/24/22 12/25/21
f 22/23/35 23/26/36 14/27/26 13/24/25
f 23/26/37 21/22/38 12/25/30 14/27/29
f 16/52/32 15/51/31 18/53/39 19/54/40
f 17/31/28 16/30/27 19/32/41 20/33/42
f 15/4/24 17/3/23 20/5/43 18/6/44
f 19/54/40 18/53/39 9/55/10 11/56/9
f 20/33/42 19/32/41 11/34/6 10/35/5
f 18/6/44 20/5/43 10/7/2 9/8/1
f 1/14/45 2/15/46 22/16/34 21/17/33
f 2/41/47 3/42/48 23/43/36 22/44/35
f 3/45/49 1/46/50 21/47/38 23/48/37
f 25/58/12 24/57/11 4/59/51 6/60/52
f 26/37/8 25/36/7 6/38/53 5/39/54
f 24/10/4 26/9/3 5/11/55 4/12/56
v -0.099171 -0.205450 1.063498
v -0.099171 -0.035680 1.063498
v 0.047855 -0.120565 1.063498
v -0.042030 -0.139469 -0.236385
v -0.042030 -0.101660 -0.236385
v -0.009286 -0.120565 -0.236385
v -0.050162 -0.120565 1.063498
v -0.031115 -0.120565 -0.290522
v -0.076849 -0.179675 0.174285
v -0.076849 -0.061455 0.174285
v 0.025533 -0.120565 0.174285
v -0.052795 -0.151900 0.808023
v -0.052795 -0.089229 0.808023
v 0.001480 -0.120565 0.808023
v -0.052795 -0.151900 0.561316
v 0.001480 -0.120565 0.561316
v -0.052795 -0.089229 0.561316
v -0.076849 -0.179675 0.456114
v 0.025533 -0.120565 0.456114
v -0.076849 -0.061455 0.456114
v -0.099171 -0.205450 0.855419
v -0.099171 -0.035680 0.855419
v 0.047855 -0.120565 0.855419
v -0.042030 -0.139469 0.027224
v -0.009286 -0.120565 0.027224
v -0.042030 -0.101660 0.027224
vt 0.066432 0.001738
vt 0.211838 0.001738
vt 0.211838 0.107550
vt 0.066432 0.107550
vt 0.276278 0.152671
vt 0.001992 0.152671
vt 0.276278 0.273546
vt 0.001992 0.273546
vt 0.182996 0.336620
vt 0.095274 0.336620
vt 0.182996 0.449681
vt 0.095274 0.449681
vt 0.139135 0.472901
vt 0.214257 0.870781
vt 0.214257 0.476892
vt 0.303501 0.476892
vt 0.303501 0.870781
vt 0.656890 0.870781
vt 0.656890 0.476892
vt 0.770596 0.673837
vt 0.998008 0.673837
vt 0.309637 0.870781
vt 0.309637 0.476892
vt 0.417233 0.601134
vt 0.417233 0.746540
vt 0.650755 0.673837
vt 0.543158 0.673837
vt 0.338643 0.001738
vt 0.464568 0.001738
vt 0.464568 0.107550
vt 0.338643 0.107550
vt 0.520375 0.152671
vt 0.282836 0.152671
vt 0.520375 0.273546
vt 0.282836 0.273546
vt 0.439590 0.336620
vt 0.363621 0.336620
vt 0.439590 0.449681
vt 0.363621 0.449681
vt 0.388944 0.472901
vt 0.118877 0.818010
vt 0.118877 0.476892
vt 0.208121 0.476892
vt 0.208121 0.818010
vt 0.112742 0.476892
vt 0.112742 0.818010
vt 0.023497 0.818010
vt 0.023497 0.476892
vt 0.528404 0.001738
vt 0.601107 0.001738
vt 0.601107 0.107550
vt 0.528404 0.107550
vt 0.665547 0.152671
vt 0.528404 0.152671
vt 0.665547 0.273546
vt 0.528404 0.273546
vt 0.572265 0.336620
vt 0.528404 0.336620
vt 0.572265 0.449681
vt 0.528404 0.449681
vt 0.528404 0.472901
vn -0.999333 -0.000000 -0.036513
vn -0.999333 -0.000000 -0.036513
vn -0.989107 -0.000000 -0.147200
vn -0.989107 -0.000000 -0.147200
vn 0.499957 0.865950 -0.013168
vn 0.499919 0.865885 -0.018025
vn 0.498616 0.863628 -0.074359
vn 0.498512 0.863447 -0.077102
vn 0.499919 -0.865885 -0.018025
vn 0.499957 -0.865950 -0.013168
vn 0.498512 -0.863447 -0.077102
vn 0.498616 -0.863628 -0.074359
vn 0.000000 0.000000 1.000000
vn 0.000000 0.000001 1.000000
vn 0.000000 0.000001 1.000000
vn 0.000000 0.000001 1.000000
vn -0.463723 -0.803192 -0.373956
vn -0.463723 0.803192 -0.373956
vn -0.000003 -0.000000 -1.000000
vn 0.927447 -0.000000 -0.373956
vn -0.944838 -0.000000 -0.327538
vn -0.944838 -0.000000 -0.327537
vn -0.994173 -0.000000 0.107801
vn -0.994173 -0.000000 0.107801
vn 0.491260 0.850886 -0.186162
vn 0.492007 0.852182 -0.178087
vn 0.499264 0.864751 0.054225
vn 0.499183 0.864610 0.057141
vn 0.492008 -0.852182 -0.178086
vn 0.491260 -0.850886 -0.186162
vn 0.499183 -0.864610 0.057141
vn 0.499265 -0.864751 0.054225
vn -0.997863 -0.000000 -0.065334
vn -0.997863 -0.000000 -0.065334
vn 0.499931 0.865906 -0.016636
vn 0.499838 0.865745 -0.025449
vn 0.499838 -0.865745 -0.025449
vn 0.499931 -0.865906 -0.016636
vn 0.499970 -0.865973 0.010945
vn 0.499944 -0.865928 0.015018
vn 0.499944 0.865928 0.015018
vn 0.499970 0.865973 0.010945
vn -0.999542 -0.000000 0.030250
vn -0.999542 -0.000000 0.030250
vn -1.000000 -0.000000 0.000000
vn -1.000000 -0.000000 0.000000
vn 0.500000 0.866025 -0.000000
vn 0.500000 0.866026 -0.000000
vn 0.500000 -0.866025 0.000000
vn 0.500000 -0.866025 0.000000
vn 0.500000 -0.866025 -0.000000
vn 0.500000 -0.866025 -0.000000
vn 0.500000 0.866025 -0.000000
vn 0.500000 0.866025 -0.000000
vn -1.000000 -0.000000 -0.000000
vn -1.000000 -0.000000 -0.000000
g Prop_Dart_Group Low_Poly_Dart
f 35/69/57 36/68/58 52/70/59 50/71/60
f 36/96/61 37/95/62 51/97/63 52/98/64
f 37/117/65 35/116/66 50/118/67 51/119/68
f 28/79/69 27/80/70 33/81/71
f 29/82/72 28/79/69 33/81/71
f 27/80/70 29/82/72 33/81/71
f 30/73/73 31/72/74 34/74/75
f 31/100/74 32/99/76 34/101/75
f 32/121/76 30/120/73 34/122/75
f 38/62/77 39/63/78 43/64/79 41/65/80
f 39/89/81 40/90/82 42/91/83 43/92/84
f 40/110/85 38/111/86 41/112/87 42/113/88
f 47/83/89 48/84/90 39/85/78 38/86/77
f 48/84/91 49/87/92 40/88/82 39/85/81
f 49/87/93 47/83/94 38/86/86 40/88/85
f 42/113/88 41/112/87 44/114/95 45/115/96
f 43/92/84 42/91/83 45/93/97 46/94/98
f 41/65/80 43/64/79 46/66/99 44/67/100
f 45/115/96 44/114/95 35/116/66 37/117/65
f 46/94/98 45/93/97 37/95/62 36/96/61
f 44/67/100 46/66/99 36/68/58 35/69/57
f 27/75/101 28/76/102 48/77/90 47/78/89
f 28/102/103 29/103/104 49/104/92 48/105/91
f 29/106/105 27/107/106 47/108/94 49/109/93
f 51/119/68 50/118/67 30/120/107 32/121/108
f 52/98/64 51/97/63 32/99/109 31/100/110
f 50/71/60 52/70/59 31/72/111 30/73/112
v 0.748470 -0.205450 -0.981478
v 0.748470 -0.035680 -0.981478
v 0.682175 -0.120565 -1.112709
v -0.437533 -0.139469 -0.446355
v -0.437533 -0.101660 -0.446355
v -0.452298 -0.120565 -0.475581
v 0.726372 -0.120565 -1.025222
v -0.490777 -0.120565 -0.431686
v -0.055282 -0.179675 -0.600450
v -0.055282 -0.061455 -0.600450
v -0.101446 -0.120565 -0.691833
v 0.499530 -0.151900 -0.907676
v 0.499530 -0.089229 -0.907676
v 0.475057 -0.120565 -0.956120
v 0.279326 -0.151900 -0.796434
v 0.254853 -0.120565 -0.844878
v 0.279326 -0.089229 -0.796434
v 0.196271 -0.179675 -0.727529
v 0.150107 -0.120565 -0.818912
v 0.196271 -0.061455 -0.727529
v 0.562744 -0.205450 -0.887654
v 0.562744 -0.035680 -0.887654
v 0.496450 -0.120565 -1.018884
v -0.202244 -0.139469 -0.565218
v -0.217008 -0.120565 -0.594444
v -0.202244 -0.101660 -0.565218
vt 0.066432 0.001738
vt 0.211838 0.001738
vt 0.211838 0.107550
vt 0.066432 0.107550
vt 0.276278 0.152671
vt 0.001992 0.152671
vt 0.276278 0.273546
vt 0.001992 0.273546
vt 0.182996 0.336620
vt 0.095274 0.336620
vt 0.182996 0.449681
vt 0.095274 0.449681
vt 0.139135 0.472901
vt 0.214257 0.870781
vt 0.214257 0.476892
vt 0.303501 0.476892
vt 0.303501 0.870781
vt 0.656890 0.870781
vt 0.656890 0.476892
vt 0.770596 0.673837
vt 0.998008 0.673837
vt 0.309637 0.870781
vt 0.309637 0.476892
vt 0.417233 0.601134
vt 0.417233 0.746540
vt 0.650755 0.673837
vt 0.543158 0.673837
vt 0.338643 0.001738
vt 0.464568 0.001738
vt 0.464568 0.107550
vt 0.338643 0.107550
vt 0.520375 0.152671
vt 0.282836 0.152671
vt 0.520375 0.273546
vt 0.282836 0.273546
vt 0.439590 0.336620
vt 0.363621 0.336620
vt 0.439590 0.449681
vt 0.363621 0.449681
vt 0.388944 0.472901
vt 0.118877 0.818010
vt 0.118877 0.476892
vt 0.208121 0.476892
vt 0.208121 0.818010
vt 0.112742 0.476892
vt 0.112742 0.818010
vt 0.023497 0.818010
vt 0.023497 0.476892
vt 0.528404 0.001738
vt 0.601107 0.001738
vt 0.601107 0.107550
vt 0.528404 0.107550
vt 0.665547 0.152671
vt 0.528404 0.152671
vt 0.665547 0.273546
vt 0.528404 0.273546
vt 0.572265 0.336620
vt 0.528404 0.336620
vt 0.572265 0.449681
vt 0.528404 0.449681
vt 0.528404 0.472901
vn 0.418015 -0.000000 0.908440
vn 0.418015 -0.000000 0.908440
vn 0.314608 -0.000000 0.949222
vn 0.314608 -0.000000 0.949222
vn -0.237187 0.865950 -0.440309
vn -0.241505 0.865885 -0.438086
vn -0.291200 0.863628 -0.411522
vn -0.293601 0.863447 -0.410192
vn -0.241505 -0.865885 -0.438086
vn -0.237187 -0.865950 -0.440309
vn -0.293601 -0.863447 -0.410192
vn -0.291200 -0.863628 -0.411522
vn 0.892571 0.000000 -0.450906
vn 0.892571 0.000001 -0.450906
vn 0.892571 0.000001 -0.450906
vn 0.892571 0.000001 -0.450906
vn -0.124687 -0.803192 0.582525
vn -0.124687 0.803192 0.582525
vn -0.892570 0.000000 0.450909
vn -0.751974 0.000000 -0.659193
vn 0.133683 0.000000 0.991024
vn 0.133683 0.000000 0.991024
vn 0.544499 -0.000000 0.838762
vn 0.544499 -0.000000 0.838762
vn -0.387675 0.850886 -0.354542
vn -0.380804 0.852182 -0.358851
vn -0.176721 0.864751 -0.470080
vn -0.174082 0.864610 -0.471322
vn -0.380804 -0.852182 -0.358852
vn -0.387675 -0.850886 -0.354543
vn -0.174082 -0.864610 -0.471322
vn -0.176722 -0.864751 -0.470080
vn 0.391628 -0.000000 0.920124
vn 0.391628 -0.000000 0.920124
vn -0.240271 0.865906 -0.438722
vn -0.248095 0.865745 -0.434666
vn -0.248095 -0.865745 -0.434666
vn -0.240271 -0.865906 -0.438723
vn -0.215670 -0.865973 -0.451194
vn -0.212023 -0.865928 -0.453007
vn -0.212023 0.865928 -0.453007
vn -0.215670 0.865973 -0.451194
vn 0.477700 -0.000000 0.878523
vn 0.477700 -0.000000 0.878523
vn 0.450906 -0.000000 0.892571
vn 0.450906 -0.000000 0.892571
vn -0.225453 0.866025 -0.446286
vn -0.225453 0.866025 -0.446285
vn -0.225453 -0.866025 -0.446286
vn -0.225453 -0.866025 -0.446286
vn -0.225453 -0.866025 -0.446286
vn -0.225453 -0.866025 -0.446286
vn -0.225453 0.866025 -0.446286
vn -0.225453 0.866025 -0.446286
vn 0.450906 -0.000000 0.892571
vn 0.450906 -0.000000 0.892571
g Prop_Dart_Group Low_Poly_Dart5
f 61/130/113 62/129/114 78/131/115 76/132/116
f 62/157/117 63/156/118 77/158/119 78/159/120
f 63/178/121 61/177/122 76/179/123 77/180/124
f 54/140/125 53/141/126 59/142/127
f 55/143/128 54/140/125 59/142/127
f 53/141/126 55/143/128 59/142/127
f 56/134/129 57/133/130 60/135/131
f 57/161/130 58/160/132 60/162/131
f 58/182/132 56/181/129 60/183/131
f 64/123/133 65/124/134 69/125/135 67/126/136
f 65/150/137 66/151/138 68/152/139 69/153/140
f 66/171/141 64/172/142 67/173/143 68/174/144
f 73/144/145 74/145/146 65/146/134 64/147/133
f 74/145/147 75/148/148 66/149/138 65/146/137
f 75/148/149 73/144/150 64/147/142 66/149/141
f 68/174/144 67/173/143 70/175/151 71/176/152
f 69/153/140 68/152/139 71/154/153 72/155/154
f 67/126/136 69/125/135 72/127/155 70/128/156
f 71/176/152 70/175/151 61/177/122 63/178/121
f 72/155/154 71/154/153 63/156/118 62/157/117
f 70/128/156 72/127/155 62/129/114 61/130/113
f 53/136/157 54/137/158 74/138/146 73/139/145
f 54/163/159 55/164/160 75/165/148 74/166/147
f 55/167/161 53/168/162 73/169/150 75/170/149
f 77/180/124 76/179/123 56/181/163 58/182/164
f 78/159/120 77/158/119 58/160/165 57/161/166
f 76/132/116 78/131/115 57/133/167 56/134/168
