# This file uses centimeters as units for non-parametric coordinates.

v -0.101393 -0.965766 0.684337
v 0.101393 -0.965766 0.684337
v -0.101393 0.965766 0.684337
v 0.101393 0.965766 0.684337
v -0.101393 0.965766 -0.633645
v -0.050702 0.965766 -0.684337
v -0.101393 -0.965766 -0.633645
v -0.050702 -0.965766 -0.684337
v 0.050702 0.965766 -0.684337
v 0.101393 0.965766 -0.633645
v 0.101393 -0.965766 -0.633645
v 0.050702 -0.965766 -0.684337
v -0.051837 -0.987385 -0.699656
v -0.051837 0.987385 -0.699656
v 0.051837 0.987385 -0.699656
v 0.051837 -0.987385 -0.699656
v 0.103663 -0.987385 -0.647830
v 0.103663 -0.987385 0.699656
v 0.103663 0.987385 -0.647830
v 0.103663 0.987385 0.699656
v -0.103663 0.987385 -0.647830
v -0.103663 -0.987385 -0.647830
v -0.103663 -0.987385 0.699656
v -0.103663 0.987385 0.699656
v -0.067838 -0.987385 -0.738287
v -0.067838 0.987385 -0.738287
v 0.067838 0.987385 -0.738287
v 0.067838 -0.987385 -0.738287
v 0.142294 -0.987385 -0.663831
v 0.142294 -0.987385 0.699656
v 0.142294 0.987385 -0.663831
v 0.142294 0.987385 0.699656
v -0.142294 0.987385 -0.663831
v -0.142294 -0.987385 -0.663831
v -0.142294 -0.987385 0.699656
v -0.142294 0.987385 0.699656
vt 0.004083 0.408032
vt 0.289774 0.408032
vt 0.289774 0.701230
vt 0.004083 0.701230
vt 0.001787 0.998008
vt 0.001787 0.704810
vt 0.287478 0.704810
vt 0.287478 0.998008
vt 0.304135 0.346611
vt 0.304135 0.059833
vt 0.580291 0.059833
vt 0.590913 0.131520
vt 0.590913 0.274923
vt 0.580291 0.346611
vt 0.300925 0.056623
vt 0.583264 0.056623
vt 0.594123 0.129915
vt 0.594123 0.276529
vt 0.583264 0.349821
vt 0.300925 0.349821
vt 0.300925 0.001992
vt 0.586616 0.001992
vt 0.602217 0.107286
vt 0.602217 0.299157
vt 0.586616 0.404452
vt 0.300925 0.404452
vt 0.317203 0.752651
vt 0.306582 0.680964
vt 0.306582 0.537560
vt 0.317203 0.465873
vt 0.593360 0.465873
vt 0.593360 0.752651
vt 0.314231 0.755861
vt 0.303372 0.682569
vt 0.303372 0.535955
vt 0.314231 0.462663
vt 0.596570 0.462663
vt 0.596570 0.755861
vt 0.310878 0.810492
vt 0.295278 0.705197
vt 0.295278 0.513326
vt 0.310878 0.408032
vt 0.596570 0.408032
vt 0.596570 0.810492
vt 0.004997 0.346611
vt 0.004997 0.059833
vt 0.291775 0.059833
vt 0.291775 0.346611
vt 0.001787 0.056623
vt 0.294985 0.056623
vt 0.294985 0.349821
vt 0.001787 0.349821
vt 0.001787 0.001992
vt 0.294985 0.001992
vt 0.294985 0.404452
vt 0.001787 0.404452
vt 0.895271 0.705198
vt 0.602073 0.705197
vt 0.602073 0.513326
vt 0.895271 0.513326
vt 0.602073 0.810492
vt 0.895271 0.810492
vt 0.602073 0.408032
vt 0.895271 0.408032
vn 0.000000 0.000000 1.000000
vn 0.000000 0.000000 1.000000
vn 0.000000 0.000000 1.000000
vn 0.000000 0.000000 1.000000
vn 0.000000 1.000000 0.000000
vn 0.000000 1.000000 0.000000
vn 0.000000 1.000000 0.000000
vn 0.000000 1.000000 0.000000
vn 0.000000 1.000000 0.000000
vn 0.000000 1.000000 0.000000
vn 0.000000 0.000000 -1.000000
vn 0.000000 0.000000 -1.000000
vn 0.000000 0.000000 -1.000000
vn 0.000000 0.000000 -1.000000
vn 1.000000 0.000000 0.000000
vn 1.000000 0.000000 0.000000
vn 1.000000 0.000000 0.000000
vn 1.000000 0.000000 0.000000
vn -1.000000 0.000000 0.000000
vn -1.000000 0.000000 0.000000
vn -1.000000 0.000000 0.000000
vn -1.000000 0.000000 0.000000
vn 0.000000 -1.000000 -0.000000
vn 0.000000 -1.000000 -0.000000
vn 0.000000 -1.000000 -0.000000
vn 0.000000 -1.000000 -0.000000
vn 0.000000 -1.000000 -0.000000
vn 0.000000 -1.000000 -0.000000
vn -0.707107 0.000000 -0.707107
vn -0.707107 0.000000 -0.707107
vn -0.707107 0.000000 -0.707107
vn -0.707107 0.000000 -0.707107
vn 0.707107 -0.000000 -0.707107
vn 0.707107 -0.000000 -0.707107
vn 0.707107 -0.000000 -0.707107
vn 0.707107 -0.000000 -0.707107
vn 0.000000 0.578159 0.815924
vn 0.000000 0.578159 0.815924
vn 0.000000 0.578159 0.815924
vn 0.000000 0.578159 0.815924
vn 0.000000 -0.578159 0.815924
vn 0.000000 -0.578159 0.815924
vn 0.000000 -0.578159 0.815924
vn 0.000000 -0.578159 0.815924
vn -0.994534 -0.104414 0.000000
vn -0.994534 -0.104414 0.000000
vn -0.994534 -0.104414 0.000000
vn -0.994534 -0.104413 0.000000
vn -0.994534 0.104413 0.000000
vn -0.994534 0.104413 0.000000
vn -0.994534 0.104413 0.000000
vn -0.994534 0.104413 0.000000
vn -0.989201 0.000000 0.146562
vn -0.989201 0.000000 0.146562
vn -0.989201 0.000000 0.146562
vn -0.989201 0.000000 0.146562
vn 0.994534 -0.104413 0.000000
vn 0.994534 -0.104413 0.000000
vn 0.994534 -0.104413 0.000000
vn 0.994534 -0.104413 0.000000
vn 0.989201 0.000000 0.146562
vn 0.989201 0.000000 0.146562
vn 0.989201 0.000000 0.146562
vn 0.989201 0.000000 0.146562
vn 0.994534 0.104414 0.000000
vn 0.994534 0.104414 0.000000
vn 0.994534 0.104414 0.000000
vn 0.994534 0.104413 0.000000
vn 0.622662 0.473904 0.622661
vn 0.622662 0.473904 0.622661
vn 0.622662 0.473904 0.622661
vn 0.622662 0.473904 0.622661
vn 0.622663 -0.473905 0.622660
vn 0.622663 -0.473905 0.622660
vn 0.622663 -0.473905 0.622660
vn 0.622663 -0.473905 0.622660
vn -0.622663 0.473905 0.622660
vn -0.622663 0.473905 0.622660
vn -0.622663 0.473905 0.622660
vn -0.622663 0.473905 0.622660
vn -0.622662 -0.473904 0.622661
vn -0.622662 -0.473904 0.622661
vn -0.622662 -0.473904 0.622661
vn -0.622662 -0.473904 0.622661
vn 0.000000 1.000000 -0.000003
vn 0.000000 1.000000 -0.000003
vn 0.000000 1.000000 0.000001
vn 0.000000 1.000000 -0.000000
vn 0.000000 -1.000000 -0.000003
vn 0.000000 -1.000000 -0.000003
vn 0.000000 -1.000000 0.000001
vn 0.000000 -1.000000 -0.000000
vn 0.000000 -1.000000 0.000000
vn 0.000000 -1.000000 0.000000
vn 0.000000 -1.000000 0.000000
vn 0.000000 -1.000000 0.000000
vn 0.000000 1.000000 0.000000
vn 0.000000 1.000000 0.000000
vn 0.000000 1.000000 0.000000
vn 0.000000 1.000000 0.000000
vn 0.000000 0.000000 1.000000
vn 0.000000 0.000000 1.000000
vn 0.000000 0.000000 1.000000
vn 0.000000 0.000000 1.000000
vn 0.000000 -1.000000 0.000000
vn 0.000000 -1.000000 0.000000
vn 0.000000 -1.000000 0.000000
vn 0.000000 -1.000000 0.000000
vn 0.000000 0.000000 1.000000
vn 0.000000 0.000000 1.000000
vn 0.000000 0.000000 1.000000
vn 0.000000 0.000000 1.000000
vn 0.000000 1.000000 0.000000
vn 0.000000 1.000000 0.000000
vn 0.000000 1.000000 0.000000
vn 0.000000 1.000000 0.000000
g Low_Poly_Book
f 1/45/1 2/46/2 4/47/3 3/48/4
f 3/9/5 4/10/6 10/11/7 9/12/8 6/13/9 5/14/10
f 25/57/11 26/58/12 27/59/13 28/60/14
f 30/1/15 29/2/16 31/3/17 32/4/18
f 33/5/19 34/6/20 35/7/21 36/8/22
f 7/27/23 8/28/24 12/29/25 11/30/26 2/31/27 1/32/28
f 33/61/29 26/58/30 25/57/31 34/62/32
f 27/59/33 31/63/34 29/64/35 28/60/36
f 6/13/37 9/12/38 15/17/39 14/18/40
f 12/29/41 8/28/42 13/34/43 16/35/44
f 2/31/45 11/30/46 17/36/47 18/37/48
f 10/11/49 4/10/50 20/15/51 19/16/52
f 4/47/53 2/46/54 18/49/55 20/50/56
f 7/27/57 1/32/58 23/38/59 22/33/60
f 1/45/61 3/48/62 24/51/63 23/52/64
f 3/9/65 5/14/66 21/19/67 24/20/68
f 5/14/69 6/13/70 14/18/71 21/19/72
f 8/28/73 7/27/74 22/33/75 13/34/76
f 9/12/77 10/11/78 19/16/79 15/17/80
f 11/30/81 12/29/82 16/35/83 17/36/84
f 14/18/85 15/17/86 27/23/87 26/24/88
f 16/35/89 13/34/90 25/40/91 28/41/92
f 18/37/93 17/36/94 29/42/95 30/43/96
f 19/16/97 20/15/98 32/21/99 31/22/100
f 20/50/101 18/49/102 30/53/103 32/54/104
f 22/33/105 23/38/106 35/44/107 34/39/108
f 23/52/109 24/51/110 36/55/111 35/56/112
f 24/20/113 21/19/114 33/25/115 36/26/116
f 21/19/114 14/18/85 26/24/88 33/25/115
f 13/34/90 22/33/105 34/39/108 25/40/91
f 15/17/86 19/16/97 31/22/100 27/23/87
f 17/36/94 16/35/89 28/41/92 29/42/95
