# This file uses centimeters as units for non-parametric coordinates.

v 0.643129 -0.918245 -0.371312
v 0.371310 -0.918245 -0.643130
v 0.000000 -0.918245 -0.742620
v -0.371310 -0.918245 -0.643130
v -0.643126 -0.918245 -0.371312
v -0.742619 -0.918245 -0.000007
v -0.643126 -0.918245 0.371310
v -0.371310 -0.918245 0.643122
v 0.000000 -0.918245 0.742613
v 0.371310 -0.918245 0.643122
v 0.643129 -0.918245 0.371310
v 0.742619 -0.918245 -0.000007
v 0.795227 0.351923 -0.459130
v 0.459124 0.351923 -0.795229
v 0.000000 0.351923 -0.918252
v -0.459124 0.351923 -0.795229
v -0.795227 0.351923 -0.459130
v -0.918249 0.351923 -0.000007
v -0.795227 0.351923 0.459124
v -0.459124 0.351923 0.795224
v 0.000000 0.351923 0.918242
v 0.459124 0.351923 0.795224
v 0.795227 0.351923 0.459124
v 0.918249 0.351923 -0.000007
v 0.000000 -0.918245 -0.000007
v 0.795227 0.625425 -0.459130
v 0.459124 0.625425 -0.795229
v 0.000000 0.625425 -0.918252
v -0.459124 0.625425 -0.795229
v -0.795227 0.625425 -0.459130
v -0.918249 0.625425 -0.000007
v -0.795227 0.625425 0.459124
v -0.459124 0.625425 0.795224
v 0.000000 0.625425 0.918242
v 0.459124 0.625425 0.795224
v 0.795227 0.625425 0.459124
v 0.918249 0.625425 -0.000007
v 0.816766 0.394004 -0.471568
v 0.471561 0.394004 -0.816770
v 0.471561 0.583345 -0.816770
v 0.816766 0.583345 -0.471568
v 0.000000 0.394004 -0.943124
v 0.000000 0.583345 -0.943124
v -0.471559 0.394004 -0.816770
v -0.471559 0.583345 -0.816770
v -0.816766 0.394004 -0.471568
v -0.816766 0.583345 -0.471568
v -0.943120 0.394004 -0.000007
v -0.943120 0.583345 -0.000007
v -0.816766 0.394004 0.471558
v -0.816766 0.583345 0.471558
v -0.471559 0.394004 0.816761
v -0.471559 0.583345 0.816761
v 0.000000 0.394004 0.943114
v 0.000000 0.583345 0.943114
v 0.471561 0.394004 0.816761
v 0.471561 0.583345 0.816761
v 0.816766 0.394004 0.471558
v 0.816766 0.583345 0.471558
v 0.943121 0.394004 -0.000007
v 0.943121 0.583345 -0.000007
v 0.724948 0.625425 -0.418556
v 0.418549 0.625425 -0.724951
v 0.000000 0.625425 -0.837102
v -0.418548 0.625425 -0.724951
v -0.724947 0.625425 -0.418556
v -0.837097 0.625425 -0.000007
v -0.724947 0.625425 0.418547
v -0.418548 0.625425 0.724943
v 0.000000 0.625425 0.837091
v 0.418549 0.625425 0.724943
v 0.724948 0.625425 0.418547
v 0.837098 0.625425 -0.000007
v 0.584323 -0.902021 -0.337366
v 0.337359 -0.902021 -0.584327
v 0.000000 -0.902021 -0.000007
v 0.000000 -0.902021 -0.674723
v -0.337359 -0.902021 -0.584327
v -0.584323 -0.902021 -0.337366
v -0.674718 -0.902021 -0.000007
v -0.584323 -0.902021 0.337357
v -0.337359 -0.902021 0.584318
v 0.000000 -0.902021 0.674712
v 0.337359 -0.902021 0.584318
v 0.584323 -0.902021 0.337357
v 0.674719 -0.902021 -0.000007
vt 0.649239 0.224377
vt 0.649239 0.154831
vt 0.887145 0.154831
vt 0.887145 0.240825
vt 0.649239 0.085282
vt 0.887145 0.068834
vt 0.895026 0.154831
vt 0.895026 0.243155
vt 0.649239 0.275289
vt 0.887145 0.303778
vt 0.649239 0.034371
vt 0.887145 0.005882
vt 0.895026 0.066506
vt 0.930490 0.154831
vt 0.930490 0.243155
vt 0.895026 0.307812
vt 0.895026 0.001848
vt 0.930490 0.066506
vt 0.938372 0.154831
vt 0.938372 0.240825
vt 0.930490 0.307812
vt 0.930490 0.001848
vt 0.938372 0.068834
vt 0.938372 0.303778
vt 0.938372 0.005882
vt 0.352998 0.224378
vt 0.352998 0.154830
vt 0.590904 0.154830
vt 0.590904 0.240826
vt 0.352998 0.085284
vt 0.590904 0.068835
vt 0.598786 0.154830
vt 0.598786 0.243155
vt 0.352998 0.275289
vt 0.590904 0.303778
vt 0.352998 0.034371
vt 0.590904 0.005883
vt 0.598786 0.066505
vt 0.634250 0.154830
vt 0.634250 0.243155
vt 0.598786 0.307812
vt 0.598786 0.001848
vt 0.634250 0.066505
vt 0.642131 0.154830
vt 0.642131 0.240826
vt 0.634250 0.307812
vt 0.634250 0.001848
vt 0.642131 0.068835
vt 0.642131 0.303778
vt 0.642131 0.005883
vt 0.216172 0.926000
vt 0.137777 0.926000
vt 0.137777 0.639906
vt 0.200965 0.639906
vt 0.059381 0.926000
vt 0.074588 0.639906
vt 0.273560 0.926000
vt 0.247221 0.639906
vt 0.001992 0.926000
vt 0.028331 0.639906
vt 0.575052 0.597898
vt 0.496656 0.597898
vt 0.496656 0.311804
vt 0.559845 0.311804
vt 0.418261 0.597898
vt 0.433468 0.311804
vt 0.632441 0.597898
vt 0.606101 0.311804
vt 0.360872 0.597898
vt 0.387211 0.311804
vt 0.463234 0.674475
vt 0.514146 0.623563
vt 0.583692 0.744022
vt 0.583692 0.604928
vt 0.444599 0.744022
vt 0.653241 0.623563
vt 0.463234 0.813570
vt 0.704152 0.674475
vt 0.514146 0.864481
vt 0.722787 0.744022
vt 0.583692 0.883117
vt 0.704152 0.813570
vt 0.653241 0.864481
vt 0.918711 0.621859
vt 0.964967 0.668116
vt 0.855523 0.731304
vt 0.981898 0.731304
vt 0.855523 0.604928
vt 0.964967 0.794492
vt 0.792334 0.621859
vt 0.918711 0.840749
vt 0.746077 0.668116
vt 0.855523 0.857681
vt 0.729146 0.731304
vt 0.792334 0.840749
vt 0.746077 0.794492
vt 0.259977 0.024891
vt 0.322929 0.087844
vt 0.309766 0.095443
vt 0.252377 0.038054
vt 0.345971 0.173839
vt 0.330772 0.173839
vt 0.173982 0.001848
vt 0.173982 0.017048
vt 0.322929 0.259834
vt 0.309766 0.252234
vt 0.087986 0.024891
vt 0.095586 0.038054
vt 0.259977 0.322786
vt 0.252377 0.309623
vt 0.025034 0.087844
vt 0.038197 0.095443
vt 0.173982 0.345829
vt 0.173982 0.330629
vt 0.001992 0.173839
vt 0.017192 0.173839
vt 0.087986 0.322786
vt 0.095586 0.309623
vt 0.025034 0.259834
vt 0.038197 0.252234
vt 0.979231 0.600936
vt 0.909684 0.600936
vt 0.909684 0.363031
vt 0.995679 0.363031
vt 0.840136 0.600936
vt 0.823689 0.363031
vt 0.909684 0.355149
vt 0.998008 0.355149
vt 0.821360 0.355149
vt 0.909684 0.319685
vt 0.998008 0.319685
vt 0.821360 0.319685
vt 0.909684 0.311804
vt 0.995679 0.311804
vt 0.823689 0.311804
vt 0.657353 0.311804
vt 0.726900 0.311804
vt 0.726900 0.549709
vt 0.640905 0.549709
vt 0.796447 0.311804
vt 0.812895 0.549709
vt 0.726900 0.557591
vt 0.638576 0.557591
vt 0.815224 0.557591
vt 0.726900 0.593055
vt 0.638576 0.593055
vt 0.815224 0.593055
vt 0.726900 0.600937
vt 0.640905 0.600937
vt 0.812895 0.600937
vt 0.354737 0.635914
vt 0.276342 0.635914
vt 0.276342 0.349820
vt 0.339530 0.349820
vt 0.197947 0.635914
vt 0.213154 0.349820
vt 0.280887 0.639906
vt 0.359282 0.639906
vt 0.359282 0.926000
vt 0.296094 0.926000
vt 0.437677 0.639906
vt 0.422470 0.926000
vn 0.700881 -0.132386 -0.700885
vn 0.700881 -0.132386 -0.700885
vn 0.700881 -0.132386 -0.700885
vn 0.700881 -0.132386 -0.700885
vn 0.256539 -0.132386 -0.957424
vn 0.256539 -0.132386 -0.957424
vn 0.256539 -0.132386 -0.957424
vn 0.256539 -0.132386 -0.957424
vn -0.256539 -0.132386 -0.957424
vn -0.256539 -0.132386 -0.957424
vn -0.256539 -0.132386 -0.957424
vn -0.256539 -0.132386 -0.957424
vn -0.700882 -0.132386 -0.700884
vn -0.700882 -0.132386 -0.700884
vn -0.700882 -0.132386 -0.700884
vn -0.700882 -0.132386 -0.700884
vn -0.957423 -0.132386 -0.256544
vn -0.957423 -0.132386 -0.256544
vn -0.957423 -0.132386 -0.256544
vn -0.957423 -0.132386 -0.256544
vn -0.957425 -0.132386 0.256538
vn -0.957425 -0.132386 0.256538
vn -0.957425 -0.132386 0.256538
vn -0.957425 -0.132386 0.256538
vn -0.700878 -0.132386 0.700888
vn -0.700878 -0.132386 0.700888
vn -0.700878 -0.132386 0.700888
vn -0.700878 -0.132386 0.700888
vn -0.256536 -0.132386 0.957425
vn -0.256536 -0.132386 0.957425
vn -0.256536 -0.132386 0.957425
vn -0.256536 -0.132386 0.957425
vn 0.256536 -0.132386 0.957425
vn 0.256536 -0.132386 0.957425
vn 0.256536 -0.132386 0.957425
vn 0.256536 -0.132386 0.957425
vn 0.700877 -0.132386 0.700889
vn 0.700877 -0.132386 0.700889
vn 0.700877 -0.132386 0.700889
vn 0.700877 -0.132386 0.700889
vn 0.957425 -0.132385 0.256536
vn 0.957425 -0.132385 0.256536
vn 0.957425 -0.132385 0.256536
vn 0.957425 -0.132385 0.256536
vn 0.957424 -0.132386 -0.256542
vn 0.957424 -0.132386 -0.256542
vn 0.957424 -0.132386 -0.256542
vn 0.957424 -0.132386 -0.256542
vn 0.000000 -1.000000 0.000000
vn 0.000000 -1.000000 0.000000
vn 0.000000 -1.000000 0.000000
vn 0.000000 -1.000000 0.000000
vn 0.000000 -1.000000 0.000000
vn 0.000000 -1.000000 0.000000
vn 0.000000 -1.000000 0.000000
vn 0.000000 -1.000000 0.000000
vn 0.000000 -1.000000 0.000000
vn 0.000000 -1.000000 0.000000
vn 0.000000 -1.000000 0.000000
vn 0.000000 -1.000000 0.000000
vn 0.000000 -1.000000 0.000000
vn 0.000000 1.000000 0.000000
vn 0.000000 1.000000 0.000000
vn 0.000000 1.000000 0.000000
vn 0.000000 1.000000 0.000000
vn 0.000000 1.000000 -0.000000
vn 0.000000 1.000000 -0.000000
vn 0.000000 1.000000 0.000000
vn 0.000000 1.000000 0.000000
vn 0.000000 1.000000 0.000000
vn 0.000000 1.000000 0.000000
vn 0.000000 1.000000 -0.000000
vn 0.000000 1.000000 -0.000000
vn 0.000000 1.000000 0.000000
vn 0.707103 0.000000 -0.707111
vn 0.707103 0.000000 -0.707111
vn 0.707103 0.000000 -0.707111
vn 0.707103 0.000000 -0.707111
vn 0.258819 0.000000 -0.965926
vn 0.258819 0.000000 -0.965926
vn 0.258819 0.000000 -0.965926
vn 0.258819 0.000000 -0.965926
vn -0.258820 0.000000 -0.965926
vn -0.258820 0.000000 -0.965926
vn -0.258820 0.000000 -0.965926
vn -0.258820 0.000000 -0.965926
vn -0.707101 0.000000 -0.707112
vn -0.707101 0.000000 -0.707112
vn -0.707101 0.000000 -0.707112
vn -0.707101 0.000000 -0.707112
vn -0.965926 0.000000 -0.258818
vn -0.965926 0.000000 -0.258818
vn -0.965926 0.000000 -0.258818
vn -0.965926 0.000000 -0.258818
vn -0.965927 0.000000 0.258817
vn -0.965927 0.000000 0.258817
vn -0.965927 0.000000 0.258817
vn -0.965927 0.000000 0.258817
vn -0.707103 0.000000 0.707110
vn -0.707103 0.000000 0.707110
vn -0.707103 0.000000 0.707110
vn -0.707103 0.000000 0.707110
vn -0.258817 0.000000 0.965926
vn -0.258817 0.000000 0.965926
vn -0.258817 0.000000 0.965926
vn -0.258817 0.000000 0.965926
vn 0.258816 0.000000 0.965927
vn 0.258816 0.000000 0.965927
vn 0.258816 0.000000 0.965927
vn 0.258816 0.000000 0.965927
vn 0.707105 0.000000 0.707109
vn 0.707105 0.000000 0.707109
vn 0.707105 0.000000 0.707109
vn 0.707105 0.000000 0.707109
vn 0.965926 0.000000 0.258819
vn 0.965926 0.000000 0.258819
vn 0.965926 0.000000 0.258819
vn 0.965926 0.000000 0.258819
vn 0.965925 0.000000 -0.258821
vn 0.965925 0.000000 -0.258821
vn 0.965925 0.000000 -0.258821
vn 0.965925 0.000000 -0.258821
vn 0.614065 -0.495824 -0.614071
vn 0.614065 -0.495824 -0.614071
vn 0.614065 -0.495824 -0.614071
vn 0.614065 -0.495824 -0.614071
vn 0.614065 0.495824 -0.614071
vn 0.614065 0.495824 -0.614071
vn 0.614065 0.495824 -0.614071
vn 0.614065 0.495824 -0.614071
vn 0.224767 -0.495812 -0.838839
vn 0.224768 -0.495812 -0.838839
vn 0.224768 -0.495812 -0.838839
vn 0.224767 -0.495812 -0.838839
vn 0.224768 0.495812 -0.838839
vn 0.224767 0.495812 -0.838839
vn 0.224768 0.495812 -0.838839
vn 0.224768 0.495812 -0.838839
vn -0.224768 -0.495809 -0.838840
vn -0.224768 -0.495809 -0.838840
vn -0.224768 -0.495809 -0.838840
vn -0.224768 -0.495809 -0.838840
vn -0.224768 0.495809 -0.838840
vn -0.224768 0.495809 -0.838840
vn -0.224768 0.495809 -0.838840
vn -0.224768 0.495809 -0.838840
vn -0.614068 -0.495814 -0.614076
vn -0.614068 -0.495814 -0.614076
vn -0.614068 -0.495814 -0.614076
vn -0.614068 -0.495814 -0.614076
vn -0.614068 0.495814 -0.614075
vn -0.614068 0.495814 -0.614075
vn -0.614068 0.495814 -0.614075
vn -0.614068 0.495814 -0.614075
vn -0.838848 -0.495796 -0.224769
vn -0.838848 -0.495796 -0.224769
vn -0.838848 -0.495796 -0.224769
vn -0.838847 -0.495796 -0.224769
vn -0.838848 0.495796 -0.224769
vn -0.838848 0.495796 -0.224769
vn -0.838848 0.495796 -0.224769
vn -0.838848 0.495796 -0.224769
vn -0.838854 -0.495786 0.224767
vn -0.838854 -0.495786 0.224767
vn -0.838854 -0.495786 0.224767
vn -0.838854 -0.495786 0.224767
vn -0.838854 0.495786 0.224767
vn -0.838854 0.495786 0.224767
vn -0.838854 0.495786 0.224767
vn -0.838854 0.495786 0.224767
vn -0.614088 -0.495766 0.614095
vn -0.614088 -0.495766 0.614095
vn -0.614088 -0.495766 0.614095
vn -0.614088 -0.495766 0.614095
vn -0.614088 0.495766 0.614094
vn -0.614088 0.495766 0.614094
vn -0.614088 0.495766 0.614094
vn -0.614088 0.495766 0.614094
vn -0.224766 -0.495783 0.838856
vn -0.224766 -0.495783 0.838856
vn -0.224766 -0.495783 0.838856
vn -0.224766 -0.495783 0.838856
vn -0.224766 0.495783 0.838856
vn -0.224766 0.495783 0.838856
vn -0.224766 0.495783 0.838856
vn -0.224766 0.495783 0.838856
vn 0.224765 -0.495786 0.838855
vn 0.224765 -0.495786 0.838855
vn 0.224765 -0.495786 0.838855
vn 0.224766 -0.495786 0.838855
vn 0.224766 0.495786 0.838855
vn 0.224766 0.495786 0.838855
vn 0.224766 0.495786 0.838855
vn 0.224766 0.495786 0.838855
vn 0.614085 -0.495775 0.614090
vn 0.614085 -0.495775 0.614090
vn 0.614085 -0.495775 0.614090
vn 0.614085 -0.495775 0.614090
vn 0.614085 0.495776 0.614090
vn 0.614085 0.495776 0.614090
vn 0.614085 0.495776 0.614090
vn 0.614085 0.495776 0.614090
vn 0.838848 -0.495796 0.224768
vn 0.838848 -0.495796 0.224768
vn 0.838848 -0.495796 0.224768
vn 0.838848 -0.495796 0.224768
vn 0.838848 0.495796 0.224767
vn 0.838848 0.495796 0.224767
vn 0.838848 0.495796 0.224767
vn 0.838848 0.495796 0.224767
vn 0.838841 -0.495806 -0.224769
vn 0.838841 -0.495806 -0.224769
vn 0.838841 -0.495806 -0.224769
vn 0.838841 -0.495806 -0.224769
vn 0.838841 0.495807 -0.224769
vn 0.838841 0.495807 -0.224769
vn 0.838841 0.495807 -0.224769
vn 0.838841 0.495807 -0.224769
vn 0.000000 1.000000 0.000000
vn 0.000000 1.000000 0.000000
vn 0.000000 1.000000 0.000000
vn 0.000000 1.000000 0.000000
vn 0.000000 1.000000 -0.000000
vn 0.000000 1.000000 -0.000000
vn 0.000000 1.000000 -0.000000
vn 0.000000 1.000000 -0.000000
vn 0.000000 1.000000 0.000000
vn 0.000000 1.000000 0.000000
vn 0.000000 1.000000 0.000000
vn 0.000000 1.000000 0.000000
vn 0.000000 1.000000 -0.000000
vn 0.000000 1.000000 -0.000000
vn 0.000000 1.000000 -0.000000
vn 0.000000 1.000000 -0.000000
vn 0.000000 1.000000 0.000000
vn 0.000000 1.000000 0.000000
vn 0.000000 1.000000 0.000000
vn 0.000000 1.000000 0.000000
vn 0.000000 1.000000 0.000000
vn 0.000000 1.000000 0.000000
vn 0.000000 1.000000 0.000000
vn 0.000000 1.000000 0.000000
vn 0.000000 1.000000 0.000001
vn 0.000000 1.000000 0.000001
vn 0.000000 1.000000 0.000001
vn 0.000000 1.000000 0.000001
vn 0.000000 1.000000 0.000000
vn 0.000000 1.000000 0.000000
vn 0.000000 1.000000 0.000000
vn 0.000000 1.000000 0.000000
vn 0.000000 1.000000 0.000000
vn 0.000000 1.000000 0.000000
vn 0.000000 1.000000 0.000000
vn 0.000000 1.000000 0.000000
vn 0.000000 1.000000 0.000000
vn 0.000000 1.000000 0.000000
vn 0.000000 1.000000 0.000000
vn 0.000000 1.000000 0.000000
vn 0.000000 1.000000 -0.000000
vn 0.000000 1.000000 -0.000000
vn 0.000000 1.000000 -0.000000
vn 0.000000 1.000000 -0.000000
vn 0.000000 1.000000 0.000000
vn 0.000000 1.000000 0.000000
vn 0.000000 1.000000 0.000000
vn 0.000000 1.000000 0.000000
vn -0.703404 0.102148 0.703412
vn -0.703404 0.102148 0.703413
vn -0.703404 0.102148 0.703412
vn -0.703404 0.102148 0.703412
vn -0.257467 0.102148 0.960873
vn -0.257467 0.102148 0.960873
vn -0.257467 0.102148 0.960873
vn -0.257467 0.102148 0.960873
vn 0.257467 0.102148 0.960873
vn 0.257467 0.102148 0.960873
vn 0.257467 0.102148 0.960873
vn 0.257467 0.102148 0.960873
vn 0.703403 0.102148 0.703413
vn 0.703404 0.102148 0.703413
vn 0.703404 0.102148 0.703412
vn 0.703404 0.102148 0.703412
vn 0.960873 0.102148 0.257464
vn 0.960873 0.102148 0.257464
vn 0.960873 0.102148 0.257464
vn 0.960873 0.102148 0.257464
vn 0.960874 0.102148 -0.257462
vn 0.960874 0.102148 -0.257461
vn 0.960874 0.102148 -0.257461
vn 0.960874 0.102148 -0.257461
vn 0.703404 0.102148 -0.703412
vn 0.703404 0.102148 -0.703413
vn 0.703404 0.102148 -0.703412
vn 0.703404 0.102148 -0.703412
vn 0.257463 0.102148 -0.960874
vn 0.257463 0.102148 -0.960874
vn 0.257463 0.102148 -0.960874
vn 0.257463 0.102148 -0.960874
vn -0.257463 0.102148 -0.960874
vn -0.257463 0.102148 -0.960874
vn -0.257463 0.102148 -0.960874
vn -0.257463 0.102148 -0.960874
vn -0.703404 0.102148 -0.703412
vn -0.703404 0.102148 -0.703412
vn -0.703404 0.102148 -0.703412
vn -0.703404 0.102148 -0.703413
vn -0.960874 0.102148 -0.257463
vn -0.960874 0.102148 -0.257463
vn -0.960874 0.102148 -0.257463
vn -0.960874 0.102148 -0.257463
vn -0.960873 0.102148 0.257466
vn -0.960873 0.102148 0.257466
vn -0.960873 0.102148 0.257466
vn -0.960873 0.102148 0.257466
g Low_Poly_Pot_Empty
f 1/30/1 2/36/2 14/37/3 13/31/4
f 2/121/5 3/122/6 15/123/7 14/124/8
f 3/122/9 4/125/10 16/126/11 15/123/12
f 4/9/13 5/1/14 17/4/15 16/10/16
f 5/1/17 6/2/18 18/3/19 17/4/20
f 6/2/21 7/5/22 19/6/23 18/3/24
f 7/5/25 8/11/26 20/12/27 19/6/28
f 8/136/29 9/137/30 21/138/31 20/139/32
f 9/137/33 10/140/34 22/141/35 21/138/36
f 10/34/37 11/26/38 23/29/39 22/35/40
f 11/26/41 12/27/42 24/28/43 23/29/44
f 12/27/45 1/30/46 13/31/47 24/28/48
f 2/71/49 1/72/50 25/73/51
f 3/75/52 2/71/49 25/73/51
f 4/77/53 3/75/52 25/73/51
f 5/79/54 4/77/53 25/73/51
f 6/81/55 5/79/54 25/73/51
f 7/83/56 6/81/55 25/73/51
f 8/82/57 7/83/56 25/73/51
f 9/80/58 8/82/57 25/73/51
f 10/78/59 9/80/58 25/73/51
f 11/76/60 10/78/59 25/73/51
f 12/74/61 11/76/60 25/73/51
f 1/72/50 12/74/61 25/73/51
f 74/84/62 75/85/63 76/86/64
f 75/85/63 77/87/65 76/86/64
f 77/87/65 78/89/66 76/86/64
f 78/89/66 79/91/67 76/86/64
f 79/91/67 80/93/68 76/86/64
f 80/93/68 81/95/69 76/86/64
f 81/95/69 82/96/70 76/86/64
f 82/96/70 83/94/71 76/86/64
f 83/94/71 84/92/72 76/86/64
f 84/92/72 85/90/73 76/86/64
f 85/90/73 86/88/74 76/86/64
f 86/88/74 74/84/62 76/86/64
f 38/38/75 39/42/76 40/47/77 41/43/78
f 39/128/79 42/127/80 43/130/81 40/131/82
f 42/127/83 44/129/84 45/132/85 43/130/86
f 44/16/87 46/8/88 47/15/89 45/21/90
f 46/8/91 48/7/92 49/14/93 47/15/94
f 48/7/95 50/13/96 51/18/97 49/14/98
f 50/13/99 52/17/100 53/22/101 51/18/102
f 52/143/103 54/142/104 55/145/105 53/146/106
f 54/142/107 56/144/108 57/147/109 55/145/110
f 56/41/111 58/33/112 59/40/113 57/46/114
f 58/33/115 60/32/116 61/39/117 59/40/118
f 60/32/119 38/38/120 41/43/121 61/39/122
f 13/31/123 14/37/124 39/42/125 38/38/126
f 27/50/127 26/48/128 41/43/129 40/47/130
f 14/124/131 15/123/132 42/127/133 39/128/134
f 28/133/135 27/134/136 40/131/137 43/130/138
f 15/123/139 16/126/140 44/129/141 42/127/142
f 29/135/143 28/133/144 43/130/145 45/132/146
f 16/10/147 17/4/148 46/8/149 44/16/150
f 30/20/151 29/24/152 45/21/153 47/15/154
f 17/4/155 18/3/156 48/7/157 46/8/158
f 31/19/159 30/20/160 47/15/161 49/14/162
f 18/3/163 19/6/164 50/13/165 48/7/166
f 32/23/167 31/19/168 49/14/169 51/18/170
f 19/6/171 20/12/172 52/17/173 50/13/174
f 33/25/175 32/23/176 51/18/177 53/22/178
f 20/139/179 21/138/180 54/142/181 52/143/182
f 34/148/183 33/149/184 53/146/185 55/145/186
f 21/138/187 22/141/188 56/144/189 54/142/190
f 35/150/191 34/148/192 55/145/193 57/147/194
f 22/35/195 23/29/196 58/33/197 56/41/198
f 36/45/199 35/49/200 57/46/201 59/40/202
f 23/29/203 24/28/204 60/32/205 58/33/206
f 37/44/207 36/45/208 59/40/209 61/39/210
f 24/28/211 13/31/212 38/38/213 60/32/214
f 26/48/215 37/44/216 61/39/217 41/43/218
f 26/97/219 27/98/220 63/99/221 62/100/222
f 27/98/223 28/101/224 64/102/225 63/99/226
f 28/101/227 29/105/228 65/106/229 64/102/230
f 29/105/231 30/109/232 66/110/233 65/106/234
f 30/109/235 31/113/236 67/114/237 66/110/238
f 31/113/239 32/117/240 68/118/241 67/114/242
f 32/117/243 33/119/244 69/120/245 68/118/246
f 33/119/247 34/115/248 70/116/249 69/120/250
f 34/115/251 35/111/252 71/112/253 70/116/254
f 35/111/255 36/107/256 72/108/257 71/112/258
f 36/107/259 37/103/260 73/104/261 72/108/262
f 37/103/263 26/97/264 62/100/265 73/104/266
f 62/65/267 63/69/268 75/70/269 74/66/270
f 63/151/271 64/152/272 77/153/273 75/154/274
f 64/152/275 65/155/276 78/156/277 77/153/278
f 65/57/279 66/51/280 79/54/281 78/58/282
f 66/51/283 67/52/284 80/53/285 79/54/286
f 67/52/287 68/55/288 81/56/289 80/53/290
f 68/55/291 69/59/292 82/60/293 81/56/294
f 69/157/295 70/158/296 83/159/297 82/160/298
f 70/158/299 71/161/300 84/162/301 83/159/302
f 71/67/303 72/61/304 85/64/305 84/68/306
f 72/61/307 73/62/308 86/63/309 85/64/310
f 73/62/311 62/65/312 74/66/313 86/63/314
