# This file uses centimeters as units for non-parametric coordinates.

v -2.893719 -3.524338 0.076335
v 2.893724 -3.524338 0.076335
v -2.893719 3.524338 0.076335
v 2.893724 3.524338 0.076335
v -2.893719 3.524338 -0.076335
v 2.893724 3.524338 -0.076335
v -2.893719 -3.524338 -0.076335
v 2.893724 -3.524338 -0.076335
v -2.384344 -3.079595 0.076342
v 2.384351 -3.079595 0.076342
v 2.384351 3.079605 0.076342
v -2.384344 3.079605 0.076342
v -2.893719 -3.524338 0.263885
v 2.893724 -3.524338 0.263885
v 2.893724 3.524338 0.263885
v -2.893719 3.524338 0.263885
v 2.439278 -3.134523 0.208959
v 2.571883 -3.267127 0.263885
v -2.571875 -3.267127 0.263885
v -2.439270 -3.134523 0.208959
v 2.439278 3.134531 0.208959
v 2.571883 3.267134 0.263885
v -2.439270 3.134531 0.208959
v -2.571875 3.267134 0.263885
vt 0.172908 0.791074
vt 0.172908 0.660262
vt 0.303720 0.660262
vt 0.303720 0.791074
vt 0.303720 0.951773
vt 0.172908 0.951773
vt 0.618503 0.190896
vt 0.487691 0.190896
vt 0.487691 0.060083
vt 0.618503 0.060083
vt 0.326992 0.190896
vt 0.326992 0.060083
vt 0.022945 0.980865
vt 0.021730 0.845474
vt 0.160354 0.845474
vt 0.159140 0.980865
vt 0.018798 0.789399
vt 0.163287 0.789399
vt 0.009925 0.559865
vt 0.012857 0.503789
vt 0.151481 0.503789
vt 0.154413 0.559865
vt 0.014072 0.368398
vt 0.150266 0.368398
vt 0.013375 0.176603
vt 0.144187 0.176603
vt 0.144187 0.307415
vt 0.013375 0.307415
vt 0.013375 0.015904
vt 0.144187 0.015904
vt 0.148795 0.015904
vt 0.279608 0.015904
vt 0.279608 0.146716
vt 0.148795 0.146716
vt 0.279608 0.307415
vt 0.148795 0.307415
vt 0.147645 0.568903
vt 0.144073 0.624978
vt 0.012688 0.624978
vt 0.009117 0.568903
vt 0.142594 0.760369
vt 0.014167 0.760369
vt 0.301393 0.438479
vt 0.302872 0.573870
vt 0.171486 0.573870
vt 0.172965 0.438479
vt 0.306443 0.629945
vt 0.167915 0.629945
vt 0.314998 0.278477
vt 0.987043 0.278477
vt 0.987043 0.991170
vt 0.314998 0.991170
vt 0.683243 0.198861
vt 0.683243 0.042998
vt 0.839106 0.042998
vt 0.839106 0.198861
vt 0.844597 0.198861
vt 0.844597 0.042998
vt 0.850284 0.051665
vt 0.850284 0.190194
vt 1.000460 0.042998
vt 0.994772 0.051665
vt 1.000460 0.198861
vt 0.994772 0.190194
vn 0.000000 0.000000 1.000000
vn 0.000000 0.000000 1.000000
vn 0.000000 0.000000 1.000000
vn 0.000000 0.000000 1.000000
vn 0.000000 1.000000 0.000000
vn 0.000000 1.000000 0.000000
vn 0.000000 1.000000 0.000000
vn 0.000000 1.000000 0.000000
vn 0.000000 0.000000 -1.000000
vn 0.000000 0.000000 -1.000000
vn 0.000000 0.000000 -1.000000
vn 0.000000 0.000000 -1.000000
vn 0.000000 -1.000000 0.000000
vn 0.000000 -1.000000 0.000000
vn 0.000000 -1.000000 0.000000
vn 0.000000 -1.000000 0.000000
vn 1.000000 0.000000 0.000000
vn 1.000000 0.000000 0.000000
vn 1.000000 0.000000 0.000000
vn 1.000000 0.000000 0.000000
vn -1.000000 0.000000 0.000000
vn -1.000000 0.000000 0.000000
vn -1.000000 0.000000 0.000000
vn -1.000000 0.000000 0.000000
vn 0.000000 -1.000000 0.000000
vn 0.000000 -1.000000 0.000000
vn 0.000000 -1.000000 0.000000
vn 0.000000 -1.000000 0.000000
vn 1.000000 0.000000 0.000000
vn 1.000000 0.000000 0.000000
vn 1.000000 0.000000 0.000000
vn 1.000000 0.000000 0.000000
vn 0.000000 1.000000 0.000000
vn 0.000000 1.000000 0.000000
vn 0.000000 1.000000 0.000000
vn 0.000000 1.000000 0.000000
vn -1.000000 0.000000 0.000000
vn -1.000000 0.000000 0.000000
vn -1.000000 0.000000 0.000000
vn -1.000000 0.000000 0.000000
vn -0.050304 0.039083 0.997969
vn 0.000000 0.382683 0.923880
vn 0.000000 0.382683 0.923880
vn 0.050304 0.039083 0.997969
vn 0.000000 0.923888 0.382663
vn 0.000000 0.923888 0.382663
vn 0.000000 0.923888 0.382663
vn 0.000000 0.923888 0.382663
vn -0.000000 0.000000 1.000000
vn 0.000000 0.000000 1.000000
vn 0.000000 0.000000 1.000000
vn -0.050305 -0.039083 0.997969
vn -0.000000 0.000000 1.000000
vn 0.050305 -0.039083 0.997969
vn -0.923891 0.000000 0.382655
vn -0.923891 0.000000 0.382655
vn -0.923891 0.000000 0.382655
vn -0.923891 0.000000 0.382655
vn -0.382681 0.000000 0.923880
vn -0.382681 0.000000 0.923880
vn 0.000000 -0.923892 0.382652
vn 0.000000 -0.923893 0.382652
vn 0.000000 -0.923893 0.382652
vn 0.000000 -0.923892 0.382652
vn 0.000000 -0.382686 0.923879
vn 0.000000 -0.382686 0.923879
vn 0.382681 0.000000 0.923880
vn 0.382681 0.000000 0.923880
vn 0.923895 0.000000 0.382647
vn 0.923895 0.000000 0.382647
vn 0.923895 0.000000 0.382647
vn 0.923895 0.000000 0.382647
g Low_Poly_Painting
f 9/49/1 10/50/2 11/51/3 12/52/4
f 3/25/5 4/26/6 6/27/7 5/28/8
f 5/53/9 6/54/10 8/55/11 7/56/12
f 7/31/13 8/32/14 2/33/15 1/34/16
f 2/1/17 8/2/18 6/3/19 4/4/20
f 7/7/21 1/8/22 3/9/23 5/10/24
f 1/34/25 2/33/26 14/35/27 13/36/28
f 2/1/29 4/4/30 15/5/31 14/6/32
f 4/26/33 3/25/34 16/29/35 15/30/36
f 3/9/37 1/8/38 13/11/39 16/12/40
f 18/37/41 17/38/42 20/39/43 19/40/44
f 17/38/45 10/41/46 9/42/47 20/39/48
f 13/57/49 14/58/50 18/59/41 19/60/44
f 14/58/50 15/61/51 22/62/52 18/59/41
f 15/61/51 16/63/53 24/64/54 22/62/52
f 16/63/53 13/57/49 19/60/44 24/64/54
f 10/13/55 17/14/56 21/15/57 11/16/58
f 17/14/59 18/17/41 22/18/52 21/15/60
f 11/43/61 21/44/62 23/45/63 12/46/64
f 21/44/65 22/47/52 24/48/54 23/45/66
f 19/19/44 20/20/67 23/21/68 24/22/54
f 20/20/69 9/23/70 12/24/71 23/21/72
