# This file uses centimeters as units for non-parametric coordinates.

mtllib Low_Poly_Rupee.mtl
g default
v -0.999714 2.617576 0.450313
v 0.951860 2.617576 0.450313
v -0.999714 4.266833 0.450313
v 0.951860 4.266833 0.450313
v -0.999714 4.266833 -0.450313
v 0.951860 4.266833 -0.450313
v -0.999714 2.617576 -0.450313
v 0.951860 2.617576 -0.450313
v -1.407903 4.736019 0.000000
v 1.384018 4.736019 0.000000
v 1.384018 2.157211 0.000000
v -1.407903 2.157211 0.000000
v 0.000000 1.742760 0.450313
v 0.000000 0.958916 0.000000
v 0.000000 1.742760 -0.450313
v 0.000000 5.166873 -0.450313
v 0.000000 5.911047 0.000000
v 0.000000 5.166873 0.450313
vt 0.375000 0.000000
vt 0.625000 0.000000
vt 0.375000 0.250000
vt 0.625000 0.250000
vt 0.375000 0.500000
vt 0.625000 0.500000
vt 0.375000 0.750000
vt 0.625000 0.750000
vt 0.375000 1.000000
vt 0.625000 1.000000
vt 0.875000 0.000000
vt 0.875000 0.250000
vt 0.125000 0.000000
vt 0.125000 0.250000
vt 0.250000 0.250000
vt 0.375000 0.375000
vt 0.625000 0.375000
vt 0.750000 0.250000
vt 0.625000 0.875000
vt 0.750000 0.000000
vt 0.250000 0.000000
vt 0.375000 0.875000
vt 0.500000 0.000000
vt 0.500000 1.000000
vt 0.500000 0.875000
vt 0.500000 0.750000
vt 0.500000 0.500000
vt 0.500000 0.375000
vt 0.500000 0.250000
vn 0.000000 0.000000 1.000000
vn 0.000000 0.000000 1.000000
vn 0.000000 0.000000 1.000000
vn 0.000000 0.000000 1.000000
vn 0.001078 0.494974 -0.868907
vn -0.001198 0.999999 0.000000
vn 0.664137 0.747611 0.000000
vn 0.399909 0.450173 -0.798384
vn -0.000000 0.000000 -1.000000
vn -0.000000 0.000000 -1.000000
vn -0.000000 0.000000 -1.000000
vn -0.000000 0.000000 -1.000000
vn -0.001263 -0.999999 0.000000
vn 0.001113 -0.487851 -0.872926
vn 0.394772 -0.444809 -0.803928
vn 0.663787 -0.747922 0.000000
vn 1.000000 0.000000 0.000000
vn 1.000000 0.000000 0.000000
vn 0.721501 0.000000 -0.692413
vn 0.721501 0.000000 -0.692413
vn -0.740911 0.000000 -0.671603
vn -1.000000 0.000000 0.000000
vn -1.000000 0.000000 0.000000
vn -0.740911 0.000000 -0.671603
vn 0.001078 0.494974 0.868907
vn 0.399909 0.450173 0.798384
vn 0.721501 0.000000 0.692413
vn 0.721501 0.000000 0.692413
vn 0.001113 -0.487851 0.872926
vn 0.394772 -0.444809 0.803928
vn -0.740911 0.000000 0.671603
vn -0.740911 0.000000 0.671603
vn -0.652502 -0.757787 0.000000
vn -0.389764 -0.452654 0.801990
vn -0.389764 -0.452654 -0.801990
vn 0.000000 0.000000 -1.000000
vn 0.000000 0.000000 -1.000000
vn -0.652856 0.757482 0.000000
vn -0.394916 0.458204 -0.796298
vn -0.394916 0.458204 0.796298
vn 0.000000 0.000000 1.000000
vn 0.000000 0.000000 1.000000
s 1
g pCube1
usemtl initialShadingGroup
f 18/29/1 13/23/2 2/2/3 4/4/4
s 2
f 16/27/5 17/28/6 10/17/7 6/6/8
s 3
f 15/26/9 16/27/10 6/6/11 8/8/12
s 4
f 14/25/13 15/26/14 8/8/15 11/19/16
s 5
f 10/18/17 11/20/18 8/11/19 6/12/20
s 6
f 7/13/21 12/21/22 9/15/23 5/14/24
s 2
f 17/28/6 18/29/25 4/4/26 10/17/7
s 5
f 2/2/27 11/20/18 10/18/17 4/4/28
s 4
f 13/24/29 14/25/13 11/19/16 2/10/30
s 6
f 9/15/23 12/21/22 1/1/31 3/3/32
s 4
f 12/22/33 14/25/13 13/24/29 1/9/34
f 7/7/35 15/26/14 14/25/13 12/22/33
s 3
f 5/5/36 16/27/10 15/26/9 7/7/37
s 2
f 9/16/38 17/28/6 16/27/5 5/5/39
f 3/3/40 18/29/25 17/28/6 9/16/38
s 1
f 1/1/41 13/23/2 18/29/1 3/3/42
