# This file uses centimeters as units for non-parametric coordinates.

v -15.302624 -0.077826 13.018291
v 15.302624 -0.077826 13.018291
v -15.302624 0.077826 13.018291
v 15.302624 0.077826 13.018291
v -15.302624 0.077826 -13.018291
v 15.302624 0.077826 -13.018291
v -15.302624 -0.077826 -13.018291
v 15.302624 -0.077826 -13.018291
vt 0.151507 0.010586
vt 0.273032 0.010586
vt 0.273032 0.132111
vt 0.151507 0.132111
vt 0.275738 0.010587
vt 0.397263 0.010587
vt 0.397263 0.132112
vt 0.275738 0.132112
vt -0.001802 0.999327
vt -0.001802 0.149507
vt 0.848015 0.149507
vt 0.848015 0.999327
vt 0.424025 0.131494
vt 0.424025 0.009970
vt 0.545550 0.009970
vt 0.545550 0.131494
vt 0.009658 0.011033
vt 0.131183 0.011033
vt 0.131183 0.132558
vt 0.009658 0.132558
vt 0.576475 0.009969
vt 0.698000 0.009969
vt 0.698000 0.131495
vt 0.576475 0.131495
vn 0.000000 0.000000 1.000000
vn 0.000000 0.000000 1.000000
vn 0.000000 0.000000 1.000000
vn 0.000000 0.000000 1.000000
vn 0.000000 1.000000 0.000000
vn 0.000000 1.000000 0.000000
vn 0.000000 1.000000 0.000000
vn 0.000000 1.000000 0.000000
vn 0.000000 0.000000 -1.000000
vn 0.000000 0.000000 -1.000000
vn 0.000000 0.000000 -1.000000
vn 0.000000 0.000000 -1.000000
vn 0.000000 -1.000000 0.000000
vn 0.000000 -1.000000 0.000000
vn 0.000000 -1.000000 0.000000
vn 0.000000 -1.000000 0.000000
vn 1.000000 0.000000 0.000000
vn 1.000000 0.000000 0.000000
vn 1.000000 0.000000 0.000000
vn 1.000000 0.000000 0.000000
vn -1.000000 0.000000 0.000000
vn -1.000000 0.000000 0.000000
vn -1.000000 0.000000 0.000000
vn -1.000000 0.000000 0.000000
g basic_rug
f 1/17/1 2/18/2 4/19/3 3/20/4
f 3/9/5 4/10/6 6/11/7 5/12/8
f 5/21/9 6/22/10 8/23/11 7/24/12
f 7/13/13 8/14/14 2/15/15 1/16/16
f 2/1/17 8/2/18 6/3/19 4/4/20
f 7/5/21 1/6/22 3/7/23 5/8/24
