# This file uses centimeters as units for non-parametric coordinates.

mtllib Low_Poly_LOZ_Pot.mtl
g default
v 1.363696 0.489536 -0.607156
v 0.998845 0.489536 -1.109330
v 0.461286 0.489536 -1.419690
v -0.156035 0.489536 -1.484573
v -0.746375 0.489536 -1.292760
v -1.207660 0.489536 -0.877417
v -1.460131 0.489536 -0.310360
v -1.460131 0.489536 0.310360
v -1.207661 0.489536 0.877417
v -0.746375 0.489536 1.292760
v -0.156035 0.489536 1.484573
v 0.461285 0.489536 1.419690
v 0.998845 0.489536 1.109330
v 1.363696 0.489536 0.607156
v 1.492751 0.489536 0.000000
v 1.363696 3.536156 -0.607156
v 0.998845 3.536156 -1.109330
v 0.461286 3.536156 -1.419690
v -0.156035 3.536156 -1.484573
v -0.746375 3.536156 -1.292760
v -1.207660 3.536156 -0.877417
v -1.460131 3.536156 -0.310360
v -1.460131 3.536156 0.310360
v -1.207661 3.536156 0.877417
v -0.746375 3.536156 1.292760
v -0.156035 3.536156 1.484573
v 0.461285 3.536156 1.419690
v 0.998845 3.536156 1.109330
v 1.363696 3.536156 0.607156
v 1.492751 3.536156 0.000000
v 0.000000 0.489536 0.000000
v 2.092311 2.012846 -0.935483
v 1.530164 2.012846 -1.709214
v 0.701912 2.012846 -2.187405
v -0.249232 2.012846 -2.287375
v -1.158807 2.012846 -1.991837
v -1.869538 2.012846 -1.351891
v -2.258535 2.012846 -0.478192
v -2.258535 2.012846 0.478191
v -1.869539 2.012846 1.351891
v -1.158807 2.012846 1.991836
v -0.249233 2.012846 2.287375
v 0.701911 2.012846 2.187406
v 1.530163 2.012846 1.709214
v 2.092312 2.012846 0.935484
v 2.291155 2.012846 -0.000000
v 1.735060 2.774501 -0.774499
v 1.899685 2.774501 -0.000000
v 1.735060 2.774501 0.774500
v 1.269650 2.774501 1.415082
v 0.583929 2.774501 1.810983
v -0.203537 2.774501 1.893749
v -0.956586 2.774501 1.649069
v -1.545010 2.774501 1.119249
v -1.867065 2.774501 0.395901
v -1.867065 2.774501 -0.395902
v -1.545010 2.774501 -1.119249
v -0.956585 2.774501 -1.649069
v -0.203536 2.774501 -1.893749
v 0.583929 2.774501 -1.810983
v 1.269650 2.774501 -1.415082
v 1.363696 3.155329 -0.607156
v 1.492751 3.155329 0.000000
v 1.363696 3.155329 0.607156
v 0.998845 3.155329 1.109330
v 0.461285 3.155329 1.419690
v -0.156035 3.155329 1.484573
v -0.746375 3.155329 1.292760
v -1.207661 3.155329 0.877417
v -1.460131 3.155329 0.310360
v -1.460131 3.155329 -0.310360
v -1.207660 3.155329 -0.877417
v -0.746375 3.155329 -1.292760
v -0.156035 3.155329 -1.484573
v 0.461286 3.155329 -1.419690
v 0.998845 3.155329 -1.109330
v 1.449319 3.464978 -0.645739
v 1.586575 3.464978 0.000000
v 1.449319 3.464978 0.645740
v 1.061283 3.464978 1.179825
v 0.489562 3.464978 1.509908
v -0.166987 3.464978 1.578914
v -0.794842 3.464978 1.374912
v -1.285441 3.464978 0.933174
v -1.553955 3.464978 0.330083
v -1.553955 3.464978 -0.330083
v -1.285441 3.464978 -0.933175
v -0.794842 3.464978 -1.374912
v -0.166987 3.464978 -1.578914
v 0.489563 3.464978 -1.509908
v 1.061283 3.464978 -1.179825
v 1.913236 1.251191 -0.854789
v 1.399579 1.251191 -1.561778
v 0.642772 1.251191 -1.998720
v -0.226327 1.251191 -2.090067
v -1.057442 1.251191 -1.820021
v -1.706866 1.251191 -1.235278
v -2.062307 1.251191 -0.436943
v -2.062307 1.251191 0.436943
v -1.706866 1.251191 1.235277
v -1.057442 1.251191 1.820021
v -0.226327 1.251191 2.090067
v 0.642772 1.251191 1.998721
v 1.399579 1.251191 1.561778
v 1.913236 1.251191 0.854790
v 2.094928 1.251191 -0.000000
v 1.249782 3.536156 -0.556438
v 0.916531 3.536156 -1.017910
v 0.424035 3.536156 -1.305044
v -0.143731 3.536156 -1.367509
v -0.688877 3.536156 -1.193171
v -1.116343 3.536156 -0.811071
v -1.350857 3.536156 -0.287134
v -1.350858 3.536156 0.287134
v -1.116343 3.536156 0.811070
v -0.688878 3.536156 1.193171
v -0.143731 3.536156 1.367510
v 0.424034 3.536156 1.305044
v 0.916531 3.536156 1.017911
v 1.249783 3.536156 0.556439
v 1.367464 3.536156 0.000000
v 1.249782 0.710080 -0.556438
v 0.916531 0.710080 -1.017910
v 0.000000 0.710080 0.000000
v 0.424035 0.710080 -1.305044
v -0.143731 0.710080 -1.367509
v -0.688877 0.710080 -1.193171
v -1.116343 0.710080 -0.811071
v -1.350857 0.710080 -0.287134
v -1.350858 0.710080 0.287134
v -1.116343 0.710080 0.811070
v -0.688878 0.710080 1.193171
v -0.143731 0.710080 1.367510
v 0.424034 0.710080 1.305044
v 0.916531 0.710080 1.017911
v 1.249783 0.710080 0.556439
v 1.367464 0.710080 0.000000
v 1.498773 2.123118 -0.668038
v 1.098686 2.123118 -1.222063
v 0.507414 2.123118 -1.566784
v -0.174223 2.123118 -1.641777
v -0.828704 2.123118 -1.432474
v -1.341902 2.123118 -0.973739
v -1.623450 2.123118 -0.344721
v -1.623451 2.123118 0.344721
v -1.341902 2.123118 0.973739
v -0.828704 2.123118 1.432473
v -0.174223 2.123118 1.641778
v 0.507414 2.123118 1.566784
v 1.098686 2.123118 1.222063
v 1.498774 2.123118 0.668039
v 1.640058 2.123118 -0.000000
vt 0.642741 0.092697
vt 0.604552 0.040134
vt 0.548284 0.007647
vt 0.483667 0.000856
vt 0.421875 0.020934
vt 0.373591 0.064409
vt 0.347164 0.123764
vt 0.347164 0.188736
vt 0.373591 0.248091
vt 0.421875 0.291566
vt 0.483667 0.311644
vt 0.548284 0.304853
vt 0.604552 0.272366
vt 0.642741 0.219803
vt 0.656250 0.156250
vt 0.375000 0.312500
vt 0.391667 0.312500
vt 0.408333 0.312500
vt 0.425000 0.312500
vt 0.441667 0.312500
vt 0.458333 0.312500
vt 0.475000 0.312500
vt 0.491667 0.312500
vt 0.508333 0.312500
vt 0.525000 0.312500
vt 0.541667 0.312500
vt 0.558333 0.312500
vt 0.575000 0.312500
vt 0.591667 0.312500
vt 0.608333 0.312500
vt 0.625000 0.312500
vt 0.375000 0.688440
vt 0.391667 0.688440
vt 0.408333 0.688440
vt 0.425000 0.688440
vt 0.441667 0.688440
vt 0.458333 0.688440
vt 0.475000 0.688440
vt 0.491667 0.688440
vt 0.508333 0.688440
vt 0.525000 0.688440
vt 0.541667 0.688440
vt 0.558333 0.688440
vt 0.575000 0.688440
vt 0.591667 0.688440
vt 0.608333 0.688440
vt 0.625000 0.688440
vt 0.642741 0.780197
vt 0.604552 0.727634
vt 0.548284 0.695147
vt 0.483667 0.688356
vt 0.421875 0.708434
vt 0.373591 0.751909
vt 0.347164 0.811264
vt 0.347164 0.876236
vt 0.373591 0.935591
vt 0.421875 0.979066
vt 0.483667 0.999144
vt 0.548284 0.992353
vt 0.604552 0.959866
vt 0.642741 0.907303
vt 0.656250 0.843750
vt 0.500000 0.150000
vt 0.500000 0.837500
vt 0.625000 0.500470
vt 0.375000 0.500470
vt 0.391667 0.500470
vt 0.408333 0.500470
vt 0.425000 0.500470
vt 0.441667 0.500470
vt 0.458333 0.500470
vt 0.475000 0.500470
vt 0.491667 0.500470
vt 0.508333 0.500470
vt 0.525000 0.500470
vt 0.541667 0.500470
vt 0.558333 0.500470
vt 0.575000 0.500470
vt 0.591667 0.500470
vt 0.608333 0.500470
vt 0.625000 0.594455
vt 0.375000 0.594455
vt 0.608333 0.594455
vt 0.591667 0.594455
vt 0.575000 0.594455
vt 0.558333 0.594455
vt 0.541667 0.594455
vt 0.525000 0.594455
vt 0.508333 0.594455
vt 0.491667 0.594455
vt 0.475000 0.594455
vt 0.458333 0.594455
vt 0.441667 0.594455
vt 0.425000 0.594455
vt 0.408333 0.594455
vt 0.391667 0.594455
vt 0.625000 0.641447
vt 0.375000 0.641447
vt 0.608333 0.641447
vt 0.591667 0.641447
vt 0.575000 0.641447
vt 0.558333 0.641447
vt 0.541667 0.641447
vt 0.525000 0.641447
vt 0.508333 0.641447
vt 0.491667 0.641447
vt 0.475000 0.641447
vt 0.458333 0.641447
vt 0.441667 0.641447
vt 0.425000 0.641447
vt 0.408333 0.641447
vt 0.391667 0.641447
vt 0.625000 0.664944
vt 0.375000 0.664944
vt 0.608333 0.664944
vt 0.591667 0.664944
vt 0.575000 0.664944
vt 0.558333 0.664944
vt 0.541667 0.664944
vt 0.525000 0.664944
vt 0.508333 0.664944
vt 0.491667 0.664944
vt 0.475000 0.664944
vt 0.458333 0.664944
vt 0.441667 0.664944
vt 0.425000 0.664944
vt 0.408333 0.664944
vt 0.391667 0.664944
vt 0.625000 0.406485
vt 0.375000 0.406485
vt 0.391667 0.406485
vt 0.408333 0.406485
vt 0.425000 0.406485
vt 0.441667 0.406485
vt 0.458333 0.406485
vt 0.475000 0.406485
vt 0.491667 0.406485
vt 0.508333 0.406485
vt 0.525000 0.406485
vt 0.541667 0.406485
vt 0.558333 0.406485
vt 0.575000 0.406485
vt 0.591667 0.406485
vt 0.608333 0.406485
vt 0.571371 0.872401
vt 0.552276 0.898683
vt 0.524142 0.914926
vt 0.491834 0.918322
vt 0.460938 0.908283
vt 0.436796 0.886546
vt 0.423582 0.856868
vt 0.423582 0.824382
vt 0.436796 0.794704
vt 0.460938 0.772967
vt 0.491834 0.762928
vt 0.524142 0.766324
vt 0.552276 0.782567
vt 0.571371 0.808849
vt 0.578125 0.840625
vt 0.571371 0.872401
vt 0.552276 0.898683
vt 0.524142 0.914926
vt 0.491834 0.918322
vt 0.460938 0.908283
vt 0.436796 0.886546
vt 0.423582 0.856868
vt 0.423582 0.824382
vt 0.436796 0.794704
vt 0.460938 0.772967
vt 0.491834 0.762928
vt 0.524142 0.766324
vt 0.552276 0.782567
vt 0.571371 0.808849
vt 0.578125 0.840625
vt 0.571371 0.872401
vt 0.552276 0.898683
vt 0.524142 0.914926
vt 0.491834 0.918322
vt 0.460938 0.908283
vt 0.436796 0.886546
vt 0.423582 0.856868
vt 0.423582 0.824382
vt 0.436796 0.794704
vt 0.460938 0.772967
vt 0.491834 0.762928
vt 0.524142 0.766324
vt 0.552276 0.782567
vt 0.571371 0.808849
vt 0.578125 0.840625
vn 0.907599 0.113049 -0.404332
vn 0.664517 0.113341 -0.738627
vn 0.559039 0.549714 -0.620718
vn 0.763767 0.548696 -0.339988
vn 0.306517 0.113770 -0.945042
vn 0.257962 0.551208 -0.793489
vn -0.104383 0.114263 -0.987952
vn -0.086956 0.552918 -0.828686
vn -0.497107 0.114734 -0.860070
vn -0.415970 0.554546 -0.720727
vn -0.803828 0.115101 -0.583620
vn -0.672492 0.555813 -0.488698
vn -0.971647 0.115302 -0.206415
vn -0.812682 0.556505 -0.172771
vn -0.971647 0.115302 0.206414
vn -0.812682 0.556506 0.172771
vn -0.803828 0.115101 0.583620
vn -0.672492 0.555813 0.488697
vn -0.497107 0.114734 0.860070
vn -0.415970 0.554546 0.720727
vn -0.104383 0.114263 0.987951
vn -0.086957 0.552918 0.828686
vn 0.306517 0.113770 0.945042
vn 0.257962 0.551208 0.793489
vn 0.664517 0.113341 0.738628
vn 0.559039 0.549714 0.620718
vn 0.907599 0.113049 0.404332
vn 0.763767 0.548696 0.339988
vn 0.993601 0.112946 -0.000000
vn 0.836258 0.548336 -0.000000
vn 0.000000 -1.000000 -0.000000
vn 0.000000 -1.000000 -0.000000
vn 0.000000 -1.000000 -0.000000
vn 0.000000 -1.000000 0.000000
vn 0.000000 -1.000000 0.000000
vn 0.000000 -1.000000 -0.000000
vn 0.000000 -1.000000 -0.000000
vn 0.000000 -1.000000 0.000000
vn 0.000000 -1.000000 0.000000
vn 0.000000 -1.000000 0.000000
vn 0.000000 -1.000000 0.000000
vn 0.000000 -1.000000 -0.000000
vn 0.000000 -1.000000 0.000000
vn 0.000000 -1.000000 0.000000
vn 0.000000 -1.000000 0.000000
vn 0.000000 -1.000000 0.000000
vn 0.000000 1.000000 0.000000
vn 0.000000 1.000000 0.000000
vn 0.000000 1.000000 0.000000
vn 0.000000 1.000000 0.000000
vn 0.000000 1.000000 0.000000
vn 0.000000 1.000000 0.000000
vn 0.000000 1.000000 -0.000000
vn 0.000000 1.000000 0.000000
vn 0.000000 1.000000 0.000000
vn 0.000000 1.000000 0.000000
vn 0.000000 1.000000 0.000000
vn 0.000000 1.000000 0.000000
vn 0.000000 1.000000 -0.000000
vn 0.000000 1.000000 0.000000
vn 0.000000 1.000000 0.000000
vn 0.000000 1.000000 0.000000
vn 0.822927 -0.434150 -0.366477
vn 0.602373 -0.435079 -0.669218
vn 0.277858 -0.436444 -0.855752
vn -0.094158 -0.438006 -0.894027
vn -0.449266 -0.439496 -0.777820
vn -0.726300 -0.440657 -0.527550
vn -0.877762 -0.441291 -0.186534
vn -0.877762 -0.441292 0.186534
vn -0.726301 -0.440657 0.527550
vn -0.449266 -0.439496 0.777820
vn -0.094158 -0.438006 0.894027
vn 0.277858 -0.436444 0.855752
vn 0.602373 -0.435079 0.669218
vn 0.822927 -0.434150 0.366477
vn 0.900999 -0.433821 -0.000000
vn 0.815472 0.451002 -0.362771
vn 0.892696 0.450659 -0.000000
vn 0.815472 0.451002 0.362771
vn 0.597257 0.451973 0.662574
vn 0.276036 0.453401 0.847485
vn -0.092418 0.455038 0.885663
vn -0.444335 0.456600 0.770767
vn -0.719023 0.457819 0.522884
vn -0.869253 0.458485 0.184907
vn -0.869253 0.458486 -0.184907
vn -0.719022 0.457819 -0.522884
vn -0.444335 0.456600 -0.770767
vn -0.092417 0.455038 -0.885663
vn 0.276037 0.453401 -0.847485
vn 0.597258 0.451973 -0.662574
vn 0.913304 -0.017578 -0.406899
vn 0.999846 -0.017560 -0.000000
vn 0.913304 -0.017578 0.406899
vn 0.668692 -0.017628 0.743330
vn 0.308422 -0.017702 0.951085
vn -0.105109 -0.017788 0.994302
vn -0.500372 -0.017870 0.865626
vn -0.809095 -0.017934 0.587404
vn -0.978016 -0.017970 0.207756
vn -0.978016 -0.017970 -0.207756
vn -0.809095 -0.017934 -0.587404
vn -0.500372 -0.017870 -0.865626
vn -0.105109 -0.017788 -0.994302
vn 0.308422 -0.017702 -0.951085
vn 0.668693 -0.017628 -0.743330
vn 0.551915 0.796963 -0.245439
vn 0.604394 0.796686 0.000000
vn 0.551915 0.796963 0.245439
vn 0.403840 0.797744 0.447792
vn 0.186449 0.798888 0.571852
vn -0.062058 0.800192 0.596524
vn -0.298567 0.801430 0.518235
vn -0.482601 0.802392 0.351090
vn -0.583040 0.802915 0.124063
vn -0.583040 0.802915 -0.124063
vn -0.482601 0.802392 -0.351091
vn -0.298567 0.801430 -0.518235
vn -0.062057 0.800192 -0.596524
vn 0.186450 0.798888 -0.571852
vn 0.403841 0.797744 -0.447792
vn 0.716476 -0.620560 -0.318697
vn 0.524530 -0.621586 -0.581807
vn 0.242300 -0.623093 -0.743671
vn -0.080956 -0.624816 -0.776563
vn -0.389232 -0.626457 -0.675315
vn -0.629533 -0.627734 -0.457862
vn -0.760838 -0.628431 -0.161861
vn -0.760838 -0.628431 0.161861
vn -0.629533 -0.627734 0.457862
vn -0.389232 -0.626457 0.675315
vn -0.080956 -0.624817 0.776563
vn 0.242300 -0.623093 0.743671
vn 0.524530 -0.621586 0.581807
vn 0.716476 -0.620560 0.318697
vn 0.784447 -0.620196 -0.000000
vn 0.000000 1.000000 0.000000
vn 0.000000 1.000000 0.000000
vn 0.000000 1.000000 0.000000
vn 0.000000 1.000000 0.000000
vn 0.000000 1.000000 0.000000
vn 0.000000 1.000000 0.000000
vn 0.000000 1.000000 0.000000
vn 0.000000 1.000000 0.000000
vn 0.000000 1.000000 0.000000
vn 0.000000 1.000000 0.000000
vn 0.000000 1.000000 0.000000
vn 0.000000 1.000000 0.000000
vn 0.000000 1.000000 0.000000
vn 0.000000 1.000000 0.000000
vn 0.000000 1.000000 0.000000
vn 0.000000 1.000000 0.000000
vn 0.000000 1.000000 -0.000000
vn 0.000000 1.000000 -0.000000
vn 0.000000 1.000000 -0.000000
vn 0.000000 1.000000 -0.000000
vn 0.000000 1.000000 -0.000000
vn 0.000000 1.000000 -0.000000
vn 0.000000 1.000000 0.000000
vn 0.000000 1.000000 0.000000
vn 0.000000 1.000000 0.000000
vn 0.000000 1.000000 0.000000
vn 0.000000 1.000000 -0.000000
vn 0.000000 1.000000 -0.000000
vn 0.000000 1.000000 0.000000
vn 0.000000 1.000000 0.000000
vn -0.810708 0.000000 0.585451
vn -0.810708 0.000000 0.585451
vn -0.796592 0.185800 0.575257
vn -0.796592 0.185800 0.575257
vn -0.503667 0.000000 0.863898
vn -0.503667 0.000000 0.863898
vn -0.494838 0.186416 0.848754
vn -0.494839 0.186416 0.848754
vn -0.109359 0.000000 0.994002
vn -0.109359 0.000000 0.994002
vn -0.107426 0.187205 0.976429
vn -0.107426 0.187205 0.976429
vn 0.304603 0.000000 0.952479
vn 0.304603 0.000000 0.952479
vn 0.299170 0.188032 0.935490
vn 0.299170 0.188032 0.935490
vn 0.666438 0.000000 0.745561
vn 0.666438 0.000000 0.745561
vn 0.654458 0.188755 0.732159
vn 0.654458 0.188755 0.732159
vn 0.912739 0.000000 0.408542
vn 0.912739 0.000000 0.408542
vn 0.896246 0.189246 0.401160
vn 0.896246 0.189246 0.401160
vn 1.000000 0.000000 0.000001
vn 1.000000 0.000000 0.000001
vn 0.981896 0.189421 0.000001
vn 0.981896 0.189421 0.000001
vn 0.912739 0.000000 -0.408543
vn 0.912739 0.000000 -0.408543
vn 0.896246 0.189247 -0.401160
vn 0.896246 0.189247 -0.401160
vn 0.666438 0.000000 -0.745561
vn 0.666438 0.000000 -0.745561
vn 0.654458 0.188755 -0.732159
vn 0.654458 0.188755 -0.732159
vn 0.304604 0.000000 -0.952479
vn 0.304604 0.000000 -0.952479
vn 0.299171 0.188032 -0.935489
vn 0.299171 0.188032 -0.935489
vn -0.109360 -0.000000 -0.994002
vn -0.109360 -0.000000 -0.994002
vn -0.107426 0.187205 -0.976429
vn -0.107426 0.187205 -0.976429
vn -0.503666 -0.000000 -0.863898
vn -0.503666 -0.000000 -0.863898
vn -0.494838 0.186415 -0.848755
vn -0.494838 0.186415 -0.848755
vn -0.810707 0.000000 -0.585452
vn -0.810707 0.000000 -0.585452
vn -0.796591 0.185800 -0.575258
vn -0.796591 0.185800 -0.575258
vn -0.978359 0.000000 -0.206913
vn -0.978359 0.000000 -0.206913
vn -0.961386 0.185464 -0.203324
vn -0.961386 0.185464 -0.203324
vn -0.978359 0.000000 0.206915
vn -0.978359 0.000000 0.206915
vn -0.961386 0.185464 0.203325
vn -0.961385 0.185464 0.203325
vn -0.796592 -0.185800 0.575257
vn -0.796592 -0.185800 0.575257
vn -0.494838 -0.186416 0.848755
vn -0.494838 -0.186416 0.848754
vn -0.107426 -0.187205 0.976429
vn -0.107426 -0.187205 0.976429
vn 0.299170 -0.188032 0.935490
vn 0.299170 -0.188032 0.935490
vn 0.654458 -0.188755 0.732159
vn 0.654458 -0.188755 0.732159
vn 0.896246 -0.189246 0.401160
vn 0.896246 -0.189246 0.401160
vn 0.981896 -0.189421 0.000001
vn 0.981896 -0.189421 0.000001
vn 0.896246 -0.189247 -0.401160
vn 0.896246 -0.189247 -0.401160
vn 0.654458 -0.188755 -0.732159
vn 0.654458 -0.188755 -0.732159
vn 0.299171 -0.188032 -0.935489
vn 0.299171 -0.188032 -0.935489
vn -0.107426 -0.187205 -0.976429
vn -0.107426 -0.187205 -0.976429
vn -0.494838 -0.186415 -0.848755
vn -0.494838 -0.186415 -0.848755
vn -0.796591 -0.185800 -0.575258
vn -0.796591 -0.185800 -0.575258
vn -0.961386 -0.185464 -0.203324
vn -0.961386 -0.185464 -0.203324
vn -0.961385 -0.185464 0.203325
vn -0.961386 -0.185464 0.203325
s 1
g pCylinder1
usemtl initialShadingGroup
f 32/66/1 33/67/2 61/96/3 47/82/4
f 33/67/2 34/68/5 60/95/6 61/96/3
f 34/68/5 35/69/7 59/94/8 60/95/6
f 35/69/7 36/70/9 58/93/10 59/94/8
f 36/70/9 37/71/11 57/92/12 58/93/10
f 37/71/11 38/72/13 56/91/14 57/92/12
f 38/72/13 39/73/15 55/90/16 56/91/14
f 39/73/15 40/74/17 54/89/18 55/90/16
f 40/74/17 41/75/19 53/88/20 54/89/18
f 41/75/19 42/76/21 52/87/22 53/88/20
f 42/76/21 43/77/23 51/86/24 52/87/22
f 43/77/23 44/78/25 50/85/26 51/86/24
f 44/78/25 45/79/27 49/84/28 50/85/26
f 45/79/27 46/80/29 48/83/30 49/84/28
f 46/80/29 32/65/1 47/81/4 48/83/30
s 2
f 2/2/31 1/1/32 31/63/33
f 3/3/34 2/2/31 31/63/33
f 4/4/35 3/3/34 31/63/33
f 5/5/36 4/4/35 31/63/33
f 6/6/37 5/5/36 31/63/33
f 7/7/38 6/6/37 31/63/33
f 8/8/39 7/7/38 31/63/33
f 9/9/40 8/8/39 31/63/33
f 10/10/41 9/9/40 31/63/33
f 11/11/42 10/10/41 31/63/33
f 12/12/43 11/11/42 31/63/33
f 13/13/44 12/12/43 31/63/33
f 14/14/45 13/13/44 31/63/33
f 15/15/46 14/14/45 31/63/33
f 1/1/32 15/15/46 31/63/33
s 3
f 122/160/47 123/161/48 124/64/49
f 123/161/48 125/162/50 124/64/49
f 125/162/50 126/163/51 124/64/49
f 126/163/51 127/164/52 124/64/49
f 127/164/52 128/165/53 124/64/49
f 128/165/53 129/166/54 124/64/49
f 129/166/54 130/167/55 124/64/49
f 130/167/55 131/168/56 124/64/49
f 131/168/56 132/169/57 124/64/49
f 132/169/57 133/170/58 124/64/49
f 133/170/58 134/171/59 124/64/49
f 134/171/59 135/172/60 124/64/49
f 135/172/60 136/173/61 124/64/49
f 136/173/61 137/174/62 124/64/49
f 137/174/62 122/160/47 124/64/49
s 1
f 92/130/63 93/131/64 33/67/2 32/66/1
f 93/131/64 94/132/65 34/68/5 33/67/2
f 94/132/65 95/133/66 35/69/7 34/68/5
f 95/133/66 96/134/67 36/70/9 35/69/7
f 96/134/67 97/135/68 37/71/11 36/70/9
f 97/135/68 98/136/69 38/72/13 37/71/11
f 98/136/69 99/137/70 39/73/15 38/72/13
f 99/137/70 100/138/71 40/74/17 39/73/15
f 100/138/71 101/139/72 41/75/19 40/74/17
f 101/139/72 102/140/73 42/76/21 41/75/19
f 102/140/73 103/141/74 43/77/23 42/76/21
f 103/141/74 104/142/75 44/78/25 43/77/23
f 104/142/75 105/143/76 45/79/27 44/78/25
f 105/143/76 106/144/77 46/80/29 45/79/27
f 106/144/77 92/129/63 32/65/1 46/80/29
f 48/83/30 47/81/4 62/97/78 63/99/79
f 49/84/28 48/83/30 63/99/79 64/100/80
f 50/85/26 49/84/28 64/100/80 65/101/81
f 51/86/24 50/85/26 65/101/81 66/102/82
f 52/87/22 51/86/24 66/102/82 67/103/83
f 53/88/20 52/87/22 67/103/83 68/104/84
f 54/89/18 53/88/20 68/104/84 69/105/85
f 55/90/16 54/89/18 69/105/85 70/106/86
f 56/91/14 55/90/16 70/106/86 71/107/87
f 57/92/12 56/91/14 71/107/87 72/108/88
f 58/93/10 57/92/12 72/108/88 73/109/89
f 59/94/8 58/93/10 73/109/89 74/110/90
f 60/95/6 59/94/8 74/110/90 75/111/91
f 61/96/3 60/95/6 75/111/91 76/112/92
f 47/82/4 61/96/3 76/112/92 62/98/78
f 63/99/79 62/97/78 77/113/93 78/115/94
f 64/100/80 63/99/79 78/115/94 79/116/95
f 65/101/81 64/100/80 79/116/95 80/117/96
f 66/102/82 65/101/81 80/117/96 81/118/97
f 67/103/83 66/102/82 81/118/97 82/119/98
f 68/104/84 67/103/83 82/119/98 83/120/99
f 69/105/85 68/104/84 83/120/99 84/121/100
f 70/106/86 69/105/85 84/121/100 85/122/101
f 71/107/87 70/106/86 85/122/101 86/123/102
f 72/108/88 71/107/87 86/123/102 87/124/103
f 73/109/89 72/108/88 87/124/103 88/125/104
f 74/110/90 73/109/89 88/125/104 89/126/105
f 75/111/91 74/110/90 89/126/105 90/127/106
f 76/112/92 75/111/91 90/127/106 91/128/107
f 62/98/78 76/112/92 91/128/107 77/114/93
f 78/115/94 77/113/93 16/47/108 30/46/109
f 79/116/95 78/115/94 30/46/109 29/45/110
f 80/117/96 79/116/95 29/45/110 28/44/111
f 81/118/97 80/117/96 28/44/111 27/43/112
f 82/119/98 81/118/97 27/43/112 26/42/113
f 83/120/99 82/119/98 26/42/113 25/41/114
f 84/121/100 83/120/99 25/41/114 24/40/115
f 85/122/101 84/121/100 24/40/115 23/39/116
f 86/123/102 85/122/101 23/39/116 22/38/117
f 87/124/103 86/123/102 22/38/117 21/37/118
f 88/125/104 87/124/103 21/37/118 20/36/119
f 89/126/105 88/125/104 20/36/119 19/35/120
f 90/127/106 89/126/105 19/35/120 18/34/121
f 91/128/107 90/127/106 18/34/121 17/33/122
f 77/114/93 91/128/107 17/33/122 16/32/108
f 1/16/123 2/17/124 93/131/64 92/130/63
f 2/17/124 3/18/125 94/132/65 93/131/64
f 3/18/125 4/19/126 95/133/66 94/132/65
f 4/19/126 5/20/127 96/134/67 95/133/66
f 5/20/127 6/21/128 97/135/68 96/134/67
f 6/21/128 7/22/129 98/136/69 97/135/68
f 7/22/129 8/23/130 99/137/70 98/136/69
f 8/23/130 9/24/131 100/138/71 99/137/70
f 9/24/131 10/25/132 101/139/72 100/138/71
f 10/25/132 11/26/133 102/140/73 101/139/72
f 11/26/133 12/27/134 103/141/74 102/140/73
f 12/27/134 13/28/135 104/142/75 103/141/74
f 13/28/135 14/29/136 105/143/76 104/142/75
f 14/29/136 15/30/137 106/144/77 105/143/76
f 15/30/137 1/31/123 92/129/63 106/144/77
s 4
f 16/61/138 17/60/139 108/146/140 107/145/141
f 17/60/139 18/59/142 109/147/143 108/146/140
f 18/59/142 19/58/144 110/148/145 109/147/143
f 19/58/144 20/57/146 111/149/147 110/148/145
f 20/57/146 21/56/148 112/150/149 111/149/147
f 21/56/148 22/55/150 113/151/151 112/150/149
f 22/55/150 23/54/152 114/152/153 113/151/151
f 23/54/152 24/53/154 115/153/155 114/152/153
f 24/53/154 25/52/156 116/154/157 115/153/155
f 25/52/156 26/51/158 117/155/159 116/154/157
f 26/51/158 27/50/160 118/156/161 117/155/159
f 27/50/160 28/49/162 119/157/163 118/156/161
f 28/49/162 29/48/164 120/158/165 119/157/163
f 29/48/164 30/62/166 121/159/167 120/158/165
f 30/62/166 16/61/138 107/145/141 121/159/167
s 5
f 138/175/168 139/176/169 123/161/170 122/160/171
s 6
f 139/176/172 140/177/173 125/162/174 123/161/175
s 7
f 140/177/176 141/178/177 126/163/178 125/162/179
s 8
f 141/178/180 142/179/181 127/164/182 126/163/183
s 9
f 142/179/184 143/180/185 128/165/186 127/164/187
s 10
f 143/180/188 144/181/189 129/166/190 128/165/191
s 11
f 144/181/192 145/182/193 130/167/194 129/166/195
s 12
f 145/182/196 146/183/197 131/168/198 130/167/199
s 13
f 146/183/200 147/184/201 132/169/202 131/168/203
s 14
f 147/184/204 148/185/205 133/170/206 132/169/207
s 15
f 148/185/208 149/186/209 134/171/210 133/170/211
s 16
f 149/186/212 150/187/213 135/172/214 134/171/215
s 17
f 150/187/216 151/188/217 136/173/218 135/172/219
s 18
f 151/188/220 152/189/221 137/174/222 136/173/223
s 19
f 152/189/224 138/175/225 122/160/226 137/174/227
s 5
f 107/145/228 108/146/229 139/176/169 138/175/168
s 6
f 108/146/230 109/147/231 140/177/173 139/176/172
s 7
f 109/147/232 110/148/233 141/178/177 140/177/176
s 8
f 110/148/234 111/149/235 142/179/181 141/178/180
s 9
f 111/149/236 112/150/237 143/180/185 142/179/184
s 10
f 112/150/238 113/151/239 144/181/189 143/180/188
s 11
f 113/151/240 114/152/241 145/182/193 144/181/192
s 12
f 114/152/242 115/153/243 146/183/197 145/182/196
s 13
f 115/153/244 116/154/245 147/184/201 146/183/200
s 14
f 116/154/246 117/155/247 148/185/205 147/184/204
s 15
f 117/155/248 118/156/249 149/186/209 148/185/208
s 16
f 118/156/250 119/157/251 150/187/213 149/186/212
s 17
f 119/157/252 120/158/253 151/188/217 150/187/216
s 18
f 120/158/254 121/159/255 152/189/221 151/188/220
s 19
f 121/159/256 107/145/257 138/175/225 152/189/224
