# This file uses centimeters as units for non-parametric coordinates.

mtllib Low_Poly_Monitor.mtl
g default
v -0.110947 2.907995 6.958408
v 0.110947 2.907995 6.958408
v -0.110947 11.954365 6.958408
v 0.110947 11.954365 6.958408
v -0.110947 11.954365 -6.958408
v 0.110947 11.954365 -6.958408
v -0.110947 2.907995 -6.958408
v 0.110947 2.907995 -6.958408
v -0.110947 2.907995 -3.863994
v 0.110947 2.907995 -3.863994
v -0.110947 2.435937 -6.958408
v 0.110947 2.435937 -6.958408
v 0.110947 2.435937 -3.863994
v -0.110947 2.435937 -3.863994
v -0.489700 2.016701 -6.958408
v -0.267806 2.016701 -6.958408
v -0.267806 2.016701 -3.863994
v -0.489700 2.016701 -3.863994
v -1.330101 1.696418 -6.958408
v -1.108207 1.696418 -6.958408
v -1.108207 1.696418 -3.863994
v -1.330101 1.696418 -3.863994
v -1.330101 1.508152 -6.958408
v -1.108207 1.508152 -6.958408
v -1.108207 1.508152 -3.863994
v -1.330101 1.508152 -3.863994
v 0.199976 1.696418 -6.958408
v 0.199976 1.696418 -3.863994
v 0.199976 1.508152 -3.863994
v 0.199976 1.508152 -6.958408
v -2.936871 1.696418 -6.958408
v -2.936871 1.696418 -3.863994
v -2.936871 1.508152 -6.958408
v -2.936871 1.508152 -3.863994
v -1.330101 1.696418 7.004662
v -1.108207 1.696418 7.004662
v -1.330101 1.508152 7.004662
v -1.108207 1.508152 7.004662
v 0.199976 1.508152 7.004662
v 0.199976 1.696418 7.004662
v -2.936871 1.696418 7.004662
v -2.936871 1.508152 7.004662
v 0.110947 3.207995 -3.863994
v 0.110947 3.207995 6.658409
v 0.110947 3.207995 -6.658409
v 0.110947 11.654366 -6.658409
v 0.110947 11.654366 6.658409
v -0.053040 3.207995 -3.863994
v -0.053040 3.207995 6.658409
v -0.053040 3.207995 -6.658409
v -0.053040 11.654366 -6.658409
v -0.053040 11.654366 6.658409
vt 0.375000 0.000000
vt 0.625000 0.000000
vt 0.375000 0.250000
vt 0.625000 0.250000
vt 0.375000 0.500000
vt 0.625000 0.500000
vt 0.375000 0.750000
vt 0.625000 0.750000
vt 0.375000 1.000000
vt 0.625000 1.000000
vt 0.875000 0.000000
vt 0.875000 0.250000
vt 0.125000 0.000000
vt 0.125000 0.250000
vt 0.250000 0.000000
vt 0.375000 0.875000
vt 0.625000 0.875000
vt 0.750000 0.000000
vt 0.375000 0.750000
vt 0.625000 0.750000
vt 0.625000 0.875000
vt 0.375000 0.875000
vt 0.375000 0.750000
vt 0.625000 0.750000
vt 0.625000 0.875000
vt 0.375000 0.875000
vt 0.375000 0.750000
vt 0.625000 0.750000
vt 0.625000 0.875000
vt 0.375000 0.875000
vt 0.375000 0.750000
vt 0.625000 0.750000
vt 0.625000 0.875000
vt 0.375000 0.875000
vt 0.625000 0.750000
vt 0.625000 0.875000
vt 0.625000 0.875000
vt 0.625000 0.750000
vt 0.375000 0.875000
vt 0.375000 0.750000
vt 0.375000 0.750000
vt 0.375000 0.875000
vt 0.625000 0.875000
vt 0.375000 0.875000
vt 0.375000 0.875000
vt 0.625000 0.875000
vt 0.625000 0.875000
vt 0.625000 0.875000
vt 0.375000 0.875000
vt 0.375000 0.875000
vt 0.625000 0.000000
vt 0.750000 0.000000
vt 0.875000 0.000000
vt 0.875000 0.250000
vt 0.625000 0.250000
vt 0.625000 0.000000
vt 0.750000 0.000000
vt 0.875000 0.000000
vt 0.875000 0.250000
vt 0.625000 0.250000
vn 0.000000 0.000000 1.000000
vn 0.000000 0.000000 1.000000
vn 0.000000 0.000000 1.000000
vn 0.000000 0.000000 1.000000
vn 0.000000 1.000000 0.000000
vn 0.000000 1.000000 0.000000
vn 0.000000 1.000000 0.000000
vn 0.000000 1.000000 0.000000
vn 0.000000 0.000000 -1.000000
vn 0.000000 0.000000 -1.000000
vn 0.000000 0.000000 -1.000000
vn 0.000000 0.000000 -1.000000
vn 0.000000 -1.000000 0.000000
vn 0.000000 -1.000000 0.000000
vn 0.000000 -1.000000 0.000000
vn 0.000000 -1.000000 0.000000
vn 1.000000 0.000000 0.000000
vn 1.000000 0.000000 0.000000
vn 1.000000 0.000000 0.000000
vn 1.000000 0.000000 0.000000
vn 1.000000 0.000000 0.000000
vn -1.000000 0.000000 0.000000
vn -1.000000 0.000000 0.000000
vn -1.000000 0.000000 0.000000
vn -1.000000 0.000000 0.000000
vn -1.000000 0.000000 0.000000
vn 0.000000 -1.000000 0.000000
vn 0.000000 -1.000000 0.000000
vn 0.000000 -1.000000 0.000000
vn 0.000000 -1.000000 0.000000
vn 0.000000 0.000000 -1.000000
vn 0.000000 0.000000 -1.000000
vn 0.000000 0.000000 -1.000000
vn 0.000000 0.000000 -1.000000
vn 1.000000 0.000000 0.000000
vn 1.000000 0.000000 0.000000
vn 1.000000 0.000000 0.000000
vn 1.000000 0.000000 0.000000
vn 0.000000 0.000000 1.000000
vn 0.000000 0.000000 1.000000
vn 0.000000 0.000000 1.000000
vn 0.000000 0.000000 1.000000
vn -1.000000 0.000000 0.000000
vn -1.000000 0.000000 0.000000
vn -1.000000 0.000000 0.000000
vn -1.000000 0.000000 0.000000
vn 0.000000 0.000000 -1.000000
vn 0.000000 0.000000 -1.000000
vn 0.000000 0.000000 -1.000000
vn 0.000000 0.000000 -1.000000
vn 0.742025 -0.670372 0.000000
vn 0.742025 -0.670372 0.000000
vn 0.742025 -0.670372 0.000000
vn 0.742025 -0.670372 0.000000
vn 0.000000 0.000000 1.000000
vn 0.000000 0.000000 1.000000
vn 0.000000 0.000000 1.000000
vn 0.000000 0.000000 1.000000
vn -0.742025 0.670372 0.000000
vn -0.742025 0.670372 0.000000
vn -0.742025 0.670372 0.000000
vn -0.742025 0.670372 0.000000
vn 0.000000 0.000000 -1.000000
vn 0.000000 0.000000 -1.000000
vn 0.000000 0.000000 -1.000000
vn 0.000000 0.000000 -1.000000
vn 0.356121 -0.934440 0.000000
vn 0.356121 -0.934440 0.000000
vn 0.356121 -0.934440 0.000000
vn 0.356121 -0.934440 0.000000
vn 0.000000 0.000000 1.000000
vn 0.000000 0.000000 1.000000
vn 0.000000 0.000000 1.000000
vn 0.000000 0.000000 1.000000
vn -0.356121 0.934440 0.000000
vn -0.356121 0.934440 0.000000
vn -0.356121 0.934440 0.000000
vn -0.356121 0.934440 0.000000
vn 0.000000 0.000000 -1.000000
vn 0.000000 0.000000 -1.000000
vn 0.000000 0.000000 -1.000000
vn 0.000000 0.000000 -1.000000
vn 1.000000 0.000000 0.000000
vn 1.000000 0.000000 0.000000
vn 1.000000 0.000000 0.000000
vn 1.000000 0.000000 0.000000
vn 0.000000 0.000000 1.000000
vn 0.000000 0.000000 1.000000
vn 0.000000 0.000000 1.000000
vn 0.000000 0.000000 1.000000
vn -1.000000 0.000000 0.000000
vn -1.000000 0.000000 0.000000
vn -1.000000 0.000000 0.000000
vn -1.000000 0.000000 0.000000
vn 0.000000 1.000000 0.000000
vn 0.000000 1.000000 0.000000
vn 0.000000 1.000000 0.000000
vn 0.000000 1.000000 0.000000
vn 0.000000 0.000000 1.000000
vn 0.000000 0.000000 1.000000
vn 0.000000 0.000000 1.000000
vn 0.000000 0.000000 1.000000
vn 0.000000 -1.000000 0.000000
vn 0.000000 -1.000000 0.000000
vn 0.000000 -1.000000 0.000000
vn 0.000000 -1.000000 0.000000
vn 0.000000 0.000000 -1.000000
vn 0.000000 0.000000 -1.000000
vn 0.000000 0.000000 -1.000000
vn 0.000000 0.000000 -1.000000
vn 0.000000 1.000000 0.000000
vn 0.000000 1.000000 0.000000
vn 0.000000 1.000000 0.000000
vn 0.000000 1.000000 0.000000
vn 0.000000 0.000000 -1.000000
vn 0.000000 0.000000 -1.000000
vn 0.000000 0.000000 -1.000000
vn 0.000000 0.000000 -1.000000
vn 0.000000 -1.000000 0.000000
vn 0.000000 -1.000000 0.000000
vn 0.000000 -1.000000 0.000000
vn 0.000000 -1.000000 0.000000
vn 0.000000 0.000000 1.000000
vn 0.000000 0.000000 1.000000
vn 0.000000 0.000000 1.000000
vn 0.000000 0.000000 1.000000
vn 0.000000 1.000000 0.000000
vn 0.000000 1.000000 0.000000
vn 0.000000 1.000000 0.000000
vn 0.000000 1.000000 0.000000
vn 0.000000 -1.000000 0.000000
vn 0.000000 -1.000000 0.000000
vn 0.000000 -1.000000 0.000000
vn 0.000000 -1.000000 0.000000
vn 0.000000 -1.000000 0.000000
vn 0.000000 -1.000000 0.000000
vn 0.000000 -1.000000 0.000000
vn 0.000000 -1.000000 0.000000
vn 1.000000 0.000000 0.000000
vn 1.000000 0.000000 0.000000
vn 1.000000 0.000000 0.000000
vn 1.000000 0.000000 0.000000
vn 0.000000 1.000000 0.000000
vn 0.000000 1.000000 0.000000
vn 0.000000 1.000000 0.000000
vn 0.000000 1.000000 0.000000
vn 0.000000 1.000000 0.000000
vn 0.000000 1.000000 0.000000
vn 0.000000 1.000000 0.000000
vn 0.000000 1.000000 0.000000
vn -1.000000 0.000000 0.000000
vn -1.000000 0.000000 0.000000
vn -1.000000 0.000000 0.000000
vn -1.000000 0.000000 0.000000
vn 0.000000 -1.000000 0.000000
vn 0.000000 -1.000000 0.000000
vn 0.000000 -1.000000 0.000000
vn 0.000000 -1.000000 0.000000
vn 1.000000 0.000000 0.000000
vn 1.000000 0.000000 0.000000
vn 1.000000 0.000000 0.000000
vn 1.000000 0.000000 0.000000
vn 1.000000 0.000000 0.000000
vn 1.000000 0.000000 0.000000
vn 1.000000 0.000000 0.000000
vn 1.000000 0.000000 0.000000
vn 0.000000 1.000000 0.000000
vn 0.000000 1.000000 0.000000
vn 0.000000 1.000000 0.000000
vn 0.000000 1.000000 0.000000
vn 0.000000 1.000000 0.000000
vn 0.000000 1.000000 0.000000
vn 0.000000 1.000000 0.000000
vn 0.000000 1.000000 0.000000
vn 0.000000 0.000000 1.000000
vn 0.000000 0.000000 1.000000
vn 0.000000 0.000000 1.000000
vn 0.000000 0.000000 1.000000
vn 0.000000 -1.000000 0.000000
vn 0.000000 -1.000000 0.000000
vn 0.000000 -1.000000 0.000000
vn 0.000000 -1.000000 0.000000
vn 0.000000 0.000000 -1.000000
vn 0.000000 0.000000 -1.000000
vn 0.000000 0.000000 -1.000000
vn 0.000000 0.000000 -1.000000
s off
g pCube1
usemtl initialShadingGroup
f 1/1/1 2/2/2 4/4/3 3/3/4
f 3/3/5 4/4/6 6/6/7 5/5/8
f 5/5/9 6/6/10 8/8/11 7/7/12
f 9/16/13 10/17/14 2/10/15 1/9/16
f 49/56/17 48/57/18 50/58/19 51/59/20 52/60/21
f 7/13/22 9/15/23 1/1/24 3/3/25 5/14/26
f 23/31/27 24/32/28 25/33/29 26/34/30
f 7/7/31 8/8/32 12/20/33 11/19/34
s 1
f 8/8/35 10/17/36 13/21/37 12/20/38
s off
f 10/17/39 9/16/40 14/22/41 13/21/42
f 9/16/43 7/7/44 11/19/45 14/22/46
f 11/19/47 12/20/48 16/24/49 15/23/50
f 12/20/51 13/21/52 17/25/53 16/24/54
f 13/21/55 14/22/56 18/26/57 17/25/58
f 14/22/59 11/19/60 15/23/61 18/26/62
f 15/23/63 16/24/64 20/28/65 19/27/66
f 16/24/67 17/25/68 21/29/69 20/28/70
f 17/25/71 18/26/72 22/30/73 21/29/74
f 18/26/75 15/23/76 19/27/77 22/30/78
f 19/27/79 20/28/80 24/32/81 23/31/82
f 27/35/83 28/36/84 29/37/85 30/38/86
f 36/43/87 35/44/88 37/45/89 38/46/90
f 32/39/91 31/40/92 33/41/93 34/42/94
f 20/28/95 21/29/96 28/36/97 27/35/98
f 36/43/99 38/46/100 39/47/101 40/48/102
f 25/33/103 24/32/104 30/38/105 29/37/106
f 24/32/107 20/28/108 27/35/109 30/38/110
f 22/30/111 19/27/112 31/40/113 32/39/114
f 19/27/115 23/31/116 33/41/117 31/40/118
f 23/31/119 26/34/120 34/42/121 33/41/122
f 37/45/123 35/44/124 41/49/125 42/50/126
f 21/29/127 22/30/128 35/44/129 36/43/130
f 26/34/131 25/33/132 38/46/133 37/45/134
f 25/33/135 29/37/136 39/47/137 38/46/138
f 29/37/139 28/36/140 40/48/141 39/47/142
f 28/36/143 21/29/144 36/43/145 40/48/146
f 22/30/147 32/39/148 41/49/149 35/44/150
f 32/39/151 34/42/152 42/50/153 41/49/154
f 34/42/155 26/34/156 37/45/157 42/50/158
s 1
f 2/2/159 10/18/36 43/52/160 44/51/161
f 10/18/36 8/11/35 45/53/162 43/52/160
f 8/11/35 6/12/163 46/54/164 45/53/162
f 6/12/163 4/4/165 47/55/166 46/54/164
f 4/4/165 2/2/159 44/51/161 47/55/166
s off
f 44/51/167 43/52/168 48/57/169 49/56/170
f 43/52/171 45/53/172 50/58/173 48/57/174
f 45/53/175 46/54/176 51/59/177 50/58/178
f 46/54/179 47/55/180 52/60/181 51/59/182
f 47/55/183 44/51/184 49/56/185 52/60/186
