# This file uses centimeters as units for non-parametric coordinates.

v -3.746396 -0.059539 1.602189
v 3.746396 -0.059539 1.602189
v -3.746396 0.059539 1.602189
v 3.746396 0.059539 1.602189
v -3.746396 0.059539 -1.602189
v 3.746396 0.059539 -1.602189
v -3.746396 -0.059539 -1.602189
v 3.746396 -0.059539 -1.602189
v -3.440592 0.212480 1.276553
v 3.440592 0.212480 1.276553
v 3.440592 0.212480 -1.276553
v -3.440592 0.212480 -1.276553
v -1.138370 0.212480 -0.057059
v 1.138370 0.212480 -0.057059
v 1.138370 0.212480 -0.987377
v -1.138370 0.212480 -0.987377
v -1.138370 5.773066 -0.075727
v 1.138370 5.773066 -0.075727
v 1.138370 5.773066 -0.665851
v -1.138370 5.773066 -0.665851
v -0.968875 4.565238 -0.075726
v 0.968875 4.565238 -0.075726
v 0.968875 5.633567 -0.075727
v -0.968875 5.633567 -0.075727
v -0.968875 4.565238 0.193902
v 0.968875 4.565238 0.193902
v 0.968875 5.633567 0.193901
v -0.968875 5.633567 0.193901
v -7.772613 0.814155 0.193905
v 7.772613 0.814166 0.193905
v 7.772613 9.384627 0.193897
v -7.772613 9.384629 0.193897
v -7.772613 0.814155 0.648584
v 7.772613 0.814166 0.648584
v 7.772613 9.384627 0.648577
v -7.772613 9.384629 0.648576
v -7.507410 1.536000 0.648583
v 7.507410 1.536010 0.648583
v 7.507410 9.171498 0.648577
v -7.507410 9.171501 0.648577
v -7.507410 1.536000 0.551385
v 7.507410 1.536010 0.551385
v 7.507410 9.171498 0.551379
v -7.507410 9.171501 0.551378
v -1.334296 0.947307 0.648584
v 1.334296 0.947313 0.648584
v 1.288771 1.402858 0.648583
v -1.288771 1.402852 0.648583
v -1.334296 0.947307 0.698947
v 1.334296 0.947313 0.698947
v 1.288771 1.402858 0.698947
v -1.288771 1.402852 0.698947
v 1.138370 3.965673 -0.171146
v 1.138370 3.965673 -0.685627
v 1.138370 5.457214 -0.507818
v 1.138370 5.457214 -0.181470
v 0.899809 3.965673 -0.171146
v 0.899809 3.965673 -0.685627
v 0.899809 5.457214 -0.507818
v 0.899809 5.457214 -0.181470
vt 0.284380 0.001992
vt 0.298219 0.001992
vt 0.298219 0.015831
vt 0.284380 0.015831
vt 0.296812 0.033605
vt 0.285786 0.033605
vt 0.304358 0.001992
vt 0.318196 0.001992
vt 0.318196 0.015831
vt 0.304358 0.015831
vt 0.316790 0.033605
vt 0.305764 0.033605
vt 0.180860 0.001992
vt 0.183082 0.001992
vt 0.182314 0.175331
vt 0.180905 0.175331
vt 0.148169 0.001992
vt 0.152187 0.001992
vt 0.152107 0.648215
vt 0.149558 0.648215
vt 0.205634 0.001992
vt 0.205634 0.126148
vt 0.204470 0.126148
vt 0.204470 0.001992
vt 0.211734 0.126148
vt 0.211734 0.001992
vt 0.212899 0.001992
vt 0.212899 0.126148
vt 0.081120 0.001992
vt 0.081120 0.998007
vt 0.079156 0.998007
vt 0.079156 0.001992
vt 0.035569 0.998008
vt 0.035569 0.001992
vt 0.037532 0.001992
vt 0.037532 0.998008
vt 0.130428 0.001992
vt 0.130428 0.889349
vt 0.130008 0.889349
vt 0.130008 0.001992
vt 0.122743 0.889350
vt 0.122743 0.001992
vt 0.123163 0.001992
vt 0.123163 0.889350
vt 0.230113 0.001992
vt 0.230113 0.054933
vt 0.229896 0.054933
vt 0.229896 0.001992
vt 0.237160 0.054933
vt 0.237160 0.001992
vt 0.237378 0.001992
vt 0.237378 0.054933
vt 0.169963 0.001992
vt 0.173981 0.001992
vt 0.172678 0.438169
vt 0.170456 0.438169
vt 0.172592 0.648215
vt 0.171910 0.611508
vt 0.170044 0.648215
vt 0.170500 0.611508
vt 0.409694 0.006197
vt 0.409694 0.001992
vt 0.412243 0.001992
vt 0.412243 0.006197
vt 0.357026 0.001992
vt 0.370865 0.001992
vt 0.370865 0.015831
vt 0.357026 0.015831
vt 0.377003 0.014701
vt 0.377003 0.001992
vt 0.382763 0.006244
vt 0.382763 0.010449
vt 0.388029 0.001992
vt 0.386781 0.006244
vt 0.388029 0.014701
vt 0.386781 0.010449
vt 0.418775 0.005571
vt 0.418775 0.001992
vt 0.419939 0.001992
vt 0.419939 0.005571
vt 0.427204 0.001992
vt 0.427204 0.005571
vt 0.426039 0.005571
vt 0.426039 0.001992
vt 0.324335 0.030703
vt 0.324335 0.001992
vt 0.326299 0.001992
vt 0.326299 0.030703
vt 0.335380 0.001992
vt 0.335380 0.030703
vt 0.333416 0.030703
vt 0.333416 0.001992
vt 0.342497 0.029723
vt 0.342497 0.001992
vt 0.342916 0.001992
vt 0.342916 0.029723
vt 0.350181 0.001992
vt 0.350181 0.029723
vt 0.349761 0.029723
vt 0.349761 0.001992
vt 0.395165 0.006921
vt 0.395165 0.001992
vt 0.395382 0.001992
vt 0.395382 0.006921
vt 0.402647 0.001992
vt 0.402647 0.006753
vt 0.402429 0.006753
vt 0.402429 0.001992
vt 0.433744 0.001992
vt 0.433744 0.004214
vt 0.433304 0.004214
vt 0.433304 0.001992
vt 0.441009 0.001992
vt 0.441009 0.003401
vt 0.440568 0.003401
vt 0.440568 0.001992
vt 0.244425 0.001992
vt 0.258264 0.001992
vt 0.258264 0.015831
vt 0.244425 0.015831
vt 0.257699 0.033605
vt 0.244990 0.033605
vt 0.264403 0.019766
vt 0.278241 0.019766
vt 0.278241 0.033605
vt 0.264403 0.033605
vt 0.264967 0.001992
vt 0.277676 0.001992
vt 0.189706 0.562782
vt 0.985860 0.562783
vt 0.985860 0.967651
vt 0.189706 0.967651
vt 0.141478 0.648215
vt 0.137273 0.648215
vt 0.137273 0.001992
vt 0.141478 0.001992
vt 0.159066 0.001992
vt 0.163271 0.001992
vt 0.162958 0.507847
vt 0.159379 0.507847
vt 0.163271 0.648215
vt 0.162958 0.632003
vt 0.159066 0.648215
vt 0.159379 0.632003
vt 0.013446 0.562077
vt 0.017025 0.562077
vt 0.029591 0.998007
vt 0.000880 0.998008
vt 0.017025 0.437921
vt 0.029591 0.001992
vt 0.013446 0.437921
vt 0.000880 0.001992
vt 0.218999 0.001992
vt 0.223928 0.001993
vt 0.223844 0.054934
vt 0.219083 0.054933
vt 0.073360 0.001993
vt 0.073360 0.998008
vt 0.072870 0.973239
vt 0.072870 0.085882
vt 0.044649 0.998008
vt 0.045139 0.973239
vt 0.061385 0.070408
vt 0.061469 0.017467
vt 0.044649 0.001992
vt 0.045139 0.085881
vt 0.056625 0.070407
vt 0.056540 0.017466
vt 0.190381 0.001992
vt 0.190381 0.175331
vt 0.189941 0.175331
vt 0.189941 0.001992
vt 0.197646 0.001992
vt 0.197646 0.175331
vt 0.197205 0.175331
vt 0.197205 0.001992
vn 0.000000 0.000000 1.000000
vn 0.000000 0.000000 1.000000
vn 0.000000 0.000000 1.000000
vn 0.000000 0.000000 1.000000
vn 0.000000 1.000000 0.000000
vn 0.000000 1.000000 0.000000
vn 0.000000 1.000000 0.000000
vn 0.000000 1.000000 0.000000
vn 0.000000 0.000000 -1.000000
vn 0.000000 0.000000 -1.000000
vn 0.000000 0.000000 -1.000000
vn 0.000000 0.000000 -1.000000
vn 0.000000 -1.000000 0.000000
vn 0.000000 -1.000000 0.000000
vn 0.000000 -1.000000 0.000000
vn 0.000000 -1.000000 0.000000
vn 1.000000 0.000000 0.000000
vn 1.000000 0.000000 0.000000
vn 1.000000 0.000000 0.000000
vn 1.000000 0.000000 0.000000
vn -1.000000 0.000000 0.000000
vn -1.000000 0.000000 0.000000
vn -1.000000 0.000000 0.000000
vn -1.000000 0.000000 0.000000
vn 0.000000 0.905140 0.425114
vn 0.000000 0.905140 0.425114
vn 0.000000 0.905140 0.425114
vn 0.000000 0.905140 0.425114
vn 0.447303 0.894382 0.000000
vn 0.447303 0.894382 0.000000
vn 0.447303 0.894382 0.000000
vn 0.447303 0.894382 0.000000
vn 0.000000 0.905140 -0.425114
vn 0.000000 0.905140 -0.425114
vn 0.000000 0.905140 -0.425114
vn 0.000000 0.905140 -0.425114
vn -0.447303 0.894382 0.000000
vn -0.447303 0.894382 0.000000
vn -0.447303 0.894382 0.000000
vn -0.447303 0.894382 0.000000
vn 0.000000 1.000000 -0.000000
vn 0.000000 1.000000 -0.000000
vn 0.000000 1.000000 -0.000000
vn 0.000000 1.000000 -0.000000
vn 0.000000 1.000000 0.000000
vn 0.000000 1.000000 0.000000
vn 0.000000 1.000000 0.000000
vn 0.000000 1.000000 0.000000
vn 0.000000 1.000000 0.000000
vn 0.000000 1.000000 0.000000
vn 0.000000 1.000000 0.000000
vn 0.000000 1.000000 0.000000
vn 0.000000 1.000000 0.000000
vn 0.000000 1.000000 0.000000
vn 0.000000 1.000000 0.000000
vn 0.000000 1.000000 0.000000
vn -0.000000 0.000001 1.000000
vn -0.000000 0.000001 1.000000
vn -0.000000 0.000001 1.000000
vn -0.000000 0.000001 1.000000
vn 1.000000 -0.000000 0.000000
vn 1.000000 -0.000000 0.000000
vn 1.000000 -0.000000 0.000000
vn 1.000000 -0.000000 0.000000
vn 0.000000 0.057726 -0.998332
vn 0.000000 0.057726 -0.998332
vn 0.000000 0.057726 -0.998332
vn 0.000000 0.057726 -0.998332
vn -1.000000 0.000000 0.000000
vn -1.000000 0.000000 0.000000
vn -1.000000 0.000000 0.000000
vn -1.000000 0.000000 0.000000
vn 0.000000 0.004288 0.999991
vn 0.000000 0.004288 0.999991
vn 0.000000 0.004288 0.999991
vn 0.000000 0.004288 0.999991
vn -0.020059 0.002816 0.999795
vn -0.020059 0.002816 0.999795
vn -0.020059 0.002816 0.999795
vn -0.020059 0.002816 0.999795
vn 0.000000 0.000001 1.000000
vn 0.000000 0.000001 1.000000
vn 0.000000 0.000001 1.000000
vn 0.000000 0.000001 1.000000
vn 0.020059 0.002816 0.999795
vn 0.020059 0.002816 0.999795
vn 0.020059 0.002816 0.999795
vn 0.020059 0.002816 0.999795
vn 0.000000 -1.000000 0.000000
vn 0.000000 -1.000000 0.000000
vn 0.000000 -1.000000 0.000000
vn 0.000000 -1.000000 0.000000
vn 1.000000 0.000000 0.000000
vn 1.000000 0.000000 0.000000
vn 1.000000 0.000000 0.000000
vn 1.000000 0.000000 0.000000
vn 0.000000 1.000000 0.000000
vn 0.000000 1.000000 0.000000
vn 0.000000 1.000000 0.000000
vn 0.000000 1.000000 0.000000
vn -1.000000 0.000000 0.000000
vn -1.000000 0.000000 0.000000
vn -1.000000 0.000000 0.000000
vn -1.000000 0.000000 0.000000
vn 0.000000 -0.000001 -1.000000
vn 0.000000 -0.000001 -1.000000
vn 0.000000 -0.000001 -1.000000
vn 0.000000 -0.000001 -1.000000
vn -0.000000 -0.000001 -1.000000
vn -0.000000 -0.000001 -1.000000
vn -0.000000 -0.000001 -1.000000
vn -0.000000 -0.000001 -1.000000
vn 0.000000 -0.000001 -1.000000
vn 0.000000 -0.000001 -1.000000
vn 0.000000 -0.000001 -1.000000
vn 0.000000 -0.000001 -1.000000
vn 0.000000 -0.000001 -1.000000
vn 0.000000 -0.000001 -1.000000
vn 0.000000 -0.000001 -1.000000
vn 0.000000 -0.000001 -1.000000
vn 0.000001 -1.000000 0.000000
vn 0.000001 -1.000000 0.000000
vn 0.000001 -1.000000 0.000000
vn 0.000001 -1.000000 0.000000
vn 1.000000 0.000000 0.000000
vn 1.000000 0.000000 0.000000
vn 1.000000 0.000000 0.000000
vn 1.000000 0.000000 0.000000
vn 0.000000 1.000000 0.000000
vn 0.000000 1.000000 0.000000
vn 0.000000 1.000000 0.000000
vn 0.000000 1.000000 0.000000
vn -1.000000 -0.000000 0.000000
vn -1.000000 -0.000000 0.000000
vn -1.000000 -0.000000 0.000000
vn -1.000000 -0.000000 0.000000
vn -0.000000 0.000000 1.000000
vn -0.000000 0.000000 1.000000
vn -0.000000 0.000000 1.000000
vn -0.000000 0.000000 1.000000
vn 0.000001 0.000001 1.000000
vn 0.000001 0.000001 1.000000
vn 0.000001 0.000001 1.000000
vn 0.000001 0.000001 1.000000
vn -0.000000 0.000001 1.000000
vn -0.000000 0.000001 1.000000
vn -0.000000 0.000001 1.000000
vn -0.000000 0.000001 1.000000
vn -0.000001 0.000001 1.000000
vn -0.000001 0.000001 1.000000
vn -0.000001 0.000001 1.000000
vn -0.000001 0.000001 1.000000
vn -0.000001 1.000000 0.000000
vn -0.000001 1.000000 0.000000
vn -0.000001 1.000000 0.000000
vn -0.000001 1.000000 0.000000
vn -1.000000 -0.000000 0.000000
vn -1.000000 -0.000000 0.000000
vn -1.000000 -0.000000 0.000000
vn -1.000000 -0.000000 0.000000
vn -0.000000 -1.000000 0.000000
vn -0.000000 -1.000000 0.000000
vn -0.000000 -1.000000 0.000000
vn -0.000000 -1.000000 0.000000
vn 1.000000 -0.000000 0.000000
vn 1.000000 -0.000000 0.000000
vn 1.000000 -0.000000 0.000000
vn 1.000000 -0.000000 0.000000
vn 0.000000 0.000000 1.000000
vn 0.000000 0.000000 1.000000
vn 0.000000 0.000000 1.000000
vn 0.000000 0.000000 1.000000
vn 0.000000 0.000000 1.000000
vn 0.000000 0.000000 1.000000
vn 0.000000 0.000000 1.000000
vn 0.000000 0.000000 1.000000
vn 0.000000 0.000000 1.000000
vn 0.000000 0.000000 1.000000
vn 0.000000 0.000000 1.000000
vn 0.000000 0.000000 1.000000
vn 0.000000 0.000000 1.000000
vn 0.000000 0.000000 1.000000
vn 0.000000 0.000000 1.000000
vn 0.000000 0.000000 1.000000
vn 0.000002 -1.000000 0.000000
vn 0.000002 -1.000000 0.000000
vn 0.000002 -1.000000 0.000000
vn 0.000002 -1.000000 0.000000
vn 0.995044 0.099441 0.000000
vn 0.995044 0.099441 0.000000
vn 0.995044 0.099441 0.000000
vn 0.995044 0.099441 0.000000
vn -0.000002 1.000000 0.000000
vn -0.000002 1.000000 0.000000
vn -0.000002 1.000000 0.000000
vn -0.000002 1.000000 0.000000
vn -0.995043 0.099441 0.000000
vn -0.995043 0.099441 0.000000
vn -0.995043 0.099441 0.000000
vn -0.995043 0.099441 0.000000
vn 1.000000 -0.000000 0.000000
vn 1.000000 -0.000000 0.000000
vn 1.000000 -0.000000 0.000000
vn 1.000000 -0.000000 0.000000
vn 1.000000 0.000000 0.000000
vn 1.000000 0.000000 0.000000
vn 1.000000 0.000000 0.000000
vn 1.000000 0.000000 0.000000
vn 1.000000 0.000000 0.000000
vn 1.000000 0.000000 0.000000
vn 1.000000 0.000000 0.000000
vn 1.000000 0.000000 0.000000
vn 1.000000 0.000000 0.000000
vn 1.000000 0.000000 0.000000
vn 1.000000 0.000000 0.000000
vn 1.000000 0.000000 0.000000
vn 0.000000 1.000000 0.000000
vn 0.000000 1.000000 0.000000
vn 0.000000 1.000000 0.000000
vn 0.000000 1.000000 0.000000
vn 0.000000 -0.118374 0.992969
vn 0.000000 -0.118374 0.992969
vn 0.000000 -0.118374 0.992969
vn 0.000000 -0.118374 0.992969
vn 0.000000 -1.000000 0.000000
vn 0.000000 -1.000000 0.000000
vn 0.000000 -1.000000 0.000000
vn 0.000000 -1.000000 0.000000
vn 0.000000 -0.006921 -0.999976
vn 0.000000 -0.006921 -0.999976
vn 0.000000 -0.006921 -0.999976
vn 0.000000 -0.006921 -0.999976
g Low_Poly_TV
f 1/117/1 2/118/2 4/119/3 3/120/4
f 17/61/5 18/62/6 19/63/7 20/64/8
f 5/123/9 6/124/10 8/125/11 7/126/12
f 7/65/13 8/66/14 2/67/15 1/68/16
f 2/1/17 8/2/18 6/3/19 4/4/20
f 7/7/21 1/8/22 3/9/23 5/10/24
f 3/120/25 4/119/26 10/121/27 9/122/28
f 4/4/29 6/3/30 11/5/31 10/6/32
f 6/124/33 5/123/34 12/127/35 11/128/36
f 5/10/37 3/9/38 9/11/39 12/12/40
f 9/69/41 10/70/42 14/71/43 13/72/44
f 10/70/45 11/73/46 15/74/47 14/71/48
f 11/73/49 12/75/50 16/76/51 15/74/52
f 12/75/53 9/69/54 13/72/55 16/76/56
f 41/129/57 42/130/58 43/131/59 44/132/60
f 57/13/61 58/14/62 59/15/63 60/16/64
f 15/133/65 16/134/66 20/135/67 19/136/68
f 16/17/69 13/18/70 17/19/71 20/20/72
f 13/137/73 14/138/74 22/139/75 21/140/76
f 14/138/77 18/141/78 23/142/79 22/139/80
f 18/141/81 17/143/82 24/144/83 23/142/84
f 17/143/85 13/137/86 21/140/87 24/144/88
f 21/77/89 22/78/90 26/79/91 25/80/92
f 22/21/93 23/22/94 27/23/95 26/24/96
f 23/81/97 24/82/98 28/83/99 27/84/100
f 24/25/101 21/26/102 25/27/103 28/28/104
f 25/145/105 26/146/106 30/147/107 29/148/108
f 26/146/109 27/149/110 31/150/111 30/147/112
f 27/149/113 28/151/114 32/152/115 31/150/116
f 28/151/117 25/145/118 29/148/119 32/152/120
f 29/85/121 30/86/122 34/87/123 33/88/124
f 30/29/125 31/30/126 35/31/127 34/32/128
f 31/89/129 32/90/130 36/91/131 35/92/132
f 32/33/133 29/34/134 33/35/135 36/36/136
f 49/153/137 50/154/138 51/155/139 52/156/140
f 34/157/141 35/158/142 39/159/143 38/160/144
f 35/158/145 36/161/146 40/162/147 39/159/148
f 36/161/149 33/165/150 37/166/151 40/162/152
f 37/93/153 38/94/154 42/95/155 41/96/156
f 38/37/157 39/38/158 43/39/159 42/40/160
f 39/97/161 40/98/162 44/99/163 43/100/164
f 40/41/165 37/42/166 41/43/167 44/44/168
f 33/165/169 34/157/170 46/164/171 45/168/172
f 34/157/173 38/160/174 47/163/175 46/164/176
f 38/160/177 37/166/178 48/167/179 47/163/180
f 37/166/181 33/165/182 45/168/183 48/167/184
f 45/101/185 46/102/186 50/103/187 49/104/188
f 46/45/189 47/46/190 51/47/191 50/48/192
f 47/105/193 48/106/194 52/107/195 51/108/196
f 48/49/197 45/50/198 49/51/199 52/52/200
f 14/53/201 15/54/202 54/55/203 53/56/204
f 15/54/205 19/57/206 55/58/207 54/55/208
f 19/57/209 18/59/210 56/60/211 55/58/212
f 18/59/213 14/53/214 53/56/215 56/60/216
f 53/109/217 54/110/218 58/111/219 57/112/220
f 54/169/221 55/170/222 59/171/223 58/172/224
f 55/113/225 56/114/226 60/115/227 59/116/228
f 56/173/229 53/174/230 57/175/231 60/176/232
