# This file uses centimeters as units for non-parametric coordinates.

mtllib GlassN.mtl
g default
v 0.707107 -1.000000 -0.707107
v 0.000000 -1.000000 -1.000000
v -0.707107 -1.000000 -0.707107
v -1.000000 -1.000000 0.000000
v -0.707107 -1.000000 0.707107
v 0.000000 -1.000000 1.000000
v 0.707107 -1.000000 0.707107
v 1.000000 -1.000000 0.000000
v 1.051378 2.935218 -1.051378
v 0.000000 2.935218 -1.486873
v -1.051378 2.935218 -1.051378
v -1.486873 2.935218 -0.000000
v -1.051378 2.935218 1.051378
v 0.000000 2.935218 1.486873
v 1.051378 2.935218 1.051378
v 1.486873 2.935218 -0.000000
v 0.000000 -1.000000 0.000000
v 0.918367 2.935218 -0.918367
v 0.000000 2.935218 -1.298768
v -0.918367 2.935218 -0.918367
v -1.298768 2.935218 -0.000000
v -0.918367 2.935218 0.918367
v 0.000000 2.935218 1.298768
v 0.918367 2.935218 0.918367
v 1.298768 2.935218 -0.000000
v 0.575559 -0.825001 -0.575559
v 0.000000 -0.825001 -0.813964
v 0.000000 -0.825001 0.000000
v -0.575559 -0.825001 -0.575559
v -0.813964 -0.825001 0.000000
v -0.575559 -0.825001 0.575559
v 0.000000 -0.825001 0.813964
v 0.575559 -0.825001 0.575559
v 0.813964 -0.825001 0.000000
vt 0.235690 0.001992
vt 0.301199 0.001992
vt 0.301199 0.366566
vt 0.203796 0.366566
vt 0.366709 0.001992
vt 0.398603 0.366566
vt 0.639128 0.001992
vt 0.704637 0.001992
vt 0.704637 0.366566
vt 0.607233 0.366566
vt 0.770146 0.001992
vt 0.802041 0.366566
vt 0.771673 0.718718
vt 0.686591 0.718718
vt 0.686591 0.370356
vt 0.739914 0.370356
vt 0.601510 0.718718
vt 0.633269 0.370356
vt 0.419696 0.718718
vt 0.334615 0.718718
vt 0.334615 0.370356
vt 0.387937 0.370356
vt 0.249534 0.718718
vt 0.281293 0.370356
vt 0.283373 0.815152
vt 0.310508 0.749643
vt 0.376017 0.815152
vt 0.376017 0.722508
vt 0.310508 0.880661
vt 0.441526 0.749643
vt 0.376017 0.907796
vt 0.468661 0.815152
vt 0.441526 0.880661
vt 0.604569 0.851239
vt 0.551247 0.873326
vt 0.551247 0.797917
vt 0.497925 0.851239
vt 0.626656 0.797917
vt 0.475838 0.797917
vt 0.604569 0.744595
vt 0.497925 0.744595
vt 0.551247 0.722508
vt 0.237045 0.957662
vt 0.139641 0.998008
vt 0.139641 0.980581
vt 0.224723 0.945339
vt 0.042238 0.957662
vt 0.054560 0.945339
vt 0.277391 0.860258
vt 0.259964 0.860258
vt 0.001892 0.860258
vt 0.019318 0.860258
vt 0.237045 0.762854
vt 0.224723 0.775177
vt 0.042238 0.762854
vt 0.054560 0.775177
vt 0.139641 0.722508
vt 0.139641 0.739935
vt 0.164805 0.366566
vt 0.099295 0.366566
vt 0.099295 0.001992
vt 0.196699 0.001992
vt 0.033786 0.366566
vt 0.001892 0.001992
vt 0.437409 0.001992
vt 0.502918 0.001992
vt 0.502918 0.366566
vt 0.405514 0.366566
vt 0.568427 0.001992
vt 0.600322 0.366566
vt 0.947661 0.718718
vt 0.862580 0.718718
vt 0.862580 0.370356
vt 0.915902 0.370356
vt 0.777498 0.718718
vt 0.809258 0.370356
vt 0.425522 0.370356
vt 0.510603 0.370356
vt 0.510603 0.718718
vt 0.457281 0.718718
vt 0.595684 0.370356
vt 0.563925 0.718718
vn 0.380208 -0.113565 -0.917902
vn 0.380208 -0.113565 -0.917902
vn 0.380208 -0.113565 -0.917902
vn 0.380208 -0.113565 -0.917903
vn -0.380208 -0.113565 -0.917902
vn -0.380208 -0.113565 -0.917902
vn -0.380208 -0.113565 -0.917902
vn -0.380208 -0.113565 -0.917902
vn -0.917903 -0.113565 -0.380208
vn -0.917902 -0.113565 -0.380208
vn -0.917902 -0.113565 -0.380208
vn -0.917903 -0.113565 -0.380208
vn -0.917902 -0.113565 0.380208
vn -0.917903 -0.113565 0.380208
vn -0.917903 -0.113565 0.380208
vn -0.917902 -0.113565 0.380208
vn -0.380208 -0.113565 0.917902
vn -0.380208 -0.113565 0.917902
vn -0.380208 -0.113565 0.917903
vn -0.380208 -0.113565 0.917902
vn 0.380208 -0.113565 0.917902
vn 0.380208 -0.113565 0.917902
vn 0.380208 -0.113565 0.917903
vn 0.380208 -0.113565 0.917903
vn 0.917903 -0.113565 0.380208
vn 0.917903 -0.113565 0.380208
vn 0.917903 -0.113565 0.380208
vn 0.917903 -0.113565 0.380208
vn 0.917902 -0.113565 -0.380208
vn 0.917902 -0.113565 -0.380208
vn 0.917902 -0.113565 -0.380208
vn 0.917903 -0.113565 -0.380208
vn 0.000000 -1.000000 0.000000
vn 0.000000 -1.000000 0.000000
vn 0.000000 -1.000000 0.000000
vn 0.000000 -1.000000 0.000000
vn 0.000000 -1.000000 0.000000
vn 0.000000 -1.000000 0.000000
vn 0.000000 -1.000000 0.000000
vn 0.000000 -1.000000 0.000000
vn 0.000000 -1.000000 0.000000
vn 0.000000 1.000000 0.000000
vn 0.000000 1.000000 0.000000
vn 0.000000 1.000000 -0.000000
vn 0.000000 1.000000 0.000000
vn 0.000000 1.000000 0.000000
vn 0.000000 1.000000 0.000000
vn 0.000000 1.000000 0.000000
vn 0.000000 1.000000 -0.000000
vn 0.000000 1.000000 -0.000000
vn 0.000000 1.000000 -0.000000
vn 0.000000 1.000000 -0.000000
vn 0.000000 1.000000 -0.000000
vn 0.000000 1.000000 -0.000000
vn 0.000000 1.000000 0.000000
vn 0.000000 1.000000 0.000000
vn 0.000000 1.000000 0.000000
vn 0.000000 1.000000 0.000000
vn 0.000000 1.000000 0.000000
vn 0.000000 1.000000 0.000000
vn 0.000000 1.000000 0.000000
vn 0.000000 1.000000 0.000000
vn 0.000000 1.000000 0.000000
vn 0.000000 1.000000 0.000000
vn 0.000000 1.000000 0.000000
vn 0.000000 1.000000 0.000000
vn 0.000000 1.000000 0.000000
vn 0.000000 1.000000 0.000000
vn 0.000000 1.000000 0.000000
vn 0.000000 1.000000 0.000000
vn 0.000000 1.000000 0.000000
vn 0.000000 1.000000 0.000000
vn 0.000000 1.000000 0.000000
vn 0.000000 1.000000 0.000000
vn 0.000000 1.000000 0.000000
vn 0.000000 1.000000 0.000000
vn 0.000000 1.000000 0.000000
vn 0.000000 1.000000 0.000000
vn 0.000000 1.000000 0.000000
vn 0.000000 1.000000 0.000000
vn 0.000000 1.000000 0.000000
vn 0.000000 1.000000 0.000000
vn -0.379998 0.118279 0.917394
vn -0.379998 0.118279 0.917394
vn -0.379998 0.118279 0.917394
vn -0.379998 0.118279 0.917394
vn 0.379997 0.118279 0.917394
vn 0.379997 0.118279 0.917394
vn 0.379997 0.118279 0.917394
vn 0.379998 0.118279 0.917394
vn 0.917394 0.118279 0.379998
vn 0.917394 0.118279 0.379998
vn 0.917394 0.118279 0.379998
vn 0.917394 0.118279 0.379998
vn 0.917394 0.118279 -0.379997
vn 0.917394 0.118279 -0.379997
vn 0.917394 0.118279 -0.379997
vn 0.917394 0.118279 -0.379998
vn 0.379998 0.118279 -0.917394
vn 0.379998 0.118279 -0.917394
vn 0.379998 0.118279 -0.917394
vn 0.379998 0.118279 -0.917394
vn -0.379998 0.118279 -0.917394
vn -0.379998 0.118279 -0.917394
vn -0.379998 0.118279 -0.917394
vn -0.379998 0.118279 -0.917394
vn -0.917394 0.118279 -0.379997
vn -0.917394 0.118279 -0.379997
vn -0.917394 0.118279 -0.379997
vn -0.917394 0.118279 -0.379997
vn -0.917394 0.118279 0.379998
vn -0.917394 0.118279 0.379998
vn -0.917394 0.118279 0.379998
vn -0.917394 0.118279 0.379998
s off
g GlassN
usemtl initialShadingGroup
f 1/59/1 2/60/2 10/61/3 9/62/4
f 2/60/5 3/63/6 11/64/7 10/61/8
f 3/1/9 4/2/10 12/3/11 11/4/12
f 4/2/13 5/5/14 13/6/15 12/3/16
f 5/65/17 6/66/18 14/67/19 13/68/20
f 6/66/21 7/69/22 15/70/23 14/67/24
f 7/7/25 8/8/26 16/9/27 15/10/28
f 8/8/29 1/11/30 9/12/31 16/9/32
s 1
f 2/25/33 1/26/34 17/27/35
f 3/29/36 2/25/33 17/27/35
f 4/31/37 3/29/36 17/27/35
f 5/33/38 4/31/37 17/27/35
f 6/32/39 5/33/38 17/27/35
f 7/30/40 6/32/39 17/27/35
f 8/28/41 7/30/40 17/27/35
f 1/26/34 8/28/41 17/27/35
s 2
f 26/34/42 27/35/43 28/36/44
f 27/35/43 29/37/45 28/36/44
f 29/37/45 30/39/46 28/36/44
f 30/39/46 31/41/47 28/36/44
f 31/41/47 32/42/48 28/36/44
f 32/42/48 33/40/49 28/36/44
f 33/40/49 34/38/50 28/36/44
f 34/38/50 26/34/42 28/36/44
s off
f 9/43/51 10/44/52 19/45/53 18/46/54
f 10/44/55 11/47/56 20/48/57 19/45/58
f 11/47/59 12/51/60 21/52/61 20/48/62
f 12/51/63 13/55/64 22/56/65 21/52/66
f 13/55/67 14/57/68 23/58/69 22/56/70
f 14/57/71 15/53/72 24/54/73 23/58/74
f 15/53/75 16/49/76 25/50/77 24/54/78
f 16/49/79 9/43/80 18/46/81 25/50/82
f 18/71/83 19/72/84 27/73/85 26/74/86
f 19/72/87 20/75/88 29/76/89 27/73/90
f 20/13/91 21/14/92 30/15/93 29/16/94
f 21/14/95 22/17/96 31/18/97 30/15/98
f 22/77/99 23/78/100 32/79/101 31/80/102
f 23/78/103 24/81/104 33/82/105 32/79/106
f 24/19/107 25/20/108 34/21/109 33/22/110
f 25/20/111 18/23/112 26/24/113 34/21/114
